<?xml version="1.0" encoding="UTF-8"?>
<svg version="1.1" xmlns="http://www.w3.org/2000/svg" width="512" height="512">
<path d="M0 0 C8.12851859 6.36556478 13.34273866 15.11461699 15.0625 25.3125 C16.04225248 36.23433088 14.2718752 46.63413988 7.4375 55.4375 C6.31753232 56.73353247 5.19321058 58.02582935 4.0625 59.3125 C3.4025 60.3025 2.7425 61.2925 2.0625 62.3125 C3.39087891 62.69921875 3.39087891 62.69921875 4.74609375 63.09375 C17.55151799 67.79963029 24.70982509 80.62213142 32.0625 91.3125 C33.33554357 93.13812841 34.62247669 94.954374 35.9375 96.75 C36.38867188 97.38808594 36.83984375 98.02617187 37.3046875 98.68359375 C43.07657612 104.03221053 49.96113986 103.72790294 57.3671875 103.68359375 C59.5820328 103.70097591 61.79687651 103.7185603 64.01171875 103.73632812 C67.47642953 103.74638997 70.94103694 103.74999826 74.40576172 103.74829102 C77.7682113 103.75187674 81.12987815 103.77927575 84.4921875 103.80859375 C85.51746552 103.80041122 86.54274353 103.7922287 87.59909058 103.78379822 C94.8663925 103.8583882 101.32746626 104.98729471 106.91134644 109.95848083 C112.51227826 115.84517677 114.43830508 122.23353134 114.265625 130.234375 C114.0625 132.3125 114.0625 132.3125 113.0625 136.3125 C117.6825 136.3125 122.3025 136.3125 127.0625 136.3125 C126.7325 134.9925 126.4025 133.6725 126.0625 132.3125 C125.23854702 125.3696831 126.49881973 119.34487498 130.0625 113.3125 C134.60636654 108.07255177 139.37589512 104.67122588 146.47622681 104.12774658 C149.42036481 104.05159856 152.35956871 104.03623266 155.3046875 104.0390625 C157.52734879 104.01877433 159.75000501 103.99792356 161.97265625 103.9765625 C165.45723776 103.95397679 168.9416182 103.93749308 172.42626953 103.93164062 C175.8027734 103.92209034 179.17838478 103.88828496 182.5546875 103.8515625 C183.58826385 103.85660797 184.62184021 103.86165344 185.68673706 103.86685181 C192.95648535 103.76857062 198.56126605 102.64634428 204.0234375 97.4453125 C204.49007813 96.78273438 204.95671875 96.12015625 205.4375 95.4375 C205.99953125 94.66019531 206.5615625 93.88289063 207.140625 93.08203125 C207.77484375 92.16808594 208.4090625 91.25414062 209.0625 90.3125 C210.3279456 88.5304512 211.59844918 86.75208343 212.86962891 84.97412109 C213.72546637 83.77328505 214.57696796 82.56934264 215.42333984 81.36181641 C219.43044337 75.67227942 223.3048592 70.48504231 229.125 66.5 C229.96160156 65.91605469 230.79820312 65.33210938 231.66015625 64.73046875 C233.86162216 63.43106692 235.56588255 62.75647123 238.0625 62.3125 C237.45921875 61.58546875 236.8559375 60.8584375 236.234375 60.109375 C227.69285474 49.36359145 223.61460567 39.35001213 225.0625 25.3125 C226.32419923 18.45079724 229.03940605 12.96006091 233.0625 7.3125 C233.64 6.44625 234.2175 5.58 234.8125 4.6875 C242.40095181 -3.32253246 253.07167857 -7.65136237 264.0625 -8.1875 C274.88218441 -7.65971052 285.53949124 -3.50697245 293.02734375 4.3828125 C301.49647115 14.66035823 304.09795008 25.13269965 303.0625 38.3125 C301.15434569 47.7268276 296.78897734 54.58602266 290.0625 61.3125 C291.34833984 62.22128906 291.34833984 62.22128906 292.66015625 63.1484375 C303.70357139 71.15535741 311.04671439 79.85683783 314.59684753 93.34225464 C315.26695573 97.61665647 315.22698107 101.84002689 315.23950195 106.16064453 C315.24607315 107.14832321 315.25264435 108.13600189 315.25941467 109.15361023 C315.27910047 112.41751183 315.29080072 115.68136748 315.30078125 118.9453125 C315.30485678 120.0633514 315.3089323 121.1813903 315.31313133 122.33330917 C315.33397344 128.25280318 315.34828239 134.17227414 315.35766602 140.09179688 C315.36871752 146.18786926 315.40310868 152.28357537 315.44283772 158.37951851 C315.4690567 163.08261771 315.47736263 167.78563038 315.48094749 172.48879623 C315.48580091 174.73492782 315.49737911 176.98105587 315.51598549 179.22711563 C315.54048561 182.38103016 315.53939169 185.53400658 315.5324707 188.68798828 C315.55168579 190.06157249 315.55168579 190.06157249 315.57128906 191.46290588 C315.50743545 199.50508041 313.59017472 206.8106593 308.84265137 213.38787842 C306.27508704 217.60614558 306.51962143 221.25933587 306.58007812 226.10644531 C306.57420937 227.5613311 306.57420937 227.5613311 306.56822205 229.04560852 C306.56225739 231.14573773 306.56539834 233.24590836 306.5766449 235.34601593 C306.59393584 238.67641874 306.58638161 242.00595563 306.5723877 245.33636475 C306.54276461 253.60956418 306.55590221 261.88259754 306.56756592 270.15582275 C306.57578937 277.14635124 306.56774401 284.13650115 306.53843689 291.12697601 C306.53137266 294.3963566 306.54798575 297.66506006 306.56555176 300.93438721 C306.55983981 302.95658728 306.55302052 304.97878464 306.54492188 307.00097656 C306.55623642 307.90002213 306.56755096 308.79906769 306.57920837 309.72535706 C306.51059894 316.93801362 304.97748734 324.08419349 300.02734375 329.56640625 C299.02380859 330.21416016 299.02380859 330.21416016 298 330.875 C297.32839844 331.33003906 296.65679687 331.78507812 295.96484375 332.25390625 C292.68240485 334.08047902 290.00987123 334.44217399 286.32725525 334.46640015 C285.35312683 334.47500061 284.37899841 334.48360107 283.37535095 334.49246216 C282.30781082 334.49672211 281.24027069 334.50098206 280.14038086 334.50537109 C279.01483795 334.51354858 277.88929504 334.52172607 276.72964478 334.53015137 C272.99554985 334.55501242 269.26149303 334.57152548 265.52734375 334.5859375 C264.25176668 334.59126118 262.97618961 334.59658485 261.66195869 334.60206985 C256.29781474 334.62330309 250.9336841 334.64243125 245.56951046 334.65369225 C237.90029588 334.66990111 230.23159037 334.70300275 222.56256765 334.76009309 C216.50827432 334.80361321 210.45421091 334.8194527 204.39975166 334.82582474 C201.83180689 334.8325309 199.26386933 334.84773623 196.69602776 334.87171555 C193.09375584 334.90342876 189.49275645 334.90339337 185.89038086 334.89599609 C184.83701035 334.91240143 183.78363983 334.92880676 182.698349 334.94570923 C175.00054375 334.88128005 168.01069521 333.18622215 162.35284328 327.63509178 C158.89383598 323.41946442 157.32698603 318.71121525 157.0625 313.3125 C158.65867013 301.87769425 161.96882818 290.67128415 164.9921875 279.55078125 C165.46936293 277.78498028 165.94633845 276.01912528 166.42312622 274.2532196 C167.41652663 270.57892881 168.41377356 266.90570844 169.41357422 263.2331543 C170.68542593 258.5592368 171.94525788 253.88217311 173.20194817 249.20415974 C174.18121374 245.56577515 175.16802738 241.92946878 176.1569252 238.29369164 C176.62429374 236.57104783 177.08913401 234.84771575 177.5512352 233.1236515 C185.97896426 201.72741426 185.97896426 201.72741426 197.72802734 194.25292969 C202.87502841 191.33634272 208.25579302 188.97822815 213.8046875 186.93359375 C217.45329155 185.11804138 218.17871232 183.79803935 220.0625 180.3125 C211.26526713 180.37371596 202.46835889 180.45082521 193.67145157 180.54821491 C189.58665185 180.59293812 185.50195231 180.63218976 181.41699219 180.65893555 C177.47458213 180.68494936 173.53255719 180.72533761 169.59038544 180.77568626 C168.08655336 180.79236809 166.58265464 180.8038742 165.07874298 180.81011391 C162.97168122 180.81974112 160.86560761 180.84778123 158.75878906 180.88012695 C157.55965881 180.89123001 156.36052856 180.90233307 155.12506104 180.91377258 C151.79363094 181.34750517 150.40696106 181.94451599 148.0625 184.3125 C147.00422728 187.48731817 146.93261529 189.73975252 146.92446899 193.07518005 C146.91901566 194.27674744 146.91356232 195.47831482 146.90794373 196.71629333 C146.90682397 198.04971308 146.90577345 199.38313289 146.90478516 200.71655273 C146.90011649 202.11935587 146.89497283 203.52215749 146.88938904 204.92495728 C146.87811104 207.94678543 146.86967551 210.96860374 146.86326981 213.99044609 C146.85259141 218.76792452 146.83234782 223.5453321 146.81015015 228.32276917 C146.7482178 241.90826174 146.69418684 255.4937499 146.66113281 269.0793457 C146.64279908 276.5817807 146.61388103 284.08409681 146.5731281 291.58644444 C146.55204105 295.55707947 146.53659841 299.5275646 146.53432083 303.49825859 C146.53217649 307.23215589 146.51632945 310.96574081 146.48993111 314.699543 C146.47929288 316.72406017 146.48349599 318.74863824 146.4881134 320.7731781 C146.47147392 322.57975891 146.47147392 322.57975891 146.45449829 324.4228363 C146.45118814 325.46978385 146.447878 326.5167314 146.44446754 327.59540462 C146.00873241 330.6949714 145.22045612 332.07699703 143.0625 334.3125 C140.97558594 334.82043457 140.97558594 334.82043457 138.546875 334.83007812 C137.63583008 334.84268677 136.72478516 334.85529541 135.78613281 334.86828613 C134.31418457 334.85614075 134.31418457 334.85614075 132.8125 334.84375 C131.8028418 334.8475769 130.79318359 334.85140381 129.75292969 334.85534668 C127.6178284 334.85806918 125.48269396 334.85068443 123.34765625 334.83398438 C120.07476624 334.81258022 116.80407153 334.83377531 113.53125 334.859375 C111.45832848 334.85673178 109.38540832 334.85160694 107.3125 334.84375 C106.33120117 334.85184692 105.34990234 334.85994385 104.33886719 334.86828613 C102.9722998 334.84937317 102.9722998 334.84937317 101.578125 334.83007812 C100.77665039 334.82689575 99.97517578 334.82371338 99.14941406 334.82043457 C97.0625 334.3125 97.0625 334.3125 95.45572662 332.64801693 C93.7045668 329.71248344 93.68628558 327.84503734 93.68395996 324.43629456 C93.67575729 323.23479767 93.66755463 322.03330078 93.65910339 320.7953949 C93.66525162 319.48047562 93.67139984 318.16555634 93.67773438 316.81079102 C93.6736285 315.40946002 93.66816753 314.00813244 93.66145325 312.60681152 C93.64973052 309.59094935 93.64724304 306.57527017 93.65180969 303.55938911 C93.65861807 298.78989952 93.64275368 294.02065081 93.62341309 289.25120544 C93.58554964 279.12581661 93.57275703 269.00044877 93.5625 258.875 C93.55142751 247.94726224 93.53608277 237.01963529 93.49178743 226.09197372 C93.47343032 221.35152081 93.4695391 216.61134306 93.47672272 211.87086308 C93.47824499 208.92060752 93.46745811 205.97048952 93.45334435 203.0202713 C93.44743626 201.0018964 93.45644472 198.98349508 93.46589661 196.96513367 C93.45769394 195.76081696 93.44949127 194.55650024 93.44104004 193.31568909 C93.44032753 192.27096215 93.43961502 191.22623522 93.43888092 190.14984989 C93.00282524 186.86264143 92.01074292 184.97363989 90.0625 182.3125 C87.21773215 180.89011608 84.77377112 181.14825442 81.59326172 181.10717773 C80.92972687 181.09727814 80.26619202 181.08737854 79.58255005 181.07717896 C77.38579903 181.04555084 75.18902637 181.02080146 72.9921875 180.99609375 C71.47046339 180.97552534 69.948745 180.9545289 68.42703247 180.93312073 C64.4190535 180.87788829 60.41102287 180.82848422 56.4029541 180.78027344 C52.31416213 180.73006695 48.22544532 180.67437644 44.13671875 180.61914062 C36.11204268 180.51154472 28.0873038 180.41010296 20.0625 180.3125 C22.47271795 184.65633913 23.90291737 186.06925873 28.625 187.75 C41.97488559 192.95146326 51.2128672 200.0207719 57.0625 213.3125 C58.12495679 216.38133339 58.96996337 219.491012 59.7956543 222.63085938 C60.15987991 223.97395927 60.15987991 223.97395927 60.53146362 225.3441925 C61.32502595 228.27933709 62.10615794 231.21762356 62.88671875 234.15625 C63.43851301 236.2108951 63.9909164 238.2653767 64.54389954 240.31970215 C65.69817422 244.61518938 66.84655493 248.91219411 67.99047852 253.21044922 C69.45364557 258.70719819 70.92916599 264.20053565 72.4088316 269.69286346 C73.54968898 273.93147817 74.68512367 278.17153026 75.81882668 282.4120636 C76.36084701 284.43774184 76.90426567 286.46304648 77.44913292 288.48796082 C78.21059128 291.3219648 78.96500256 294.15775381 79.7175293 296.99414062 C79.9414183 297.82242874 80.16530731 298.65071686 80.39598083 299.50410461 C83.07633119 309.68098205 83.77824991 317.62415016 78.5 327.125 C71.27569554 333.60835016 63.75414794 335.04917491 54.31396484 334.94360352 C53.18418716 334.95075882 52.05440948 334.95791412 50.89039612 334.96528625 C47.18432237 334.98209006 43.47947227 334.96282008 39.7734375 334.94140625 C37.18372498 334.94223559 34.59401251 334.94469741 32.00430298 334.94871521 C26.589281 334.9515674 21.17470606 334.93746151 15.75976562 334.90942383 C9.51679358 334.87734615 3.27444621 334.87740507 -2.96857035 334.8946386 C-8.99999705 334.9105483 -15.03113518 334.90364367 -21.06257248 334.88670158 C-23.61817287 334.8815291 -26.17379123 334.88199019 -28.72938919 334.88824654 C-32.30256792 334.89371198 -35.87469508 334.87327984 -39.44775391 334.84594727 C-40.49731766 334.85247314 -41.54688141 334.85899902 -42.62825012 334.86572266 C-50.14096714 334.7682761 -55.77128018 333.39314631 -61.25 328.0625 C-65.49761843 321.14045516 -66.37226109 315.20495025 -66.29052734 307.25976562 C-66.29268753 306.28633713 -66.29484772 305.31290863 -66.29707336 304.3099823 C-66.30014736 302.20878561 -66.29659304 300.10757075 -66.28705978 298.00639343 C-66.27326231 294.67646917 -66.27979372 291.34713687 -66.29190063 288.01721191 C-66.32278303 278.55424014 -66.31797976 269.09140879 -66.29785156 259.62841797 C-66.28692033 253.82890658 -66.3001507 248.02984184 -66.32774734 242.23039246 C-66.33317747 240.02646664 -66.3291508 237.82249586 -66.31534958 235.61860657 C-66.29625043 232.53365499 -66.30773099 229.45016174 -66.32568359 226.36523438 C-66.31234482 225.46214035 -66.29900604 224.55904633 -66.28526306 223.62858582 C-66.35736992 218.0371052 -67.46238116 214.8633858 -70.6480875 210.29787064 C-74.91253753 203.73169117 -75.37924918 196.66514969 -75.34155273 189.04199219 C-75.34841599 188.05694199 -75.35527924 187.07189178 -75.36235046 186.05699158 C-75.38054107 182.82430297 -75.37679086 179.59210346 -75.37109375 176.359375 C-75.37566024 174.09409428 -75.3809672 171.82881494 -75.38697815 169.5635376 C-75.39589487 164.82273725 -75.39350359 160.08210547 -75.38354492 155.34130859 C-75.37207535 149.2948167 -75.39224381 143.24891057 -75.42146206 137.20249557 C-75.43989766 132.52502807 -75.43951664 127.84769892 -75.43382454 123.17020416 C-75.43367213 120.94248891 -75.43964946 118.71476381 -75.45211601 116.48708344 C-75.52856207 100.58423748 -75.0703538 87.37084965 -64.9375 74.3125 C-64.195 73.28125 -63.4525 72.25 -62.6875 71.1875 C-58.8894765 67.21683907 -54.516899 64.31800847 -49.9375 61.3125 C-50.39640625 60.8278125 -50.8553125 60.343125 -51.328125 59.84375 C-60.07913386 50.28382435 -63.47150716 40.93398433 -63.25 27.87890625 C-62.40116624 18.19159098 -57.87884182 9.10209236 -50.90234375 2.33984375 C-35.81467424 -10.1932997 -16.2460377 -11.05878382 0 0 Z M-42.9375 15.3125 C-43.659375 16.116875 -44.38125 16.92125 -45.125 17.75 C-49.21090506 23.52662439 -49.60878322 29.43983846 -48.9375 36.3125 C-47.43053301 43.3661186 -43.60709135 48.72220022 -37.74609375 52.859375 C-31.28962858 56.54878367 -25.27623201 57.50334965 -17.9375 56.3125 C-10.22620303 53.84705717 -4.74056797 49.52428798 -0.91015625 42.40234375 C2.04109901 35.56141566 1.95469817 29.17069308 -0.5 22.1875 C-3.60453534 15.22122559 -7.89789882 10.95092633 -14.875 7.875 C-25.31627675 4.2370891 -35.68620877 6.56829586 -42.9375 15.3125 Z M244.53515625 15.3359375 C240.27879684 21.04871697 238.35414135 26.68550096 238.67578125 33.828125 C239.73645656 40.64216035 243.10778131 46.57320387 248.0625 51.3125 C254.99087066 56.13556466 261.71725457 57.66667571 270.0625 56.3125 C277.78304301 53.84410104 283.2057678 49.52630781 287.08984375 42.4375 C289.70585488 36.45804598 290.1881541 30.12519937 288.3359375 23.8515625 C285.09989465 15.93246578 279.56179494 11.18887512 272.0625 7.3125 C261.80902174 4.1591092 251.63347354 7.44891829 244.53515625 15.3359375 Z M-53.9375 83.3125 C-59.6800966 90.77516681 -61.2373742 97.75594559 -61.22802734 107.03051758 C-61.23474457 107.99229416 -61.24146179 108.95407074 -61.24838257 109.94499207 C-61.26733702 113.11572476 -61.27128554 116.28624547 -61.2734375 119.45703125 C-61.27986734 121.66892076 -61.28659584 123.88080941 -61.29360962 126.09269714 C-61.30557611 130.72693859 -61.3092911 135.36110553 -61.30810547 139.99536133 C-61.30790235 145.92012138 -61.33520007 151.84440138 -61.36964989 157.76904774 C-61.39193826 162.33739903 -61.3959424 166.90563517 -61.39488602 171.47403526 C-61.39723921 173.65761659 -61.4060468 175.84120122 -61.42155075 178.02472878 C-61.44124884 181.08558953 -61.43535723 184.14541983 -61.42333984 187.20629883 C-61.43457886 188.09958893 -61.44581787 188.99287903 -61.45739746 189.91323853 C-61.38569485 197.1366527 -59.42108083 202.92187226 -55.140625 208.765625 C-50.71807589 212.83437018 -46.62038918 214.98352931 -40.859375 216.69921875 C-40.16932373 216.90675278 -39.47927246 217.1142868 -38.76831055 217.32810974 C-29.00011574 220.23683728 -19.15899599 222.9107153 -9.32470703 225.58569336 C-6.77685553 226.28014904 -4.23206031 226.98500072 -1.6875 227.69140625 C-0.54510864 227.99782799 -0.54510864 227.99782799 0.62036133 228.31044006 C7.41854603 230.21197532 13.89304876 232.8566068 19.25 237.5625 C19.86230469 238.08328125 20.47460938 238.6040625 21.10546875 239.140625 C27.12480727 245.82076915 29.97796775 253.78168703 32.96875 262.140625 C33.65229873 264.01371848 34.33584993 265.88681106 35.01953888 267.75985336 C35.96834843 270.36635392 36.90871637 272.9758678 37.84918213 275.58538818 C39.49105307 280.13618184 41.14560616 284.68237563 42.80114746 289.22821045 C43.6785506 291.64002182 44.55255336 294.05307408 45.42248535 296.46759033 C47.43329803 302.01562445 49.49737492 307.54017836 51.68164062 313.02246094 C52.0666272 313.99246033 52.45161377 314.96245972 52.8482666 315.96185303 C53.97139158 318.60180419 53.97139158 318.60180419 57.0625 320.3125 C60.89069986 320.63830424 63.96792109 320.74395485 67.0625 318.3125 C69.55025475 313.10407964 68.74730597 309.2465556 67.24169922 303.91137695 C67.02408432 303.08936295 66.80646942 302.26734894 66.58226013 301.42042542 C65.86005586 298.70924746 65.11401142 296.00527142 64.3671875 293.30078125 C63.85691653 291.4079252 63.34799546 289.51470477 62.84036255 287.62113953 C61.77255818 283.65157047 60.69389102 279.68517997 59.60644531 275.72094727 C58.2198813 270.66592005 56.85192625 265.60611361 55.49113274 260.54409504 C54.1854754 255.69039557 52.87042348 250.83925643 51.5546875 245.98828125 C51.30763943 245.07441462 51.06059135 244.16054798 50.80605698 243.21898842 C46.08351501 221.83226588 46.08351501 221.83226588 33.0625 205.3125 C29.37223153 203.54209223 25.55858215 202.0562628 21.74414062 200.57617188 C15.26091542 197.87980123 11.33342174 194.39349273 7.91479492 188.25 C6.61557971 183.77215484 6.81835969 179.39914589 6.8671875 174.76171875 C6.8700174 173.74777542 6.87284729 172.73383209 6.87576294 171.68916321 C6.88693375 168.45932073 6.91203289 165.22975829 6.9375 162 C6.9475338 159.80664464 6.95665895 157.61328492 6.96484375 155.41992188 C6.98686293 150.05068614 7.02030977 144.68161308 7.0625 139.3125 C10.99748198 138.02442359 14.96505323 138.1677849 19.05639648 138.1706543 C19.85849548 138.16717987 20.66059448 138.16370544 21.48699951 138.16012573 C23.22594449 138.15278368 24.96489875 138.14743005 26.70385551 138.14383507 C29.45703067 138.13665765 32.21002885 138.12098258 34.96315002 138.10249329 C42.78994358 138.05007595 50.61663808 138.00202976 58.44360352 137.98657227 C63.23353143 137.9764929 68.02301065 137.94717363 72.81276131 137.90525246 C74.63675608 137.89294093 76.4608142 137.88782148 78.28484917 137.89005089 C80.83679023 137.89240306 83.38744215 137.87024643 85.93920898 137.8425293 C86.69105972 137.84913071 87.44291046 137.85573212 88.21754456 137.86253357 C93.10123138 137.77548434 95.6434581 136.80952654 99.0625 133.3125 C100.15923607 130.66029691 100.266707 128.16572561 100.0625 125.3125 C98.48819236 121.69159244 97.37367074 120.51994716 94.0625 118.3125 C91.85226749 118.00593337 91.85226749 118.00593337 89.38256836 118.04125977 C87.95979836 118.02597984 87.95979836 118.02597984 86.50828552 118.01039124 C85.48332474 118.00825119 84.45836395 118.00611115 83.40234375 118.00390625 C81.22460691 117.97872825 79.04687259 117.95333051 76.86914062 117.92773438 C73.44182092 117.89909791 70.01454563 117.87508012 66.5871582 117.85620117 C63.27530985 117.83439535 59.96400205 117.79492491 56.65234375 117.75390625 C55.136157 117.75373253 55.136157 117.75373253 53.58934021 117.7535553 C43.80550116 117.61909483 34.79303907 115.82375824 27.53125 108.83984375 C23.37630939 104.38112211 20.07052118 99.42041799 16.6875 94.375 C9.09128056 83.13844046 1.30494008 74.64795602 -12.1875 71 C-28.32367218 68.07389835 -42.85574192 70.76282247 -53.9375 83.3125 Z M228.0625 87.3125 C225.16476264 91.18363224 222.59282607 95.25756793 219.99609375 99.33398438 C214.35259667 107.92402477 207.91269026 114.4725179 197.66711426 116.87394714 C195.08511302 117.30869252 192.69232748 117.44356416 190.07617188 117.4543457 C189.11167114 117.46138016 188.14717041 117.46841461 187.15344238 117.47566223 C186.1231189 117.47982651 185.09279541 117.48399078 184.03125 117.48828125 C181.83722988 117.51146902 179.64321941 117.53558592 177.44921875 117.56054688 C173.9994448 117.59571853 170.55002951 117.62504836 167.10009766 117.63842773 C163.76421182 117.65388707 160.42936238 117.69406983 157.09375 117.73828125 C155.54826477 117.73541862 155.54826477 117.73541862 153.97155762 117.73249817 C149.48951044 117.80913176 146.81253086 117.85534056 142.92382812 120.22558594 C140.44081483 123.00953107 140.16408389 124.73470693 139.921875 128.34765625 C140.13424562 131.3149458 141.19441057 133.0441057 143.0625 135.3125 C146.7786074 137.78990493 149.65627676 137.61213909 153.95874023 137.61547852 C154.7622995 137.62391785 155.56585876 137.63235718 156.39376831 137.64105225 C159.05288273 137.66686428 161.71188602 137.67897955 164.37109375 137.69140625 C166.21811301 137.70757912 168.0651237 137.72475889 169.91212463 137.74290466 C174.77837156 137.788632 179.64462994 137.82341223 184.51098633 137.85510254 C192.29698477 137.90693288 200.08285676 137.97216594 207.86870003 138.04331779 C210.58965575 138.06614253 213.31059552 138.08242091 216.03160095 138.09803772 C217.70002414 138.11144704 219.36844568 138.12506207 221.03686523 138.13891602 C221.79388229 138.14152939 222.55089935 138.14414276 223.33085632 138.14683533 C226.70979712 138.18015678 229.83180698 138.25784236 233.0625 139.3125 C233.16435277 145.7169834 233.23415458 152.12125607 233.28222656 158.52636719 C233.30227764 160.70287888 233.32952571 162.87933714 233.36425781 165.05566406 C233.41306212 168.19349393 233.43553438 171.33060835 233.453125 174.46875 C233.47377014 175.43365356 233.49441528 176.39855713 233.51568604 177.3927002 C233.51822815 185.13665832 231.82538245 190.47733284 226.375 196.0703125 C221.98608116 199.3702722 216.77965509 201.14278525 211.6953125 203.09765625 C205.30699669 205.73256765 201.17886903 209.00804364 198.08764648 215.29524231 C194.83679214 223.29085815 192.65918387 231.55606787 190.4375 239.87890625 C190.00484539 241.48310811 189.57173082 243.08718599 189.13818359 244.69114685 C188.23356716 248.04286145 187.3329642 251.3956184 186.43554688 254.74926758 C185.2986278 258.99753631 184.15411635 263.24370984 183.00680542 267.48918247 C182.11221598 270.80134242 181.22058507 274.11429311 180.32989502 277.42750359 C179.90957066 278.99058229 179.48865514 280.55350218 179.06707764 282.11624336 C177.89980743 286.44855356 176.75011291 290.7848275 175.62805176 295.12907791 C175.2367927 296.63960928 174.84124554 298.14903405 174.44226074 299.65754318 C173.82965974 301.98687721 173.23677715 304.32044078 172.6484375 306.65600586 C172.4586734 307.36588685 172.2689093 308.07576784 172.07339478 308.80716038 C171.351291 311.74798807 170.8922426 313.79615781 171.85400391 316.71290588 C173.43415005 318.80442483 174.56931155 319.48143718 177.0625 320.3125 C180.0625 320.8125 180.0625 320.8125 183.0625 320.3125 C186.4064092 317.55347528 187.8818426 314.94571294 189.3671875 310.9140625 C189.7787207 309.81296143 190.19025391 308.71186035 190.61425781 307.57739258 C191.2692627 305.77564575 191.2692627 305.77564575 191.9375 303.9375 C192.40872867 302.67105749 192.8810881 301.40503523 193.35449219 300.1394043 C195.86747658 293.39626062 198.31240694 286.62927603 200.7328186 279.85241699 C201.9517516 276.44510863 203.18111254 273.04159617 204.41070557 269.63812256 C205.2947574 267.17444512 206.1610685 264.70500701 207.02685547 262.23486328 C211.51935418 249.6377157 216.62233935 238.71493289 229.02854919 232.2951355 C235.06861721 229.54153777 241.18438999 227.74409124 247.59765625 226.0703125 C249.81071023 225.47326143 252.02359592 224.87558625 254.23632812 224.27734375 C257.68601407 223.35307065 261.13692874 222.43436594 264.59106445 221.52685547 C267.95188836 220.64047908 271.30610981 219.73194933 274.66015625 218.8203125 C275.68432144 218.55759552 276.70848663 218.29487854 277.76368713 218.02420044 C286.91103962 215.5106001 293.56459939 211.07424204 299.0625 203.3125 C301.33141975 198.05854532 301.35870007 193.22937326 301.35302734 187.61035156 C301.35974457 186.65018127 301.36646179 185.69001099 301.37338257 184.70074463 C301.3923387 181.53481837 301.39628578 178.36910444 301.3984375 175.203125 C301.40486776 172.99363112 301.4115963 170.7841381 301.41860962 168.574646 C301.43057692 163.9446007 301.43429107 159.31462998 301.43310547 154.68457031 C301.43290247 148.76887629 301.46018747 142.85366371 301.49464989 136.93808365 C301.51695425 132.37398102 301.5209419 127.80999352 301.51988602 123.24584198 C301.5222373 121.06587823 301.531034 118.88591108 301.54655075 116.70600128 C301.56627912 113.6477397 301.56034521 110.59050685 301.54833984 107.53222656 C301.55957886 106.64253174 301.57081787 105.75283691 301.58239746 104.83618164 C301.48155731 94.66088984 297.65309886 86.88870907 290.703125 79.58203125 C270.86103565 62.52840121 244.1971621 69.39776797 228.0625 87.3125 Z M20.0625 151.3125 C20.0625 156.2625 20.0625 161.2125 20.0625 166.3125 C23.18827515 166.33437378 23.18827515 166.33437378 26.37719727 166.35668945 C33.27841746 166.40712845 40.17941422 166.47373976 47.08041477 166.54821491 C51.26265583 166.59285637 55.44480087 166.63212597 59.62719727 166.65893555 C63.66687145 166.68503098 67.70617493 166.72547685 71.74561882 166.77568626 C73.28325715 166.79231295 74.82095953 166.80385331 76.358675 166.81011391 C78.52018812 166.81980122 80.6807618 166.847913 82.84204102 166.88012695 C84.68403831 166.89678154 84.68403831 166.89678154 86.56324768 166.91377258 C92.96358643 167.64306853 98.77806948 170.37776251 103.0625 175.3125 C107.60331284 182.44099543 107.64180312 189.58861241 107.60839844 197.81860352 C107.61714868 199.15982758 107.62763949 200.50104122 107.63972473 201.84223938 C107.66742837 205.45737778 107.67099292 209.07217292 107.67000484 212.68740201 C107.67314751 216.47510418 107.6987937 220.2626548 107.72198486 224.05027771 C107.76244523 231.21108464 107.78286203 238.37180073 107.79595876 245.53270429 C107.8118627 253.69003365 107.85029249 261.84720917 107.89055204 270.00444901 C107.97281452 286.77375897 108.02619278 303.54302684 108.0625 320.3125 C115.9825 320.3125 123.9025 320.3125 132.0625 320.3125 C132.06614563 318.62866714 132.06979126 316.94483429 132.07354736 315.2099762 C132.11050405 299.33393409 132.16804827 283.45810573 132.24640274 267.58221531 C132.28615887 259.42044827 132.31856871 251.25877717 132.33349609 243.09692383 C132.34653044 235.98043184 132.37354036 228.86415126 132.41711307 221.74777836 C132.43968807 217.98202868 132.45541308 214.21653936 132.45438385 210.45071602 C132.45363487 206.90059135 132.47167979 203.35104132 132.50366783 199.80106544 C132.51614605 197.88842378 132.50912135 195.97568541 132.50135803 194.0630188 C132.59493246 186.28333621 133.3348573 179.37477514 138.78302383 173.43752384 C144.21039844 168.31179136 149.7779198 167.07370484 157.16943359 166.99365234 C158.19487274 166.97858391 158.19487274 166.97858391 159.24102783 166.96321106 C161.48098985 166.93253591 163.72083322 166.91538815 165.9609375 166.8984375 C167.52178965 166.87971319 169.08263181 166.86013884 170.64346313 166.8397522 C174.73685807 166.78855826 178.83028577 166.74886468 182.92382812 166.71160889 C187.10685244 166.67148907 191.28974193 166.62043323 195.47265625 166.5703125 C203.66918525 166.4737041 211.86577052 166.39026303 220.0625 166.3125 C220.0625 161.3625 220.0625 156.4125 220.0625 151.3125 C154.0625 151.3125 88.0625 151.3125 20.0625 151.3125 Z M-51.9375 227.3125 C-51.98381607 238.71717483 -52.01936553 250.12182732 -52.04112434 261.526577 C-52.05156684 266.82211374 -52.06573462 272.1175862 -52.08837891 277.41308594 C-52.11009056 282.52238854 -52.12206512 287.63162926 -52.12725449 292.74097443 C-52.13095325 294.69143905 -52.13817589 296.64190024 -52.14896011 298.59233856 C-52.16345267 301.32172498 -52.16547887 304.05085481 -52.16455078 306.78027344 C-52.17174133 307.58875732 -52.17893188 308.39724121 -52.18634033 309.23022461 C-52.19967687 314.59499548 -52.19967687 314.59499548 -49.9375 319.3125 C-46.73061929 320.91594035 -43.24567153 320.44172745 -39.72412109 320.42602539 C-38.8752684 320.42617142 -38.02641571 320.42631744 -37.15184021 320.4264679 C-34.33818023 320.42576966 -31.52458596 320.4179814 -28.7109375 320.41015625 C-26.76323482 320.40829175 -24.81553168 320.406868 -22.86782837 320.40586853 C-17.73529776 320.40204583 -12.60279533 320.39221765 -7.47027588 320.38116455 C-2.23539613 320.37094512 2.99948816 320.36636977 8.234375 320.36132812 C18.51042907 320.35059517 28.78646219 320.3335217 39.0625 320.3125 C38.5104378 316.58680957 37.79435401 313.17665919 36.48364258 309.64672852 C36.16273148 308.77464249 35.84182037 307.90255646 35.51118469 307.00404358 C35.16331406 306.07587326 34.81544342 305.14770294 34.45703125 304.19140625 C34.09534348 303.21445297 33.7336557 302.23749969 33.36100769 301.23094177 C32.59434057 299.16320015 31.82510041 297.09641096 31.0534668 295.03051758 C29.89138528 291.918874 28.73695748 288.8044816 27.58398438 285.68945312 C24.34951145 276.96987573 21.09415106 268.25711916 17.69140625 259.6015625 C17.24740479 258.47057129 16.80340332 257.33958008 16.34594727 256.17431641 C13.01921591 248.75640791 8.34839613 245.44299659 1.0625 242.3125 C-2.09598265 241.20482597 -5.29362866 240.29188309 -8.51953125 239.40234375 C-9.41435715 239.14876602 -10.30918304 238.89518829 -11.23112488 238.63392639 C-14.06869436 237.83176373 -16.90923273 237.04075396 -19.75 236.25 C-21.64408469 235.71621986 -23.53796687 235.18172055 -25.43164062 234.64648438 C-34.25512555 232.1579962 -43.09072147 229.71687499 -51.9375 227.3125 Z M282.3046875 229.76171875 C280.96182175 230.14346001 280.96182175 230.14346001 279.59182739 230.53291321 C277.68324322 231.07614314 275.77487382 231.62012807 273.86669922 232.16479492 C270.99931791 232.98237381 268.13057015 233.79501916 265.26171875 234.60742188 C242.81255601 239.2278678 242.81255601 239.2278678 225.83987427 252.42221069 C222.70354399 258.72091528 220.12601583 265.10984684 217.7421875 271.7265625 C217.35684845 272.78104584 216.9715094 273.83552917 216.57449341 274.92196655 C215.35659169 278.25847925 214.14685552 281.5978814 212.9375 284.9375 C212.11904266 287.18509731 211.30003692 289.432495 210.48046875 291.6796875 C208.64636977 296.70965747 206.81699403 301.74130726 204.99505615 306.7756958 C204.12735602 309.13607415 203.22140184 311.47839378 202.30908203 313.82177734 C200.89434432 317.16560364 200.89434432 317.16560364 201.0625 320.3125 C212.3540395 320.3819394 223.6455284 320.43528043 234.93723774 320.46793652 C240.18015891 320.48360796 245.42293425 320.50487325 250.66577148 320.53881836 C255.72320684 320.57135901 260.78050173 320.58934187 265.83803368 320.59713173 C267.7697998 320.60268476 269.70155804 320.61352819 271.63326454 320.62969017 C274.33421204 320.65139413 277.03457536 320.65446989 279.7355957 320.65307617 C280.93968834 320.66925491 280.93968834 320.66925491 282.16810608 320.6857605 C286.35379915 320.70686726 286.35379915 320.70686726 290.02043152 318.91621399 C292.53348963 315.04868846 292.19576391 311.48547928 292.17602539 307.00732422 C292.17617142 306.14871796 292.17631744 305.29011169 292.1764679 304.40548706 C292.17576963 301.55936176 292.16798125 298.71330141 292.16015625 295.8671875 C292.15829176 293.89706457 292.15686801 291.92694118 292.15586853 289.95681763 C292.15204576 284.76510341 292.14221751 279.57341706 292.13116455 274.38171387 C292.12094528 269.086511 292.1163698 263.79130363 292.11132812 258.49609375 C292.10059504 248.10155024 292.08352148 237.70702744 292.0625 227.3125 C288.90870647 227.3125 285.35841607 228.89192483 282.3046875 229.76171875 Z " fill="#000000" transform="translate(135.9375,135.6875)"/>
<path d="M0 0 C12.70130685 10.18750654 21.61672826 22.59422244 24 39 C25.38497309 56.24592576 22.37909645 70.96585766 11.70703125 85.01953125 C2.02969382 96.26616664 -11.09590929 104.15347549 -26 106 C-44.01769504 106.99884877 -59.88696052 103.35656073 -73.9375 91.25 C-85.26162043 80.27559505 -91.85479173 66.25295263 -92.28564453 50.55688477 C-92.47591592 33.76975868 -88.0019202 19.50627477 -76.30615234 7.16381836 C-56.51020233 -12.82151889 -23.13173 -17.15856945 0 0 Z M-68.25 19.3125 C-76.90347818 30.00916052 -79.26768093 42.55992735 -78 56 C-75.82362083 67.70836898 -69.05107078 77.56608242 -59.43359375 84.5 C-48.34360822 91.33556091 -37.14830139 93.78508903 -24.1796875 91.50390625 C-10.90523645 87.82118237 -0.83194325 79.90516844 6 68 C11.18952916 57.25462197 11.82392679 45.03036815 8.4375 33.625 C3.29263155 20.32055071 -5.6784519 12.26199351 -18.265625 6.1640625 C-36.02272707 -1.39538952 -55.73974903 5.85210339 -68.25 19.3125 Z " fill="#000000" transform="translate(290,87)"/>
<path d="M0 0 C12.27620719 10.94904966 18.49646735 33.42637166 20 49 C21.56997401 76.73620751 13.50688566 101.06325345 -5 122 C-5.55171875 122.63550781 -6.1034375 123.27101563 -6.671875 123.92578125 C-22.58944135 141.06474502 -46.30703124 149.5880513 -69.10546875 151.22265625 C-83.56655443 151.64420881 -97.84198766 148.97661961 -111 143 C-111.103125 143.94875 -111.20625 144.8975 -111.3125 145.875 C-112 149 -112 149 -115 151 C-118.31589475 151.42330571 -120.19282993 151.5823271 -122.94921875 149.59375 C-125.9504315 145.79793045 -127.30242431 141.66581232 -128.875 137.125 C-129.20757812 136.23941406 -129.54015625 135.35382813 -129.8828125 134.44140625 C-131.28305218 130.4602163 -132.08897047 127.72632256 -131.5703125 123.4921875 C-130 121 -130 121 -127.5390625 119.6796875 C-122.81691135 118.7727843 -118.17258565 118.37680698 -113.375 118.125 C-111.96347656 118.01671875 -111.96347656 118.01671875 -110.5234375 117.90625 C-103.67411997 117.53654252 -103.67411997 117.53654252 -100.375 119.8046875 C-98.5304941 122.74960884 -98.57257339 124.58058713 -99 128 C-99.6317201 129.35024144 -100.29291641 130.68765286 -101 132 C-75.61416688 137.46525809 -52.22834311 137.70687787 -29.625 123.125 C-12.2557166 110.80141205 -0.18322416 94.10919269 4 73 C7.77245219 50.2590206 2.18266238 30.28921543 -10 11 C-10.495 10.505 -10.495 10.505 -11 10 C-11.47094801 3.64220183 -11.47094801 3.64220183 -9.625 1.125 C-6.06104135 -1.34235599 -4.17221017 -1.36399179 0 0 Z " fill="#000000" transform="translate(329,77)"/>
<path d="M0 0 C0.474375 -0.969375 0.94875 -1.93875 1.4375 -2.9375 C3 -6 3 -6 4 -7 C10.17212696 -7.58227613 10.17212696 -7.58227613 12.98828125 -5.6015625 C15.94842268 -1.7734961 17.30888329 2.3924988 18.875 6.9375 C19.37386719 8.27844727 19.37386719 8.27844727 19.8828125 9.64648438 C22.18030984 16.20311343 22.18030984 16.20311343 21.3203125 20.00390625 C18.79815782 23.81698626 18.79815782 23.81698626 16.13989258 24.42651367 C15.39892334 24.50619385 14.6579541 24.58587402 13.89453125 24.66796875 C13.07533203 24.75626953 12.25613281 24.84457031 11.41210938 24.93554688 C10.55423828 25.01869141 9.69636719 25.10183594 8.8125 25.1875 C7.97396484 25.28224609 7.13542969 25.37699219 6.27148438 25.47460938 C-5.29564398 26.65750853 -5.29564398 26.65750853 -9.9375 23.8125 C-11.5339636 21.08912093 -11.38630872 19.09046979 -11 16 C-9.4765625 14.3125 -9.4765625 14.3125 -8 13 C-10.04009755 12.34922704 -12.08215669 11.70460176 -14.125 11.0625 C-15.26195312 10.70285156 -16.39890625 10.34320313 -17.5703125 9.97265625 C-38.24112408 4.11043292 -59.54182858 9.1048498 -78 19.125 C-96.22388913 30.17844386 -108.138333 47.80155426 -113.45703125 68.3671875 C-117.65579705 88.72667057 -114.60173525 110.17810738 -103.2109375 127.76171875 C-102.66695312 128.52097656 -102.12296875 129.28023437 -101.5625 130.0625 C-99.43369302 133.03941457 -98.99078813 134.06345956 -98.4375 137.875 C-99 141 -99 141 -100.0625 142.9375 C-103.21516617 144.66638145 -105.47773401 144.48582979 -109 144 C-122.27785936 132.52040191 -128.71896622 110.97369752 -130 94 C-131.56356134 69.7647993 -125.2421464 45.75775172 -109.4296875 26.94140625 C-106.7130457 23.86462358 -103.88170461 20.92269614 -101 18 C-100.26910156 17.25621094 -99.53820312 16.51242188 -98.78515625 15.74609375 C-72.24721454 -9.50695693 -32.91193448 -12.07383816 0 0 Z " fill="#000000" transform="translate(293,49)"/>
<path d="M0 0 C3.74623707 0.08838672 3.74623707 0.08838672 6.0625 2.1875 C7.0625 4.375 7.0625 4.375 7.0625 7.375 C8.27486328 7.63023438 8.27486328 7.63023438 9.51171875 7.890625 C20.56740756 10.39782584 20.56740756 10.39782584 24.0625 14.375 C25.0625 16.25 25.0625 16.25 25.0625 18.375 C23.9375 21.5625 23.9375 21.5625 22.0625 24.375 C18.34073911 25.59688465 16.1061164 25.31038696 12.5 23.9375 C6.28244781 21.9053765 -0.94721819 20.92460747 -7.2265625 23.20703125 C-9.26360973 24.34460512 -9.26360973 24.34460512 -9.9375 27.375 C-5.4606455 28.83258053 -1.17399569 29.64129358 3.5 30.25 C10.74912225 31.33195854 15.57188402 33.04681549 20.9375 38.0625 C23.8946628 42.67219495 25.5500638 46.9867402 24.75390625 52.51953125 C23.07265799 57.98097745 19.73919607 61.24346783 15.0625 64.375 C12.01247404 65.90001298 10.47272524 66.375 7.0625 66.375 C6.959375 67.32375 6.85625 68.2725 6.75 69.25 C6.0625 72.375 6.0625 72.375 3.0625 74.375 C-0.63088676 74.84649618 -2.27868277 74.86044427 -5.3125 72.625 C-6.9375 70.375 -6.9375 70.375 -6.9375 66.375 C-7.51757812 66.33761719 -8.09765625 66.30023438 -8.6953125 66.26171875 C-14.6879352 65.75738912 -19.33279418 64.81166028 -23.875 60.5625 C-25.39622479 57.43056662 -24.98248714 55.64929305 -23.9375 52.375 C-22.3125 50.4375 -22.3125 50.4375 -19.9375 49.375 C-16.27354493 49.58239368 -13.17210591 50.29830191 -9.6875 51.4375 C-3.63098372 52.95162907 2.50513067 53.57846792 8.25 50.875 C8.848125 50.38 9.44625 49.885 10.0625 49.375 C6.36864509 45.51324259 3.86543231 45.20140569 -1.4375 44.625 C-9.33786644 43.52998001 -15.84234654 41.54564501 -21.5 35.75 C-24.47053748 30.84215548 -24.56529809 25.96414686 -23.9375 20.375 C-21.16359673 14.82719346 -16.77473731 10.63457573 -10.9375 8.375 C-9.6175 8.375 -8.2975 8.375 -6.9375 8.375 C-6.81375 7.42625 -6.69 6.4775 -6.5625 5.5 C-5.6208598 0.791799 -4.79957933 0.45710279 0 0 Z " fill="#000000" transform="translate(255.9375,97.625)"/>
</svg>
