<?xml version="1.0" encoding="UTF-8"?>
<svg version="1.1" xmlns="http://www.w3.org/2000/svg" width="407" height="412">
<path d="M0 0 C21.54636246 18.35563657 37.92018638 42.4722879 40.875 71.3125 C40.98201887 74.79324479 40.97008826 78.26806941 40.9375 81.75 C40.93298828 82.67232422 40.92847656 83.59464844 40.92382812 84.54492188 C40.91213938 86.80085048 40.89575455 89.05663967 40.875 91.3125 C41.46522949 91.36075928 42.05545898 91.40901855 42.66357422 91.45874023 C51.1350731 92.25537598 57.77400311 94.69200328 63.75 101 C72.47875767 112.13740071 72.4539856 125.76988068 71.6875 139.375 C70.59578103 148.18961982 66.5528005 155.46305261 59.875 161.3125 C53.75455323 165.39617557 48.17139463 166.95944865 40.875 167.3125 C40.92140625 167.993125 40.9678125 168.67375 41.015625 169.375 C41.79169955 190.21814492 32.41037273 208.97929914 18.875 224.3125 C3.62557604 240.33059411 -16.75884682 249.10320749 -38.70751953 249.7565918 C-39.69091309 249.7750415 -40.67430664 249.79349121 -41.6875 249.8125 C-43.11618408 249.8585437 -43.11618408 249.8585437 -44.57373047 249.90551758 C-49.16525589 249.90674373 -51.40858169 249.84318023 -55.18359375 247.046875 C-56.90892927 244.61682497 -57.88645103 242.90808574 -58.625 240.0625 C-59.25611208 238.02227938 -59.25611208 238.02227938 -60.125 236.3125 C-63.39363522 234.88771029 -65.78809944 235.20019981 -69.125 236.3125 C-69.97887105 239.61817489 -69.97887105 239.61817489 -70.125 243.3125 C-67.57964046 247.36193564 -63.34214364 248.68312396 -59.05078125 250.3828125 C-57.125 251.3125 -57.125 251.3125 -56.125 253.3125 C-55.77996902 257.03883459 -55.63951077 259.45186 -57.5 262.75 C-61.62700808 265.20655243 -65.44870223 265.00867065 -70.125 264.3125 C-76.70539661 262.17985847 -81.43106756 258.27688177 -84.875 252.25 C-87.79358101 245.39133464 -88.04783461 239.23990249 -85.5625 232.1875 C-82.67178787 225.60759232 -78.44955737 222.00167995 -71.8125 219.375 C-65.25924789 217.50264226 -59.00360865 218.2302935 -52.8125 221 C-48.50133102 223.39994224 -44.90147123 226.6117305 -43.49609375 231.5 C-43.37363281 232.098125 -43.25117188 232.69625 -43.125 233.3125 C-22.96906415 231.36852649 -4.52105245 225.59171614 9.16796875 209.640625 C22.8588137 191.4546621 24.4490586 173.73800176 24.4375 151.6875 C24.44111552 148.41569194 24.45064545 145.14440906 24.47825623 141.87271118 C24.4949738 139.85273914 24.49797633 137.83259265 24.48524475 135.81259155 C24.53283055 129.50641205 25.28910318 125.89839682 29.875 121.3125 C33.56118281 120.82100896 35.3519803 120.99039145 38.54370117 122.95605469 C40.875 125.3125 40.875 125.3125 41.44262695 128.15332031 C41.41644287 129.22163086 41.39025879 130.28994141 41.36328125 131.390625 C41.34716797 132.55078125 41.33105469 133.7109375 41.31445312 134.90625 C41.25161133 136.71609375 41.25161133 136.71609375 41.1875 138.5625 C41.15366211 140.39554687 41.15366211 140.39554687 41.11914062 142.265625 C41.06021758 145.28248502 40.97799265 148.29687515 40.875 151.3125 C42.3366253 150.68692062 43.79580314 150.05562054 45.25390625 149.421875 C46.47315796 148.8954541 46.47315796 148.8954541 47.71704102 148.35839844 C50.43927086 147.03901472 51.57723717 146.06070363 52.875 143.3125 C55.63821225 135.31372769 56.39693208 125.85373586 53.625 117.75 C50.93218804 112.46054794 48.45017044 110.1999688 42.875 108.3125 C39.8189477 107.9591063 36.78665203 107.81119619 33.71484375 107.65625 C30.85219435 107.30973948 29.19686031 107.0086474 26.875 105.3125 C24.95880767 101.47454875 24.6249247 98.30215032 24.6015625 94.04296875 C24.57497559 92.22623657 24.57497559 92.22623657 24.54785156 90.37280273 C24.53206055 89.09477783 24.51626953 87.81675293 24.5 86.5 C24.23699492 75.50326967 23.52933925 65.71995942 19.875 55.3125 C19.5140625 54.25675781 19.153125 53.20101562 18.78125 52.11328125 C11.02740011 31.65464354 -6.19544369 13.56629422 -26.04589844 4.42822266 C-48.16658397 -5.03724599 -72.52278553 -7.33345072 -95.36035156 1.14208984 C-118.29088848 10.35926645 -136.30949914 27.56544954 -146.06640625 50.3203125 C-149.8011566 60.87683932 -152.27307586 71.98670134 -152.22265625 83.203125 C-152.22119598 83.85304916 -152.21973572 84.50297333 -152.2182312 85.17259216 C-152.21445106 86.57261934 -152.20836229 87.97264187 -152.20016479 89.37265015 C-152.18726191 91.60366776 -152.18084899 93.83462496 -152.17602539 96.06567383 C-152.16273521 101.61207187 -152.13868018 107.15841294 -152.11462402 112.70477295 C-152.09468307 117.39029642 -152.07912444 122.07579713 -152.06906128 126.76135254 C-152.06269999 128.93176422 -152.05018951 131.10207948 -152.03735352 133.27246094 C-151.93861675 158.85713169 -151.93861675 158.85713169 -155.125 165.3125 C-160.09230947 169.19688892 -169.11488162 167.90264472 -175.125 167.3125 C-182.99594459 165.59651077 -189.96131125 161.09569609 -194.4375 154.328125 C-195.48815587 152.33496902 -196.36018114 150.43278992 -197.125 148.3125 C-197.65867187 146.85263672 -197.65867187 146.85263672 -198.203125 145.36328125 C-199.72609413 139.85919165 -199.49357079 134.16735295 -199.5 128.5 C-199.53673828 126.81293945 -199.53673828 126.81293945 -199.57421875 125.09179688 C-199.60989259 114.85935039 -197.32005473 106.61561332 -190.171875 99.0703125 C-183.76970343 93.5722644 -177.32539516 91.98299368 -169.125 91.3125 C-169.15980469 90.1265625 -169.19460937 88.940625 -169.23046875 87.71875 C-169.78988803 60.54170928 -161.76263067 34.60680895 -143.125 14.3125 C-142.68704102 13.8268457 -142.24908203 13.34119141 -141.79785156 12.84082031 C-127.07303198 -3.33881561 -108.38574222 -13.67459988 -87.125 -18.6875 C-85.77148438 -19.02587891 -85.77148438 -19.02587891 -84.390625 -19.37109375 C-55.56200708 -25.41177236 -23.35669233 -17.89424009 0 0 Z M-179.125 111.3125 C-184.33800616 117.73928072 -184.60730019 125.40531538 -184.125 133.3125 C-183.41499892 140.03722452 -182.32860226 144.78762847 -177.125 149.3125 C-174.485 149.9725 -171.845 150.6325 -169.125 151.3125 C-169.125 136.7925 -169.125 122.2725 -169.125 107.3125 C-173.19733838 107.3125 -175.97900446 108.86879959 -179.125 111.3125 Z " fill="#FFFFFF" transform="translate(273.125,47.6875)"/>
<path d="M0 0 C1.0106955 0.00090637 1.0106955 0.00090637 2.04180908 0.00183105 C32.06555773 0.07525408 32.06555773 0.07525408 42.3125 9.375 C48.8744941 16.31153714 50.71168434 24.64591306 50.70967102 33.90895081 C50.71334771 34.81100705 50.7170244 35.71306329 50.7208125 36.64245456 C50.73186215 39.67773908 50.73569539 42.71298938 50.73950195 45.74829102 C50.74576573 47.91967376 50.75241245 50.09105543 50.75941467 52.26243591 C50.77683446 58.17182842 50.78737953 64.08121284 50.7956202 69.99062467 C50.80076925 73.68280188 50.80684509 77.37497658 50.81313133 81.06715202 C50.83218782 92.61939906 50.84641689 104.17163969 50.8547433 115.72389942 C50.86451248 129.05792933 50.89082181 142.39174304 50.93124419 155.72571808 C50.96141404 166.03158349 50.97621309 176.3374013 50.97952431 186.64331001 C50.98187416 192.79841505 50.99082614 198.95334269 51.01598549 205.10840034 C51.03928562 210.90241426 51.04349143 216.69613423 51.03322411 222.49018288 C51.03272908 224.61295805 51.03903957 226.73574779 51.05278015 228.85847855 C51.13426459 242.19671849 51.19503934 253.17435467 41.5625 263.4296875 C34.15560831 269.9396509 27.1939931 271.35186654 17.59153748 271.21786499 C16.67455914 271.20939722 15.75758081 271.20092944 14.81281525 271.19220507 C12.8009101 271.17314122 10.78902596 271.15175658 8.77716637 271.1283741 C3.18052098 271.06365238 -2.41628824 271.01640782 -8.01307678 270.96591187 C-9.20763367 270.9546306 -10.40219055 270.94334934 -11.63294613 270.93172622 C-27.60744655 270.78421004 -43.58245785 270.73612398 -59.55750373 270.68315842 C-62.93181236 270.67176229 -66.30611684 270.65941304 -69.68041992 270.64648438 C-70.35204357 270.64392559 -71.02366722 270.64136681 -71.7156431 270.63873048 C-82.56383785 270.59547485 -93.41051251 270.48808716 -104.25796653 270.35753779 C-115.41933554 270.22476711 -126.57977771 270.16672256 -137.74201912 270.17145598 C-144.00023312 270.1716747 -150.25416761 270.13882498 -156.51141548 270.02399826 C-185.16869746 267.9940754 -185.16869746 267.9940754 -210.31598568 278.78563881 C-213.17557006 281.9635197 -215.57483811 285.24570605 -217.83341885 288.87102795 C-220.45023597 292.65000367 -223.90093084 295.30790485 -227.4375 298.1875 C-228.95408251 299.70257091 -230.44976195 301.23929108 -231.91015625 302.80859375 C-233.04227539 303.99291992 -233.04227539 303.99291992 -234.19726562 305.20117188 C-235.74796809 306.83342104 -237.2868744 308.47694925 -238.81445312 310.13085938 C-244.46812793 315.98766022 -244.46812793 315.98766022 -249.24609375 316.97265625 C-252.95886767 316.05923207 -254.07465509 315.13913617 -256.4375 312.1875 C-256.93197632 309.66989136 -256.93197632 309.66989136 -256.92333984 306.80810547 C-256.9294931 305.73374237 -256.93564636 304.65937927 -256.94198608 303.55245972 C-256.92761505 302.39819489 -256.91324402 301.24393005 -256.8984375 300.0546875 C-256.89752106 298.86650421 -256.89660461 297.67832092 -256.8956604 296.45413208 C-256.8896205 293.94415285 -256.87386307 291.43418096 -256.84912109 288.92431641 C-256.81257463 285.07036979 -256.80810197 281.21738316 -256.80859375 277.36328125 C-256.79876444 274.92707498 -256.78710826 272.49087524 -256.7734375 270.0546875 C-256.77121185 268.89637421 -256.76898621 267.73806091 -256.76669312 266.54464722 C-256.75393341 265.47658844 -256.74117371 264.40852966 -256.72802734 263.30810547 C-256.72040375 262.36530731 -256.71278015 261.42250916 -256.70492554 260.45114136 C-256.4375 258.1875 -256.4375 258.1875 -254.4375 256.1875 C-252.16015625 255.88671875 -252.16015625 255.88671875 -249.5 255.875 C-248.62472656 255.85824219 -247.74945313 255.84148437 -246.84765625 255.82421875 C-244.4375 256.1875 -244.4375 256.1875 -242.81884766 257.30908203 C-240.8082425 260.04319232 -241.00194821 262.23888927 -240.92578125 265.60546875 C-240.89033203 266.85908203 -240.85488281 268.11269531 -240.81835938 269.40429688 C-240.79580078 270.71462891 -240.77324219 272.02496094 -240.75 273.375 C-240.71682334 274.71032013 -240.68233334 276.04560832 -240.64648438 277.38085938 C-240.56387943 280.64965504 -240.49476771 283.91817812 -240.4375 287.1875 C-239.16539423 286.09674542 -237.89648791 285.00225885 -236.62890625 283.90625 C-235.92193604 283.29716797 -235.21496582 282.68808594 -234.48657227 282.06054688 C-232.62478984 280.35870073 -230.99232154 278.61886177 -229.375 276.6875 C-225.70003122 272.36300185 -221.74367548 268.34005658 -217.75 264.3125 C-217.09572021 263.64541016 -216.44144043 262.97832031 -215.76733398 262.29101562 C-214.82482788 261.34645508 -214.82482788 261.34645508 -213.86328125 260.3828125 C-213.30036377 259.81578613 -212.73744629 259.24875977 -212.1574707 258.66455078 C-209.08695614 256.02770009 -206.40924016 254.93796271 -202.37007332 254.93416691 C-201.16190584 254.92574381 -201.16190584 254.92574381 -199.92933095 254.91715056 C-199.05015692 254.92113165 -198.1709829 254.92511274 -197.26516724 254.92921448 C-196.32676589 254.92553877 -195.38836454 254.92186307 -194.42152679 254.91807598 C-191.26940696 254.90807638 -188.11746287 254.91225071 -184.96533203 254.91625977 C-182.70849418 254.91187385 -180.45165795 254.90657219 -178.19482422 254.90042114 C-173.33084243 254.88890961 -168.46690428 254.88346088 -163.60290909 254.88253975 C-155.91377027 254.88060186 -148.22472191 254.86256417 -140.53561401 254.84178162 C-129.7566572 254.81400041 -118.9777092 254.79102098 -108.19873047 254.77416992 C-107.51472494 254.77309724 -106.83071941 254.77202456 -106.12598644 254.77091938 C-98.49585796 254.75910097 -90.86572868 254.7488954 -83.2355957 254.74047852 C-80.46940102 254.73740463 -77.70320636 254.73431583 -74.93701172 254.73120117 C-74.25444605 254.73043583 -73.57188038 254.72967049 -72.8686309 254.72888196 C-61.48469522 254.71579737 -50.10082596 254.6909974 -38.71692932 254.65745777 C-31.07153018 254.63565154 -23.4262778 254.62762637 -15.7808497 254.62985051 C-11.02562449 254.62818547 -6.27049533 254.61414731 -1.51530457 254.59663773 C0.691375 254.59103146 2.89807442 254.59055917 5.1047554 254.59557533 C8.11545732 254.60170209 11.12555101 254.58951105 14.13619995 254.57276917 C15.01091253 254.57898098 15.88562511 254.5851928 16.78684413 254.59159285 C21.79184745 254.54082331 25.21626264 253.94407775 29.5625 251.1875 C33.85799962 246.44763835 33.71102606 241.74040508 33.70967102 235.62895203 C33.71518605 234.30226091 33.71518605 234.30226091 33.7208125 232.94876796 C33.73186075 229.97324509 33.73569509 226.99775712 33.73950195 224.0222168 C33.74576566 221.89360442 33.75241238 219.76499313 33.75941467 217.63638306 C33.77683107 211.84502403 33.78737785 206.05367326 33.7956202 200.26229453 C33.80076823 196.64586286 33.80684401 193.02943377 33.81313133 189.41300392 C33.83218385 178.10317212 33.84641575 166.79334686 33.8547433 155.48350209 C33.86452168 142.4182886 33.89085675 129.35324427 33.93124419 116.28809041 C33.96137498 106.1954492 33.97620923 96.10285656 33.97952431 86.01017123 C33.98187795 79.97927114 33.99087944 73.94855175 34.01598549 67.91769981 C34.03921846 62.24517124 34.04351859 56.57294295 34.03322411 50.90037918 C34.0327275 48.81785014 34.03908451 46.73530656 34.05278015 44.65282249 C34.07042776 41.8105193 34.06342797 38.96930218 34.05024719 36.1269989 C34.06121644 35.30218653 34.07218568 34.47737416 34.08348733 33.62756747 C34.02454206 28.36568274 33.06994922 25.34892248 29.5625 21.1875 C23.16843897 17.2422283 17.24965254 17.05418478 9.90234375 17.16015625 C8.20508012 17.17279671 6.50781439 17.18515809 4.81054688 17.19726562 C2.14861442 17.2221205 -0.51320789 17.25016514 -3.17504883 17.28344727 C-5.75342512 17.31364682 -8.33165958 17.33141734 -10.91015625 17.34765625 C-11.70502945 17.36111588 -12.49990265 17.3745755 -13.31886292 17.38844299 C-20.37431803 17.4204692 -20.37431803 17.4204692 -23.4375 15.1875 C-25.03885272 11.98479456 -24.92611584 8.66286616 -24.4375 5.1875 C-22.43288321 2.18057481 -21.23069158 1.35780852 -17.70288086 0.6003418 C-11.82327192 -0.14301661 -5.9180962 -0.00966395 0 0 Z " fill="#FFFFFF" transform="translate(338.4375,70.8125)"/>
<path d="M0 0 C2.1147874 0.0108211 4.22874231 -0.00001892 6.34350586 -0.01269531 C13.06890479 -0.02038368 19.40077128 -0.02113754 25.78686523 2.26074219 C27.84936523 4.51074219 27.84936523 4.51074219 28.78686523 7.26074219 C28.55263396 11.16459684 27.97353209 12.9807419 25.78686523 16.26074219 C21.99102175 17.52602335 18.48101022 17.32628066 14.53295898 17.25292969 C12.85653294 17.23539435 11.18010023 17.21848793 9.50366211 17.20214844 C6.87285656 17.17136735 4.24238996 17.13606222 1.61181641 17.08935547 C-12.16460653 16.49397622 -12.16460653 16.49397622 -25.21313477 20.26074219 C-28.97270298 23.92861361 -30.15762794 26.72112786 -30.34735584 31.98368454 C-30.35679655 33.58063334 -30.36066183 35.1776205 -30.36030579 36.77459717 C-30.36398247 37.65426879 -30.36765916 38.53394042 -30.37144727 39.44026875 C-30.38249532 42.39963814 -30.38632984 45.35897244 -30.39013672 48.31835938 C-30.39640049 50.43549715 -30.40304721 52.55263382 -30.41004944 54.66976929 C-30.42746632 60.43020469 -30.43801294 66.19063179 -30.44625497 71.951087 C-30.45140335 75.54876538 -30.45747913 79.14644118 -30.4637661 82.74411774 C-30.48281954 93.99682044 -30.49705072 105.24951657 -30.50537807 116.50223231 C-30.515154 129.49838561 -30.54148232 142.49436874 -30.58187896 155.49046206 C-30.61202038 165.53131467 -30.62684505 175.57211844 -30.63015908 185.61301541 C-30.63251167 191.61208976 -30.64149959 197.61098236 -30.66662025 203.61000824 C-30.68987151 209.2538132 -30.69414594 214.89731635 -30.68385887 220.54115677 C-30.6833627 222.61197792 -30.68970705 224.68281379 -30.70341492 226.75358963 C-30.72109222 229.58240644 -30.71404802 232.41013523 -30.70088196 235.23895264 C-30.7118512 236.05696122 -30.72282045 236.8749698 -30.7341221 237.71776652 C-30.67093729 243.34711403 -29.42287961 246.61365376 -26.21313477 251.26074219 C-22.60556363 254.24987256 -18.81553649 254.89584361 -14.29907227 255.63574219 C-11.79477488 256.38609347 -10.77007395 257.17027244 -9.21313477 259.26074219 C-8.74069568 263.51269399 -8.54298017 265.98425725 -10.52563477 269.76074219 C-15.03271986 272.27632456 -19.19212699 272.08908103 -24.21313477 271.26074219 C-33.51189321 268.09176232 -39.85278044 263.0447973 -44.75850391 254.60075474 C-46.37472764 250.88970494 -46.76201502 247.67603604 -46.88957214 243.69554138 C-46.9225953 242.95924356 -46.95561846 242.22294574 -46.98964232 241.46433586 C-47.36976857 232.08230954 -47.3772766 222.69210511 -47.39013672 213.30395508 C-47.39641922 211.25858449 -47.40306752 209.213215 -47.41004944 207.16784668 C-47.43084958 200.52303833 -47.44141705 193.87823032 -47.45141602 187.23339844 C-47.45547017 184.93265713 -47.45958728 182.63191593 -47.4637661 180.33117485 C-47.48275104 169.53396136 -47.49700561 158.73675449 -47.50537807 147.93952757 C-47.51517813 135.51179678 -47.54159771 123.08424277 -47.58187896 110.65657431 C-47.61204504 101.01708772 -47.62684671 91.37765193 -47.63015908 81.73811907 C-47.63250537 75.99345933 -47.64141443 70.24898996 -47.66662025 64.50438118 C-47.68992001 59.1090724 -47.69412647 53.7140793 -47.68385887 48.31873322 C-47.68336417 46.3443007 -47.68966507 44.36985246 -47.70341492 42.39546776 C-47.79292125 28.77793369 -47.22998277 18.46611433 -37.33422852 8.17089844 C-27.34951998 -0.82085566 -12.71401117 -0.07737023 0 0 Z " fill="#FFFFFF" transform="translate(76.213134765625,70.7392578125)"/>
<path d="M0 0 C1.51963645 1.31090917 3.02091337 2.64350433 4.5 4 C5.55767578 4.93779297 5.55767578 4.93779297 6.63671875 5.89453125 C20.93060864 19.26272161 27.13084459 37.59421951 28.6796875 56.6171875 C28.42999949 61.31783573 26.76494012 63.73505988 23.5 67 C19.83559039 67.40715662 17.43415959 67.53019869 14.1875 65.6875 C11.52728875 61.45086727 11.231551 56.89299683 10.5 52 C7.79611721 35.07134255 0.59224149 21.5492064 -13.3125 11.1875 C-27.08882857 2.11737063 -43.23946468 -1.47282445 -59.48046875 1.6875 C-75.25808577 5.54746747 -88.02558613 13.59922548 -96.97265625 27.3671875 C-102.0399171 36.1020566 -104.22131613 44.47327726 -105.42480469 54.41381836 C-106.00136688 58.92975571 -106.63802873 62.28815402 -109.5 66 C-112.35324437 67.42662219 -114.33454549 67.31033868 -117.5 67 C-120.16015625 65.49609375 -120.16015625 65.49609375 -122.5 63 C-123.02672541 60.0131571 -123.21525177 57.72673601 -123.125 54.75 C-123.11025635 53.95513184 -123.0955127 53.16026367 -123.08032227 52.34130859 C-122.28451478 32.74771116 -111.78689784 15.69490219 -97.875 2.375 C-70.05073866 -21.81070409 -29.02894344 -22.51405079 0 0 Z " fill="#FFFFFF" transform="translate(256.5,73)"/>
<path d="M0 0 C5.28 0 10.56 0 16 0 C16 5.61 16 11.22 16 17 C10.72 17 5.44 17 0 17 C0 11.39 0 5.78 0 0 Z " fill="#FFFFFF" transform="translate(231,221)"/>
<path d="M0 0 C5.28 0 10.56 0 16 0 C16 5.61 16 11.22 16 17 C10.72 17 5.44 17 0 17 C0 11.39 0 5.78 0 0 Z " fill="#FFFFFF" transform="translate(171,221)"/>
<path d="M0 0 C1.39456452 0.00667256 2.78911118 0.01863093 4.18359375 0.03515625 C4.89451172 0.03966797 5.60542969 0.04417969 6.33789062 0.04882812 C8.09899388 0.06064761 9.86005411 0.07858362 11.62109375 0.09765625 C11.64794054 2.74355639 11.66785732 5.38918721 11.68359375 8.03515625 C11.69197266 8.78990234 11.70035156 9.54464844 11.70898438 10.32226562 C11.71761816 12.24759938 11.67333708 14.17301206 11.62109375 16.09765625 C10.62109375 17.09765625 10.62109375 17.09765625 7.49609375 17.23046875 C6.21734375 17.22789062 4.93859375 17.2253125 3.62109375 17.22265625 C2.34234375 17.22523438 1.06359375 17.2278125 -0.25390625 17.23046875 C-3.37890625 17.09765625 -3.37890625 17.09765625 -4.37890625 16.09765625 C-4.47865657 13.58629521 -4.51772808 11.1086221 -4.50390625 8.59765625 C-4.50777344 7.89511719 -4.51164063 7.19257813 -4.515625 6.46875 C-4.50341191 0.13015641 -4.50341191 0.13015641 0 0 Z " fill="#FFFFFF" transform="translate(205.37890625,220.90234375)"/>
</svg>
