<?xml version="1.0" encoding="UTF-8"?>
<svg version="1.1" xmlns="http://www.w3.org/2000/svg" width="512" height="512">
<path d="M0 0 C5.1336843 2.87120065 9.19231619 3.56146716 15.02019882 3.48822117 C15.86040573 3.49373997 16.70061264 3.49925877 17.56628036 3.5049448 C19.3776962 3.51421816 21.18917726 3.51440882 23.00059891 3.50635052 C25.87808523 3.49364024 28.75462339 3.50508544 31.63207626 3.5223856 C36.71064526 3.54902917 41.78897961 3.55468394 46.86761093 3.55328465 C54.98029718 3.55105326 63.09269146 3.56546786 71.20526505 3.60887051 C74.0213201 3.61862051 76.83690568 3.61003592 79.65295029 3.6001749 C96.26263214 3.62097122 110.74040936 6.23700952 123.37664413 17.9391489 C128.62663704 23.76630804 132.46264464 30.67966494 135.22430038 37.98993015 C140.94180355 36.31255168 146.10397623 33.71567354 151.42351913 31.0797739 C152.41318176 30.59343983 153.40284439 30.10710575 154.4224968 29.60603428 C157.5873735 28.05007671 160.74971054 26.48904243 163.91180038 24.92743015 C187.95365599 13.07818968 187.95365599 13.07818968 198.84930038 7.87274265 C199.60889557 7.50676472 200.36849075 7.14078678 201.15110397 6.76371861 C214.41381677 0.4665944 228.13614214 -1.12022433 242.40398788 2.95086765 C252.93258988 6.82982628 259.63621711 13.09647492 264.46258163 23.0953989 C267.74788871 31.26654726 267.69646669 43.1888137 264.72430038 51.48993015 C260.22407201 60.33912725 253.48506411 66.09304326 244.84930038 70.67743015 C243.95009872 71.17307468 243.05089706 71.66871922 242.12444687 72.17938328 C239.16769752 73.80200499 236.19724416 75.39719718 233.22430038 76.98993015 C231.09762779 78.14158998 228.97133314 79.29394796 226.84539413 80.4469614 C222.45739757 82.82131754 218.06210205 85.18143386 213.66180038 87.5328989 C208.59833402 90.24254994 203.56460065 93.00166097 198.54046249 95.78338718 C194.12079121 98.2214752 189.68042105 100.61917334 185.22430038 102.98993015 C184.46230331 103.39550144 183.70030624 103.80107273 182.91521835 104.21893406 C159.09705277 116.68964282 132.5822247 123.15545532 106.84930038 130.42743015 C105.60573776 130.78040165 104.36217514 131.13337315 103.0809288 131.49704075 C83.56850341 137.01865156 64.59653814 142.062501 44.20647812 142.19525242 C42.77073189 142.21010181 42.77073189 142.21010181 41.30598068 142.2252512 C38.17330947 142.25658953 35.04062315 142.28151307 31.90789413 142.3063364 C29.72356926 142.32692988 27.53924817 142.34792695 25.35493088 142.36930943 C19.6290659 142.42428297 13.90316645 142.47380043 8.17724228 142.52215672 C2.32505887 142.57255314 -3.52707499 142.62814416 -9.37921524 142.68328953 C-20.84466761 142.79056841 -32.31016317 142.89207956 -43.77569962 142.98993015 C-43.29036758 144.35504734 -43.29036758 144.35504734 -42.79523087 145.74774265 C-40.91559479 151.72512942 -41.25079225 156.92437408 -43.53927994 162.73001194 C-46.18086791 167.55828578 -50.31164777 171.23359733 -54.19366837 175.0719614 C-55.13501611 176.01668454 -56.07562118 176.96214821 -57.015522 177.90831089 C-58.98038404 179.88051019 -60.95391414 181.84347104 -62.93414688 183.80023289 C-65.4584068 186.29600688 -67.95954477 188.81356582 -70.45457363 191.33852196 C-72.39047058 193.29257743 -74.33823232 195.2344566 -76.28967094 197.17298031 C-77.6632637 198.54166537 -79.02688144 199.92033808 -80.39024734 201.29921055 C-86.32832388 207.12726086 -91.26430148 210.92330152 -99.83819962 211.36493015 C-112.99029094 210.11235003 -121.71539797 198.19966818 -130.56818008 189.3585825 C-131.48980438 188.4419231 -132.41142868 187.52526371 -133.36098099 186.58082676 C-135.85685098 184.09790355 -138.34953319 181.61180592 -140.84117651 179.1246419 C-142.40234786 177.56642481 -143.96409458 176.00878659 -145.52600861 174.45131397 C-150.42658553 169.56435305 -155.32520056 164.67543841 -160.22091663 159.78360784 C-165.84893995 154.16007825 -171.48347276 148.54317885 -177.1236676 142.93185747 C-181.50373205 138.5734325 -185.87799232 134.20923732 -190.24791825 129.84064734 C-192.84996144 127.23964873 -195.45434327 124.64110313 -198.06481934 122.04856586 C-200.97146196 119.1615191 -203.86597326 116.26259458 -206.75958633 113.36248875 C-207.61781494 112.51347492 -208.47604355 111.6644611 -209.36027908 110.78971958 C-219.19257439 100.88814527 -219.19257439 100.88814527 -220.27179337 93.6735239 C-220.25245743 92.60231297 -220.23312149 91.53110203 -220.21319962 90.42743015 C-220.21191055 89.35364109 -220.21062149 88.27985203 -220.20929337 87.1735239 C-219.42598151 81.42218006 -216.6413862 77.4833603 -212.64654922 73.40911961 C-211.8181604 72.55836353 -210.98977158 71.70760746 -210.13628006 70.8310709 C-208.7957029 69.48078045 -208.7957029 69.48078045 -207.42804337 68.1032114 C-206.50157501 67.16438618 -205.57510666 66.22556095 -204.62056351 65.25828648 C-202.66153925 63.27685728 -200.69621749 61.30191799 -198.72711563 59.33050632 C-196.22081451 56.81892921 -193.73834777 54.28514445 -191.26108837 51.74496269 C-189.33664834 49.77940338 -187.39634512 47.83009173 -185.45148277 45.88475704 C-184.08594162 44.51130035 -182.73660924 43.12178827 -181.3877449 41.73194981 C-175.97982539 36.38224159 -171.40026901 33.13965938 -163.77569962 31.98993015 C-160.82257462 32.02899265 -160.82257462 32.02899265 -158.52569962 32.61493015 C-157.70843399 32.82118015 -156.89116837 33.02743015 -156.04913712 33.23993015 C-153.11761147 34.2070314 -150.44550702 35.44425218 -147.77569962 36.98993015 C-147.2536293 36.44465672 -146.73155899 35.89938328 -146.19366837 35.3375864 C-140.4006351 29.4025173 -134.29786041 24.10622273 -127.77569962 18.98993015 C-126.8617543 18.25903172 -125.94780899 17.52813328 -125.00616837 16.7750864 C-90.00582472 -10.46868314 -40.81254756 -23.21537005 0 0 Z M-135.77569962 49.98993015 C-131.57485416 54.97248325 -127.231151 59.7517343 -122.70734024 64.44159031 C-122.0266951 65.14968845 -121.34604996 65.8577866 -120.64477921 66.58734226 C-114.41510526 73.05517505 -108.13820893 79.47683884 -101.84537888 85.8831892 C-97.62723918 90.17904864 -93.42705896 94.48975479 -89.26398087 98.83905125 C-85.22247862 103.06039717 -81.14068453 107.23858133 -77.02745438 111.39002705 C-75.4720295 112.97427305 -73.93145458 114.5732458 -72.40663528 116.18697071 C-64.71665304 125.06287407 -64.71665304 125.06287407 -54.38292313 129.26757908 C-51.02793804 128.51455025 -51.02793804 128.51455025 -47.65140152 127.21926975 C-43.01144051 125.53769605 -38.47413138 125.60478673 -33.58356094 125.60516453 C-32.19419972 125.59609231 -32.19419972 125.59609231 -30.77677059 125.58683681 C-28.8219346 125.57850613 -26.86706557 125.5761422 -24.91221428 125.57923985 C-21.78461445 125.58378644 -18.65756044 125.56952558 -15.53001785 125.55084324 C-8.88275354 125.51434449 -2.23554925 125.50040999 4.41180038 125.48993015 C12.10970326 125.47775878 19.80733519 125.45577493 27.50511742 125.40992832 C30.55072124 125.39658135 33.59596211 125.40048775 36.64158249 125.40533543 C53.72971293 125.35803794 69.80898077 123.06977518 86.23919296 118.37396336 C87.427341 118.03614338 87.427341 118.03614338 88.63949203 117.69149876 C89.45122879 117.45998112 90.26296555 117.22846348 91.09930038 116.98993015 C92.82793101 116.50403756 94.5566937 116.01861454 96.28557968 115.53363132 C100.72497507 114.28371638 105.15939384 113.0170447 109.59228134 111.74426365 C112.18052796 111.00247528 114.77029267 110.2662345 117.36053085 109.53143406 C143.32233796 102.23314136 143.32233796 102.23314136 168.22430038 91.98993015 C168.83692734 91.70150242 169.44955429 91.41307468 170.0807457 91.11590672 C189.90582334 81.7561117 209.17204444 70.84905764 228.26336288 60.08660984 C230.26290908 58.96833774 232.27343427 57.87215717 234.28680038 56.77899265 C235.55776387 56.07870798 236.82860385 55.3781991 238.09930038 54.67743015 C239.18984726 54.08317234 240.28039413 53.48891453 241.40398788 52.8766489 C245.38940961 50.21050113 247.70641193 47.54359551 249.22430038 42.98993015 C249.73178955 36.77318786 249.99628369 31.22203602 246.22430038 25.98993015 C241.0907576 20.35389773 236.30752404 18.44900618 228.84539413 17.7750864 C217.03959822 17.3132008 207.03738757 22.75176556 196.72430038 27.86493015 C195.30854736 28.56321205 193.89269172 29.2612859 192.47674179 29.95916843 C190.20182272 31.08117884 187.92757999 32.20447454 185.65511703 33.33145237 C180.40579768 35.93085853 175.1324702 38.47491438 169.8432579 40.9920969 C166.02378076 42.81480264 162.2154549 44.66008046 158.40862656 46.50903416 C156.55021229 47.40598108 154.68744203 48.29396339 152.82024765 49.17248631 C139.65722631 54.9235937 139.65722631 54.9235937 130.85564804 65.76776218 C128.34944164 69.18163387 125.17351003 70.58476934 121.22430038 71.98993015 C117.65964762 72.53529678 114.15841652 72.53770861 110.5573082 72.50750828 C109.51893311 72.51451756 108.48055801 72.52152683 107.41071701 72.52874851 C103.999343 72.54626754 100.58880692 72.53473031 97.17742538 72.52118015 C94.79947374 72.52387598 92.42152317 72.52775916 90.04357529 72.53277683 C85.07066939 72.53866294 80.09805161 72.53013409 75.12517929 72.51141453 C68.7470647 72.48857619 62.36962159 72.50178515 55.99153137 72.52570438 C51.08622786 72.5401437 46.18108418 72.53556572 41.27577591 72.52519321 C38.92340389 72.52252336 36.57101739 72.52580474 34.21866226 72.53511143 C30.93662017 72.54525134 27.65567467 72.52981285 24.37371445 72.50750828 C22.91334511 72.51965366 22.91334511 72.51965366 21.42347336 72.53204441 C14.87025651 72.44938797 14.87025651 72.44938797 11.62511826 70.14117527 C9.67014775 67.13891435 9.57846751 65.50613136 10.22430038 61.98993015 C12.23820519 59.20225653 13.84359227 57.29116375 17.30429077 56.53613186 C19.91773015 56.36157843 22.48856826 56.35204335 25.10760117 56.39398289 C26.59376434 56.38789509 26.59376434 56.38789509 28.10995102 56.3816843 C30.25704712 56.376171 32.4041968 56.38216448 34.55123901 56.39834499 C37.94694844 56.42372824 41.34144195 56.41897947 44.73720932 56.40644932 C51.94137315 56.3856934 59.14516126 56.40540427 66.34930038 56.42743015 C74.70359844 56.44850796 83.05750705 56.45317024 91.41179657 56.42692852 C94.76185499 56.42355687 98.11117656 56.44482511 101.46114731 56.46733189 C103.50736275 56.46482169 105.55357727 56.46126273 107.59978867 56.45648289 C108.53492294 56.46936848 109.47005722 56.48225407 110.4335289 56.49553013 C115.33409762 56.59159671 115.33409762 56.59159671 119.32607651 54.10432529 C121.30050024 49.45658429 119.07415107 44.34174468 117.43523788 39.8063364 C113.38633003 30.77551148 106.30450802 25.52274406 97.22430038 21.98993015 C92.69070713 20.79928453 88.20871465 20.8723297 83.55706406 20.91156101 C81.7693195 20.91767642 79.9815743 20.92360324 78.19382858 20.92936802 C77.2493807 20.93404024 76.30493282 20.93871246 75.33186531 20.94352627 C70.29404091 20.96280225 65.25627668 20.9474748 60.21844101 20.93719578 C53.82405957 20.92499209 47.43034435 20.92304498 41.03606796 20.96576023 C35.85567624 20.99944525 30.67659685 20.99349719 25.49620628 20.96219158 C23.5361157 20.95731087 21.57593286 20.96633338 19.61598396 20.99040127 C6.86734743 21.13763862 -1.98830418 19.49167668 -12.97410011 12.95709515 C-57.15195857 -10.75920702 -105.23942917 18.71080893 -135.77569962 49.98993015 Z M-168.73395157 53.3988657 C-169.49766571 54.14351582 -170.26137985 54.88816593 -171.04823685 55.6553812 C-171.86193237 56.47089954 -172.6756279 57.28641788 -173.51398087 58.1266489 C-174.35414246 58.95824024 -175.19430405 59.78983158 -176.05992508 60.64662266 C-177.83429918 62.40950225 -179.60344306 64.17765933 -181.36774063 65.95062351 C-184.07755214 68.66675783 -186.81289623 71.35518237 -189.55109024 74.04266453 C-191.26950743 75.75653625 -192.9863587 77.47197977 -194.70148087 79.1891489 C-195.52529755 79.99454609 -196.34911423 80.79994328 -197.19789505 81.62974644 C-197.94584839 82.39015736 -198.69380173 83.15056828 -199.46442032 83.93402195 C-200.12964203 84.59798481 -200.79486374 85.26194767 -201.48024368 85.94603062 C-203.01539342 87.91946522 -203.01539342 87.91946522 -202.60382843 90.34044743 C-201.59019785 93.58341721 -200.22488553 95.03367701 -197.82109451 97.42555332 C-196.96989029 98.2822562 -196.11868607 99.13895908 -195.24168777 100.02162266 C-194.29153928 100.9576159 -193.34120022 101.89341573 -192.39068985 102.82904148 C-191.39462193 103.82398081 -190.39943457 104.81980237 -189.40506363 105.81643772 C-186.70541499 108.51723399 -183.99361155 111.20552006 -181.27946734 113.89173818 C-178.4442503 116.70194974 -175.62035717 119.52349337 -172.79524612 122.34385777 C-167.44482115 127.68185048 -162.08428158 133.00956494 -156.72003847 138.33366746 C-150.61309801 144.39589809 -144.51751208 150.46949106 -138.42285621 156.54406798 C-125.8864017 169.03871251 -113.33574983 181.51900735 -100.77569962 193.98993015 C-97.09585834 192.59497823 -94.71764307 191.30937771 -91.9192543 188.52166843 C-91.20211258 187.81398319 -90.48497086 187.10629795 -89.74609756 186.3771677 C-88.98758499 185.61258244 -88.22907242 184.84799717 -87.44757462 184.06024265 C-86.65796341 183.27350163 -85.8683522 182.4867606 -85.05481339 181.67617893 C-83.39037566 180.0137799 -81.72970933 178.34759745 -80.07257462 176.67791843 C-77.53156741 174.12083507 -74.97494516 171.58015704 -72.41632462 169.0407114 C-70.8007783 167.42318305 -69.18616265 165.80472452 -67.57257462 164.18524265 C-66.80596512 163.42470585 -66.03935562 162.66416904 -65.24951553 161.88058567 C-64.54498245 161.16659611 -63.84044937 160.45260654 -63.1145668 159.71698093 C-62.49233231 159.09235966 -61.87009781 158.46773838 -61.22900772 157.82418919 C-59.57066187 155.73114653 -58.99323542 154.65128248 -58.77569962 151.98993015 C-60.24100221 149.76690322 -60.24100221 149.76690322 -62.50084305 147.63659763 C-63.77747566 146.34098408 -63.77747566 146.34098408 -65.07989883 145.01919651 C-66.04034717 144.07006545 -67.00104915 143.121191 -67.96197891 142.17254734 C-68.96130368 141.16808656 -69.95955477 140.16255661 -70.95680618 139.15603733 C-73.67277393 136.42150565 -76.40429032 133.70300981 -79.13934684 130.98758698 C-81.99601332 128.14726937 -84.84010441 125.29440815 -87.68605423 122.44336033 C-92.46847626 117.65641276 -97.26101451 112.87977658 -102.05963516 108.10907078 C-107.61094239 102.58980829 -113.14604932 97.05469777 -118.6727187 91.51077247 C-123.98414791 86.18348984 -129.30679657 80.86755607 -134.63468742 75.55674076 C-136.9042503 73.29405866 -139.16979443 71.02746122 -141.43223 68.75765324 C-144.09644117 66.08579176 -146.770313 63.42399268 -149.45202827 60.76970387 C-150.43587373 59.79275683 -151.41632261 58.8123758 -152.39312744 57.82838917 C-153.72472808 56.48812861 -155.06984058 55.16133263 -156.41563797 53.8353281 C-157.16543269 53.0883403 -157.91522741 52.3413525 -158.68774319 51.57172871 C-162.91041798 48.37270559 -165.45065899 50.16078358 -168.73395157 53.3988657 Z " fill="#000000" transform="translate(232.77569961547852,278.01006984710693)"/>
<path d="M0 0 C10.6181645 8.95257007 17.697493 20.77442832 19.06640625 34.70654297 C20.4583725 53.83234235 15.84362136 72.53984282 4.33984375 87.99609375 C2.40053875 90.07234691 0.39372146 92.02986374 -1.66015625 93.99609375 C-1.03149658 94.06078857 -0.40283691 94.1254834 0.24487305 94.19213867 C18.95505497 96.18586061 35.21569465 98.74138235 48.40234375 113.43359375 C50.58914239 115.75455182 51.68860364 116.86462274 54.8359375 117.5 C57.06322346 117.49652529 59.14497314 117.36190552 61.33984375 116.99609375 C60.77716797 116.33867187 60.77716797 116.33867187 60.203125 115.66796875 C50.51412051 103.66043674 47.15969558 89.18815994 48.33984375 73.99609375 C50.20791878 63.1487001 55.74512691 54.20697452 64.58203125 47.69140625 C74.27313269 41.73398695 85.30002748 40.16371565 96.390625 42.69140625 C106.52351798 46.02699205 115.70816387 52.88680525 120.62890625 62.51953125 C125.85888389 75.04890215 125.23665637 88.68665819 120.515625 101.3046875 C118.03602308 106.98058691 115.1177397 112.09030422 111.33984375 116.99609375 C112.16226562 117.0940625 112.9846875 117.19203125 113.83203125 117.29296875 C127.6853058 119.14860368 138.05996537 123.35904873 147.15234375 134.30859375 C152.59799569 141.70002387 155.42983643 149.99922161 155.50097656 159.16601562 C155.51058411 160.17055786 155.52019165 161.1751001 155.53009033 162.21008301 C155.53646515 163.82118958 155.53646515 163.82118958 155.54296875 165.46484375 C155.54866882 166.57790894 155.5543689 167.69097412 155.5602417 168.83776855 C155.56967385 171.18789727 155.57621857 173.53803911 155.58007812 175.88818359 C155.58980826 179.48298056 155.62085908 183.07721152 155.65234375 186.671875 C155.65887184 188.95702786 155.66412307 191.2421848 155.66796875 193.52734375 C155.68031555 194.60141479 155.69266235 195.67548584 155.7053833 196.78210449 C155.67760801 206.07918339 155.67760801 206.07918339 152.33984375 209.99609375 C149.79754769 211.92473214 148.55639357 212.00511666 145.33984375 211.87109375 C141.62793148 210.78845267 140.56131075 210.1878533 138.33984375 206.99609375 C137.74079038 203.24599658 137.80694553 199.52101275 137.8359375 195.73046875 C137.82180565 194.06942108 137.82180565 194.06942108 137.80738831 192.37481689 C137.77869328 188.83172177 137.77566086 185.28929576 137.77734375 181.74609375 C137.77373062 178.21727117 137.76410963 174.68893835 137.73658752 171.16021729 C137.71986861 168.96541482 137.71686838 166.77045178 137.729599 164.57562256 C137.67568519 156.68409233 136.58779368 149.95684109 131.27734375 143.74609375 C130.77074219 143.1221875 130.26414062 142.49828125 129.7421875 141.85546875 C122.10955973 135.94793896 113.66395046 135.39667628 104.33203125 135.38671875 C103.12539825 135.3701825 101.91876526 135.35364624 100.67556763 135.33660889 C96.8552733 135.28836949 93.03537638 135.26681038 89.21484375 135.24609375 C86.61065735 135.21791412 84.00648926 135.18798393 81.40234375 135.15625 C75.04824866 135.08261675 68.69426422 135.03083362 62.33984375 134.99609375 C62.66291504 136.18686523 62.98598633 137.37763672 63.31884766 138.60449219 C64.75777027 145.12081724 64.6643493 151.61494733 64.67578125 158.26171875 C64.6822216 159.62693415 64.68895084 160.99214821 64.69595337 162.35736084 C64.70785423 165.2014893 64.71164104 168.04549687 64.71044922 170.88964844 C64.71024497 174.52687013 64.73768641 178.16331976 64.77199364 181.80035782 C64.79425068 184.61256459 64.79828736 187.42458398 64.79722977 190.23686981 C64.80072065 192.22716559 64.8223652 194.21740293 64.84432983 196.20758057 C64.83817657 197.41944031 64.83202332 198.63130005 64.82568359 199.87988281 C64.82853363 200.94305725 64.83138367 202.00623169 64.83432007 203.10162354 C64.21393933 206.7330888 62.90679921 208.39694083 60.33984375 210.99609375 C56.70691261 212.23283626 55.09792422 212.34067578 51.58984375 210.74609375 C49.33984375 208.99609375 49.33984375 208.99609375 47.33984375 205.99609375 C47.08828735 203.43824768 47.08828735 203.43824768 47.08447266 200.33813477 C47.07751373 199.17584854 47.07055481 198.01356232 47.06338501 196.8160553 C47.06438202 195.55675705 47.06537903 194.2974588 47.06640625 193 C47.05130521 191.0143521 47.03618038 189.02870408 47.01972008 187.04306698 C46.98204634 182.15254492 46.96484693 177.26199337 46.95898438 172.37133789 C46.95490787 169.63075732 46.94017074 166.89059549 46.91464233 164.15013123 C46.89142572 161.57573348 46.88372929 159.00113216 46.89419556 156.426651 C46.75799368 144.19966246 44.01968202 133.90621345 35.33984375 124.99609375 C22.1872218 112.99768149 6.38098427 112.6792408 -10.5234375 112.6953125 C-12.24537762 112.69141512 -13.96731679 112.68707835 -15.68925476 112.68232727 C-19.28399787 112.67490413 -22.87864271 112.6751275 -26.47338867 112.68041992 C-31.04217966 112.68620526 -35.61056402 112.66928704 -40.17928791 112.64607525 C-43.73215521 112.63122331 -47.2849272 112.63048172 -50.83782005 112.63358498 C-52.52044669 112.63307737 -54.20307948 112.62794712 -55.88567543 112.61777306 C-72.09375125 112.53178488 -87.78642014 113.7644195 -100.47265625 125.12109375 C-106.62640556 131.73452072 -110.76288661 140.86803552 -110.81787109 149.85693359 C-110.83326431 151.66428482 -110.83326431 151.66428482 -110.84896851 153.50814819 C-110.85626984 154.8112796 -110.86357117 156.11441101 -110.87109375 157.45703125 C-110.88406025 158.80840877 -110.89787665 160.15977838 -110.9125061 161.51113892 C-110.97403491 167.24791396 -111.02814152 172.98466626 -111.06152344 178.72167969 C-111.08250376 182.23313004 -111.11783196 185.74419245 -111.16228104 189.25542068 C-111.18326975 191.23891204 -111.18848406 193.22255006 -111.19345093 195.20614624 C-111.2100174 196.41735138 -111.22658386 197.62855652 -111.24365234 198.87646484 C-111.2517392 199.93997162 -111.25982605 201.00347839 -111.26815796 202.09921265 C-111.71637655 205.41156377 -112.71833094 207.30040221 -114.66015625 209.99609375 C-117.20245231 211.92473214 -118.44360643 212.00511666 -121.66015625 211.87109375 C-125.19487239 210.84013488 -126.39472381 209.87225545 -128.66015625 206.99609375 C-129.15463257 204.0945282 -129.15463257 204.0945282 -129.14599609 200.6862793 C-129.15522598 198.76859993 -129.15522598 198.76859993 -129.16464233 196.81217957 C-129.15084105 195.41904994 -129.13630667 194.02592742 -129.12109375 192.6328125 C-129.11870752 191.19798447 -129.11780438 189.76315328 -129.11831665 188.32832336 C-129.11519029 185.32130354 -129.09864424 182.31476103 -129.07177734 179.30786133 C-129.03788946 175.46797863 -129.03014638 171.6286223 -129.03166771 167.7886076 C-129.03112158 164.82445826 -129.0201141 161.86042225 -129.00566483 158.89631081 C-128.99933243 157.48144195 -128.99536633 156.06656033 -128.99387741 154.65167809 C-128.98950124 152.66576862 -128.97035768 150.67990863 -128.95068359 148.6940918 C-128.9392482 147.00342842 -128.9392482 147.00342842 -128.92758179 145.27861023 C-128.62621659 141.57950117 -127.78439563 138.52436319 -126.66015625 134.99609375 C-134.47100612 135.03787195 -142.28114975 135.11030592 -150.09155273 135.20361328 C-152.74630436 135.23394175 -155.4004538 135.25300514 -158.05541992 135.26708984 C-161.88112629 135.28860272 -165.70584266 135.33529975 -169.53125 135.38671875 C-171.29897011 135.38856171 -171.29897011 135.38856171 -173.10240173 135.39044189 C-181.51782794 135.53853942 -187.23674581 137.38226031 -194.41015625 141.62109375 C-201.21220049 148.80102934 -202.37356259 156.62683993 -202.2265625 166.171875 C-202.23501442 167.86415474 -202.23501442 167.86415474 -202.24363708 169.59062195 C-202.25998746 173.16371169 -202.24460933 176.73554843 -202.22265625 180.30859375 C-202.20605123 183.89936948 -202.19695967 187.48933565 -202.21238708 191.0801239 C-202.22165591 193.30604815 -202.21254066 195.53214455 -202.18275452 197.75788879 C-202.20921685 205.21152116 -202.20921685 205.21152116 -204.47241211 209.14916992 C-207.55365448 211.7503973 -209.65708433 212.06632308 -213.66015625 211.99609375 C-216.46205071 210.22968203 -218.17540536 208.96559553 -219.66015625 205.99609375 C-219.77083809 204.33417922 -219.81931114 202.66794189 -219.8371582 201.00244141 C-219.84999344 199.96020416 -219.86282867 198.91796692 -219.87605286 197.84414673 C-219.88343979 196.71092987 -219.89082672 195.57771301 -219.8984375 194.41015625 C-219.90650925 193.2428598 -219.91458099 192.07556335 -219.92289734 190.87289429 C-219.93675444 188.39297984 -219.94746928 185.91304619 -219.95532227 183.43310547 C-219.97242854 179.67116978 -220.01628867 175.91013735 -220.06054688 172.1484375 C-220.07068315 169.73568353 -220.07919632 167.32292209 -220.0859375 164.91015625 C-220.10344559 163.7971817 -220.12095367 162.68420715 -220.13899231 161.5375061 C-220.10422121 148.77561512 -216.36426097 139.12670216 -207.6953125 129.90625 C-198.58486693 121.05939779 -188.02263771 118.33203933 -175.66015625 116.99609375 C-176.1190625 116.39023438 -176.57796875 115.784375 -177.05078125 115.16015625 C-186.23732552 102.61550546 -189.88436034 89.54731137 -188.66015625 73.99609375 C-186.98452051 64.71464267 -182.64278995 57.29749489 -175.66015625 50.99609375 C-174.81453125 50.15046875 -173.96890625 49.30484375 -173.09765625 48.43359375 C-165.7431399 42.52003861 -156.20376868 41.32264497 -147.0625 41.60546875 C-136.01881039 42.87340097 -126.64689893 48.42590705 -119.66015625 56.99609375 C-111.78649946 69.69754537 -111.42816249 81.32659254 -114.7421875 95.65625 C-116.63012156 102.52511647 -119.51853285 108.19782099 -123.66015625 113.99609375 C-124.32015625 114.98609375 -124.98015625 115.97609375 -125.66015625 116.99609375 C-122.56197368 117.42983931 -119.74820493 117.56129401 -116.66015625 116.99609375 C-114.09658455 114.30127551 -114.09658455 114.30127551 -112.56640625 112.13671875 C-100.09164454 98.12817487 -81.12642482 96.00227625 -63.66015625 93.99609375 C-64.24023438 93.35285156 -64.8203125 92.70960937 -65.41796875 92.046875 C-79.50728491 75.74883766 -84.84971593 55.32165451 -83.66015625 33.99609375 C-81.25307395 18.03732764 -72.86688768 5.98856916 -59.9765625 -3.5390625 C-41.24914685 -15.38186329 -17.35374196 -13.07264262 0 0 Z M-60.37890625 20.06640625 C-66.87641334 29.85228584 -68.15707583 40.53181899 -65.9765625 51.984375 C-63.2812062 64.33228136 -58.94222296 76.00534902 -48.66015625 83.99609375 C-42.37241749 87.91735628 -36.13380868 89.88047595 -28.66015625 88.99609375 C-17.29448969 86.13834713 -11.19909882 80.83055327 -5.23046875 70.9140625 C1.16666291 59.02685517 3.9093055 45.34979275 1.33984375 31.99609375 C-1.47991758 22.76247114 -7.02555843 15.30716321 -15.23828125 10.25 C-31.18185882 1.99534129 -49.1257438 5.99995318 -60.37890625 20.06640625 Z M-167.03515625 66.37109375 C-171.5293393 72.13537202 -172.37515507 77.86844931 -171.66015625 84.99609375 C-169.81109594 95.13703391 -166.11492908 102.93071324 -157.66015625 108.99609375 C-152.28264693 110.78859686 -148.18558263 110.62730466 -143.03515625 108.49609375 C-136.12698398 104.00105015 -132.37305983 96.87793268 -130.66015625 88.99609375 C-129.14257439 80.86933295 -129.18347405 74.1638869 -133.66015625 66.99609375 C-137.58333947 62.5257053 -141.91500763 59.41222137 -147.91015625 58.74609375 C-155.95074163 58.35387007 -161.56647142 60.41366173 -167.03515625 66.37109375 Z M68.52734375 68.21484375 C64.51638913 74.23127568 64.58387167 80.85005937 65.83984375 87.73828125 C68.05925913 96.84292843 71.67865841 103.50002601 79.33984375 108.99609375 C84.71735307 110.78859686 88.81441737 110.62730466 93.96484375 108.49609375 C100.86306925 104.00752236 104.64521215 96.87551221 106.33984375 88.99609375 C107.92921992 79.6692894 107.42917521 73.58595763 102.15234375 65.74609375 C97.42661107 61.12537736 93.0084139 58.80340113 86.33984375 58.49609375 C78.57036975 58.86550126 73.26189362 62.14226891 68.52734375 68.21484375 Z " fill="#000000" transform="translate(298.66015625,34.00390625)"/>
<path d="M0 0 C2.46929563 2.01306743 3.8364132 3.23018671 4.50793457 6.39025879 C4.51111694 7.27532104 4.51429932 8.1603833 4.51757812 9.07226562 C4.53018677 10.08011108 4.54279541 11.08795654 4.55578613 12.12634277 C4.54768921 13.20871216 4.53959229 14.29108154 4.53125 15.40625 C4.5350769 16.52310181 4.53890381 17.63995361 4.54284668 18.79064941 C4.54556756 21.15096946 4.5381942 23.51131957 4.52148438 25.87158203 C4.50007884 29.48668575 4.52128178 33.09980193 4.546875 36.71484375 C4.54423176 39.00781689 4.53910686 41.3007888 4.53125 43.59375 C4.53934692 44.67611938 4.54744385 45.75848877 4.55578613 46.87365723 C4.54317749 47.88150269 4.53056885 48.88934814 4.51757812 49.92773438 C4.51280457 51.25532776 4.51280457 51.25532776 4.50793457 52.60974121 C3.83250219 55.78821789 2.49398388 56.98095284 0 59 C-3.62563666 60.15711808 -5.26262402 60.3351709 -8.75 58.75 C-11 57 -11 57 -13 54 C-13.26069641 51.85061646 -13.26069641 51.85061646 -13.2746582 49.33251953 C-13.28419022 48.38788849 -13.29372223 47.44325745 -13.30354309 46.47000122 C-13.30263168 45.45122894 -13.30172028 44.43245667 -13.30078125 43.3828125 C-13.30506638 42.33350555 -13.3093515 41.28419861 -13.31376648 40.20309448 C-13.31951217 37.98224611 -13.32000829 35.76137892 -13.31567383 33.54052734 C-13.31251875 30.14518004 -13.33595375 26.75070797 -13.36132812 23.35546875 C-13.36360159 21.19791777 -13.36430439 19.04036444 -13.36328125 16.8828125 C-13.37709587 15.36072678 -13.37709587 15.36072678 -13.39118958 13.80789185 C-13.33294244 4.91543291 -13.33294244 4.91543291 -10 1 C-6.87057535 -0.56471233 -3.38917777 -0.69701958 0 0 Z " fill="#000000" transform="translate(223,186)"/>
<path d="M0 0 C2.4709194 2.01343891 3.83778226 3.22638037 4.50120544 6.39025879 C4.50137161 7.27532104 4.50153778 8.1603833 4.50170898 9.07226562 C4.51108994 10.08011108 4.52047089 11.08795654 4.53013611 12.12634277 C4.51890213 13.20871216 4.50766815 14.29108154 4.49609375 15.40625 C4.49754898 16.52310181 4.49900421 17.63995361 4.50050354 18.79064941 C4.4988442 21.15098683 4.48727921 23.51133503 4.46655273 25.87158203 C4.43760834 29.48646966 4.445942 33.0998902 4.45898438 36.71484375 C4.45274671 39.00781964 4.44435556 41.30079088 4.43359375 43.59375 C4.43652939 44.67611938 4.43946503 45.75848877 4.44248962 46.87365723 C4.42346336 48.38542542 4.42346336 48.38542542 4.40405273 49.92773438 C4.39864975 50.81279663 4.39324677 51.69785889 4.38768005 52.60974121 C3.91480194 55.52529246 3.04453357 56.88767496 1 59 C-2.85185224 60.06995896 -5.07497251 60.370011 -8.8125 58.875 C-11.84455949 56.27609186 -12.82697053 53.90373921 -13.19082642 49.90045166 C-13.28148861 47.30916972 -13.30336485 44.72568927 -13.30078125 42.1328125 C-13.30506638 41.17986298 -13.3093515 40.22691345 -13.31376648 39.24508667 C-13.31949889 37.23289788 -13.32001808 35.22068836 -13.31567383 33.20849609 C-13.31251805 30.14254071 -13.33597233 27.07755466 -13.36132812 24.01171875 C-13.36360176 22.05208454 -13.36430432 20.09244776 -13.36328125 18.1328125 C-13.372491 17.22218048 -13.38170074 16.31154846 -13.39118958 15.37332153 C-13.35126207 9.83337156 -12.6746824 5.88966013 -10 1 C-6.87057535 -0.56471233 -3.38917777 -0.69701958 0 0 Z " fill="#000000" transform="translate(318,186)"/>
<path d="M0 0 C2.90182723 4.2208396 2.83315207 8.01104188 2.0625 13 C0.48436137 16.8630089 -1.04020983 18.34157865 -4.9375 20 C-9.31076136 20.58733456 -12.82270399 20.49810034 -16.875 18.6875 C-19.55964324 16.49097371 -20.77536294 14.59450254 -21.6875 11.25 C-21.99328443 7.27480245 -21.44153789 4.69172937 -19.9375 1 C-13.70156058 -5.40447833 -7.22128141 -4.91661713 0 0 Z " fill="#000000" transform="translate(141.9375,422)"/>
</svg>
