<?xml version="1.0" encoding="UTF-8"?>
<svg version="1.1" xmlns="http://www.w3.org/2000/svg" width="512" height="512">
<path d="M0 0 C4.36502097 2.42310219 8.01635909 5.60581422 9.44140625 10.5625 C9.56386719 11.160625 9.68632813 11.75875 9.8125 12.375 C10.36615581 12.4090434 10.91981161 12.4430868 11.49024487 12.47816181 C21.59412376 13.24320122 31.54526667 15.019534 41.53442383 16.6628418 C43.63288036 17.00513392 45.7313927 17.34708408 47.82995605 17.6887207 C53.53174668 18.61793522 59.23274714 19.55191797 64.9336226 20.48672843 C70.99611459 21.47996493 77.0593386 22.46871308 83.1224823 23.45796204 C94.6968132 25.34708689 106.27050163 27.24011803 117.84395856 29.13458902 C131.9286496 31.43995136 146.01410976 33.74059967 160.09960938 36.04101562 C175.06893968 38.48579356 190.038144 40.9313275 205.00662231 43.38131714 C227.00511796 46.98137574 249.00460162 50.57453228 271.01117623 54.12491786 C274.12436711 54.62735028 277.23745495 55.13041569 280.35050106 55.63374424 C281.34780729 55.79498561 282.34511352 55.95622698 283.37264115 56.12235445 C285.34167009 56.44071775 287.31069462 56.75910835 289.27971452 57.07752758 C294.8786528 57.98251227 300.47828647 58.883025 306.07850599 59.78004503 C309.45902738 60.3225215 312.83888844 60.86902536 316.21857858 61.41665435 C317.76112242 61.66569665 319.30394909 61.9129947 320.84707999 62.15837312 C322.93627416 62.49074982 325.0243872 62.82925514 327.11235046 63.16926575 C328.27032985 63.35528256 329.42830923 63.54129938 330.6213789 63.73295307 C339.20208176 65.45937264 339.20208176 65.45937264 341.8125 69.375 C342.07319641 72.10057068 342.07319641 72.10057068 342.0871582 75.43530273 C342.09669022 76.68347275 342.10622223 77.93164276 342.11604309 79.21763611 C342.11578166 80.58128894 342.1148446 81.94494179 342.11328125 83.30859375 C342.11716854 84.70720039 342.12150328 86.10580586 342.12626648 87.50440979 C342.1337277 90.43567736 342.13343824 93.36682448 342.12817383 96.2980957 C342.12238007 100.05204584 342.13930781 103.80550245 342.1625185 107.55937099 C342.17726028 110.44788998 342.17812696 113.33629023 342.17500877 116.22484016 C342.17552179 117.60871419 342.18075601 118.9925949 342.19082069 120.37643242 C342.20317448 122.31268415 342.19445274 124.24903558 342.18481445 126.18530273 C342.18544388 127.28655991 342.1860733 128.38781708 342.1867218 129.52244568 C341.76076289 132.76937285 341.2160369 134.15737966 338.8125 136.375 C336.59150696 136.85601807 336.59150696 136.85601807 333.97387695 136.82910156 C332.9930867 136.82879944 332.01229645 136.82849731 331.00178528 136.82818604 C329.94545395 136.80754089 328.88912262 136.78689575 327.80078125 136.765625 C326.71741989 136.75996521 325.63405853 136.75430542 324.51786804 136.74847412 C321.0531317 136.72605966 317.58942447 136.67585218 314.125 136.625 C311.77800971 136.60494164 309.43100324 136.58668972 307.08398438 136.5703125 C301.32610622 136.5295776 295.57045672 136.4512924 289.8125 136.375 C289.8125 145.285 289.8125 154.195 289.8125 163.375 C293.66421875 163.31699219 297.5159375 163.25898438 301.484375 163.19921875 C305.21091655 163.16023576 308.93743547 163.12986946 312.6640625 163.1003418 C315.25596263 163.07518245 317.84779172 163.04105149 320.43945312 162.99780273 C324.16293861 162.93721769 327.88548695 162.90880354 331.609375 162.88671875 C332.76991394 162.86091232 333.93045288 162.8351059 335.12615967 162.80851746 C343.08180404 162.80573763 343.08180404 162.80573763 346.54418945 165.50317383 C348.01434572 168.83203776 348.31463828 171.17527083 348.30859375 174.8125 C348.30923828 176.03710938 348.30988281 177.26171875 348.31054688 178.5234375 C348.29056641 179.79445312 348.27058594 181.06546875 348.25 182.375 C348.25708984 183.64601562 348.26417969 184.91703125 348.27148438 186.2265625 C348.19916261 196.7966668 348.19916261 196.7966668 344.8125 201.375 C342.03794095 202.76227952 339.78252288 202.50736111 336.67654419 202.51544189 C335.36696747 202.52115204 334.05739075 202.52686218 332.70812988 202.53274536 C331.24829111 202.53399078 329.78845223 202.53511586 328.32861328 202.53613281 C326.79788086 202.54075989 325.26714959 202.5457844 323.73641968 202.55117798 C319.57111356 202.56431421 315.40582357 202.57074925 311.24049997 202.57518864 C308.63969994 202.57811724 306.03890434 202.58222163 303.43810654 202.58669281 C295.30519255 202.60037064 287.17228867 202.61003603 279.03936398 202.6138947 C269.64285647 202.61837705 260.24649432 202.6359319 250.85003102 202.6648953 C243.59223573 202.68649201 236.3344814 202.6965979 229.07665431 202.69793582 C224.73933066 202.69898525 220.40214357 202.70492222 216.06485367 202.72275543 C211.985486 202.73920157 207.90635809 202.74140857 203.82696915 202.73261642 C202.3289628 202.7318442 200.83094375 202.73621312 199.33296967 202.74607468 C197.28949304 202.75873943 195.24592065 202.75114566 193.2024231 202.74249268 C192.05831026 202.74395924 190.91419743 202.7454258 189.73541451 202.7469368 C186.47901729 202.33256479 185.08494766 201.72081085 182.8125 199.375 C182.41819318 196.7639405 182.27434723 194.57803079 182.31640625 191.96875 C182.31495102 191.24764038 182.31349579 190.52653076 182.31199646 189.78356934 C182.31365488 188.26045691 182.32521015 186.73732763 182.34594727 185.21435547 C182.37489984 182.88306499 182.36655804 180.55404908 182.35351562 178.22265625 C182.35975338 176.74217645 182.36814461 175.26170383 182.37890625 173.78125 C182.37597061 173.0843103 182.37303497 172.38737061 182.37001038 171.66931152 C182.46350189 166.87262894 182.46350189 166.87262894 183.99517822 164.68864441 C186.50603543 162.87368045 188.21100523 163.01364161 191.29370117 163.03442383 C192.41463669 163.03465042 193.5355722 163.03487701 194.69047546 163.03511047 C195.89992325 163.05059433 197.10937103 163.06607819 198.35546875 163.08203125 C199.59420242 163.08627609 200.8329361 163.09052094 202.10920715 163.09489441 C205.39899001 163.10885267 208.68833203 163.13579787 211.97796631 163.16900635 C215.33616647 163.19972067 218.69443312 163.21356706 222.05273438 163.22851562 C228.63967482 163.25907675 235.225521 163.31779562 241.8125 163.375 C241.8125 154.465 241.8125 145.555 241.8125 136.375 C179.4425 136.375 117.0725 136.375 52.8125 136.375 C52.8125 145.615 52.8125 154.855 52.8125 164.375 C47.8125 168.375 47.8125 168.375 29.8125 168.375 C29.8125 237.675 29.8125 306.975 29.8125 378.375 C47.9625 378.375 66.1125 378.375 84.8125 378.375 C88.8125 380.375 88.8125 380.375 89.8125 382.375 C89.92424472 384.32435157 89.97178582 386.27750907 89.98950195 388.22998047 C90.00875481 390.07231766 90.00875481 390.07231766 90.02839661 391.95187378 C90.03656341 393.29864093 90.04400726 394.64541263 90.05078125 395.9921875 C90.05485678 396.66937962 90.0589323 397.34657173 90.06313133 398.04428482 C90.08398818 401.62799016 90.098292 405.21165725 90.10766602 408.79541016 C90.11873519 412.49678112 90.15314092 416.19755166 90.19283772 419.89871025 C90.21898137 422.74517943 90.22735573 425.59150497 90.23094749 428.43808365 C90.23581869 429.80245142 90.24744805 431.16681255 90.26598549 432.53106308 C90.29032593 434.44097169 90.28699713 436.35117213 90.2824707 438.26123047 C90.28833694 439.34773895 90.29420319 440.43424744 90.30024719 441.55368042 C89.67066513 445.1954281 88.74483954 446.14933309 85.8125 448.375 C83.14370032 448.76595454 80.88771142 448.91192052 78.22119141 448.87620544 C77.45288813 448.88173984 76.68458485 448.88727424 75.89299965 448.89297634 C73.31635905 448.90659889 70.74068444 448.89160551 68.1640625 448.87670898 C66.31776518 448.88049159 64.47147069 448.88599114 62.62518311 448.89308167 C57.60866213 448.9070612 52.59248318 448.89584895 47.57598114 448.87937045 C42.33011088 448.86553621 37.08426081 448.87197817 31.83837891 448.87550354 C23.02826414 448.87820695 14.2182855 448.8647188 5.40820312 448.84155273 C-4.78245696 448.8149422 -14.97288939 448.81319543 -25.16357231 448.8249411 C-34.96025383 448.83571438 -44.75685287 448.82953534 -54.55352783 448.81538582 C-58.72570746 448.80962212 -62.8978268 448.80971172 -67.07000732 448.81445122 C-71.98169446 448.81921797 -76.89313181 448.80913179 -81.80477142 448.78749657 C-83.60915026 448.78192442 -85.41355309 448.78146731 -87.21793365 448.78644943 C-89.67763158 448.79239003 -92.13656265 448.77992119 -94.59619141 448.76268005 C-95.67186906 448.77169512 -95.67186906 448.77169512 -96.76927757 448.78089231 C-99.81636385 448.74194899 -101.91190273 448.5277387 -104.59945679 447.03827 C-107.52337927 443.97583914 -107.32140947 440.81093665 -107.34863281 436.78955078 C-107.35824036 435.64471222 -107.3678479 434.49987366 -107.37774658 433.32034302 C-107.38199646 432.08283295 -107.38624634 430.84532288 -107.390625 429.5703125 C-107.39917511 427.66341141 -107.39917511 427.66341141 -107.40789795 425.71798706 C-107.41735134 423.02631042 -107.42424656 420.33474537 -107.42773438 417.64306641 C-107.43321719 414.20087201 -107.45724499 410.75907355 -107.48570633 407.31700325 C-107.50885463 404.02646977 -107.5107837 400.73591601 -107.515625 397.4453125 C-107.5279718 396.21185089 -107.5403186 394.97838928 -107.55303955 393.70755005 C-107.55003845 392.55640717 -107.54703735 391.40526428 -107.54394531 390.21923828 C-107.54941376 388.70392014 -107.54941376 388.70392014 -107.55499268 387.1579895 C-107.12459392 383.89861782 -106.11432283 382.01655751 -104.1875 379.375 C-87.19076829 370.87663414 -66.19042375 378.375 -47.1875 378.375 C-47.1875 309.075 -47.1875 239.775 -47.1875 168.375 C-52.7975 168.375 -58.4075 168.375 -64.1875 168.375 C-65.8375 167.385 -67.4875 166.395 -69.1875 165.375 C-69.75512695 162.37231445 -69.75512695 162.37231445 -69.67578125 158.73828125 C-69.65966797 157.43955078 -69.64355469 156.14082031 -69.62695312 154.80273438 C-69.58517609 153.43097301 -69.54285135 152.05922823 -69.5 150.6875 C-69.47491745 149.30407618 -69.45210418 147.92060923 -69.43164062 146.53710938 C-69.37260827 143.14865236 -69.29030082 139.76236615 -69.1875 136.375 C-71.11783081 136.39856567 -71.11783081 136.39856567 -73.0871582 136.42260742 C-77.85613764 136.47685775 -82.62508974 136.5113323 -87.39428711 136.53979492 C-89.45943791 136.55489271 -91.5245566 136.57537274 -93.58959961 136.60131836 C-96.55590739 136.63765795 -99.52179171 136.6547163 -102.48828125 136.66796875 C-103.87591423 136.69119453 -103.87591423 136.69119453 -105.2915802 136.71488953 C-106.15224594 136.71511612 -107.01291168 136.71534271 -107.8996582 136.71557617 C-108.65688675 136.72223801 -109.4141153 136.72889984 -110.19429016 136.73576355 C-112.1875 136.375 -112.1875 136.375 -113.92527771 135.25344849 C-115.77628885 132.49876011 -115.61288146 130.28026832 -115.67089844 126.97924805 C-115.68579315 126.3349585 -115.70068787 125.69066895 -115.71603394 125.02685547 C-115.7598245 122.89671185 -115.78029003 120.76723839 -115.796875 118.63671875 C-115.81413729 117.15322355 -115.8314104 115.66972847 -115.84869385 114.18623352 C-115.88020359 111.07505177 -115.89774369 107.96410204 -115.90820312 104.8527832 C-115.92464658 100.87366999 -115.99669115 96.89764334 -116.08211899 92.91949749 C-116.13811958 89.8541228 -116.15362062 86.78948526 -116.15821075 83.72364235 C-116.16726774 82.25752718 -116.19128075 80.79142273 -116.2307663 79.32581139 C-116.51613411 67.91816859 -116.51613411 67.91816859 -113.35969543 64.25205994 C-111.03657387 62.6741931 -108.75236563 61.51043788 -106.1875 60.375 C-105.00550439 59.67367559 -103.83264301 58.95656245 -102.67260742 58.21948242 C-101.55732666 57.56310791 -100.4420459 56.9067334 -99.29296875 56.23046875 C-98.67139893 55.86335281 -98.0498291 55.49623688 -97.40942383 55.11799622 C-96.08445058 54.33554375 -94.75886726 53.55412354 -93.43270874 52.77368164 C-89.87875754 50.68180131 -86.32974392 48.58158964 -82.78125 46.48046875 C-82.06051804 46.05377899 -81.33978607 45.62708923 -80.59721375 45.18746948 C-72.32410633 40.28186857 -64.11040535 35.27905183 -55.91113281 30.2512207 C-50.76661867 27.10739243 -45.61315316 24.01979866 -40.328125 21.1171875 C-39.4410083 20.62605469 -38.5538916 20.13492188 -37.63989258 19.62890625 C-36.02979785 18.7460973 -34.41045774 17.87982173 -32.7800293 17.03515625 C-27.60907191 14.19661808 -26.08266064 11.95052378 -24.1875 6.375 C-17.95287717 -1.24509457 -9.07001461 -4.07468701 0 0 Z M-11.8125 13.875 C-12.59625 14.7 -13.38 15.525 -14.1875 16.375 C-13.5275 18.355 -12.8675 20.335 -12.1875 22.375 C-8.13577836 23.50791596 -8.13577836 23.50791596 -4.3125 22.3125 C-2.67079106 19.48511239 -2.71981439 17.58198706 -3.1875 14.375 C-6.6604645 10.9020355 -8.14767443 10.38468994 -11.8125 13.875 Z M8.8125 25.375 C7.08049845 27.0786008 7.08049845 27.0786008 5.4375 29.25 C1.99608456 33.29956577 -0.06014513 35.038375 -5.4375 35.6171875 C-11.46159423 35.9294119 -16.25949424 34.9864552 -21.1875 31.375 C-21.8475 30.385 -22.5075 29.395 -23.1875 28.375 C-27.05836221 28.95444459 -29.76115229 30.08188665 -33.08984375 32.12109375 C-34.04898682 32.70294434 -35.00812988 33.28479492 -35.99633789 33.88427734 C-37.02879639 34.52059082 -38.06125488 35.1569043 -39.125 35.8125 C-40.77373612 36.81670208 -42.42248765 37.82087929 -44.07182312 38.82409668 C-45.24046677 39.5354602 -46.4085146 40.24780333 -47.57600403 40.96105957 C-52.20151053 43.78525331 -56.85031254 46.56878536 -61.5078125 49.33984375 C-62.89333658 50.16540228 -64.27883483 50.99100416 -65.66430664 51.81665039 C-67.70579454 53.03309581 -69.74776931 54.24867633 -71.79147339 55.46139526 C-73.69766149 56.59327189 -75.60106676 57.72969313 -77.50390625 58.8671875 C-78.60162354 59.52058105 -79.69934082 60.17397461 -80.83032227 60.84716797 C-81.60819092 61.35135254 -82.38605957 61.85553711 -83.1875 62.375 C-83.1875 62.705 -83.1875 63.035 -83.1875 63.375 C23.0725 63.375 129.3325 63.375 238.8125 63.375 C238.8125 63.045 238.8125 62.715 238.8125 62.375 C209.94555591 57.65866691 181.07821637 52.94476086 152.21032063 48.234256 C148.80435468 47.67848695 145.39839211 47.12269716 141.99243164 46.56689453 C141.31434902 46.45624178 140.6362664 46.34558904 139.93763582 46.23158318 C128.94958375 44.43844975 117.96180708 42.64363421 106.97413077 40.8481999 C95.70478964 39.00677866 84.43515013 37.16719408 73.16524631 35.32921934 C66.83301806 34.29645517 60.50093037 33.26284564 54.16916466 32.22724915 C48.21476002 31.25339911 42.25999852 30.2817625 36.30495071 29.31185341 C34.11460887 28.95470234 31.9244009 28.59672919 29.73433495 28.23789024 C26.75359586 27.74962452 23.77239755 27.2642677 20.7910614 26.77966309 C19.91655466 26.635698 19.04204792 26.49173291 18.14104098 26.34340525 C14.99927006 25.83514977 12.00095103 25.375 8.8125 25.375 Z M-102.1875 77.375 C-102.1875 86.615 -102.1875 95.855 -102.1875 105.375 C-98.15252417 100.33128022 -94.82023811 95.17050958 -91.4375 89.6875 C-90.83550781 88.72521484 -90.23351562 87.76292969 -89.61328125 86.77148438 C-89.04480469 85.85302734 -88.47632813 84.93457031 -87.890625 83.98828125 C-87.37145508 83.15079346 -86.85228516 82.31330566 -86.31738281 81.45043945 C-85.02811914 79.4760837 -85.02811914 79.4760837 -85.1875 77.375 C-90.7975 77.375 -96.4075 77.375 -102.1875 77.375 Z M-59.1875 77.375 C-57.56931798 81.42045504 -55.94057795 84.60682576 -53.66796875 88.26953125 C-52.97509766 89.39037109 -52.28222656 90.51121094 -51.56835938 91.66601562 C-50.83731893 92.83989317 -50.10619862 94.01372098 -49.375 95.1875 C-48.6552419 96.34938827 -47.93583774 97.51149586 -47.21679688 98.67382812 C-45.83606469 100.90497365 -44.44971349 103.13227285 -43.06005859 105.35791016 C-41.90223645 107.22340769 -40.75671048 109.0966772 -39.63134766 110.98193359 C-38.53383587 112.81085139 -37.36913481 114.59927153 -36.1875 116.375 C-35.5275 116.375 -34.8675 116.375 -34.1875 116.375 C-32.60189668 114.29111096 -32.60189668 114.29111096 -30.9921875 111.58203125 C-30.3619165 110.56447754 -29.73164551 109.54692383 -29.08227539 108.49853516 C-28.41574951 107.40589355 -27.74922363 106.31325195 -27.0625 105.1875 C-26.05014282 103.54467041 -26.05014282 103.54467041 -25.01733398 101.86865234 C-23.67752628 99.69329858 -22.34047389 97.51624512 -21.00634766 95.33740234 C-19.49039841 92.86833817 -17.96147927 90.40890389 -16.41796875 87.95703125 C-16.0410791 87.35592529 -15.66418945 86.75481934 -15.27587891 86.13549805 C-14.32115812 84.61344317 -13.36568733 83.09185881 -12.41015625 81.5703125 C-11.02531114 79.50258953 -11.02531114 79.50258953 -11.1875 77.375 C-27.0275 77.375 -42.8675 77.375 -59.1875 77.375 Z M14.8125 77.375 C16.43068202 81.42045504 18.05942205 84.60682576 20.33203125 88.26953125 C21.02490234 89.39037109 21.71777344 90.51121094 22.43164062 91.66601562 C23.16268107 92.83989317 23.89380138 94.01372098 24.625 95.1875 C25.3447581 96.34938827 26.06416226 97.51149586 26.78320312 98.67382812 C28.16393531 100.90497365 29.55028651 103.13227285 30.93994141 105.35791016 C32.09776355 107.22340769 33.24328952 109.0966772 34.36865234 110.98193359 C35.46616413 112.81085139 36.63086519 114.59927153 37.8125 116.375 C38.4725 116.375 39.1325 116.375 39.8125 116.375 C41.5129972 114.06230342 41.5129972 114.06230342 43.26171875 111.07421875 C43.94556641 109.95080078 44.62941406 108.82738281 45.33398438 107.66992188 C46.05627836 106.46762136 46.77828221 105.26514649 47.5 104.0625 C48.55039268 102.32638384 49.60284151 100.59152979 50.65579224 98.85696411 C51.35063905 97.71140475 52.0440637 96.56498155 52.73605347 95.41769409 C55.58198891 90.71063395 58.55223668 86.09140507 61.57348633 81.49536133 C62.9806733 79.49650451 62.9806733 79.49650451 62.8125 77.375 C46.9725 77.375 31.1325 77.375 14.8125 77.375 Z M88.8125 77.375 C90.31877139 81.14067848 91.73907633 84.10495616 93.82421875 87.5078125 C94.41783203 88.47976562 95.01144531 89.45171875 95.62304688 90.453125 C96.24244141 91.45859375 96.86183594 92.4640625 97.5 93.5 C98.10005859 94.48226562 98.70011719 95.46453125 99.31835938 96.4765625 C101.13919134 99.44934938 102.97525863 102.41233313 104.8125 105.375 C105.45525879 106.42913086 106.09801758 107.48326172 106.76025391 108.56933594 C107.38206543 109.57512695 108.00387695 110.58091797 108.64453125 111.6171875 C109.20503174 112.53097168 109.76553223 113.44475586 110.34301758 114.38623047 C110.82794678 115.04252441 111.31287598 115.69881836 111.8125 116.375 C112.4725 116.375 113.1325 116.375 113.8125 116.375 C115.5129972 114.06230342 115.5129972 114.06230342 117.26171875 111.07421875 C117.94556641 109.95080078 118.62941406 108.82738281 119.33398438 107.66992188 C120.05627836 106.46762136 120.77828221 105.26514649 121.5 104.0625 C122.55039268 102.32638384 123.60284151 100.59152979 124.65579224 98.85696411 C125.35063905 97.71140475 126.0440637 96.56498155 126.73605347 95.41769409 C129.58198891 90.71063395 132.55223668 86.09140507 135.57348633 81.49536133 C136.9806733 79.49650451 136.9806733 79.49650451 136.8125 77.375 C120.9725 77.375 105.1325 77.375 88.8125 77.375 Z M162.8125 77.375 C164.20302222 80.85130556 165.42855496 83.60993183 167.31640625 86.74609375 C167.8057666 87.56174805 168.29512695 88.37740234 168.79931641 89.21777344 C169.31929199 90.0740332 169.83926758 90.93029297 170.375 91.8125 C170.90786621 92.69325195 171.44073242 93.57400391 171.98974609 94.48144531 C173.59018982 97.11707577 175.19900722 99.74734056 176.8125 102.375 C177.2780127 103.13377441 177.74352539 103.89254883 178.22314453 104.67431641 C179.45107085 106.66449844 180.6906576 108.64662792 181.9375 110.625 C182.30302979 111.21466553 182.66855957 111.80433105 183.04516602 112.41186523 C183.91294914 113.76944259 184.85540246 115.078841 185.8125 116.375 C186.4725 116.375 187.1325 116.375 187.8125 116.375 C189.28485575 114.40451718 189.28485575 114.40451718 190.75390625 111.8359375 C191.33382324 110.86873779 191.91374023 109.90153809 192.51123047 108.9050293 C193.43379639 107.34328979 193.43379639 107.34328979 194.375 105.75 C195.63781529 103.63842056 196.90213758 101.52774164 198.16796875 99.41796875 C199.09681885 97.86795166 199.09681885 97.86795166 200.04443359 96.28662109 C203.02066512 91.38541463 206.16629767 86.60173041 209.3359375 81.82421875 C210.9846008 79.56617776 210.9846008 79.56617776 210.8125 77.375 C194.9725 77.375 179.1325 77.375 162.8125 77.375 Z M235.8125 77.375 C241.1661435 86.59825667 241.1661435 86.59825667 246.70703125 95.69140625 C247.35220703 96.72201172 247.99738281 97.75261719 248.66210938 98.81445312 C249.30986328 99.84505859 249.95761719 100.87566406 250.625 101.9375 C251.29208984 103.00291016 251.95917969 104.06832031 252.64648438 105.16601562 C256.17710125 110.80428161 256.17710125 110.80428161 259.8125 116.375 C260.4725 116.375 261.1325 116.375 261.8125 116.375 C263.05673697 114.7466995 263.05673697 114.7466995 264.24609375 112.59765625 C264.96490723 111.37344971 264.96490723 111.37344971 265.69824219 110.12451172 C266.21032227 109.23779785 266.72240234 108.35108398 267.25 107.4375 C271.80291895 99.67690606 276.51393337 92.06596475 281.50952148 84.58227539 C283.95894173 81.26245185 283.95894173 81.26245185 284.8125 77.375 C268.6425 77.375 252.4725 77.375 235.8125 77.375 Z M309.8125 77.375 C314.15359482 85.09250189 318.57638008 92.7288429 323.25 100.25 C323.68683105 100.95769531 324.12366211 101.66539062 324.57373047 102.39453125 C325.62448821 104.07308455 326.71451488 105.72695216 327.8125 107.375 C328.1425 107.375 328.4725 107.375 328.8125 107.375 C328.8125 97.475 328.8125 87.575 328.8125 77.375 C322.5425 77.375 316.2725 77.375 309.8125 77.375 Z M-72.1875 83.375 C-77.18942323 90.12422175 -81.43877919 97.49896381 -85.875 104.625 C-86.53822266 105.6871875 -87.20144531 106.749375 -87.88476562 107.84375 C-89.65684514 110.68478786 -91.42858351 113.52579352 -93.1875 116.375 C-93.75186768 117.27057617 -94.31623535 118.16615234 -94.89770508 119.08886719 C-96.35129122 121.22783695 -96.35129122 121.22783695 -96.1875 123.375 C-80.0175 123.375 -63.8475 123.375 -47.1875 123.375 C-51.82328268 115.26238032 -56.39518245 107.27443535 -61.4375 99.4375 C-64.82551694 94.15132485 -68.12231625 88.85584047 -71.1875 83.375 C-71.5175 83.375 -71.8475 83.375 -72.1875 83.375 Z M148.8125 83.375 C148.51182617 83.88135986 148.21115234 84.38771973 147.90136719 84.90942383 C141.57295615 95.55124731 135.15383071 106.11999283 128.47167969 116.54418945 C127.75093262 117.67280396 127.75093262 117.67280396 127.015625 118.82421875 C126.58926758 119.48768311 126.16291016 120.15114746 125.72363281 120.8347168 C124.72764515 122.22018322 124.72764515 122.22018322 124.8125 123.375 C140.9825 123.375 157.1525 123.375 173.8125 123.375 C172.42197778 119.89869444 171.19644504 117.14006817 169.30859375 114.00390625 C168.8192334 113.18833252 168.32987305 112.37275879 167.82568359 111.5324707 C167.04572021 110.24796021 167.04572021 110.24796021 166.25 108.9375 C165.45070068 107.61528442 165.45070068 107.61528442 164.63525391 106.26635742 C158.12583201 93.3286694 158.12583201 93.3286694 148.8125 83.375 Z M222.8125 83.375 C222.00485068 84.58445342 221.24828631 85.82802039 220.51171875 87.08203125 C220.03444336 87.88793701 219.55716797 88.69384277 219.06542969 89.52416992 C218.54883789 90.40306885 218.03224609 91.28196777 217.5 92.1875 C212.63218263 100.40027119 207.6241386 108.50717449 202.47143555 116.54418945 C201.99101807 117.29659912 201.51060059 118.04900879 201.015625 118.82421875 C200.58926758 119.48768311 200.16291016 120.15114746 199.72363281 120.8347168 C198.72764515 122.22018322 198.72764515 122.22018322 198.8125 123.375 C214.9825 123.375 231.1525 123.375 247.8125 123.375 C246.31415185 119.62912963 244.90301824 116.66655699 242.8359375 113.27734375 C242.25094482 112.31578369 241.66595215 111.35422363 241.06323242 110.36352539 C240.44424072 109.35668701 239.82524902 108.34984863 239.1875 107.3125 C238.55884033 106.28568115 237.93018066 105.2588623 237.2824707 104.20092773 C230.85601737 93.58281465 230.85601737 93.58281465 223.8125 83.375 C223.4825 83.375 223.1525 83.375 222.8125 83.375 Z M296.8125 83.375 C296.00485068 84.58445342 295.24828631 85.82802039 294.51171875 87.08203125 C294.03444336 87.88793701 293.55716797 88.69384277 293.06542969 89.52416992 C292.54883789 90.40306885 292.03224609 91.28196777 291.5 92.1875 C286.63218263 100.40027119 281.6241386 108.50717449 276.47143555 116.54418945 C275.99101807 117.29659912 275.51060059 118.04900879 275.015625 118.82421875 C274.58926758 119.48768311 274.16291016 120.15114746 273.72363281 120.8347168 C272.72764515 122.22018322 272.72764515 122.22018322 272.8125 123.375 C288.9825 123.375 305.1525 123.375 321.8125 123.375 C320.20173563 119.34808908 318.58380302 116.16516937 316.328125 112.515625 C315.63976562 111.39929688 314.95140625 110.28296875 314.2421875 109.1328125 C313.88350586 108.55563477 313.52482422 107.97845703 313.15527344 107.38378906 C312.07583593 105.64646382 311.00225837 103.90563341 309.9296875 102.1640625 C304.13907729 92.59154435 304.13907729 92.59154435 297.8125 83.375 C297.4825 83.375 297.1525 83.375 296.8125 83.375 Z M0.8125 84.375 C-0.41308253 85.87126009 -0.41308253 85.87126009 -1.5859375 87.86328125 C-2.2970166 89.00434326 -2.2970166 89.00434326 -3.02246094 90.16845703 C-3.53067383 90.99974121 -4.03888672 91.83102539 -4.5625 92.6875 C-5.63772221 94.4207582 -6.71325252 96.15382531 -7.7890625 97.88671875 C-8.3449707 98.78696777 -8.90087891 99.6872168 -9.47363281 100.61474609 C-11.18136391 103.36511757 -12.91032089 106.10077549 -14.6484375 108.83203125 C-15.19967285 109.69852295 -15.7509082 110.56501465 -16.31884766 111.45776367 C-17.38794646 113.13687768 -18.45791697 114.81543703 -19.52880859 116.4934082 C-20.00914551 117.25097412 -20.48948242 118.00854004 -20.984375 118.7890625 C-21.62391113 119.79380615 -21.62391113 119.79380615 -22.27636719 120.81884766 C-23.27171129 122.21828255 -23.27171129 122.21828255 -23.1875 123.375 C-6.6875 123.375 9.8125 123.375 26.8125 123.375 C19.88140455 111.24541261 19.88140455 111.24541261 12.5625 99.375 C12.05976562 98.58222656 11.55703125 97.78945312 11.0390625 96.97265625 C10.07397288 95.45428227 9.10483701 93.93846928 8.13085938 92.42578125 C7.28932954 91.11673484 6.45636607 89.80211457 5.63476562 88.48046875 C4.74607093 87.07761243 3.78668706 85.71989541 2.8125 84.375 C2.1525 84.375 1.4925 84.375 0.8125 84.375 Z M74.8125 84.375 C73.58691747 85.87126009 73.58691747 85.87126009 72.4140625 87.86328125 C71.7029834 89.00434326 71.7029834 89.00434326 70.97753906 90.16845703 C70.46932617 90.99974121 69.96111328 91.83102539 69.4375 92.6875 C68.36227779 94.4207582 67.28674748 96.15382531 66.2109375 97.88671875 C65.6550293 98.78696777 65.09912109 99.6872168 64.52636719 100.61474609 C62.81863609 103.36511757 61.08967911 106.10077549 59.3515625 108.83203125 C58.80032715 109.69852295 58.2490918 110.56501465 57.68115234 111.45776367 C56.61205354 113.13687768 55.54208303 114.81543703 54.47119141 116.4934082 C53.99085449 117.25097412 53.51051758 118.00854004 53.015625 118.7890625 C52.37608887 119.79380615 52.37608887 119.79380615 51.72363281 120.81884766 C50.72828871 122.21828255 50.72828871 122.21828255 50.8125 123.375 C67.3125 123.375 83.8125 123.375 100.8125 123.375 C95.4588565 114.15174333 95.4588565 114.15174333 89.91796875 105.05859375 C89.27279297 104.02798828 88.62761719 102.99738281 87.96289062 101.93554688 C87.31513672 100.90494141 86.66738281 99.87433594 86 98.8125 C84.99936523 97.21438477 84.99936523 97.21438477 83.97851562 95.58398438 C80.44789875 89.94571839 80.44789875 89.94571839 76.8125 84.375 C76.1525 84.375 75.4925 84.375 74.8125 84.375 Z M-56.1875 136.375 C-56.1875 142.315 -56.1875 148.255 -56.1875 154.375 C-24.5075 154.375 7.1725 154.375 39.8125 154.375 C39.8125 148.435 39.8125 142.495 39.8125 136.375 C8.1325 136.375 -23.5475 136.375 -56.1875 136.375 Z M254.8125 136.375 C254.8125 145.285 254.8125 154.195 254.8125 163.375 C262.0725 163.375 269.3325 163.375 276.8125 163.375 C276.8125 154.465 276.8125 145.555 276.8125 136.375 C269.5525 136.375 262.2925 136.375 254.8125 136.375 Z M-34.1875 168.375 C-34.1875 174.975 -34.1875 181.575 -34.1875 188.375 C-26.66447657 184.07612947 -19.27437289 179.60810234 -11.9375 175 C-11.07922607 174.46407227 -10.22095215 173.92814453 -9.33666992 173.37597656 C-8.5397876 172.87291992 -7.74290527 172.36986328 -6.921875 171.8515625 C-6.20225586 171.39861816 -5.48263672 170.94567383 -4.74121094 170.47900391 C-4.22848633 170.11468262 -3.71576172 169.75036133 -3.1875 169.375 C-3.1875 169.045 -3.1875 168.715 -3.1875 168.375 C-13.4175 168.375 -23.6475 168.375 -34.1875 168.375 Z M9.5 176.05078125 C8.59652832 176.62683105 7.69305664 177.20288086 6.76220703 177.79638672 C5.78880371 178.4204541 4.81540039 179.04452148 3.8125 179.6875 C2.33499268 180.63133545 2.33499268 180.63133545 0.82763672 181.59423828 C-7.86614245 187.15370714 -16.53478001 192.75187958 -25.1875 198.375 C-20.81661476 202.07750038 -16.10124802 205.04514841 -11.25 208.0625 C-9.55429568 209.1230717 -7.8589868 210.18427591 -6.1640625 211.24609375 C-5.32649414 211.77058105 -4.48892578 212.29506836 -3.62597656 212.83544922 C-1.3711389 214.25905818 0.86873374 215.70233719 3.1015625 217.16015625 C3.74359619 217.57885986 4.38562988 217.99756348 5.04711914 218.42895508 C6.2413539 219.2103837 7.43335715 219.99523626 8.62280273 220.78393555 C11.47797968 222.78032309 11.47797968 222.78032309 14.8125 223.375 C14.8125 206.875 14.8125 190.375 14.8125 173.375 C12.85487068 173.375 11.08587648 175.03731892 9.5 176.05078125 Z M195.8125 176.375 C195.8125 180.665 195.8125 184.955 195.8125 189.375 C241.3525 189.375 286.8925 189.375 333.8125 189.375 C333.8125 185.085 333.8125 180.795 333.8125 176.375 C288.2725 176.375 242.7325 176.375 195.8125 176.375 Z M-34.1875 209.375 C-34.1875 226.865 -34.1875 244.355 -34.1875 262.375 C-30.74228164 260.99691266 -28.22801123 259.91027676 -25.2109375 257.9765625 C-24.09392456 257.2654834 -24.09392456 257.2654834 -22.9543457 256.54003906 C-22.16503662 256.03182617 -21.37572754 255.52361328 -20.5625 255 C-18.87638239 253.92435328 -17.19018186 252.84883651 -15.50390625 251.7734375 C-14.63523926 251.2175293 -13.76657227 250.66162109 -12.87158203 250.08886719 C-8.42553428 247.24993184 -3.96203852 244.438707 0.5 241.625 C2.10815436 240.60950396 3.71623491 239.59389102 5.32421875 238.578125 C6.48697917 237.84375 7.64973958 237.109375 8.8125 236.375 C5.51008403 233.65370223 2.16585951 231.24065488 -1.46875 228.984375 C-2.470271 228.36054932 -3.47179199 227.73672363 -4.50366211 227.09399414 C-5.55432861 226.44422607 -6.60499512 225.79445801 -7.6875 225.125 C-8.75943604 224.45911865 -9.83137207 223.7932373 -10.93579102 223.10717773 C-13.05669492 221.79050543 -15.1784969 220.47527846 -17.30126953 219.16162109 C-19.74382502 217.64964165 -22.18336928 216.13302933 -24.62109375 214.61328125 C-29.17657224 211.15646913 -29.17657224 211.15646913 -34.1875 209.375 Z M9.71875 250.83203125 C8.86047607 251.3628833 8.00220215 251.89373535 7.11791992 252.44067383 C6.19213135 253.01712646 5.26634277 253.5935791 4.3125 254.1875 C3.37446533 254.76975342 2.43643066 255.35200684 1.4699707 255.9519043 C-7.1519192 261.32008581 -15.68764194 266.81611511 -24.1875 272.375 C-22.87631196 276.30856413 -21.30884617 276.80429976 -17.7890625 278.921875 C-16.66886719 279.6025 -15.54867187 280.283125 -14.39453125 280.984375 C-13.20071891 281.69824802 -12.0067075 282.41178823 -10.8125 283.125 C-9.08291092 284.16847511 -7.35482687 285.21440841 -5.62689209 286.26062012 C-3.92348489 287.29117449 -2.21809454 288.31844858 -0.51269531 289.34570312 C3.63143055 291.87477612 7.71529376 294.49097414 11.78759766 297.13378906 C13.55875511 298.46210091 13.55875511 298.46210091 14.8125 298.375 C14.8125 281.875 14.8125 265.375 14.8125 248.375 C12.91508401 248.375 11.28061636 249.86473155 9.71875 250.83203125 Z M-34.1875 284.375 C-34.1875 301.865 -34.1875 319.355 -34.1875 337.375 C-25.76885568 332.84383215 -25.76885568 332.84383215 -17.65234375 327.9375 C-16.74033203 327.35226562 -15.82832031 326.76703125 -14.88867188 326.1640625 C-13.97666016 325.57367188 -13.06464844 324.98328125 -12.125 324.375 C-5.2140136 319.92006436 1.73486003 315.56120601 8.8125 311.375 C6.26380324 308.68536478 3.8459675 306.60610747 0.64453125 304.74609375 C-0.15871582 304.27333008 -0.96196289 303.80056641 -1.78955078 303.31347656 C-2.64274902 302.8181543 -3.49594727 302.32283203 -4.375 301.8125 C-12.04840074 297.29707995 -19.57555578 292.62042298 -26.98120117 287.67749023 C-30.3005154 285.22832928 -30.3005154 285.22832928 -34.1875 284.375 Z M8.3671875 326.0859375 C7.46178223 326.66714355 6.55637695 327.24834961 5.62353516 327.84716797 C4.17019775 328.78906982 4.17019775 328.78906982 2.6875 329.75 C0.69305654 331.03179197 -1.3017382 332.31303749 -3.296875 333.59375 C-4.28880859 334.23183594 -5.28074219 334.86992187 -6.30273438 335.52734375 C-10.37015799 338.13247763 -14.46245836 340.69660679 -18.5625 343.25 C-19.23941895 343.67200684 -19.91633789 344.09401367 -20.61376953 344.52880859 C-22.13782691 345.47837329 -23.66257133 346.42683518 -25.1875 347.375 C-21.45222603 351.71906172 -16.70039245 354.2191983 -11.8125 357.0625 C-4.32622261 361.47291455 3.01819577 366.02442637 10.2578125 370.828125 C12.59988429 372.54765127 12.59988429 372.54765127 14.8125 372.375 C14.8125 356.205 14.8125 340.035 14.8125 323.375 C12.02115738 323.375 10.70812433 324.57362613 8.3671875 326.0859375 Z M-34.1875 358.375 C-34.1875 364.315 -34.1875 370.255 -34.1875 376.375 C-24.9475 376.375 -15.7075 376.375 -6.1875 376.375 C-9.60874486 373.63800412 -12.79223242 371.2505689 -16.453125 368.921875 C-17.42507812 368.303125 -18.39703125 367.684375 -19.3984375 367.046875 C-20.40132812 366.41265625 -21.40421875 365.7784375 -22.4375 365.125 C-23.45585938 364.4753125 -24.47421875 363.825625 -25.5234375 363.15625 C-29.59364062 360.03330868 -29.59364062 360.03330868 -34.1875 358.375 Z M-93.1875 392.375 C-93.1875 406.565 -93.1875 420.755 -93.1875 435.375 C-37.0875 435.375 19.0125 435.375 76.8125 435.375 C76.8125 421.185 76.8125 406.995 76.8125 392.375 C20.7125 392.375 -35.3875 392.375 -93.1875 392.375 Z " fill="#000000" transform="translate(115.1875,32.625)"/>
<path d="M0 0 C3.25626493 1.41504355 6.15424202 3.25325423 9.125 5.1875 C10.90032046 6.29802878 12.67638901 7.40736235 14.453125 8.515625 C15.82307617 9.3809082 15.82307617 9.3809082 17.22070312 10.26367188 C21.72099046 13.07516551 26.29831391 15.75285402 30.875 18.4375 C32.72679815 19.52954842 34.57835943 20.62199859 36.4296875 21.71484375 C37.80979004 22.52864502 37.80979004 22.52864502 39.21777344 23.35888672 C43.8135408 26.06972809 48.40664384 28.78507573 53 31.5 C54.83332037 32.58335527 56.66665371 33.6666886 58.5 34.75 C62.16666667 36.91666667 65.83333333 39.08333333 69.5 41.25 C70.40741943 41.78616943 71.31483887 42.32233887 72.24975586 42.87475586 C74.08401965 43.95870562 75.91816671 45.04285293 77.75219727 46.12719727 C82.3203605 48.82772709 86.89046643 51.52485144 91.46484375 54.21484375 C101.26211023 59.98056127 111.02772637 65.79606517 120.75 71.6875 C121.74507568 72.28812256 122.74015137 72.88874512 123.76538086 73.50756836 C125.14222046 74.3449353 125.14222046 74.3449353 126.546875 75.19921875 C127.35995117 75.69252686 128.17302734 76.18583496 129.01074219 76.6940918 C131 78 131 78 133 80 C133.5516551 86.06820609 133.5516551 86.06820609 131.9909668 88.7043457 C128.8275759 90.76297421 125.47967794 90.36613154 121.83203125 90.29296875 C120.63981209 90.28660149 120.63981209 90.28660149 119.42350769 90.28010559 C116.88615979 90.2633193 114.34960762 90.22566824 111.8125 90.1875 C110.09180835 90.17245305 108.37110424 90.15876466 106.65039062 90.14648438 C102.43328738 90.11341607 98.21677858 90.06163495 94 90 C94.00368717 90.69298848 94.00737434 91.38597696 94.01117325 92.0999651 C94.09945152 108.94994413 94.16567403 125.79985008 94.20724869 142.65000629 C94.2278875 150.79857492 94.25603308 158.94698933 94.30175781 167.09545898 C94.34158546 174.1964022 94.36742322 181.29723376 94.37635398 188.39828557 C94.38157571 192.15945104 94.39387546 195.92029702 94.42292023 199.68136024 C94.45505664 203.87666717 94.45596205 208.07141617 94.45410156 212.2668457 C94.46848267 213.51840958 94.48286377 214.76997345 94.49768066 216.0594635 C94.49218201 217.19949829 94.48668335 218.33953308 94.48101807 219.51411438 C94.48470524 220.50688542 94.48839241 221.49965647 94.49219131 222.52251148 C94 225 94 225 92.44439316 226.81905842 C89.10586191 228.43197832 86.03831847 228.41482269 82.40869141 228.38095093 C81.64038813 228.3856309 80.87208485 228.39031087 80.08049965 228.39513266 C77.50401208 228.40710626 74.92805409 228.39761636 72.3515625 228.38818359 C70.50526621 228.39224825 68.65897235 228.39758953 66.81268311 228.40411377 C61.79622194 228.41780578 56.77994559 228.41248093 51.76348114 228.40297651 C46.5176086 228.3953897 41.27175206 228.4024228 36.02587891 228.40713501 C27.21579136 228.41259541 18.40577922 228.40539347 9.59570312 228.39111328 C-0.59495016 228.37478624 -10.78542339 228.38007455 -20.97607231 228.3965925 C-29.72010783 228.41019924 -38.4640891 228.41213099 -47.20813179 228.40427649 C-52.43295366 228.39959551 -57.65769086 228.39898679 -62.88250732 228.40888596 C-67.79418125 228.41754152 -72.70562266 228.4115595 -77.61727142 228.39420319 C-79.4216549 228.3902308 -81.2260579 228.3913852 -83.03043365 228.39799118 C-85.49011855 228.40616717 -87.94905447 228.39593333 -90.40869141 228.38095093 C-91.12580984 228.38764309 -91.84292828 228.39433526 -92.58177757 228.40123022 C-95.54796928 228.36609077 -97.75857132 228.11663965 -100.44439316 226.81905842 C-102.58217378 224.31923152 -102.49316019 222.78338197 -102.48101807 219.51411438 C-102.48651672 218.37407959 -102.49201538 217.2340448 -102.49768066 216.0594635 C-102.48329956 214.80789963 -102.46891846 213.55633575 -102.45410156 212.2668457 C-102.45468567 210.9496756 -102.45526978 209.63250549 -102.45587158 208.27542114 C-102.45702068 204.66186006 -102.43348049 201.04882856 -102.40557575 197.43539071 C-102.38059427 193.65976909 -102.37822268 189.88413573 -102.37347412 186.10844421 C-102.36103471 178.95794305 -102.32820024 171.8076861 -102.28807616 164.65729254 C-102.24338831 156.51714634 -102.22137896 148.37698855 -102.20129442 140.23675025 C-102.15946829 123.4910238 -102.08909772 106.74554305 -102 90 C-103.07483643 90.01047363 -104.14967285 90.02094727 -105.25708008 90.03173828 C-109.24337435 90.06792779 -113.22965408 90.09089663 -117.21606445 90.10986328 C-118.94167523 90.11992326 -120.66726895 90.13357276 -122.39282227 90.15087891 C-124.8726014 90.17512754 -127.35215523 90.18648301 -129.83203125 90.1953125 C-130.60400345 90.20563507 -131.37597565 90.21595764 -132.17134094 90.22659302 C-135.99281476 90.22739422 -137.74136107 90.17242595 -141 88 C-141.9375 85.1875 -141.9375 85.1875 -142 82 C-138.69331545 76.24028537 -132.7263761 73.64203153 -127.125 70.5 C-124.94232112 69.25197904 -122.76003773 68.00326619 -120.578125 66.75390625 C-119.47533203 66.12629395 -118.37253906 65.49868164 -117.23632812 64.85205078 C-112.42018296 62.09591943 -107.64658985 59.26984795 -102.875 56.4375 C-101.05998029 55.36313856 -99.24487609 54.28891984 -97.4296875 53.21484375 C-96.53475586 52.68487793 -95.63982422 52.15491211 -94.71777344 51.60888672 C-90.14691269 48.90299628 -85.57331041 46.20174737 -81 43.5 C-79.16665371 42.4166886 -77.33332037 41.33335527 -75.5 40.25 C-64.5 33.75 -64.5 33.75 -61.74902344 32.12451172 C-59.91884158 31.04298151 -58.08876315 29.96127626 -56.25878906 28.87939453 C-51.62807798 26.14201619 -46.9955138 23.40786455 -42.359375 20.6796875 C-41.43012207 20.13207764 -40.50086914 19.58446777 -39.54345703 19.02026367 C-37.69662513 17.93253424 -35.84866066 16.84672522 -33.99951172 15.76293945 C-29.58072278 13.16269192 -25.20800514 10.51635655 -20.8984375 7.73828125 C-20.09180664 7.22410645 -19.28517578 6.70993164 -18.45410156 6.18017578 C-16.95387212 5.21870798 -15.46273791 4.24282105 -13.98339844 3.24951172 C-9.45244953 0.35877934 -5.43734338 -1.27455867 0 0 Z M-9.64453125 16.68359375 C-10.61672607 17.27285645 -11.5889209 17.86211914 -12.59057617 18.46923828 C-14.18542847 19.44352783 -14.18542847 19.44352783 -15.8125 20.4375 C-18.09556511 21.82033956 -20.37924944 23.20208821 -22.6640625 24.58203125 C-23.2601683 24.94246521 -23.85627411 25.30289917 -24.47044373 25.67425537 C-31.17283108 29.72036024 -37.92814095 33.6750731 -44.6875 37.625 C-47.14074041 39.05969855 -49.59380423 40.49469893 -52.046875 41.9296875 C-52.93731003 42.45043602 -52.93731003 42.45043602 -53.84573364 42.98170471 C-59.38533357 46.22259329 -64.91346841 49.48266427 -70.4375 52.75 C-71.30729492 53.2644165 -72.17708984 53.77883301 -73.07324219 54.30883789 C-75.71572628 55.8721678 -78.35789796 57.4360245 -81 59 C-84.97876503 61.35484626 -88.95802006 63.70886213 -92.9375 66.0625 C-93.84363037 66.59907227 -94.74976074 67.13564453 -95.68334961 67.68847656 C-100.43406827 70.49821925 -105.19936389 73.2763738 -110 76 C-110 76.33 -110 76.66 -110 77 C-40.04 77 29.92 77 102 77 C99.18519811 74.88889858 96.57654204 73.08355113 93.5703125 71.3203125 C92.7040625 70.81048828 91.8378125 70.30066406 90.9453125 69.77539062 C90.01460937 69.23076172 89.08390625 68.68613281 88.125 68.125 C86.12756729 66.95058355 84.1301725 65.7761026 82.1328125 64.6015625 C81.11219727 64.0024707 80.09158203 63.40337891 79.04003906 62.78613281 C74.35459695 60.03326624 69.67747438 57.26637514 65 54.5 C63.1667121 53.41658978 61.33337862 52.33325668 59.5 51.25 C55.83333333 49.08333333 52.16666667 46.91666667 48.5 44.75 C47.5917749 44.21334717 46.6835498 43.67669434 45.74780273 43.1237793 C43.92170281 42.04466863 42.09569311 40.96540527 40.26977539 39.88598633 C35.57651386 37.11176219 30.88152654 34.34052616 26.18359375 31.57421875 C24.26814268 30.44545926 22.35277673 29.3165553 20.4375 28.1875 C19.52129883 27.64778564 18.60509766 27.10807129 17.66113281 26.55200195 C11.46752951 22.89394026 5.33841722 19.148079 -0.734375 15.29296875 C-4.60747521 13.08263053 -6.04776618 14.48827169 -9.64453125 16.68359375 Z M-89 90 C-89 131.25 -89 172.5 -89 215 C-78.11 215 -67.22 215 -56 215 C-55.71089869 206.86272245 -55.71089869 206.86272245 -55.43188477 198.72509766 C-55.3747229 197.20988525 -55.3747229 197.20988525 -55.31640625 195.6640625 C-55.27974854 194.62717285 -55.24309082 193.5902832 -55.20532227 192.52197266 C-55 190 -55 190 -54 188 C-51.34081834 187.11360611 -49.51935359 186.82010975 -46.76953125 186.68359375 C-45.96708984 186.64169922 -45.16464844 186.59980469 -44.33789062 186.55664062 C-43.50451172 186.51732422 -42.67113281 186.47800781 -41.8125 186.4375 C-40.96751953 186.39431641 -40.12253906 186.35113281 -39.25195312 186.30664062 C-37.16815567 186.20068482 -35.08409897 186.0998498 -33 186 C-32.98969254 185.42592911 -32.97938507 184.85185822 -32.96876526 184.26039124 C-32.86092566 178.30734338 -32.74631023 172.35445385 -32.62768555 166.40161133 C-32.58426412 164.17736104 -32.54259455 161.95307585 -32.50268555 159.72875977 C-32.44515694 156.53911805 -32.38141316 153.3496532 -32.31640625 150.16015625 C-32.29969376 149.15912369 -32.28298126 148.15809113 -32.26576233 147.12672424 C-32.24581711 146.20584518 -32.22587189 145.28496613 -32.20532227 144.33618164 C-32.18200584 143.11373497 -32.18200584 143.11373497 -32.15821838 141.86659241 C-32 140 -32 140 -31 139 C-25.1589404 138.62913907 -25.1589404 138.62913907 -23 139 C-21 142 -21 142 -20 154 C-1.85 154 16.3 154 35 154 C35 148.39 35 142.78 35 137 C33.57945312 136.96261719 32.15890625 136.92523438 30.6953125 136.88671875 C28.83851458 136.82107438 26.98174493 136.75462652 25.125 136.6875 C24.18785156 136.66494141 23.25070312 136.64238281 22.28515625 136.61914062 C21.38925781 136.58369141 20.49335938 136.54824219 19.5703125 136.51171875 C18.74289551 136.48553467 17.91547852 136.45935059 17.06298828 136.43237305 C15 136 15 136 13 133 C13.25 129.375 13.25 129.375 14 126 C16.7781904 124.6109048 19.08534745 124.83668449 22.19384766 124.79467773 C23.49504547 124.77473251 24.79624329 124.75478729 26.13687134 124.73423767 C27.5626005 124.71725327 28.98833093 124.70037447 30.4140625 124.68359375 C31.86852613 124.66302479 33.32298377 124.64202834 34.7774353 124.62062073 C38.60786088 124.56539396 42.43834045 124.5159874 46.26885986 124.46777344 C50.8636059 124.40873673 55.45825313 124.34250544 60.05291748 124.27747345 C67.03521803 124.17945629 74.01758161 124.09060565 81 124 C81 112.78 81 101.56 81 90 C24.9 90 -31.2 90 -89 90 Z M48 137 C48 142.61 48 148.22 48 154 C58.89 154 69.78 154 81 154 C81 148.39 81 142.78 81 137 C70.11 137 59.22 137 48 137 Z M-20 167 C-20 173.27 -20 179.54 -20 186 C-9.44 186 1.12 186 12 186 C12 179.73 12 173.46 12 167 C1.44 167 -9.12 167 -20 167 Z M25 167 C25 173.27 25 179.54 25 186 C35.89 186 46.78 186 58 186 C58 179.73 58 173.46 58 167 C47.11 167 36.22 167 25 167 Z M71 167 C71 173.27 71 179.54 71 186 C74.3 186 77.6 186 81 186 C81 179.73 81 173.46 81 167 C77.7 167 74.4 167 71 167 Z M-43 200 C-43 204.95 -43 209.9 -43 215 C-32.44 215 -21.88 215 -11 215 C-11 210.05 -11 205.1 -11 200 C-21.56 200 -32.12 200 -43 200 Z M3 200 C3 204.95 3 209.9 3 215 C13.56 215 24.12 215 35 215 C35 210.05 35 205.1 35 200 C24.44 200 13.88 200 3 200 Z M48 200 C48 204.95 48 209.9 48 215 C58.89 215 69.78 215 81 215 C81 210.05 81 205.1 81 200 C70.11 200 59.22 200 48 200 Z " fill="#000000" transform="translate(379,253)"/>
</svg>
