<?xml version="1.0" encoding="UTF-8"?>
<svg version="1.1" xmlns="http://www.w3.org/2000/svg" width="407" height="412">
<path d="M0 0 C0.82497482 0.10528015 1.64994965 0.2105603 2.49992371 0.31903076 C4.24625691 0.5442869 5.99212655 0.773162 7.73754883 1.00537109 C10.39580369 1.35644765 13.05596597 1.68862262 15.71679688 2.01953125 C17.41551528 2.24103482 19.1140885 2.46365535 20.8125 2.6875 C21.60332474 2.78452209 22.39414948 2.88154419 23.2089386 2.98150635 C27.85261164 3.61933193 31.5353751 4.62137061 35.60546875 7.109375 C37.99174714 11.88193177 36.52907646 17.88461025 35.60546875 22.921875 C34.41832925 29.55638509 33.4402966 36.61385856 35.60546875 43.109375 C42.25549725 42.83229048 45.59166706 40.2920117 50.60546875 36.109375 C52.39506034 34.66929249 54.18676776 33.23183579 55.98046875 31.796875 C56.81320312 31.12011719 57.6459375 30.44335938 58.50390625 29.74609375 C61.59019951 27.34245644 64.27998343 26.25099207 68.28125 26.3515625 C78.29822807 29.61760241 86.69829151 47.7945627 92.23022461 56.1015625 C93.6033196 58.15875278 93.6033196 58.15875278 95.26782227 60.19140625 C96.60546875 62.109375 96.60546875 62.109375 96.79296875 64.921875 C93.81409054 72.91781125 84.2043737 77.58132679 77.36328125 82.19140625 C74.61434074 83.98264527 74.61434074 83.98264527 72.60546875 86.109375 C72.43865766 89.19285326 72.43865766 89.19285326 72.60546875 92.109375 C78.57586758 95.09873787 84.19538389 95.93298047 90.79296875 96.671875 C92.74557036 96.89565056 94.69744649 97.1258731 96.6484375 97.36328125 C97.5046167 97.45939697 98.3607959 97.5555127 99.24291992 97.65454102 C101.70025784 98.12762364 103.47781994 98.80030343 105.60546875 100.109375 C109.25564742 107.40973235 105.86395006 119.13643776 104.79296875 126.796875 C104.62732422 128.07626953 104.46167969 129.35566406 104.29101562 130.67382812 C102.25562406 145.45921969 102.25562406 145.45921969 97.60546875 150.109375 C90.54226854 150.70795129 84.10639823 149.31713262 77.25390625 147.765625 C70.07730974 146.45459878 70.07730974 146.45459878 63.60546875 149.109375 C62.76384836 151.80508815 62.76384836 151.80508815 63.60546875 155.109375 C65.65065439 158.35068437 68.12393578 161.19566494 70.60546875 164.109375 C72.06942564 165.91733589 73.52785065 167.72979134 74.98046875 169.546875 C75.98207031 170.78244141 75.98207031 170.78244141 77.00390625 172.04296875 C79.04423928 174.67549599 79.58076597 175.95189481 80.10546875 179.296875 C79.31156447 185.35039511 74.99050267 188.18822835 70.37744141 191.90405273 C67.99853321 193.71651862 65.59177059 195.48246104 63.16796875 197.234375 C62.36037109 197.82863281 61.55277344 198.42289063 60.72070312 199.03515625 C47.5193757 208.67286991 47.5193757 208.67286991 42.04296875 209.921875 C34.06606028 208.03642391 29.49498648 198.31167148 25.0690918 191.85888672 C23.06789986 188.97255984 21.56370941 187.08153544 18.60546875 185.109375 C16.00657092 185.02912842 16.00657092 185.02912842 13.60546875 186.109375 C11.90951401 189.52150562 11.25918459 192.6862685 10.859375 196.453125 C10.68631836 197.95166016 10.68631836 197.95166016 10.50976562 199.48046875 C10.28194672 201.56598814 10.05798608 203.65193263 9.83789062 205.73828125 C8.60519395 216.29452352 8.60519395 216.29452352 5.60546875 219.109375 C-2.25682642 221.02621556 -9.98637011 219.51784418 -17.89453125 218.359375 C-19.16167969 218.18921875 -20.42882812 218.0190625 -21.734375 217.84375 C-39.12064867 215.38325758 -39.12064867 215.38325758 -43.39453125 211.109375 C-44.15689811 205.58221525 -43.29166646 200.00658359 -42.39453125 194.546875 C-41.52819184 189.26781401 -40.96363566 184.45248036 -41.39453125 179.109375 C-42.83325565 177.37264984 -42.83325565 177.37264984 -44.39453125 176.109375 C-50.24713178 177.36561501 -53.53795927 179.45640091 -57.89453125 183.484375 C-68.17709196 192.84125506 -68.17709196 192.84125506 -74.39453125 193.359375 C-81.67736334 190.32486163 -86.49859173 181.43735393 -90.95703125 175.171875 C-91.49521484 174.42486328 -92.03339844 173.67785156 -92.58789062 172.90820312 C-93.66390939 171.40747419 -94.73126516 169.90049328 -95.78955078 168.38720703 C-96.89112341 166.82382514 -98.01872023 165.27855557 -99.16748047 163.74951172 C-103.35570484 157.97786053 -103.35570484 157.97786053 -103.54296875 153.7890625 C-102.16531122 150.57452826 -100.8297299 149.29991533 -98.01953125 147.234375 C-97.12492188 146.5640625 -96.2303125 145.89375 -95.30859375 145.203125 C-94.34695312 144.5121875 -93.3853125 143.82125 -92.39453125 143.109375 C-91.39164063 142.3771875 -90.38875 141.645 -89.35546875 140.890625 C-87.45841591 139.50913005 -85.5552777 138.13592999 -83.64453125 136.7734375 C-81.34532747 135.1588718 -81.34532747 135.1588718 -79.39453125 133.109375 C-79.22775843 129.52593524 -79.22775843 129.52593524 -79.39453125 126.109375 C-80.18102051 126.00391357 -80.96750977 125.89845215 -81.77783203 125.78979492 C-85.35999043 125.30314315 -88.93967601 124.80017776 -92.51953125 124.296875 C-93.75703125 124.13123047 -94.99453125 123.96558594 -96.26953125 123.79492188 C-97.46835938 123.62412109 -98.6671875 123.45332031 -99.90234375 123.27734375 C-101.0020752 123.12547607 -102.10180664 122.9736084 -103.23486328 122.81713867 C-106.88133601 122.00033103 -110.68480292 120.81910333 -113.39453125 118.109375 C-114.37218878 108.89375079 -112.9503981 99.76913342 -111.58203125 90.671875 C-111.41678955 89.546604 -111.25154785 88.42133301 -111.08129883 87.26196289 C-108.92205847 73.63690222 -108.92205847 73.63690222 -105.39453125 70.109375 C-98.31939544 69.65050496 -91.7119932 70.07714149 -84.8203125 71.65625 C-80.73763798 72.41887519 -76.5199413 72.6488517 -72.39453125 72.109375 C-70.04315551 70.21968714 -70.04315551 70.21968714 -70.33203125 67.046875 C-71.27512423 61.72826924 -75.04169594 58.14425096 -78.39453125 54.109375 C-79.89233039 52.18624266 -81.37155763 50.24850434 -82.83203125 48.296875 C-83.51136719 47.40355469 -84.19070312 46.51023438 -84.890625 45.58984375 C-86.39453125 43.109375 -86.39453125 43.109375 -86.39453125 39.109375 C-110.35868006 41.00724494 -133.61880895 47.34141404 -152.39453125 63.109375 C-153.25304687 63.82996094 -154.1115625 64.55054687 -154.99609375 65.29296875 C-176.20123402 83.77539464 -189.49541664 108.81893355 -191.61328125 137.02246094 C-193.13633115 166.42684303 -184.72647078 194.80771064 -165.12084961 217.15893555 C-158.06500723 224.87914475 -150.01188908 231.29506476 -141.51953125 237.359375 C-131.28779941 244.69112471 -124.83416179 252.49539689 -122.39453125 265.109375 C-122.1308226 267.92744701 -122.09426164 270.72553729 -122.0859375 273.5546875 C-122.0607981 275.14193108 -122.03539981 276.72917058 -122.00976562 278.31640625 C-121.98098475 280.7827058 -121.95692092 283.24893505 -121.93823242 285.71533203 C-121.91651516 288.12045907 -121.87710298 290.52482598 -121.8359375 292.9296875 C-121.83576378 294.02677536 -121.83576378 294.02677536 -121.83558655 295.14602661 C-121.74489349 299.86788611 -121.21977138 303.27594483 -118.39453125 307.109375 C-111.85870608 310.63754733 -105.53463105 310.54816551 -98.23046875 310.5078125 C-97.07962799 310.51068268 -95.92878723 310.51355286 -94.74307251 310.51651001 C-92.32089747 310.5185436 -89.89870575 310.51306331 -87.4765625 310.50048828 C-83.77436623 310.48439602 -80.07325677 310.50037705 -76.37109375 310.51953125 C-74.01171635 310.51754927 -71.65233962 310.51370653 -69.29296875 310.5078125 C-67.63809952 310.51692154 -67.63809952 310.51692154 -65.94979858 310.5262146 C-59.39727818 310.46633609 -54.86611721 309.86270179 -49.58203125 305.671875 C-46.69025128 301.86690135 -47.24566237 297.05537698 -47.21875 292.484375 C-47.19552445 290.95701788 -47.17140606 289.42967413 -47.14648438 287.90234375 C-47.11163758 285.51765336 -47.08216816 283.13344709 -47.06860352 280.74853516 C-46.95318813 263.74163385 -43.63160673 252.11792212 -31.35864258 239.94848633 C-28.13271961 236.9278676 -24.67713607 234.25882861 -21.14453125 231.609375 C-20.438125 231.06023437 -19.73171875 230.51109375 -19.00390625 229.9453125 C-18.32328125 229.43226563 -17.64265625 228.91921875 -16.94140625 228.390625 C-16.33135742 227.92720703 -15.72130859 227.46378906 -15.09277344 226.98632812 C-14.25214355 226.55223633 -14.25214355 226.55223633 -13.39453125 226.109375 C-10.23076759 227.16396289 -9.311216 227.94026096 -7.14453125 230.359375 C-6.603125 230.94203125 -6.06171875 231.5246875 -5.50390625 232.125 C-4.39453125 234.109375 -4.39453125 234.109375 -4.24609375 236.48046875 C-6.04579641 240.60019626 -9.38730658 242.42696073 -13.01953125 244.921875 C-22.04501361 251.40928232 -29.64507755 257.4804676 -31.95385742 268.86816406 C-32.43284325 272.39116455 -32.53834865 275.78863396 -32.5703125 279.34375 C-32.59351944 280.73699413 -32.61763713 282.13022333 -32.64257812 283.5234375 C-32.67752342 285.68662439 -32.70696819 287.84926171 -32.72045898 290.01269531 C-32.79640554 300.2339332 -33.10621446 309.90564228 -40.51953125 317.734375 C-43.39453125 320.109375 -43.39453125 320.109375 -45.39453125 320.109375 C-45.3788208 321.24366943 -45.36311035 322.37796387 -45.34692383 323.54663086 C-45.29226425 327.79020981 -45.25805118 332.03375818 -45.22973633 336.27758789 C-45.21473128 338.10771941 -45.19432066 339.93781546 -45.16821289 341.76782227 C-45.13146219 344.41171058 -45.11472188 347.05511992 -45.1015625 349.69921875 C-45.08607864 350.50584457 -45.07059479 351.3124704 -45.05464172 352.14353943 C-45.05221133 360.51107423 -47.342507 367.75390213 -52.58203125 374.31640625 C-58.96404527 380.62964856 -66.20629317 382.25512052 -74.87109375 382.34765625 C-75.59638275 382.355728 -76.32167175 382.36379974 -77.06893921 382.37211609 C-78.60371539 382.38592148 -80.13852181 382.39665943 -81.67333984 382.40454102 C-83.22681823 382.41601833 -84.78025851 382.4364025 -86.33349609 382.46606445 C-97.82812401 382.685278 -108.07563257 382.10677141 -116.92578125 373.8828125 C-122.73432675 366.86930278 -123.52655823 358.57170004 -123.4296875 349.80859375 C-123.4334008 348.17512392 -123.43932997 346.5416579 -123.44726562 344.90820312 C-123.45780611 342.35323951 -123.45709427 339.80106823 -123.41870117 337.24633789 C-122.96704079 327.36680758 -122.96704079 327.36680758 -126.15209961 318.33007812 C-128.21565633 316.23333517 -128.21565633 316.23333517 -130.43945312 314.6784668 C-134.86287315 311.12835185 -136.03907249 305.28100219 -136.64697266 299.85693359 C-137.08412912 294.61209938 -137.27878314 289.37012652 -137.39453125 284.109375 C-137.90242187 284.67527344 -138.4103125 285.24117188 -138.93359375 285.82421875 C-141.85800894 288.9403091 -144.38975975 291.62883211 -148.26953125 293.484375 C-153.41890897 292.86644967 -157.16502653 289.97329972 -161.39453125 287.109375 C-162.26722656 286.53574219 -163.13992187 285.96210938 -164.0390625 285.37109375 C-166.16855496 283.96596408 -168.28596838 282.54564246 -170.39453125 281.109375 C-170.57628906 282.19476563 -170.75804687 283.28015625 -170.9453125 284.3984375 C-171.19872659 285.84383637 -171.4526605 287.28914418 -171.70703125 288.734375 C-171.82498047 289.44722656 -171.94292969 290.16007812 -172.06445312 290.89453125 C-173.0257075 296.26769672 -174.00051302 301.34836651 -178.6262207 304.75097656 C-181.79475848 306.30576483 -183.88028281 306.49628137 -187.39453125 306.5078125 C-188.52890625 306.51167969 -189.66328125 306.51554687 -190.83203125 306.51953125 C-192.00765625 306.50792969 -193.18328125 306.49632812 -194.39453125 306.484375 C-195.57015625 306.49597656 -196.74578125 306.50757813 -197.95703125 306.51953125 C-199.09140625 306.51566406 -200.22578125 306.51179688 -201.39453125 306.5078125 C-202.42578125 306.50442871 -203.45703125 306.50104492 -204.51953125 306.49755859 C-207.85294789 306.04747941 -209.71470332 305.12019874 -212.39453125 303.109375 C-214.9694743 298.29535104 -216.12266349 293.51392829 -217.08203125 288.171875 C-217.21158203 287.48802734 -217.34113281 286.80417969 -217.47460938 286.09960938 C-217.78842723 284.43753702 -218.09252291 282.77363373 -218.39453125 281.109375 C-218.84779785 281.43736084 -219.30106445 281.76534668 -219.76806641 282.10327148 C-221.84400686 283.59580017 -223.93147986 285.07134307 -226.01953125 286.546875 C-226.73238281 287.06314453 -227.44523437 287.57941406 -228.1796875 288.11132812 C-235.39095252 293.17244532 -235.39095252 293.17244532 -240.39453125 293.109375 C-244.08976981 291.19672253 -246.86219152 288.88882832 -249.78515625 285.94921875 C-250.57664062 285.15580078 -251.368125 284.36238281 -252.18359375 283.54492188 C-252.99570313 282.72056641 -253.8078125 281.89621094 -254.64453125 281.046875 C-255.47210938 280.21865234 -256.2996875 279.39042969 -257.15234375 278.53710938 C-264.22583669 271.41143493 -264.22583669 271.41143493 -264.796875 267.00390625 C-264.25737911 261.78179553 -262.04284151 258.92276009 -258.95703125 254.796875 C-257.93693049 253.38452575 -256.91737294 251.97178395 -255.8984375 250.55859375 C-255.44283447 249.94330811 -254.98723145 249.32802246 -254.51782227 248.6940918 C-253.32379848 247.09489481 -253.32379848 247.09489481 -252.39453125 245.109375 C-253.22855469 245.07199219 -254.06257813 245.03460938 -254.921875 244.99609375 C-270.44236608 244.0893984 -270.44236608 244.0893984 -276.09375 239.828125 C-277.83652876 237.52535427 -277.89825434 235.85129485 -278.08203125 232.984375 C-278.14519531 232.00210938 -278.20835937 231.01984375 -278.2734375 230.0078125 C-278.43976441 226.02669739 -278.54130303 222.09222748 -278.39453125 218.109375 C-278.35199219 216.69205078 -278.35199219 216.69205078 -278.30859375 215.24609375 C-278.25445312 214.27285156 -278.2003125 213.29960937 -278.14453125 212.296875 C-278.098125 211.40355469 -278.05171875 210.51023438 -278.00390625 209.58984375 C-277.20177652 206.32476441 -276.04759236 205.14950294 -273.39453125 203.109375 C-270.625 202.09765625 -270.625 202.09765625 -267.58203125 201.421875 C-266.52886719 201.1846875 -265.47570312 200.9475 -264.390625 200.703125 C-261.05990674 200.04306089 -257.76767487 199.49268677 -254.39453125 199.109375 C-254.39453125 194.37705124 -257.94611037 191.20499854 -260.83984375 187.64257812 C-263.23607239 184.49667223 -264.75503135 182.00183071 -265.0234375 177.99609375 C-264.24936353 173.21222046 -262.90899068 171.80601169 -259.33203125 168.609375 C-255.86447968 165.42342661 -252.5657792 162.26513826 -249.58203125 158.609375 C-246.83897047 155.42873071 -244.48840053 153.41592903 -240.39453125 152.109375 C-235.17503112 151.99338611 -231.82977085 154.58698248 -227.71875 157.4765625 C-225.46542331 159.05957184 -223.17266256 160.5344264 -220.83203125 161.984375 C-220.17074219 162.39429688 -219.50945312 162.80421875 -218.828125 163.2265625 C-218.11849609 163.66355469 -218.11849609 163.66355469 -217.39453125 164.109375 C-217.28496094 163.02398437 -217.17539063 161.93859375 -217.0625 160.8203125 C-216.90294517 159.37493348 -216.74275514 157.92962449 -216.58203125 156.484375 C-216.51177734 155.77152344 -216.44152344 155.05867187 -216.36914062 154.32421875 C-215.73975083 148.83593975 -214.57245951 144.15118274 -210.39453125 140.234375 C-208.39453125 139.109375 -208.39453125 139.109375 -205.39453125 139.109375 C-205.41773438 137.94277344 -205.4409375 136.77617187 -205.46484375 135.57421875 C-205.42693212 106.8056132 -189.04144146 78.60305579 -169.45703125 58.671875 C-163.30487097 52.62733759 -156.8225326 47.53187388 -149.39453125 43.109375 C-148.43788574 42.53944824 -148.43788574 42.53944824 -147.46191406 41.95800781 C-127.04142751 30.03212905 -105.75744458 24.32088011 -82.08569336 25.30712891 C-72.09583889 25.58866617 -67.85719959 22.64659173 -60.45703125 15.921875 C-54.17110199 10.4766261 -54.17110199 10.4766261 -49.95703125 9.734375 C-45.62726234 10.19014015 -44.53558042 11.1483558 -41.39453125 14.109375 C-39.58102958 16.49869783 -37.98473705 19.00503042 -36.39453125 21.546875 C-33.45698027 26.2148271 -30.66412697 30.51539231 -26.39453125 34.109375 C-23.14414636 34.05545307 -23.14414636 34.05545307 -20.39453125 33.109375 C-17.95666282 26.85843031 -17.43499445 20.42844055 -16.71484375 13.80859375 C-16.00772308 8.19180567 -15.14374153 4.4343067 -11.39453125 0.109375 C-7.43743348 -1.20965759 -4.04835429 -0.53401983 0 0 Z M-1.39453125 14.109375 C-3.19023829 19.49649613 -4.27844719 24.62408836 -5.16210938 30.1875 C-6.1349101 35.82006992 -7.56012799 40.32455021 -11.70703125 44.359375 C-16.91856008 47.75292866 -22.20302103 49.01886238 -28.39453125 48.109375 C-35.21793309 46.04800313 -39.1310364 41.58691435 -43.39453125 36.109375 C-44.05195313 35.27792969 -44.709375 34.44648437 -45.38671875 33.58984375 C-47.07177593 31.44122666 -48.7401711 29.28166553 -50.39453125 27.109375 C-56.86883965 30.41846596 -66.08253644 35.48538538 -69.39453125 42.109375 C-68.8634375 42.83382812 -68.33234375 43.55828125 -67.78515625 44.3046875 C-55.53123292 61.07556797 -55.53123292 61.07556797 -56.39453125 71.109375 C-57.54892664 76.95548742 -60.0785138 80.28047499 -64.67578125 83.98046875 C-72.09550217 88.85387635 -83.66452314 85.93754196 -91.77734375 84.44921875 C-94.37068382 83.86467402 -94.37068382 83.86467402 -96.39453125 85.109375 C-96.95954514 87.53048956 -96.95954514 87.53048956 -97.24609375 90.45703125 C-97.375 91.53662109 -97.50390625 92.61621094 -97.63671875 93.72851562 C-97.76304687 94.86482422 -97.889375 96.00113281 -98.01953125 97.171875 C-98.15359375 98.31205078 -98.28765625 99.45222656 -98.42578125 100.62695312 C-98.75693375 103.45357623 -99.07945194 106.28092252 -99.39453125 109.109375 C-97.76257813 109.23892578 -97.76257813 109.23892578 -96.09765625 109.37109375 C-75.34577658 111.25569115 -75.34577658 111.25569115 -68.80859375 117.6640625 C-65.02855166 123.05263313 -64.74403309 128.77408861 -65.39453125 135.109375 C-68.14415797 144.91696074 -77.58768422 150.44110575 -85.39453125 156.109375 C-83.82332356 160.78728882 -81.26333509 164.40862229 -78.39453125 168.359375 C-77.94335938 168.99617187 -77.4921875 169.63296875 -77.02734375 170.2890625 C-74.6924483 173.72386148 -74.6924483 173.72386148 -71.39453125 176.109375 C-70.36972656 175.33851563 -69.34492188 174.56765625 -68.2890625 173.7734375 C-66.92860048 172.76012786 -65.5679114 171.74712302 -64.20703125 170.734375 C-63.53349609 170.22648438 -62.85996094 169.71859375 -62.16601562 169.1953125 C-54.60129432 163.58634841 -48.84956939 162.28831334 -39.39453125 163.109375 C-34.6221955 164.72856034 -32.13564908 166.8998012 -29.39453125 171.109375 C-25.02979002 180.27533158 -27.59750505 192.36003671 -28.39453125 202.109375 C-24.95869919 202.64163674 -21.5206883 203.15820738 -18.08203125 203.671875 C-17.10556641 203.82333984 -16.12910156 203.97480469 -15.12304688 204.13085938 C-14.18525391 204.26943359 -13.24746094 204.40800781 -12.28125 204.55078125 C-11.41717529 204.68170166 -10.55310059 204.81262207 -9.6628418 204.94750977 C-7.22838516 205.26674376 -7.22838516 205.26674376 -4.39453125 204.109375 C-4.224375 202.91441406 -4.05421875 201.71945313 -3.87890625 200.48828125 C-0.8670068 180.28796621 -0.8670068 180.28796621 4.359375 175.50390625 C8.75206733 172.43503901 13.21834067 170.75495868 18.60546875 171.109375 C27.80681493 173.00831054 32.74892174 177.82405313 37.91796875 185.359375 C38.37236328 186.0090625 38.82675781 186.65875 39.29492188 187.328125 C40.40501014 188.91730399 41.50616526 190.51271673 42.60546875 192.109375 C45.64335516 191.51473548 47.56486252 190.62438586 49.98828125 188.7109375 C50.59800781 188.23140625 51.20773437 187.751875 51.8359375 187.2578125 C52.46113281 186.75507813 53.08632813 186.25234375 53.73046875 185.734375 C54.36339844 185.239375 54.99632812 184.744375 55.6484375 184.234375 C58.53227404 181.94444959 60.53234657 180.21905826 62.60546875 177.109375 C62.0021875 176.3359375 61.39890625 175.5625 60.77734375 174.765625 C48.73259868 159.06860239 48.73259868 159.06860239 49.16015625 148.79296875 C49.8745497 144.48780823 51.49662514 141.17722287 54.60546875 138.109375 C59.89584723 134.42570406 63.54965784 133.53173885 69.91796875 133.796875 C70.65909912 133.81234375 71.40022949 133.8278125 72.16381836 133.84375 C77.67793719 133.98808292 83.1325041 134.41439536 88.60546875 135.109375 C89.08608999 132.42212796 89.56500371 129.73459467 90.04296875 127.046875 C90.2450293 125.91862305 90.2450293 125.91862305 90.45117188 124.76757812 C91.25758645 120.22412042 91.98008819 115.68133193 92.60546875 111.109375 C91.97568115 111.00915039 91.34589355 110.90892578 90.69702148 110.80566406 C87.80981459 110.3378554 84.92658596 109.84880465 82.04296875 109.359375 C81.05232422 109.20210938 80.06167969 109.04484375 79.04101562 108.8828125 C71.81124472 107.63381553 66.36117208 106.08263385 61.23046875 100.546875 C57.81946755 95.4303732 58.12755969 90.05763594 58.60546875 84.109375 C61.28900579 76.86382498 66.0824769 72.43980698 72.35546875 68.296875 C73.25845703 67.68682617 73.25845703 67.68682617 74.1796875 67.06445312 C75.65024066 66.0724133 77.12721034 65.08989612 78.60546875 64.109375 C76.98432373 59.31115841 74.31270116 55.4420891 71.48046875 51.296875 C71.01253906 50.60400391 70.54460937 49.91113281 70.0625 49.19726562 C68.91434438 47.49846395 67.76047508 45.80352636 66.60546875 44.109375 C61.83704145 45.10196805 58.4941502 47.86547524 54.64648438 50.6953125 C48.03361919 55.44220983 41.89320412 58.21541647 33.60546875 57.109375 C28.27829729 55.1629085 24.05341064 52.00525877 21.4765625 46.8515625 C18.59432908 37.7783434 20.77696229 26.43007262 21.60546875 17.109375 C14.01546875 16.119375 6.42546875 15.129375 -1.39453125 14.109375 Z M-204.39453125 166.109375 C-204.86632812 167.15738281 -204.86632812 167.15738281 -205.34765625 168.2265625 C-205.775625 169.13664063 -206.20359375 170.04671875 -206.64453125 170.984375 C-207.0621875 171.88929688 -207.47984375 172.79421875 -207.91015625 173.7265625 C-209.55527869 176.36741695 -210.49417824 177.1058308 -213.39453125 178.109375 C-221.02881522 179.16237969 -225.16214993 176.25082774 -231.39453125 172.109375 C-232.76209279 171.30492703 -234.13615046 170.51130401 -235.51953125 169.734375 C-236.46828125 169.198125 -237.41703125 168.661875 -238.39453125 168.109375 C-241.69453125 171.409375 -244.99453125 174.709375 -248.39453125 178.109375 C-246.8735577 181.91180887 -245.67260713 184.37450724 -243.39453125 187.609375 C-240.34551946 191.93897174 -238.26516243 195.26586925 -238.64453125 200.671875 C-239.29202622 203.6395603 -239.8455337 205.55716763 -241.39453125 208.109375 C-247.05954821 211.67623753 -252.25550339 212.82092439 -258.85546875 213.71484375 C-261.3797469 213.97507517 -261.3797469 213.97507517 -263.39453125 215.109375 C-263.39453125 220.059375 -263.39453125 225.009375 -263.39453125 230.109375 C-261.65816406 230.47289062 -261.65816406 230.47289062 -259.88671875 230.84375 C-258.34750979 231.18162514 -256.80845524 231.52020425 -255.26953125 231.859375 C-254.50898438 232.01664062 -253.7484375 232.17390625 -252.96484375 232.3359375 C-248.04523567 233.43860828 -244.40399851 234.89068094 -240.39453125 238.109375 C-238.03993019 242.71620316 -238.01679061 246.16571739 -239.39453125 251.109375 C-241.04946719 253.98482619 -242.82604206 256.72564754 -244.703125 259.4609375 C-246.29947347 261.96053164 -247.39469466 264.32591033 -248.39453125 267.109375 C-247.01807466 268.64776766 -245.61758093 270.16468081 -244.20703125 271.671875 C-243.42972656 272.51878906 -242.65242188 273.36570312 -241.8515625 274.23828125 C-239.58087495 276.36025918 -239.58087495 276.36025918 -236.91796875 276.10546875 C-233.98896855 274.94928446 -231.73973548 273.47920808 -229.20703125 271.609375 C-223.63825176 267.53506557 -220.33198171 266.30350954 -213.39453125 267.109375 C-209.15597548 268.99317756 -207.75307141 270.37901541 -205.70703125 274.546875 C-203.87666233 280.28856797 -202.68082555 286.22917249 -201.39453125 292.109375 C-196.44453125 292.109375 -191.49453125 292.109375 -186.39453125 292.109375 C-186.224375 291.03558594 -186.05421875 289.96179688 -185.87890625 288.85546875 C-185.6348259 287.41914977 -185.38999396 285.98295838 -185.14453125 284.546875 C-185.03496094 283.84240234 -184.92539063 283.13792969 -184.8125 282.41210938 C-183.90510461 277.2304041 -182.3989742 273.45704518 -179.39453125 269.109375 C-176.25322115 266.92757012 -173.00695398 266.41197535 -169.171875 266.4375 C-164.60862188 267.54140934 -161.02739424 270.25251931 -157.26806641 272.99536133 C-154.07126536 275.37826225 -154.07126536 275.37826225 -150.26953125 276.15234375 C-147.68273361 274.71343756 -145.80142037 272.95030232 -143.70703125 270.859375 C-142.91941406 270.09109375 -142.13179688 269.3228125 -141.3203125 268.53125 C-139.22395446 265.89485653 -138.50166391 264.46262719 -138.39453125 261.109375 C-142.5649502 252.21015465 -152.15858782 245.86256575 -160.39453125 241.109375 C-160.85601562 241.76164062 -161.3175 242.41390625 -161.79296875 243.0859375 C-168.69146363 252.32937531 -176.90203862 258.09109981 -188.39453125 260.109375 C-199.3351786 261.22689383 -209.24092267 259.4140183 -218.26953125 252.921875 C-225.91161344 246.45656271 -231.39182418 237.13644568 -232.39453125 227.109375 C-233.11950115 215.170027 -230.03542399 205.74212009 -222.58203125 196.359375 C-216.51008182 189.68639504 -208.80333117 186.87624115 -200.39453125 184.109375 C-200.87773973 177.9039608 -201.72771249 172.10992254 -203.39453125 166.109375 C-203.72453125 166.109375 -204.05453125 166.109375 -204.39453125 166.109375 Z M-212.70703125 205.171875 C-217.18074333 211.02019135 -219.86159557 217.89219679 -219.39453125 225.296875 C-218.19489574 232.71814957 -215.26306002 238.21274537 -209.3046875 242.85546875 C-203.12038844 246.91510065 -196.72396599 248.14184955 -189.39453125 247.109375 C-181.47414366 244.65782646 -175.40321153 240.51001552 -171.39453125 233.109375 C-171.73346782 229.51087817 -173.35980637 227.81884283 -175.83203125 225.296875 C-179.54110106 221.26702077 -182.6311169 217.03964085 -185.64453125 212.484375 C-186.05630615 211.86328857 -186.46808105 211.24220215 -186.89233398 210.60229492 C-189.55748536 206.52386295 -192.0128294 202.35929253 -194.39453125 198.109375 C-201.45141284 197.38559227 -207.84926942 200.05585242 -212.70703125 205.171875 Z M-109.39453125 325.109375 C-109.39453125 328.739375 -109.39453125 332.369375 -109.39453125 336.109375 C-92.89453125 336.109375 -76.39453125 336.109375 -59.39453125 336.109375 C-59.39453125 332.149375 -59.39453125 328.189375 -59.39453125 324.109375 C-66.35457091 324.08473299 -73.31458541 324.06654278 -80.2746582 324.05444336 C-82.64445437 324.04940159 -85.0142474 324.04256835 -87.3840332 324.03393555 C-90.78207164 324.0218631 -94.1800691 324.01614529 -97.578125 324.01171875 C-98.6447789 324.00655746 -99.7114328 324.00139618 -100.81040955 323.99607849 C-101.79135086 323.99600296 -102.77229218 323.99592743 -103.78295898 323.99584961 C-104.65121811 323.993629 -105.51947723 323.99140839 -106.41404724 323.98912048 C-108.39596806 323.88982833 -108.39596806 323.88982833 -109.39453125 325.109375 Z M-109.39453125 351.109375 C-109.79164605 355.7953297 -109.86022098 358.19524331 -107.70703125 362.421875 C-104.45015776 366.20689014 -101.91205658 367.86958544 -96.93359375 368.65625 C-79.55754452 370.0586728 -79.55754452 370.0586728 -63.39453125 365.109375 C-60.24186902 361.6305753 -59.25584356 358.56932389 -59.33203125 353.921875 C-59.35265625 352.66375 -59.37328125 351.405625 -59.39453125 350.109375 C-66.35456572 350.08410662 -73.31458845 350.06654278 -80.2746582 350.05444336 C-82.64445437 350.04940159 -85.0142474 350.04256835 -87.3840332 350.03393555 C-90.78207164 350.0218631 -94.1800691 350.01614529 -97.578125 350.01171875 C-98.6447789 350.00655746 -99.7114328 350.00139618 -100.81040955 349.99607849 C-101.79135086 349.99600296 -102.77229218 349.99592743 -103.78295898 349.99584961 C-104.65121811 349.993629 -105.51947723 349.99140839 -106.41404724 349.98912048 C-108.39596806 349.88982833 -108.39596806 349.88982833 -109.39453125 351.109375 Z " fill="#FFFFFF" transform="translate(294.39453125,20.890625)"/>
<path d="M0 0 C14.4688582 -0.56372175 27.38415249 3.89106568 38.03125 13.65625 C48.62521324 24.82377176 52.61217727 39.02424091 52.78125 54.15625 C51.84599601 69.7957751 46.36386931 82.12983286 35.03125 92.90625 C22.68282604 103.22053435 7.15955995 104.40474279 -8.21875 103.15625 C-21.67604645 100.74680526 -32.12059501 94.10892705 -40.21875 83.15625 C-48.60490789 69.93614957 -51.32548262 54.39080775 -48.08666992 39.1262207 C-46.3344003 31.67885784 -43.78404264 25.34296899 -39.21875 19.15625 C-38.77917969 18.52460937 -38.33960938 17.89296875 -37.88671875 17.2421875 C-30.42753758 7.482913 -17.99726411 2.17860421 -6.09375 0.40625 C-4.06221469 0.27518321 -2.03072958 0.14300913 0 0 Z M-24.03125 23.65625 C-24.753125 24.48125 -25.475 25.30625 -26.21875 26.15625 C-26.899375 26.89875 -27.58 27.64125 -28.28125 28.40625 C-35.21807106 38.25206054 -36.70936504 49.1367658 -34.7578125 60.9453125 C-31.94401766 71.37290515 -26.49554271 79.5303241 -17.21875 85.15625 C-6.95628289 90.4488431 2.6524452 91.1749383 13.78125 88.15625 C23.58042112 84.49356962 30.07659354 79.39558527 35.09375 70.21875 C39.69577569 60.08639302 40.03250449 49.48131129 36.81640625 38.890625 C33.02723997 28.88150651 26.86569704 21.32634165 17.09375 16.78125 C3.23985973 10.95603106 -12.88881058 13.75185941 -24.03125 23.65625 Z " fill="#FFFFFF" transform="translate(289.21875,78.84375)"/>
<path d="M0 0 C7 8.44827586 7 8.44827586 7 13 C5.6015625 14.25390625 5.6015625 14.25390625 3.625 15.5625 C-13.08263423 27.60616566 -22.91267426 45.10283497 -26.49609375 65.2109375 C-29.23411847 85.7991854 -23.48120835 104.92834413 -12 122 C-3.36177223 133.24417358 7.49323027 139.43350459 19.9375 145.8125 C35.50280205 154.01965926 46.56466747 162.1940024 52.3125 179.4375 C53.99433671 185.31346063 54.67496354 190.90556637 55 197 C50.38 197 45.76 197 41 197 C40.78085938 195.96101562 40.56171875 194.92203125 40.3359375 193.8515625 C37.69906611 181.98136524 34.37615467 172.64578561 24.30078125 165.0625 C19.20246239 161.8768049 13.81455477 159.32799409 8.40478516 156.7175293 C1.64380174 153.42451328 -4.17781215 149.79593833 -10 145 C-10.68707031 144.4740625 -11.37414062 143.948125 -12.08203125 143.40625 C-29.03263683 129.76552598 -39.04775931 107.50710554 -41.55078125 86.29296875 C-43.86468604 61.95069041 -37.33419174 38.39094689 -21.8359375 19.33984375 C-15.43549227 12.02343375 -8.51223294 4.8145431 0 0 Z " fill="#FFFFFF" transform="translate(162,91)"/>
<path d="M0 0 C3.54339103 0.63196823 5.83331266 2.07080928 8.75390625 4.140625 C9.68259521 4.79353516 10.61128418 5.44644531 11.56811523 6.11914062 C12.55626221 6.82232422 13.54440918 7.52550781 14.5625 8.25 C16.62713232 9.70379533 18.69224468 11.15690915 20.7578125 12.609375 C21.79711914 13.34220703 22.83642578 14.07503906 23.90722656 14.83007812 C28.55728096 18.09260445 33.24441133 21.29981734 37.9375 24.5 C38.75355713 25.05719727 39.56961426 25.61439453 40.41040039 26.18847656 C42.27302107 27.45983738 44.13617998 28.7303984 46 30 C44.27687791 34.66209202 41.95555839 38.03332953 39 42 C36.03605184 41.40121031 34.0117185 40.52611966 31.55859375 38.76953125 C30.90157471 38.30289063 30.24455566 37.83625 29.56762695 37.35546875 C28.51321411 36.59169922 28.51321411 36.59169922 27.4375 35.8125 C26.70168701 35.2865625 25.96587402 34.760625 25.20776367 34.21875 C18.56438839 29.45265319 11.98231391 24.60106757 5.42163086 19.72192383 C1.34856552 16.69780273 -2.74769538 13.7670499 -7 11 C-5.5140084 6.40693504 -3.14985318 3.56430755 0 0 Z " fill="#FFFFFF" transform="translate(41,54)"/>
<path d="M0 0 C1.23324723 4.54759916 2.05466946 8.28134231 2 13 C-5.76418766 15.15444363 -13.53056146 17.30061829 -21.30091858 19.43269348 C-25.2085621 20.50537934 -29.11288131 21.58933334 -33.015625 22.6796875 C-34.69774148 23.14126389 -36.38001887 23.60225453 -38.0625 24.0625 C-38.82151611 24.27801514 -39.58053223 24.49353027 -40.36254883 24.71557617 C-46.60718694 26.40118773 -46.60718694 26.40118773 -50 25 C-51.23324723 20.45240084 -52.05466946 16.71865769 -52 12 C-45.07777154 10.28616165 -38.15422855 8.57771567 -31.22973633 6.87304688 C-28.87330862 6.29226353 -26.51718683 5.71023749 -24.16137695 5.12695312 C-20.77895113 4.28971196 -17.3954573 3.45691757 -14.01171875 2.625 C-12.95538742 2.36251465 -11.89905609 2.1000293 -10.81071472 1.82958984 C-9.82992447 1.58934082 -8.84913422 1.3490918 -7.83862305 1.1015625 C-6.54289619 0.78179443 -6.54289619 0.78179443 -5.22099304 0.45556641 C-3 0 -3 0 0 0 Z " fill="#FFFFFF" transform="translate(76,116)"/>
<path d="M0 0 C0.52480153 1.9648272 1.0495233 3.92967571 1.57421875 5.89453125 C1.9101001 7.15225342 2.24598145 8.40997559 2.59204102 9.70581055 C3.32456363 12.45035057 4.05540824 15.19532992 4.78491211 17.94067383 C6.39692889 24.0049786 8.01197477 30.06788263 9.6796875 36.1171875 C9.91727783 36.98883545 10.15486816 37.8604834 10.3996582 38.75854492 C10.83157535 40.34128663 11.26990539 41.92229661 11.71557617 43.5012207 C13.11257543 48.6622737 13.11257543 48.6622737 12 52 C9.78515625 52.94921875 9.78515625 52.94921875 7.0625 53.6875 C5.71865234 54.06455078 5.71865234 54.06455078 4.34765625 54.44921875 C2 55 2 55 0 55 C-3.45602907 43.18873582 -6.75618546 31.34256606 -9.875 19.4375 C-10.1851001 18.26662842 -10.4952002 17.09575684 -10.81469727 15.8894043 C-11.10014404 14.79023682 -11.38559082 13.69106934 -11.6796875 12.55859375 C-11.93476074 11.58204834 -12.18983398 10.60550293 -12.45263672 9.59936523 C-13 7 -13 7 -13 3 C-11.39743892 2.49487756 -9.79288208 1.99608373 -8.1875 1.5 C-7.29417969 1.2215625 -6.40085937 0.943125 -5.48046875 0.65625 C-3 0 -3 0 0 0 Z " fill="#FFFFFF" transform="translate(102,19)"/>
<path d="M0 0 C4.14420086 1.70044605 7.24366233 4.64161534 10.5625 7.5625 C11.81689615 8.6519775 13.07211356 9.74051009 14.328125 10.828125 C14.94880859 11.36630859 15.56949219 11.90449219 16.20898438 12.45898438 C18.71350389 14.61390902 21.25670316 16.71876813 23.8125 18.8125 C24.68132812 19.52535156 25.55015625 20.23820312 26.4453125 20.97265625 C28.15924144 22.33279252 29.90534271 23.65327207 31.6796875 24.93359375 C32.50726563 25.53300781 33.33484375 26.13242187 34.1875 26.75 C34.92355469 27.26046875 35.65960938 27.7709375 36.41796875 28.296875 C38 30 38 30 38.45703125 32.46484375 C37.88664253 35.62879483 36.85465823 36.66807912 34.5 38.8125 C33.8503125 39.41707031 33.200625 40.02164063 32.53125 40.64453125 C32.0259375 41.09183594 31.520625 41.53914063 31 42 C17.63925695 32.11305015 4.7876641 21.61128858 -8 11 C-6.57046772 8.03304621 -5.06179607 5.72203034 -2.875 3.25 C-2.33617187 2.63640625 -1.79734375 2.0228125 -1.2421875 1.390625 C-0.62730469 0.70226562 -0.62730469 0.70226562 0 0 Z " fill="#FFFFFF" transform="translate(328,289)"/>
<path d="M0 0 C4.29 0 8.58 0 13 0 C14 1 14 1 14.12025452 2.82862854 C14.1169236 4.02442787 14.1169236 4.02442787 14.11352539 5.24438477 C14.11344986 6.14524307 14.11337433 7.04610138 14.11329651 7.97425842 C14.10813522 8.95341721 14.10297394 9.93257599 14.09765625 10.94140625 C14.0962413 11.93881332 14.09482635 12.9362204 14.09336853 13.96385193 C14.08775114 17.16343124 14.07519571 20.36294169 14.0625 23.5625 C14.05748724 25.72591045 14.05292395 27.88932199 14.04882812 30.05273438 C14.03777606 35.36851629 14.02049979 40.68424646 14 46 C9.38 46 4.76 46 0 46 C0 30.82 0 15.64 0 0 Z " fill="#FFFFFF" transform="translate(292,306)"/>
<path d="M0 0 C14.85 0 29.7 0 45 0 C45 4.62 45 9.24 45 14 C30.15 14 15.3 14 0 14 C0 9.38 0 4.76 0 0 Z " fill="#FFFFFF" transform="translate(331,256)"/>
<path d="M0 0 C4.62 0 9.24 0 14 0 C14 6.6 14 13.2 14 20 C9.38 20 4.76 20 0 20 C0 13.4 0 6.8 0 0 Z " fill="#FFFFFF" transform="translate(203,300)"/>
</svg>
