<?xml version="1.0" encoding="UTF-8"?>
<svg version="1.1" xmlns="http://www.w3.org/2000/svg" width="512" height="512">
<path d="M0 0 C0.80878601 -0.00511093 1.61757202 -0.01022186 2.4508667 -0.01548767 C5.11722267 -0.02935635 7.78331933 -0.02842882 10.44970703 -0.02612305 C12.30909318 -0.03001175 14.16847843 -0.03434679 16.02786255 -0.03910828 C19.92322673 -0.04656484 23.81850027 -0.0462835 27.71386719 -0.04101562 C32.69603627 -0.03522477 37.67783315 -0.05214546 42.65994072 -0.0753603 C46.49991003 -0.09012134 50.33979021 -0.09096606 54.17978287 -0.08785057 C56.01612205 -0.08836269 57.85246635 -0.09357984 59.68877792 -0.10366249 C62.26151163 -0.11605427 64.83352705 -0.1092188 67.40625 -0.09765625 C68.15868988 -0.10529999 68.91112976 -0.11294373 69.68637085 -0.12081909 C76.02439634 -0.05813186 80.63136122 1.42368416 85.58251953 5.5871582 C89.93587117 10.78699488 91.29314555 15.46011685 91.52001953 22.1496582 C91.55417969 22.83801758 91.58833984 23.52637695 91.62353516 24.2355957 C91.70516044 25.91474434 91.77053523 27.59466988 91.83251953 29.2746582 C93.64055054 28.87355835 93.64055054 28.87355835 95.48510742 28.46435547 C99.97785407 27.46839514 104.47135579 26.47587865 108.96508789 25.484375 C110.90604932 25.05562 112.84680762 24.62594432 114.78735352 24.1953125 C117.58442516 23.57477724 120.38222222 22.95760939 123.18017578 22.34106445 C124.04087173 22.14936172 124.90156769 21.957659 125.78834534 21.76014709 C135.24681593 19.68343015 144.28210836 19.03538281 153.95751953 18.9621582 C155.18083984 18.9331543 156.40416016 18.90415039 157.66455078 18.87426758 C165.1750529 18.82409465 172.20108887 19.5104732 179.55957031 20.93408203 C180.47215229 21.11006172 181.38473427 21.28604141 182.32497025 21.46735382 C192.24473685 23.45400926 201.88397738 26.24544082 211.56689453 29.1496582 C213.50105724 29.72143817 215.43549256 30.29229667 217.37017822 30.86230469 C222.42689491 32.35468629 227.48000791 33.85890837 232.53234863 35.36602783 C237.53661947 36.85677462 242.54400205 38.33698286 247.55126953 39.81762695 C253.48150353 41.57143612 259.41118798 43.32698396 265.3380127 45.09228516 C275.07049304 47.98944333 284.81057593 50.85405375 294.57275391 53.6496582 C296.45937826 54.19237868 298.34595548 54.73526303 300.23248291 55.27832031 C303.74538119 56.28952128 307.26141257 57.28858552 310.77972412 58.28076172 C329.31023255 63.57417029 329.31023255 63.57417029 335.85177612 68.92697144 C338.62505642 70.81389588 340.82845182 70.30791849 344.03875732 69.82208252 C350.05113576 68.64398578 355.99013551 67.18130265 361.93408203 65.7043457 C363.41623077 65.34082522 364.89852378 64.97789252 366.38095093 64.61550903 C370.28612163 63.65961554 374.18972322 62.69747668 378.09289551 61.73345947 C389.5228858 58.91151282 400.95766209 56.10961893 412.40197754 53.34631348 C415.33876586 52.63718738 418.27407848 51.92237132 421.20837402 51.20300293 C424.70230933 50.34788877 428.20019141 49.51108913 431.70158005 48.68704605 C433.58456142 48.23989344 435.463619 47.77631344 437.34243774 47.3119812 C451.20090911 44.09368483 465.08523864 43.39329189 477.64501953 50.9621582 C482.85976854 54.65401591 485.82887117 59.26371313 487.83251953 65.2746582 C488.79953548 77.46540029 486.92028648 86.64514569 478.92871094 96.05712891 C471.03560918 104.40712229 460.38000308 108.40274436 450.02001953 112.7746582 C448.33078354 113.49773943 446.64207803 114.22206101 444.95385742 114.94750977 C441.26373286 116.53201892 437.57127688 118.11093007 433.87744141 119.68676758 C423.97375219 123.91864727 414.10322326 128.22737214 404.22671509 132.52218628 C398.52251882 135.00154687 392.81619097 137.47598925 387.10986328 139.95043945 C386.02762985 140.41978409 384.94539642 140.88912872 383.83036804 141.37269592 C380.83110918 142.67340532 377.8318156 143.97403461 374.83251953 145.2746582 C373.27018018 145.95222494 371.70784273 146.62979607 370.14550781 147.30737305 C362.95465961 150.42584 355.76267663 153.54167565 348.56982422 156.65551758 C345.84593782 157.83517516 343.12277104 159.01648163 340.39990234 160.19848633 C330.95173231 164.29983668 321.49894164 168.39014928 312.03808594 172.4621582 C309.40551655 173.59554994 306.77478824 174.73297348 304.14648438 175.8762207 C283.26999668 184.94057293 263.42226012 191.65082849 240.40893555 191.64526367 C238.42821679 191.64958576 236.44765511 191.68645574 234.46728516 191.72387695 C211.66085846 191.94362313 189.89645884 184.35980719 168.27597046 177.91991806 C164.26316495 176.72707422 160.24696288 175.54578479 156.23095703 174.36376953 C150.69641949 172.73395483 145.16274733 171.10127694 139.63041496 169.46399212 C128.21083204 166.08471603 116.77560143 162.76094783 105.33251953 159.4621582 C103.78438657 159.01494014 102.23628918 158.56759893 100.68823242 158.12011719 C97.40327324 157.17066451 94.11802582 156.22221627 90.83251953 155.2746582 C90.85137207 156.30961426 90.87022461 157.34457031 90.88964844 158.41088867 C90.90489473 159.77953624 90.91968178 161.14818897 90.93408203 162.5168457 C90.94769775 163.1977124 90.96131348 163.8785791 90.9753418 164.58007812 C91.01976421 170.20805672 90.39318501 172.96437894 86.83251953 177.2746582 C81.47630079 182.46691107 77.87510466 183.42918717 70.5625 183.4675293 C69.70699051 183.47570679 68.85148102 183.48388428 67.970047 183.49230957 C65.12994082 183.51718335 62.28988481 183.53368767 59.44970703 183.5480957 C58.47962833 183.55341938 57.50954964 183.55874306 56.51007462 183.56422806 C51.37212158 183.59097258 46.23419291 183.61034036 41.09619141 183.62475586 C35.79664838 183.64137615 30.49773056 183.68612831 25.19842339 183.7371273 C21.1182283 183.77084311 17.03818052 183.78233825 12.95785904 183.78798294 C11.00507982 183.79468706 9.05231 183.80988721 7.0996666 183.83387375 C4.35890171 183.86561134 1.61980782 183.86554892 -1.12109375 183.8581543 C-1.92140518 183.87455963 -2.72171661 183.89096497 -3.54627991 183.90786743 C-9.52845058 183.84212798 -13.63197094 182.20992781 -18.16748047 178.2746582 C-23.67783544 171.88084736 -22.73220391 164.0979003 -22.68505859 156.0871582 C-22.69048382 154.54084617 -22.69760872 152.99453932 -22.70629883 151.44824219 C-22.72448773 147.26224012 -22.71748314 143.07663372 -22.70478249 138.890625 C-22.69463175 134.50300049 -22.70405391 130.11540909 -22.71032715 125.7277832 C-22.71759753 118.36053405 -22.70803189 110.99344546 -22.68896484 103.6262207 C-22.66719722 95.11745332 -22.67424903 86.60906937 -22.69627047 78.10031128 C-22.71444187 70.78543829 -22.7169743 63.47068051 -22.70651579 56.15579224 C-22.70029041 51.79105345 -22.69941884 47.42649469 -22.71266174 43.06176758 C-22.72424505 38.95759192 -22.71614967 34.853909 -22.69308472 30.74978638 C-22.6878108 29.24660051 -22.68928883 27.74337294 -22.69813538 26.24020386 C-22.7734969 12.1306404 -22.7734969 12.1306404 -18.16748047 6.2746582 C-12.5856679 0.97909244 -7.51666723 -0.02461627 0 0 Z M-5.16748047 18.2746582 C-5.26406951 20.18560759 -5.28935239 22.10017687 -5.28773499 24.01356506 C-5.28910965 25.26023453 -5.29048431 26.50690399 -5.29190063 27.79135132 C-5.28836102 29.18560815 -5.28472621 30.57986474 -5.28100586 31.97412109 C-5.28072399 33.43237811 -5.28088171 34.89063528 -5.28144836 36.34889221 C-5.28173637 40.31979306 -5.27583924 44.29066396 -5.26887441 48.26155782 C-5.26264128 52.40690921 -5.2620371 56.55226122 -5.260849 60.69761658 C-5.25773556 68.55285147 -5.249522 76.40807252 -5.23949951 84.26330131 C-5.22625363 94.87424897 -5.22083857 105.48520038 -5.21499729 116.09615421 C-5.20558212 132.82233259 -5.18566329 149.54848174 -5.16748047 166.2746582 C20.90251953 166.2746582 46.97251953 166.2746582 73.83251953 166.2746582 C73.8616342 139.99438627 73.8616342 139.99438627 73.88134766 113.71411133 C73.88729094 103.00357588 73.89429341 92.29304828 73.90795898 81.58251953 C73.91790498 73.78355432 73.92437276 65.98459544 73.92660803 58.18562406 C73.92791528 54.05353635 73.93100204 49.92146676 73.93824959 45.78938484 C73.94500847 41.90464294 73.94713676 38.01992674 73.94562721 34.13517952 C73.9459036 32.70525981 73.94790951 31.2753393 73.95172501 29.84542465 C73.95666012 27.90147769 73.95491758 25.95751711 73.95277405 24.01356506 C73.95369584 22.92308396 73.95461763 21.83260286 73.95556736 20.70907688 C74.10788638 18.3265217 74.10788638 18.3265217 72.83251953 17.2746582 C70.43442804 17.17438025 68.06512455 17.13847144 65.66650391 17.14526367 C64.54215691 17.14263519 64.54215691 17.14263519 63.39509583 17.13995361 C60.90546384 17.135535 58.4159023 17.13847311 55.92626953 17.1418457 C54.20373521 17.14117267 52.48120098 17.14020264 50.75866699 17.13894653 C47.14378965 17.13746955 43.52893698 17.13962413 39.9140625 17.14428711 C35.2698546 17.1499844 30.62570449 17.1467054 25.98149872 17.14071465 C22.42315227 17.13710905 18.86481963 17.13824761 15.30647278 17.14084244 C13.59357191 17.14151171 11.88066981 17.14068327 10.16777039 17.13836288 C7.77799132 17.13583638 5.38830712 17.1396769 2.99853516 17.14526367 C2.28369461 17.14323944 1.56885406 17.14121521 0.83235168 17.13912964 C-2.44920365 16.87061955 -2.44920365 16.87061955 -5.16748047 18.2746582 Z M90.83251953 47.2746582 C90.83251953 76.9746582 90.83251953 106.6746582 90.83251953 137.2746582 C114.39880184 144.17436597 114.39880184 144.17436597 137.96923828 151.05981445 C146.56644116 153.56812399 155.16356023 156.07665177 163.75683594 158.59838867 C169.70357239 160.34336252 175.65228242 162.08142258 181.60266113 163.81393433 C183.77182909 164.44690656 185.94022728 165.08252369 188.10778809 165.72097778 C204.80997367 170.63802364 220.64162877 174.86346407 238.20751953 174.7121582 C239.46338867 174.70458496 240.71925781 174.69701172 242.01318359 174.68920898 C263.13610647 174.31696298 282.18393284 167.0636431 301.24002075 158.44247437 C304.8968021 156.78914676 308.56438556 155.16003662 312.23095703 153.52856445 C313.39284294 153.01082207 313.39284294 153.01082207 314.57820129 152.48262024 C323.8089444 148.37906262 333.10301214 144.42445452 342.39501953 140.4621582 C357.25674789 134.11931224 372.07398872 127.68317344 386.85766602 121.16055298 C396.60867234 116.85940833 406.37470167 112.59879583 416.18017578 108.4230957 C417.121987 108.02165344 418.06379822 107.62021118 419.03414917 107.206604 C423.54597785 105.28462075 428.06021376 103.36864132 432.57861328 101.4621582 C440.39208161 98.15169133 448.14766087 94.75346284 455.77001953 91.02075195 C456.42132339 90.70758026 457.07262726 90.39440857 457.7436676 90.07174683 C463.93177293 86.97448486 468.61856735 82.91651474 470.83251953 76.2746582 C471.59943981 71.14768513 471.59943981 71.14768513 469.59814453 66.67700195 C463.48223595 61.48453502 457.46492379 61.7957841 449.83251953 62.2746582 C445.32631662 62.99814151 440.93598667 64.06987735 436.51220703 65.18481445 C434.54408358 65.6624197 432.57595849 66.14001822 430.60777855 66.61739063 C428.49405433 67.1327041 426.3820621 67.65464551 424.27038574 68.17828369 C419.67338331 69.31697358 415.07035078 70.42996483 410.46630859 71.53979492 C401.46375325 73.71225518 392.46589805 75.9036954 383.46899414 78.09942627 C379.20371429 79.14003929 374.93801798 80.17894245 370.67236328 81.21801758 C362.39202196 83.23528635 354.11211954 85.25434898 345.83251953 87.2746582 C345.84629639 89.17151367 345.84629639 89.17151367 345.86035156 91.10668945 C345.91672043 98.86779213 343.47153604 105.50123842 338.57080078 111.52075195 C331.93442749 118.21677804 323.67253357 120.71232966 314.44586182 121.27444458 C298.51238449 121.27538658 281.59625386 115.77793096 266.09814453 112.4699707 C265.45021029 112.33171922 264.80227606 112.19346774 264.13470745 112.05102682 C258.00806941 110.74351597 251.88196502 109.43353228 245.75717545 108.11738777 C237.98069135 106.44647775 230.20171753 104.78834955 222.41893983 103.14699566 C216.90829861 101.98373597 211.40083462 100.80616107 205.89552093 99.61794651 C202.62052977 98.91150361 199.34431754 98.21330826 196.06507111 97.5267067 C192.42137181 96.76239306 188.78345043 95.97482083 185.14599609 95.18139648 C183.52988937 94.85075195 183.52988937 94.85075195 181.88113403 94.51342773 C176.10322013 93.22443493 172.32036107 92.2253747 168.83251953 87.2746582 C168.83251953 83.75510401 169.20143598 81.42545761 170.89501953 78.3371582 C176.91139755 75.03785413 185.79911963 78.12028763 192.05932617 79.52197266 C193.15806061 79.76099304 194.25679504 80.00001343 195.38882446 80.24627686 C199.00852974 81.03570325 202.6255444 81.83680983 206.24267578 82.63793945 C208.77346865 83.19202304 211.30443163 83.74533021 213.83555603 84.29789734 C219.81822608 85.60575982 225.7992712 86.92081555 231.77954239 88.2395975 C240.51056277 90.16459593 249.24431041 92.07714763 257.97804165 93.98980236 C264.25429923 95.36440255 270.53014005 96.74080507 276.80470276 98.12312317 C290.72037092 101.19219818 290.72037092 101.19219818 304.66235352 104.13867188 C305.75813217 104.36584396 306.85391083 104.59301605 307.9828949 104.82707214 C313.81434555 105.74300893 318.02337661 105.24623496 323.20751953 102.4621582 C326.65370592 99.59033621 328.39496275 97.71234477 329.70751953 93.3996582 C329.86606263 89.43608066 328.9899518 87.58272101 326.83251953 84.2746582 C323.14623033 80.85371559 319.47431854 79.15772023 314.74267578 77.6809082 C313.60295067 77.31334412 313.60295067 77.31334412 312.44020081 76.93835449 C298.62154979 72.54738894 284.67053347 68.55935207 270.75206375 64.49894714 C268.25195638 63.76938717 265.75214013 63.03883787 263.25241089 62.3079834 C253.29917885 59.39817154 243.34376545 56.49591998 233.38659668 53.59960938 C230.47792288 52.75354243 227.5694509 51.90678982 224.66125488 51.05908203 C217.60071737 49.0010477 210.53836957 46.94952556 203.47171021 44.91259766 C201.44608403 44.32799765 199.42106173 43.74130051 197.396698 43.15234375 C159.23662655 32.06300275 129.28517674 38.04602047 90.83251953 47.2746582 Z " fill="#000000" transform="translate(23.16748046875,320.725341796875)"/>
<path d="M0 0 C2.58455285 1.89533875 2.96275506 2.88826517 4 6 C4.09255104 8.33332271 4.12192607 10.6692834 4.12025452 13.00444031 C4.12110894 13.72162525 4.12196337 14.43881018 4.12284368 15.177728 C4.12449406 17.58685364 4.11898433 19.99591004 4.11352539 22.4050293 C4.1132434 24.12958779 4.11340149 25.85414641 4.1139679 27.57870483 C4.1142554 32.26640468 4.10836626 36.95407907 4.10139394 41.64177299 C4.09515257 46.53850918 4.09455598 51.43524592 4.09336853 56.33198547 C4.09025753 65.60733305 4.08204725 74.88266887 4.07201904 84.15801126 C4.06085074 94.71652405 4.05534564 105.2750374 4.05032361 115.83355463 C4.03986445 137.55570965 4.02226947 159.27785409 4 181 C7.3 181 10.6 181 14 181 C13.99555878 179.95652405 13.99111755 178.9130481 13.98654175 177.83795166 C13.94601539 168.00882656 13.91602507 158.17971838 13.89637566 148.35052872 C13.88593415 143.29712698 13.87176819 138.24379264 13.84912109 133.19042969 C13.82740589 128.31454556 13.81543414 123.4387263 13.81024551 118.56279755 C13.80654739 116.70164722 13.79932597 114.84050049 13.78853989 112.97937775 C13.77404259 110.37451986 13.77202132 107.76993074 13.77294922 105.16503906 C13.76216339 104.00841766 13.76216339 104.00841766 13.75115967 102.82843018 C13.77788942 95.90336759 13.77788942 95.90336759 16 93 C18.72899135 91.19733915 20.90222124 90.7465095 24.13842773 90.7253418 C24.94283798 90.71580978 25.74724823 90.70627777 26.57603455 90.69645691 C27.86677635 90.69782402 27.86677635 90.69782402 29.18359375 90.69921875 C30.52237328 90.69279106 30.52237328 90.69279106 31.88819885 90.68623352 C33.77352043 90.68049736 35.65886414 90.6799847 37.54418945 90.68432617 C40.42372517 90.68748489 43.30223197 90.66402268 46.18164062 90.63867188 C48.01562371 90.63639864 49.84960954 90.6356955 51.68359375 90.63671875 C52.54206406 90.627509 53.40053436 90.61829926 54.28501892 90.60881042 C59.00245908 90.6451964 62.18079361 90.90969652 66 94 C67.58116025 97.1623205 67.12937122 100.55841707 67.11352539 104.02978516 C67.11367142 104.85913071 67.11381744 105.68847626 67.1139679 106.54295349 C67.11326971 109.29168285 67.10548171 112.04034494 67.09765625 114.7890625 C67.09579174 116.69192467 67.09436799 118.59478732 67.09336853 120.49765015 C67.08954599 125.51181356 67.07971793 130.52594811 67.06866455 135.5401001 C67.05844479 140.65433359 67.0538697 145.76857174 67.04882812 150.8828125 C67.03809545 160.92188769 67.02102216 170.96094145 67 181 C71.62 181 76.24 181 81 181 C80.98889694 179.39498123 80.97779388 177.78996246 80.96635437 176.13630676 C80.86507869 161.0244228 80.78978224 145.91266331 80.74093914 130.80052662 C80.71515966 123.0308602 80.68001443 115.26144715 80.62280273 107.49194336 C80.57295943 100.71985842 80.54070711 93.94795697 80.52955753 87.17569369 C80.52304017 83.58987283 80.50772912 80.0045769 80.47134972 76.41892433 C80.43106152 72.41552085 80.43005112 68.41302936 80.43237305 64.40942383 C80.41439667 63.22115494 80.39642029 62.03288605 80.37789917 60.80860901 C80.42815563 52.82191874 80.42815563 52.82191874 83.25152588 48.76385498 C86.0201361 46.9870775 87.30869245 46.37299785 90.54321289 46.36889648 C91.41083755 46.35636337 92.27846222 46.34383026 93.17237854 46.33091736 C94.09647018 46.34417557 95.02056183 46.35743378 95.97265625 46.37109375 C96.93272079 46.36868179 97.89278534 46.36626984 98.88194275 46.36378479 C100.90677023 46.36476226 102.93162476 46.37813185 104.95629883 46.40307617 C108.05577239 46.43742544 111.15240061 46.42371979 114.25195312 46.40429688 C116.2213663 46.41119438 118.19077212 46.4208659 120.16015625 46.43359375 C121.08627213 46.42863388 122.012388 46.42367401 122.96656799 46.41856384 C124.26327675 46.44231834 124.26327675 46.44231834 125.58618164 46.46655273 C126.34387344 46.47275131 127.10156525 46.47894989 127.88221741 46.4853363 C130.8993905 47.21856995 132.04314963 48.62176131 134 51 C134.49219131 53.52244949 134.49219131 53.52244949 134.48101807 56.4163208 C134.48651672 57.51565948 134.49201538 58.61499817 134.49768066 59.74765015 C134.47610901 61.5494725 134.47610901 61.5494725 134.45410156 63.38769531 C134.45468567 64.65624359 134.45526978 65.92479187 134.45587158 67.23178101 C134.45701904 70.70686689 134.43350542 74.18140027 134.40557575 77.65635777 C134.38056698 81.28916687 134.37822053 84.9219887 134.37347412 88.55487061 C134.36104274 95.43264038 134.32821915 102.31015576 134.28807616 109.18781352 C134.24336333 117.01843475 134.22137268 124.84906814 134.20129442 132.67978525 C134.15948647 148.78667661 134.0883256 164.89329581 134 181 C138.62 181 143.24 181 148 181 C147.99111755 179.06925125 147.98223511 177.1385025 147.9730835 175.14924622 C147.89208636 156.97639518 147.83183688 138.80358059 147.79275131 120.63058949 C147.77212188 111.28709987 147.74399402 101.94374496 147.69824219 92.6003418 C147.65838606 84.45707713 147.63256996 76.31391002 147.62364602 68.17055053 C147.61842918 63.85825029 147.60615993 59.54622915 147.57707977 55.23401833 C147.54992991 51.1751623 147.54155406 47.11670035 147.54756927 43.05776215 C147.54646884 41.56822506 147.5385121 40.0786748 147.5231781 38.58921623 C147.50326109 36.5547985 147.51044919 34.52016933 147.51898193 32.485672 C147.51529476 31.34725766 147.51160759 30.20884333 147.50780869 29.03593159 C148.1092934 25.32585709 149.40734075 23.66964826 152 21 C154.24932101 19.87533949 155.50698214 19.85681709 158.00317383 19.82299805 C158.82775589 19.81016281 159.65233795 19.79732758 160.50190735 19.78410339 C161.39459824 19.77671646 162.28728912 19.76932953 163.20703125 19.76171875 C164.12457687 19.753647 165.0421225 19.74557526 165.98747253 19.73725891 C167.93181466 19.72341507 169.87618112 19.71269426 171.82055664 19.70483398 C174.79034652 19.68762835 177.75902113 19.64374618 180.72851562 19.59960938 C182.61717931 19.58948182 184.50585246 19.58096591 186.39453125 19.57421875 C187.72445854 19.54795662 187.72445854 19.54795662 189.08125305 19.52116394 C193.16800304 19.53549909 195.44611995 19.6760761 199.0378418 21.77661133 C202.4171624 25.60583526 202.12433197 29.31500214 202.12025452 34.28948975 C202.12231651 36.22878609 202.12231651 36.22878609 202.12442017 38.20726013 C202.12088123 39.63784813 202.11724642 41.0684359 202.11352539 42.49902344 C202.11324329 44.00698342 202.11340171 45.51494354 202.1139679 47.02290344 C202.11425496 51.11552328 202.1083728 55.20811385 202.10139394 59.30072689 C202.0951454 63.57818898 202.09455541 67.85565173 202.09336853 72.13311768 C202.09025965 80.23262266 202.08205221 88.33211416 202.07201904 96.43161321 C202.06084417 105.65281041 202.05534398 114.87400826 202.05032361 124.09521055 C202.03986925 143.06348135 202.02227836 162.03173959 202 181 C203.25296875 180.95359375 204.5059375 180.9071875 205.796875 180.859375 C207.44789281 180.82185187 209.09893642 180.78545229 210.75 180.75 C211.575 180.71648437 212.4 180.68296875 213.25 180.6484375 C219.3919377 180.54937399 219.3919377 180.54937399 222.51953125 182.8671875 C224.29443937 185.42417914 224.92559922 186.87516711 225 190 C222.72289157 195.63855422 222.72289157 195.63855422 220 197 C217.02339217 197.10482604 214.06982373 197.14779299 211.09268188 197.14717102 C210.15866181 197.15084771 209.22464173 197.1545244 208.26231802 197.1583125 C205.11318702 197.16938012 201.96408897 197.17319835 198.81494141 197.17700195 C196.56500645 197.18326418 194.31507254 197.18991076 192.06513977 197.19691467 C185.93915554 197.21434449 179.81317912 197.22488138 173.68717623 197.2331202 C169.8635561 197.23826511 166.03993843 197.244341 162.21632004 197.25063133 C151.63398592 197.26750239 141.05165395 197.28213831 130.46930885 197.28938007 C127.72270328 197.29129002 124.97609772 197.29321035 122.22949219 197.29516602 C121.20548638 197.29589163 121.20548638 197.29589163 120.16079359 197.2966319 C109.09611126 197.30493643 98.03153689 197.33028068 86.96690173 197.36274669 C75.61244818 197.39579211 64.25806888 197.4134935 52.90356004 197.41702431 C46.52618668 197.41938038 40.14898399 197.42841325 33.77165604 197.45348549 C27.77494522 197.47668032 21.77851848 197.48103409 15.78177452 197.47072411 C13.57746501 197.47022657 11.37314192 197.47661059 9.16887474 197.49028015 C6.16599981 197.50786444 3.16415938 197.50095935 0.1612854 197.48774719 C-0.71672615 197.49871644 -1.59473771 197.50968568 -2.49935567 197.52098733 C-6.16602533 197.48187472 -8.37100564 197.38455016 -11.541255 195.44634533 C-13.53225683 192.10739437 -13.55152443 189.14797221 -13.50120544 185.37072754 C-13.50673984 184.59834071 -13.51227424 183.82595387 -13.51797634 183.03016138 C-13.5315994 180.43970303 -13.5166052 177.85020542 -13.50170898 175.25976562 C-13.50549157 173.40361623 -13.51099111 171.54746966 -13.51808167 169.69132996 C-13.53206145 164.64795098 -13.52084877 159.60491219 -13.50437045 154.56155205 C-13.49053644 149.28765459 -13.49697815 144.01377721 -13.50050354 138.73986816 C-13.50320697 129.88267524 -13.48971864 121.02561773 -13.46655273 112.16845703 C-13.43994219 101.92326573 -13.43819542 91.67830088 -13.4499411 81.43308687 C-13.46071429 71.58407979 -13.45453541 61.73515474 -13.44038582 51.88615417 C-13.43462204 47.69164596 -13.43471178 43.49719771 -13.43945122 39.3026886 C-13.44421789 34.36473716 -13.43413214 29.42703418 -13.41249657 24.48913002 C-13.4069243 22.67507579 -13.40646742 20.8609977 -13.41144943 19.04694176 C-13.41738979 16.5741081 -13.40492163 14.10203731 -13.38768005 11.62927246 C-13.3936901 10.90826308 -13.39970014 10.18725369 -13.40589231 9.44439554 C-13.3670462 6.38888288 -13.15581574 4.28142597 -11.66327 1.58567047 C-8.05396595 -1.85524222 -4.54879566 -0.97474193 0 0 Z M165 37 C165 84.52 165 132.04 165 181 C171.6 181 178.2 181 185 181 C185 133.48 185 85.96 185 37 C178.4 37 171.8 37 165 37 Z M98 64 C98 102.61 98 141.22 98 181 C104.6 181 111.2 181 118 181 C118 142.39 118 103.78 118 64 C111.4 64 104.8 64 98 64 Z M31 108 C31 132.09 31 156.18 31 181 C37.27 181 43.54 181 50 181 C50 156.91 50 132.82 50 108 C43.73 108 37.46 108 31 108 Z " fill="#000000" transform="translate(14,86)"/>
<path d="M0 0 C2.02237052 0.95394836 4.0282696 1.94535351 6 3 C8.72625006 2.80526785 10.46849174 2.29728428 12.84375 0.96875 C16.72743158 -0.77609245 20.82927801 -0.46267914 25 0 C27.02237052 0.95394836 29.0282696 1.94535351 31 3 C33.80361646 2.79485733 35.71658397 2.13383535 38.25 0.9375 C43.32231364 -0.79169783 48.12649551 -0.6245015 53.1875 1.0625 C57.99374752 4.37347051 61.14497399 7.99254762 63.4375 13.375 C64.95377615 23.14655743 61.32703718 30.78797604 57.4375 39.5625 C56.91736328 40.76197266 56.39722656 41.96144531 55.86132812 43.19726562 C54.58496742 46.13640817 53.29769308 49.07022916 52 52 C55.43771119 54.78309777 58.9037745 57.29528361 62.625 59.6875 C78.65195765 70.32642177 91.44056145 83.00945238 102 99 C102.57492187 99.85207031 103.14984375 100.70414062 103.7421875 101.58203125 C117.12368915 122.4862942 121.66500761 148.8656395 116.86572266 173.14233398 C114.98427815 181.22318493 111.8973214 188.68638679 108 196 C107.34064453 197.27037109 107.34064453 197.27037109 106.66796875 198.56640625 C94.59754096 220.23752012 73.51732948 235.75951311 50 243 C22.31808854 250.21609521 -5.99935018 247.67262538 -30.98046875 233.4609375 C-52.06476223 220.88186773 -68.38060763 201.59229179 -74.85107422 177.70922852 C-76.40065525 171.54484209 -77.72993858 165.36405617 -78 159 C-78.03996094 158.17757812 -78.07992187 157.35515625 -78.12109375 156.5078125 C-78.80847333 128.60828855 -66.51972856 101.78744784 -47.6484375 81.7265625 C-38.52483003 72.33382207 -29.31715332 64.25781961 -18.3203125 57.1640625 C-15.79249266 55.51651874 -13.39644019 53.82458467 -11 52 C-11.32798584 51.26362305 -11.65597168 50.52724609 -11.99389648 49.76855469 C-13.47843689 46.43050992 -14.95801913 43.09029014 -16.4375 39.75 C-16.95376953 38.59113281 -17.47003906 37.43226562 -18.00195312 36.23828125 C-18.74155273 34.56572266 -18.74155273 34.56572266 -19.49609375 32.859375 C-19.95169678 31.83295898 -20.4072998 30.80654297 -20.87670898 29.74902344 C-23.60064076 23.08276136 -24.05746847 16.96853171 -21.3125 10.25 C-16.93304685 1.2589672 -9.39434257 -1.04216162 0 0 Z M-5 17 C-6.21550247 19.89016501 -5.97767984 21.06703967 -4.96777344 24.1003418 C-4.43700195 25.28797119 -3.90623047 26.47560059 -3.359375 27.69921875 C-3.07652649 28.33487259 -2.79367798 28.97052643 -2.5022583 29.6254425 C-1.90253096 30.96517326 -1.29698015 32.30231028 -0.68603516 33.63696289 C0.24830636 35.68378981 1.15840002 37.74020545 2.06640625 39.79882812 C2.65222348 41.09959984 3.23941682 42.39975287 3.828125 43.69921875 C4.3634082 44.88346436 4.89869141 46.06770996 5.45019531 47.2878418 C6.76758291 50.29296922 6.76758291 50.29296922 10 51 C11.59166512 51.09274214 13.18688667 51.13068425 14.78125 51.1328125 C15.70550781 51.13410156 16.62976563 51.13539062 17.58203125 51.13671875 C19.02642578 51.13091797 19.02642578 51.13091797 20.5 51.125 C21.46292969 51.12886719 22.42585938 51.13273437 23.41796875 51.13671875 C24.80435547 51.13478516 24.80435547 51.13478516 26.21875 51.1328125 C27.06373047 51.13168457 27.90871094 51.13055664 28.77929688 51.12939453 C31.17443433 51.08658224 31.17443433 51.08658224 34 50 C35.21058134 47.8197077 36.22828671 45.72771833 37.20703125 43.4453125 C37.49607834 42.78796112 37.78512543 42.13060974 38.08293152 41.45333862 C38.69084499 40.06190988 39.29319135 38.66803763 39.89038086 37.27197266 C40.80925515 35.132555 41.75386304 33.00585947 42.70117188 30.87890625 C43.28805345 29.52673287 43.87339281 28.17388887 44.45703125 26.8203125 C44.74230179 26.18272003 45.02757233 25.54512756 45.32148743 24.88821411 C46.19505817 22.89835453 46.19505817 22.89835453 47 20 C46.34 19.01 45.68 18.02 45 17 C44.3709375 17.30035156 43.741875 17.60070312 43.09375 17.91015625 C37.08198208 20.58104712 33.4214642 21.57904857 27 20 C25.88625 19.401875 24.7725 18.80375 23.625 18.1875 C18.82753299 16.61591598 16.9724735 18.02426372 12.5546875 20.05859375 C7.16774284 22.04369109 2.52842135 20.67036024 -2.5625 18.4375 C-3.366875 17.963125 -4.17125 17.48875 -5 17 Z M-6.125 69.8125 C-7.09614746 70.42665771 -7.09614746 70.42665771 -8.08691406 71.05322266 C-33.13712851 87.17616234 -53.21963951 109.48573774 -59.71875 139.296875 C-63.24836507 159.82437315 -58.69764822 179.62986659 -46.81835938 196.69775391 C-33.11854519 215.21684845 -13.46345356 225.50630051 8.875 229.3125 C30.33930568 232.07783999 52.51810839 226.88139382 70 214 C73.52698261 211.17237628 76.80161764 208.1928774 80 205 C80.69738281 204.31421875 81.39476562 203.6284375 82.11328125 202.921875 C91.29220001 193.29737766 96.87370321 181.84077834 100 169 C100.19078125 168.25492187 100.3815625 167.50984375 100.578125 166.7421875 C103.71324173 146.36392875 98.88754357 128.64066423 89 111 C88.47792969 110.03578125 87.95585937 109.0715625 87.41796875 108.078125 C77.84011977 91.68666701 62.71376984 79.31171846 46.5625 69.8125 C45.90008301 69.41305176 45.23766602 69.01360352 44.55517578 68.60205078 C40.09767932 66.09703946 37.88882675 66.05960681 33 67 C31.06526825 67.0873803 29.12810892 67.1305637 27.19140625 67.1328125 C26.11439453 67.13410156 25.03738281 67.13539062 23.92773438 67.13671875 C22.26194336 67.13091797 22.26194336 67.13091797 20.5625 67.125 C19.45583984 67.12886719 18.34917969 67.13273437 17.20898438 67.13671875 C12.71946835 67.13135173 8.57874025 67.11245106 4.16015625 66.25390625 C-0.11992233 65.9100186 -2.67444733 67.54056513 -6.125 69.8125 Z " fill="#000000" transform="translate(331,51)"/>
<path d="M0 0 C0.94793427 -0.01283524 1.89586853 -0.02567047 2.87252808 -0.03889465 C3.89959869 -0.04628159 4.92666931 -0.05366852 5.98486328 -0.0612793 C7.56450363 -0.07338692 7.56450363 -0.07338692 9.17605591 -0.08573914 C11.40706736 -0.099585 13.63810005 -0.1103049 15.86914062 -0.11816406 C19.28442356 -0.13539336 22.6987428 -0.1792777 26.11376953 -0.22338867 C28.27912698 -0.2335139 30.44449267 -0.24203054 32.60986328 -0.2487793 C33.63288544 -0.26628738 34.65590759 -0.28379547 35.70993042 -0.30183411 C42.73285284 -0.28030277 42.73285284 -0.28030277 46.04394531 1.89111328 C48.60622717 6.11630614 48.61869958 8.90073644 47.50561523 13.62841797 C47.03049704 15.39925185 46.54230458 17.16661201 46.04345703 18.9309082 C45.78517624 19.8687767 45.52689545 20.8066452 45.26078796 21.77293396 C44.71220291 23.75218699 44.1579344 25.72987234 43.59838867 27.70605469 C42.74607862 30.72743911 41.92010938 33.75519061 41.09619141 36.78442383 C40.55935859 38.70869306 40.02099783 40.63253682 39.48095703 42.5559082 C39.11349113 43.91227135 39.11349113 43.91227135 38.73860168 45.29603577 C37.42066968 49.87270631 36.4174977 53.22538728 32.43017578 56.17700195 C29.68540772 56.90608097 27.20571678 56.73552971 24.43017578 56.17700195 C21.46171242 54.19802638 20.62970111 52.92305318 19.71142578 49.48950195 C19.37096458 45.47962558 20.17468069 42.6340468 21.36767578 38.80200195 C21.74794922 37.55676758 22.12822266 36.3115332 22.52001953 35.02856445 C22.82037109 34.08754883 23.12072266 33.1465332 23.43017578 32.17700195 C22.64255859 32.78286133 21.85494141 33.3887207 21.04345703 34.01293945 C7.12939453 44.71606445 7.12939453 44.71606445 5.52783203 45.94799805 C4.45096084 46.77638582 3.37413896 47.6048377 2.29736328 48.43334961 C-0.34864653 50.46916682 -2.99557649 52.50375465 -5.64404297 54.53637695 C-11.8876989 59.33075265 -18.11023848 64.15107007 -24.31982422 68.98950195 C-30.91018043 74.1239058 -37.53104687 79.21605259 -44.17431641 84.28173828 C-49.32948976 88.21717143 -54.45513607 92.18912978 -59.56982422 96.17700195 C-66.0740214 101.24826068 -72.60794342 106.27804216 -79.16870117 111.27587891 C-83.62277394 114.67356012 -88.04670633 118.1071108 -92.45556641 121.56323242 C-96.14691822 124.45194622 -99.85473079 127.31891012 -103.56982422 130.17700195 C-104.24803223 130.70084473 -104.92624023 131.2246875 -105.625 131.7644043 C-107.51120765 133.21057436 -109.4118418 134.63473931 -111.31982422 136.05200195 C-111.86791748 136.47505615 -112.41601074 136.89811035 -112.98071289 137.33398438 C-116.6175356 139.98669245 -119.10015621 140.73414544 -123.56982422 140.17700195 C-126.44482422 138.73950195 -126.44482422 138.73950195 -128.56982422 136.17700195 C-129.59104252 132.92825123 -129.55667839 130.43578964 -128.56982422 127.17700195 C-126.08057242 123.86909247 -122.88549321 121.61944391 -119.56982422 119.17700195 C-118.39303111 118.28641032 -117.21731357 117.39439631 -116.04248047 116.5012207 C-113.35287349 114.46668641 -110.65039651 112.45060525 -107.94091797 110.44262695 C-103.4772469 107.12371846 -99.08001069 103.72366789 -94.69482422 100.30200195 C-93.94604004 99.71797607 -93.19725586 99.1339502 -92.42578125 98.53222656 C-90.9023429 97.34311007 -89.37923178 96.15357422 -87.85644531 94.96362305 C-77.59788036 86.94822925 -67.31634823 78.96539482 -56.96411133 71.07128906 C-51.80929942 67.13624085 -46.68410133 63.16455364 -41.56982422 59.17700195 C-35.75931196 54.64660255 -29.92874035 50.1446295 -24.06982422 45.67700195 C-15.91375212 39.4569479 -7.81453279 33.16528499 0.27392578 26.85766602 C3.99026281 23.96101021 7.71031935 21.06913594 11.43017578 18.17700195 C9.65900391 18.12092773 9.65900391 18.12092773 7.85205078 18.0637207 C6.2947279 17.99805046 4.73743764 17.93160348 3.18017578 17.86450195 C2.40287109 17.84194336 1.62556641 17.81938477 0.82470703 17.79614258 C-2.57727438 17.63622038 -5.00661833 17.47188806 -8.05419922 15.8762207 C-10.28087523 13.37981848 -10.47601902 11.43391804 -10.74560547 8.1809082 C-10.46236086 4.95191966 -8.86098657 3.33724074 -6.56982422 1.17700195 C-4.18195184 -0.01693424 -2.66601852 0.03138551 0 0 Z " fill="#000000" transform="translate(167.56982421875,-0.177001953125)"/>
<path d="M0 0 C2.57799004 0.85933001 3.64964171 1.4271514 5.0703125 3.75 C6.12915501 6.31257684 6.40718255 8.490979 6.625 11.25 C6.69976562 12.14203125 6.77453125 13.0340625 6.8515625 13.953125 C6.90054688 14.62859375 6.94953125 15.3040625 7 16 C7.64066406 16.20753906 8.28132813 16.41507813 8.94140625 16.62890625 C17.25283191 19.58930972 22.50832084 23.53021882 26.5 31.5 C28.14780337 35.64426084 28.30485065 38.65049785 27 43 C25.26312218 45.89479637 23.94847318 46.01335881 20.625 46.875 C16.42959081 47.01966928 15.11513838 46.77836666 12 44 C11.35962502 42.68367366 10.75843309 41.34789856 10.1875 40 C8.70096222 36.75827303 7.56508894 35.32686476 4.25 33.9375 C-1.38623899 32.28658671 -6.42113003 33.56825461 -12 35 C-12.27748242 36.41154099 -12.52093516 37.82979799 -12.75 39.25 C-12.88921875 40.03890625 -13.0284375 40.8278125 -13.171875 41.640625 C-13.20200236 44.1325586 -13.20200236 44.1325586 -11.390625 46.171875 C-8.62453738 48.28711848 -6.35267556 49.07965769 -3 50 C-1.85273438 50.33128906 -0.70546875 50.66257813 0.4765625 51.00390625 C1.63929688 51.33261719 2.80203125 51.66132813 4 52 C12.59856886 54.53442304 19.52308928 56.67735424 25.3125 63.875 C29.15539988 70.99148127 30.10366221 77.71946328 27.875 85.5 C25.0557233 93.17469767 20.25271373 97.29066746 13.1484375 101.0546875 C11.10526313 101.95368422 9.17912957 102.5365652 7 103 C6.96132813 103.99580078 6.96132813 103.99580078 6.921875 105.01171875 C6.65318333 109.19475957 6.3594933 112.3224934 4.375 116.0625 C1.22690903 118.63067947 -0.97146033 118.92806179 -5 119 C-8.39808026 117.89791992 -8.94731917 117.07902124 -11 114 C-11.09455661 112.02265434 -11.12989394 110.04209917 -11.125 108.0625 C-11.24853131 103.82863538 -11.24853131 103.82863538 -13.55859375 100.5703125 C-14.93445197 99.96418393 -16.3329351 99.40771767 -17.74609375 98.89453125 C-25.46943318 95.82928909 -30.74103155 88.3593433 -34 81 C-34.6875 77.1875 -34.6875 77.1875 -34 74 C-31.40783917 70.30813458 -29.95850936 69.17116239 -25.5 68.375 C-21.05662248 69.16846027 -19.80284236 70.51538518 -17 74 C-16.34 75.010625 -15.68 76.02125 -15 77.0625 C-12.55805739 80.6491032 -9.883023 83.0584885 -6 85 C-0.88026467 85.50290476 3.53516555 85.7910106 8.125 83.3125 C10.23537972 80.70969834 11 79.35391766 11 76 C9.54061001 73.52521665 8.55153239 72.23782082 5.89038086 71.09033203 C5.08995361 70.89810059 4.28952637 70.70586914 3.46484375 70.5078125 C2.57732422 70.2809375 1.68980469 70.0540625 0.77539062 69.8203125 C-0.16111328 69.59085937 -1.09761719 69.36140625 -2.0625 69.125 C-12.53837007 66.34090436 -21.71119423 63.33792372 -28 54 C-31.7888243 47.33689519 -32.08529825 40.68930752 -30.37890625 33.31640625 C-27.90782493 26.10084881 -23.49491318 21.6688547 -17 17.8125 C-15 17 -15 17 -11 17 C-11.05800781 16.19175781 -11.11601562 15.38351563 -11.17578125 14.55078125 C-11.54389122 5.83183363 -11.54389122 5.83183363 -8.875 1.75 C-5.50990161 -0.29832076 -3.87140693 -0.57659252 0 0 Z " fill="#000000" transform="translate(354,140)"/>
</svg>
