<?xml version="1.0" encoding="UTF-8"?>
<svg version="1.1" xmlns="http://www.w3.org/2000/svg" width="407" height="412">
<path d="M0 0 C5.57393456 0.08672492 8.68398368 3.07889303 12.76953125 6.5703125 C14.35736748 7.86704542 15.94727793 9.16124187 17.5390625 10.453125 C18.35068848 11.11860352 19.16231445 11.78408203 19.99853516 12.46972656 C23.88784439 15.59507813 27.91908112 18.51625967 31.95703125 21.4453125 C40.51106696 27.6974142 48.88716504 34.1564308 57.22314453 40.6953125 C60.95963785 43.62243644 64.70887459 46.53314873 68.45703125 49.4453125 C72.93813861 52.92781467 77.41734608 56.41260082 81.88671875 59.91015625 C92.17550238 67.95329117 102.57698352 75.83394332 113.04394531 83.64355469 C116.85312415 86.487721 120.65490261 89.34173253 124.45703125 92.1953125 C125.72782692 93.14848772 126.99865735 94.10161659 128.26953125 95.0546875 C130.66536458 96.8515625 133.06119792 98.6484375 135.45703125 100.4453125 C135.12703125 102.7553125 134.79703125 105.0653125 134.45703125 107.4453125 C126.86703125 107.4453125 119.27703125 107.4453125 111.45703125 107.4453125 C111.467024 110.10713089 111.467024 110.10713089 111.47721863 112.82272339 C111.53791751 129.51019146 111.5831298 146.1976373 111.61246777 162.88519096 C111.62795246 171.46533509 111.64907244 180.04539695 111.68334961 188.62548828 C111.71320308 196.10181135 111.73259459 203.57807486 111.73929673 211.05445588 C111.74321591 215.01505602 111.75245942 218.97548571 111.77422142 222.93603134 C111.79452276 226.66078203 111.80087806 230.3852914 111.79635429 234.11009216 C111.79718236 235.47993911 111.80318592 236.8497938 111.81464767 238.21959305 C111.82949057 240.0843147 111.82421644 241.94916466 111.8177948 243.81393433 C111.82056018 244.85924757 111.82332556 245.90456081 111.82617474 246.98155022 C111.70435739 247.79459177 111.58254004 248.60763332 111.45703125 249.4453125 C108.45703125 251.4453125 108.45703125 251.4453125 105.76953125 251.0703125 C105.00640625 250.8640625 104.24328125 250.6578125 103.45703125 250.4453125 C102.59468924 241.79843075 102.30377262 233.241054 102.29589844 224.55444336 C102.29125622 223.20780303 102.28622975 221.86116397 102.28085327 220.51452637 C102.26788197 216.89738272 102.26131735 213.28025748 102.25684261 209.66309428 C102.25389338 207.40028248 102.24978578 205.13747553 102.24533844 202.87466621 C102.23171814 195.78456555 102.22201889 188.6944762 102.21813655 181.60436338 C102.21363688 173.43499825 102.19597847 165.26579884 102.16713595 157.09648412 C102.14555342 150.76333554 102.13543449 144.4302338 102.13409543 138.09704882 C102.13304706 134.32048759 102.12712976 130.54408334 102.10927582 126.76756096 C102.08980299 122.56881359 102.09407017 118.37041827 102.10058594 114.17163086 C102.09137115 112.92021805 102.08215637 111.66880524 102.07266235 110.37947083 C102.08101608 108.67018906 102.08101608 108.67018906 102.08953857 106.92637634 C102.08807201 105.93444243 102.08660545 104.94250853 102.08509445 103.92051601 C102.45703125 101.4453125 102.45703125 101.4453125 103.81129837 99.62105656 C106.24634756 97.88140935 108.19816086 98.15382296 111.14453125 98.2578125 C112.13839844 98.28488281 113.13226563 98.31195313 114.15625 98.33984375 C115.29513672 98.39205078 115.29513672 98.39205078 116.45703125 98.4453125 C100.28083468 85.79895782 83.98696189 73.31078685 67.54321289 61.01416016 C57.55210696 53.53428148 47.65017885 45.93610759 37.72949219 38.36328125 C32.46354541 34.34428342 27.19383337 30.33031774 21.91992188 26.32177734 C19.51601422 24.49025135 17.11894341 22.65007303 14.72265625 20.80859375 C13.2801526 19.708065 11.83745581 18.60778933 10.39453125 17.5078125 C9.74572998 17.00540039 9.09692871 16.50298828 8.4284668 15.98535156 C4.32703775 12.81779727 4.32703775 12.81779727 -0.54296875 11.4453125 C-2.30523345 12.23495952 -2.30523345 12.23495952 -3.9140625 13.62890625 C-4.55972168 14.13607178 -5.20538086 14.6432373 -5.87060547 15.16577148 C-6.56686035 15.73239502 -7.26311523 16.29901855 -7.98046875 16.8828125 C-9.5125064 18.09179801 -11.04508295 19.30010086 -12.578125 20.5078125 C-13.38652832 21.15105469 -14.19493164 21.79429688 -15.02783203 22.45703125 C-19.28258297 25.82052296 -23.60105483 29.09973941 -27.91796875 32.3828125 C-28.80057373 33.05602539 -29.68317871 33.72923828 -30.5925293 34.42285156 C-37.23139914 39.47723236 -43.93525769 44.43766624 -50.6640625 49.37133789 C-57.94160008 54.71634906 -65.11106823 60.19582354 -72.26953125 65.69873047 C-76.48035918 68.93372435 -80.6975752 72.1603103 -84.91796875 75.3828125 C-85.78945557 76.04853271 -86.66094238 76.71425293 -87.55883789 77.40014648 C-94.59098159 82.7558988 -101.69601038 88.00814129 -108.85498047 93.19311523 C-109.60408691 93.73911377 -110.35319336 94.2851123 -111.125 94.84765625 C-111.78733643 95.32710693 -112.44967285 95.80655762 -113.13208008 96.30053711 C-113.59767334 96.67831299 -114.0632666 97.05608887 -114.54296875 97.4453125 C-114.54296875 97.7753125 -114.54296875 98.1053125 -114.54296875 98.4453125 C-113.77210937 98.42210937 -113.00125 98.39890625 -112.20703125 98.375 C-110.70269531 98.34792969 -110.70269531 98.34792969 -109.16796875 98.3203125 C-108.17023438 98.29710937 -107.1725 98.27390625 -106.14453125 98.25 C-103.54296875 98.4453125 -103.54296875 98.4453125 -101.54296875 100.4453125 C-101.29687309 103.20580482 -101.29687309 103.20580482 -101.30245972 106.79800415 C-101.30075087 107.45716493 -101.29904202 108.11632571 -101.29728138 108.79546106 C-101.29397512 111.0143031 -101.30500857 113.23284577 -101.31591797 115.45166016 C-101.31648184 117.03814181 -101.316166 118.62462399 -101.31503296 120.21110535 C-101.3144575 124.52701038 -101.326243 128.84280496 -101.34018087 133.15868425 C-101.35265609 137.66571021 -101.35385619 142.1727385 -101.35623169 146.67977905 C-101.36245592 155.21852667 -101.37887945 163.75722327 -101.39893067 172.29594839 C-101.42543305 183.83148013 -101.4362547 195.36702576 -101.4479351 206.90258026 C-101.46675941 225.08352924 -101.50659878 243.26437055 -101.54296875 261.4453125 C-65.57296875 261.4453125 -29.60296875 261.4453125 7.45703125 261.4453125 C7.45703125 242.9653125 7.45703125 224.4853125 7.45703125 205.4453125 C9.76703125 205.1153125 12.07703125 204.7853125 14.45703125 204.4453125 C16.45703125 206.4453125 16.45703125 206.4453125 16.69754028 208.77383423 C16.69309906 209.7464621 16.68865784 210.71908997 16.68408203 211.72119141 C16.68384033 212.8376001 16.68359863 213.95400879 16.68334961 215.10424805 C16.67311768 216.28156494 16.66288574 217.45888184 16.65234375 218.671875 C16.65032959 219.75106201 16.64831543 220.83024902 16.64624023 221.94213867 C16.63575279 225.98490633 16.60783037 230.02761355 16.58203125 234.0703125 C16.54078125 243.1040625 16.49953125 252.1378125 16.45703125 261.4453125 C47.47703125 261.4453125 78.49703125 261.4453125 110.45703125 261.4453125 C111.45703125 267.4453125 111.45703125 267.4453125 110.45703125 269.4453125 C81.92024977 269.4686378 53.38346972 269.48628986 24.84668064 269.49712467 C11.59757227 269.50228842 -1.65153019 269.5093326 -14.90063477 269.52075195 C-26.44397757 269.5306964 -37.9873161 269.53716536 -49.53066307 269.53940099 C-55.6468913 269.54070851 -61.76310728 269.54379692 -67.87933159 269.55104256 C-73.62887396 269.55779901 -79.37839898 269.55993023 -85.12794495 269.55842018 C-87.24481361 269.55869668 -89.36168281 269.56070401 -91.47854805 269.56451797 C-94.35526292 269.56944937 -97.2319111 269.56831285 -100.10862732 269.56556702 C-101.38243457 269.56993628 -101.38243457 269.56993628 -102.68197531 269.57439381 C-108.42884754 269.55943371 -108.42884754 269.55943371 -109.54296875 268.4453125 C-109.63980456 266.36970444 -109.66483777 264.29074046 -109.66322327 262.21287537 C-109.66407769 261.55456901 -109.66493212 260.89626266 -109.66581243 260.21800762 C-109.66746905 257.99614144 -109.66194293 255.77434955 -109.65649414 253.55249023 C-109.65621228 251.96615602 -109.65636998 250.37982168 -109.65693665 248.79348755 C-109.65722467 244.47342528 -109.65132712 240.15339053 -109.64436269 235.83333468 C-109.63813 231.32362935 -109.63752542 226.81392345 -109.63633728 222.30421448 C-109.63322371 213.75836876 -109.62500999 205.21253576 -109.61498779 196.66669565 C-109.60382744 186.94013617 -109.5983164 177.21357608 -109.59329236 167.48701179 C-109.58282739 147.47310472 -109.56502707 127.45920986 -109.54296875 107.4453125 C-117.46296875 107.4453125 -125.38296875 107.4453125 -133.54296875 107.4453125 C-134.03796875 104.4753125 -134.03796875 104.4753125 -134.54296875 101.4453125 C-131.20203436 97.18364817 -126.64196979 94.13133906 -122.29296875 90.9453125 C-120.85361901 89.87834256 -119.41483488 88.81060927 -117.9765625 87.7421875 C-117.24034668 87.19626953 -116.50413086 86.65035156 -115.74560547 86.08789062 C-112.25874256 83.48762309 -108.80653381 80.84280571 -105.35546875 78.1953125 C-103.93103397 77.10410873 -102.50655367 76.01296437 -101.08203125 74.921875 C-100.34887695 74.36016602 -99.61572266 73.79845703 -98.86035156 73.21972656 C-87.73243877 64.69911234 -76.58342819 56.20875391 -65.35546875 47.8203125 C-58.09161036 42.39221755 -50.9072885 36.87137589 -43.76220703 31.28808594 C-38.87495149 27.47157873 -33.945316 23.72046782 -28.97265625 20.015625 C-24.07594478 16.35772914 -19.21841025 12.64789479 -14.35546875 8.9453125 C-13.40889404 8.22553223 -12.46231934 7.50575195 -11.48706055 6.76416016 C-10.60445557 6.09175293 -9.72185059 5.4193457 -8.8125 4.7265625 C-8.01432861 4.11876953 -7.21615723 3.51097656 -6.39379883 2.88476562 C-3.20209306 0.40246815 -3.20209306 0.40246815 0 0 Z " fill="#FFFFFF" transform="translate(208.54296875,57.5546875)"/>
<path d="M0 0 C1.72959961 -0.00386719 1.72959961 -0.00386719 3.49414062 -0.0078125 C5.30881836 0.00378906 5.30881836 0.00378906 7.16015625 0.015625 C8.36607422 0.00789062 9.57199219 0.00015625 10.81445312 -0.0078125 C11.96880859 -0.00523437 13.12316406 -0.00265625 14.3125 0 C15.37331787 0.00225586 16.43413574 0.00451172 17.52709961 0.00683594 C20.22265625 0.265625 20.22265625 0.265625 23.22265625 2.265625 C23.44373412 5.0541539 23.5037316 7.61215681 23.41015625 10.390625 C23.38985352 11.52177734 23.38985352 11.52177734 23.36914062 12.67578125 C23.3337561 14.53936627 23.27994792 16.40258478 23.22265625 18.265625 C24.04506805 18.26118378 24.86747986 18.25674255 25.71481323 18.25216675 C33.45487541 18.21213828 41.1948876 18.18166525 48.93502617 18.16200066 C52.91457398 18.15155114 56.89403646 18.13737078 60.87353516 18.11474609 C64.71199511 18.09305915 68.55037284 18.08106518 72.38888931 18.07587051 C73.85536112 18.07216727 75.3218283 18.064936 76.78826523 18.05416489 C78.83794731 18.03970481 80.88728707 18.03764471 82.93701172 18.03857422 C84.10505341 18.034133 85.27309509 18.02969177 86.47653198 18.02511597 C89.22265625 18.265625 89.22265625 18.265625 91.22265625 20.265625 C91.54150391 23.08666992 91.54150391 23.08666992 91.63671875 26.74609375 C91.66597191 27.74922859 91.66597191 27.74922859 91.69581604 28.77262878 C91.75710667 30.99933093 91.80311905 33.22602871 91.84765625 35.453125 C91.88436418 37.0066769 91.92123206 38.56022503 91.95825195 40.11376953 C92.21085077 51.42365001 92.34759568 62.73670353 92.39788818 74.04922485 C92.40604039 75.77122625 92.41712954 77.49321635 92.43121338 79.21517944 C92.44900538 81.63574297 92.45310906 84.05594148 92.453125 86.4765625 C92.46026016 87.19281296 92.46739532 87.90906342 92.4747467 88.64701843 C92.45591094 92.80896977 92.33774405 97.1505372 89.22265625 100.265625 C86.45326659 100.36080303 83.70888466 100.39116765 80.93920898 100.37915039 C79.63688828 100.37936943 79.63688828 100.37936943 78.30825806 100.3795929 C75.42423039 100.37889346 72.54026645 100.37109963 69.65625 100.36328125 C67.66227758 100.36141718 65.6683047 100.35999323 63.67433167 100.35899353 C58.41519923 100.35516748 53.15609422 100.34533645 47.89697266 100.33428955 C42.5348345 100.3240773 37.17269194 100.31949631 31.81054688 100.31445312 C21.28123792 100.30371426 10.75194936 100.2866368 0.22265625 100.265625 C0.22487686 100.9399205 0.22709747 101.614216 0.22938538 102.3089447 C0.25143554 109.29995191 0.26656172 116.29094931 0.27758789 123.28198242 C0.28263002 125.89429119 0.2894635 128.50659711 0.2980957 131.11889648 C0.31016661 134.86442768 0.3158856 138.60992172 0.3203125 142.35546875 C0.32547379 143.53149155 0.33063507 144.70751434 0.33595276 145.91917419 C0.33602829 147.00021927 0.33610382 148.08126434 0.33618164 149.19506836 C0.33840225 150.15215195 0.34062286 151.10923553 0.34291077 152.09532166 C0.22265625 154.265625 0.22265625 154.265625 -0.77734375 155.265625 C-3.77734375 155.390625 -3.77734375 155.390625 -6.77734375 155.265625 C-7.77734375 154.265625 -7.77734375 154.265625 -7.89759827 152.09532166 C-7.89537766 151.13823807 -7.89315704 150.18115448 -7.89086914 149.19506836 C-7.89075584 147.57350075 -7.89075584 147.57350075 -7.89064026 145.91917419 C-7.88547897 144.7431514 -7.88031769 143.5671286 -7.875 142.35546875 C-7.87358505 141.15829727 -7.8721701 139.96112579 -7.87071228 138.72767639 C-7.86509354 134.88613434 -7.85253786 131.04464957 -7.83984375 127.203125 C-7.83483116 124.60612063 -7.83026784 122.00911535 -7.82617188 119.41210938 C-7.81511802 113.02992821 -7.79836167 106.6477807 -7.77734375 100.265625 C-9.00763054 100.27561775 -9.00763054 100.27561775 -10.26277161 100.28581238 C-17.98779508 100.34589378 -25.71270546 100.39158413 -33.4379015 100.42106152 C-37.40963002 100.43672556 -41.38116568 100.45797699 -45.3527832 100.49194336 C-49.18477464 100.52451096 -53.01658043 100.54247245 -56.84869957 100.55025673 C-58.31157034 100.55580496 -59.77443082 100.56663925 -61.23722267 100.58281517 C-63.28443071 100.60455579 -65.33086915 100.60759347 -67.37817383 100.60620117 C-69.12690544 100.61619392 -69.12690544 100.61619392 -70.91096497 100.62638855 C-73.77734375 100.265625 -73.77734375 100.265625 -75.65026855 98.9576416 C-77.55235808 96.10213821 -77.26015824 92.88814654 -77.2890625 89.56640625 C-77.31619324 88.40337227 -77.31619324 88.40337227 -77.34387207 87.21684265 C-77.39906385 84.67064835 -77.43263448 82.12470593 -77.46484375 79.578125 C-77.49633272 77.8196466 -77.52864778 76.06118281 -77.56176758 74.30273438 C-77.64088729 69.82307016 -77.69882307 65.34342632 -77.74804688 60.86334229 C-77.77609034 58.37676342 -77.80919328 55.89030439 -77.84375 53.40380859 C-77.89322668 49.70962247 -77.92902352 46.01558438 -77.9515686 42.32113647 C-77.96456871 40.30821213 -77.98452852 38.29533657 -78.00463867 36.2824707 C-78.00980571 30.2517394 -77.98811824 24.91994785 -75.77734375 19.265625 C-74.77734375 18.265625 -74.77734375 18.265625 -72.11351013 18.14537048 C-70.92548294 18.14759109 -69.73745575 18.14981171 -68.51342773 18.15209961 C-67.53297485 18.15188057 -67.53297485 18.15188057 -66.53271484 18.1516571 C-64.36292247 18.15235617 -62.19321496 18.16014822 -60.0234375 18.16796875 C-58.52271064 18.16983295 -57.02198318 18.17125684 -55.52125549 18.17225647 C-51.56416149 18.17608148 -47.60710397 18.1859116 -43.65002441 18.19696045 C-39.61499526 18.20717494 -35.57996022 18.21175417 -31.54492188 18.21679688 C-23.62237906 18.22753389 -15.69986594 18.2446101 -7.77734375 18.265625 C-7.80054688 17.13382813 -7.82375 16.00203125 -7.84765625 14.8359375 C-7.86641276 13.35417325 -7.88461309 11.87240188 -7.90234375 10.390625 C-7.91910156 9.64425781 -7.93585938 8.89789063 -7.953125 8.12890625 C-7.97073965 6.17368039 -7.88054564 4.21820479 -7.77734375 2.265625 C-5.09834602 -0.41337273 -3.73902644 0.00795961 0 0 Z M0.22265625 8.265625 C0.22265625 11.565625 0.22265625 14.865625 0.22265625 18.265625 C4.84265625 18.265625 9.46265625 18.265625 14.22265625 18.265625 C14.22265625 14.965625 14.22265625 11.665625 14.22265625 8.265625 C9.60265625 8.265625 4.98265625 8.265625 0.22265625 8.265625 Z M-68.77734375 27.265625 C-68.87660148 29.22387198 -68.90533789 31.18572397 -68.90673828 33.14648438 C-68.90989044 34.40448853 -68.9130426 35.66249268 -68.91629028 36.95861816 C-68.9145005 38.34220413 -68.91244955 39.72578978 -68.91015625 41.109375 C-68.91082934 42.51802589 -68.9117994 43.92667666 -68.91305542 45.33532715 C-68.91453217 48.29110823 -68.91237858 51.24685914 -68.90771484 54.20263672 C-68.90201756 57.99937084 -68.90529668 61.79603428 -68.91128731 65.59276581 C-68.91489354 68.50258928 -68.91375405 71.41239588 -68.91115952 74.32221985 C-68.91049042 75.722519 -68.91131807 77.12281967 -68.91363907 78.52311707 C-68.91616658 80.47699964 -68.91163408 82.43088755 -68.90673828 84.38476562 C-68.90594269 85.49871704 -68.90514709 86.61266846 -68.90432739 87.76037598 C-69.06103747 90.20539961 -69.06103747 90.20539961 -67.77734375 91.265625 C-65.82839416 91.36227467 -63.8758892 91.38749621 -61.92454529 91.38587952 C-60.65263336 91.38725418 -59.38072144 91.38862885 -58.07026672 91.39004517 C-56.64767433 91.38650555 -55.22508217 91.38287073 -53.80249023 91.37915039 C-52.31467694 91.37886853 -50.82686351 91.37902624 -49.33905029 91.3795929 C-45.28757375 91.3798809 -41.23612655 91.37398367 -37.18465686 91.36701894 C-32.95522378 91.36078592 -28.72579011 91.36018164 -24.49635315 91.35899353 C-16.48174653 91.35588006 -8.46715348 91.34766646 -0.45255286 91.33764404 C8.66942309 91.32648339 17.79139967 91.32097258 26.91338074 91.31594861 C45.68314695 91.30548386 64.45290051 91.28788412 83.22265625 91.265625 C83.24578309 82.93833553 83.26357308 74.61105937 83.27446842 66.28374577 C83.27969651 62.41742382 83.28679279 58.55112379 83.2980957 54.68481445 C83.30892725 50.95659099 83.31493365 47.22838866 83.31753349 43.50015068 C83.31938726 42.07472844 83.32300696 40.64930741 83.32838631 39.22389412 C83.33560018 37.23399092 83.33606433 35.24406666 83.33618164 33.25415039 C83.33840225 32.11941788 83.34062286 30.98468536 83.34291077 29.81556702 C83.51240048 27.33103195 83.51240048 27.33103195 82.22265625 26.265625 C80.28868136 26.16680753 78.35104848 26.13930273 76.41455078 26.13864136 C74.52147186 26.13441162 74.52147186 26.13441162 72.59014893 26.13009644 C71.17858873 26.13204103 69.76702867 26.13408922 68.35546875 26.13623047 C66.87912961 26.13487648 65.4027908 26.13309656 63.92645264 26.13092041 C59.90590341 26.12634581 55.88537972 26.12813574 51.86483002 26.1312995 C47.66655913 26.13382296 43.4682905 26.1314856 39.27001953 26.12991333 C32.21842046 26.12809159 25.16683186 26.13049805 18.11523438 26.13525391 C9.95082575 26.14069653 1.78644209 26.13893388 -6.37796593 26.1334275 C-13.37497357 26.12889648 -20.37197368 26.12824577 -27.36898232 26.13086617 C-31.55358922 26.13242901 -35.73818437 26.13262253 -39.92279053 26.12932968 C-43.85597661 26.12645113 -47.78913036 26.12842636 -51.72231293 26.13422394 C-53.16996965 26.13555162 -54.61762907 26.13515728 -56.06528473 26.13296127 C-58.03326829 26.13025013 -60.00125777 26.13424427 -61.96923828 26.13864136 C-63.07316925 26.13901838 -64.17710022 26.13939541 -65.31448364 26.13978386 C-67.72210944 25.98702315 -67.72210944 25.98702315 -68.77734375 27.265625 Z " fill="#FFFFFF" transform="translate(201.77734375,155.734375)"/>
<path d="M0 0 C1.95215511 2.48456105 2.03368661 4.26468047 2.4375 7.4375 C1.88895859 11.90419431 0.31071547 13.10312397 -3 16 C-3.21190242 18.2014965 -3.21190242 18.2014965 -1.25 20.125 C1.41744318 23.53339962 3.17795032 27.09422329 5 31 C1.77873451 31.73820667 -0.80200466 31.91513397 -4 31 C-6.40152042 28.40376171 -8.16256127 25.72906455 -9.98046875 22.69921875 C-12.1672502 19.35606276 -12.1672502 19.35606276 -18 17 C-18 21.62 -18 26.24 -18 31 C-24 31 -24 31 -26 30 C-26 19.44 -26 8.88 -26 -2 C-5.89690722 -4.23367698 -5.89690722 -4.23367698 0 0 Z M-18 4 C-18 6.31 -18 8.62 -18 11 C-16.5629191 11.05422947 -15.12524538 11.09289723 -13.6875 11.125 C-12.48673828 11.15980469 -12.48673828 11.15980469 -11.26171875 11.1953125 C-8.71611424 11.15817322 -8.71611424 11.15817322 -6 9 C-6.11306697 7.04105639 -6.11306697 7.04105639 -7 5 C-11.00990702 2.88952262 -13.66545899 2.555153 -18 4 Z " fill="#FFFFFF" transform="translate(175,201)"/>
<path d="M0 0 C8 0 8 0 9.82617188 1.46875 C10.20322266 2.1390625 10.58027344 2.809375 10.96875 3.5 C11.39414063 4.221875 11.81953125 4.94375 12.2578125 5.6875 C12.87269531 6.8321875 12.87269531 6.8321875 13.5 8 C13.94085938 8.763125 14.38171875 9.52625 14.8359375 10.3125 C15.91734987 12.19321716 16.96234226 14.09479235 18 16 C18.33 10.72 18.66 5.44 19 0 C21.31 0 23.62 0 26 0 C26 10.89 26 21.78 26 33 C18 32 18 32 16.17382812 30.41772461 C15.79677734 29.75264893 15.41972656 29.08757324 15.03125 28.40234375 C14.60585937 27.68369141 14.18046875 26.96503906 13.7421875 26.22460938 C13.33226562 25.46986328 12.92234375 24.71511719 12.5 23.9375 C12.05914062 23.17888672 11.61828125 22.42027344 11.1640625 21.63867188 C10.08466674 19.77319442 9.03890041 17.88832923 8 16 C7.93941406 17.14339844 7.87882813 18.28679687 7.81640625 19.46484375 C7.73201572 20.95574305 7.64736698 22.44662775 7.5625 23.9375 C7.50352539 25.06961914 7.50352539 25.06961914 7.44335938 26.22460938 C7.11328125 31.88671875 7.11328125 31.88671875 6 33 C4.02 33 2.04 33 0 33 C0 22.11 0 11.22 0 0 Z " fill="#FFFFFF" transform="translate(212,199)"/>
<path d="M0 0 C8.25 0 16.5 0 25 0 C25 1.98 25 3.96 25 6 C19.06 6 13.12 6 7 6 C7 7.98 7 9.96 7 12 C12.61 12 18.22 12 24 12 C24 13.98 24 15.96 24 18 C18.39 18 12.78 18 7 18 C7.33 20.31 7.66 22.62 8 25 C13.61 25.33 19.22 25.66 25 26 C25 28.31 25 30.62 25 33 C16.75 33 8.5 33 0 33 C0 22.11 0 11.22 0 0 Z " fill="#FFFFFF" transform="translate(182,199)"/>
<path d="M0 0 C8.91 0 17.82 0 27 0 C27 1.98 27 3.96 27 6 C23.7 6 20.4 6 17 6 C17 14.91 17 23.82 17 33 C14.36 33 11.72 33 9 33 C9 24.09 9 15.18 9 6 C6.03 6 3.06 6 0 6 C0 4.02 0 2.04 0 0 Z " fill="#FFFFFF" transform="translate(242,199)"/>
</svg>
