<svg xmlns="http://www.w3.org/2000/svg" xmlns:xlink="http://www.w3.org/1999/xlink" width="100" height="100" viewBox="0 0 100 100">
  <defs>
    <filter id="Elipse_4" x="0" y="0" width="100" height="100" filterUnits="userSpaceOnUse">
      <feOffset dy="3" input="SourceAlpha"/>
      <feGaussianBlur stdDeviation="3" result="blur"/>
      <feFlood flood-opacity="0.161"/>
      <feComposite operator="in" in2="blur"/>
      <feComposite in="SourceGraphic"/>
    </filter>
  </defs>
  <g id="Grupo_7346" data-name="Grupo 7346" transform="translate(-327 -2087)">
    <g transform="matrix(1, 0, 0, 1, 327, 2087)" filter="url(#Elipse_4)">
      <circle id="Elipse_4-2" data-name="Elipse 4" cx="41" cy="41" r="41" transform="translate(9 6)" fill="#00706a"/>
    </g>
    <g id="iconfinder_General_-_Office_32_1471083" transform="translate(335.424 2092.318)">
      <path id="Trazado_92" data-name="Trazado 92" d="M43.911,22.97a10.241,10.241,0,0,0-8.225,16.363,8.821,8.821,0,0,0-4.01,7.153v14.58H34.53V46.485a6.13,6.13,0,0,1,3.193-5.094,10.183,10.183,0,0,0,12.443-.05,6.148,6.148,0,0,1,3.271,5.143v14.58h2.854V46.485a8.82,8.82,0,0,0-4.1-7.217,10.24,10.24,0,0,0-8.275-16.3Zm0,17.666a7.405,7.405,0,1,1,7.405-7.405A7.412,7.412,0,0,1,43.911,40.636Z" transform="translate(-2.585 0)" fill="#fff"/>
      <path id="Trazado_93" data-name="Trazado 93" d="M18.43,45.443a2.97,2.97,0,0,1,1.325-2.324,6.826,6.826,0,1,0-1.991-2.081,5.738,5.738,0,0,0-2.188,4.4v8.465H18.43Zm5.011-11.727a3.833,3.833,0,1,1-3.832,3.834A3.838,3.838,0,0,1,23.441,33.717Z" transform="translate(0 -1.267)" fill="#fff"/>
      <path id="Trazado_94" data-name="Trazado 94" d="M72.051,40.993a6.61,6.61,0,0,0,.984-3.442,6.693,6.693,0,1,0-2.953,5.544,2.972,2.972,0,0,1,1.361,2.35v8.465H74.3V45.444A5.73,5.73,0,0,0,72.051,40.993Zm-5.7.39a3.833,3.833,0,1,1,3.832-3.831A3.838,3.838,0,0,1,66.348,41.383Z" transform="translate(-7.079 -1.267)" fill="#fff"/>
    </g>
  </g>
</svg>
