<svg xmlns="http://www.w3.org/2000/svg" width="66.113" height="66.358" viewBox="0 0 66.113 66.358">
  <g id="grua" transform="translate(-3.45 -3.35)">
    <path id="Trazado_1192" data-name="Trazado 1192" d="M69.338,26.364,62.088,17.4a1.029,1.029,0,0,0-.806-.38H57.993L22.526,3.406c-.022-.011-.034,0-.056-.011a.942.942,0,0,0-.3-.045H22.09a.75.75,0,0,0-.347.078.058.058,0,0,1-.045.022,1.062,1.062,0,0,0-.19.112L8.116,14.259H5.688A2.244,2.244,0,0,0,3.45,16.5V28.6A2.244,2.244,0,0,0,5.688,30.84h5.583A2.244,2.244,0,0,0,13.508,28.6v-.537h3.133V59.75H15.254a3.118,3.118,0,0,0-3.11,3.11V66.6a3.118,3.118,0,0,0,3.11,3.11h14.12a3.118,3.118,0,0,0,3.11-3.11V62.86a3.118,3.118,0,0,0-3.11-3.11h-1.7v-31.7H55.643v7.664H54.569a1.023,1.023,0,0,0-.861.459L50.049,41.6v.011a.041.041,0,0,0-.011.034.847.847,0,0,0-.1.2c-.011.034-.011.056-.022.09l-.034.168v.1a.739.739,0,0,0,.011.157.4.4,0,0,1,.022.112c.011.034.011.056.022.09l2.551,6.612H50.844a1.041,1.041,0,0,0,0,2.081h7.082v4.095a1.039,1.039,0,0,0,1.041,1.041,2.819,2.819,0,1,1-2.819,2.819,1.041,1.041,0,0,0-2.081,0A4.895,4.895,0,1,0,60,54.424V51.258h7.082a1.041,1.041,0,1,0,0-2.081H65.433l2.551-6.612c.011-.034.011-.056.022-.09a.331.331,0,0,0,.022-.112.739.739,0,0,0,.011-.157v-.1a.892.892,0,0,0-.034-.168c-.011-.034-.011-.056-.022-.09a.847.847,0,0,0-.1-.2.041.041,0,0,1-.011-.034V41.6l-3.659-5.426a1.023,1.023,0,0,0-.861-.459H62.7V28.054H68.51a1.054,1.054,0,0,0,.94-.593,1,1,0,0,0-.112-1.1Zm-25.162-.38,6.142-6.433,6.377,6.433H44.175ZM30.783,19.1l-6.142,6.433L18.263,19.1Zm-3.7,6.881,6.131-6.422,6.12,6.422Zm14.668-.47-6.12-6.422H47.879ZM23.186,17.022V5.879L52.208,17.022Zm-2.07,0H13.508v-.537a2.226,2.226,0,0,0-2.081-2.215l9.689-7.742ZM11.427,28.591a.153.153,0,0,1-.157.157H5.688a.153.153,0,0,1-.157-.157V16.485a.153.153,0,0,1,.157-.157h5.583a.153.153,0,0,1,.157.157V28.591ZM13.508,19.1h1.835l6.825,6.881h-8.66Zm5.2,29.537,5.907,3.547-5.907,3.535Zm.985-1.824L25.6,43.281v7.071Zm5.9-7.194L19.684,36.1l5.907-3.524Zm-.973,1.824-5.907,3.535v-7.06Zm5.8,21.414V66.6a1.046,1.046,0,0,1-1.041,1.041H15.254A1.046,1.046,0,0,1,14.213,66.6V62.86a1.046,1.046,0,0,1,1.041-1.041H29.384a1.036,1.036,0,0,1,1.029,1.041Zm-11.7-3.11V58.139l6.881-4.128v5.74Zm6.881-29.6-6.881,4.117V28.054h6.881Zm37.637,19.02H54.715l-2.294-5.941h13.1Zm1.857-8.011H52.857L55.129,37.8h7.686Zm-4.442-5.438H57.713V28.054h2.931Zm1.041-9.734h-2.07L52.79,19.1h8l5.572,6.881Z" transform="translate(0 0)" fill="#fff"/>
  </g>
</svg>
