<svg xmlns="http://www.w3.org/2000/svg" width="58.585" height="59.154" viewBox="0 0 58.585 59.154">
  <g id="_1" data-name="1" transform="translate(-61.175 -47.188)">
    <path id="Trazado_161" data-name="Trazado 161" d="M152.608,221.357H113a2.2,2.2,0,0,1-2.2-2.2V184.2a2.2,2.2,0,0,1,4.406,0v32.748h35.2V184.2a2.2,2.2,0,0,1,4.406,0v34.951A2.2,2.2,0,0,1,152.608,221.357Z" transform="translate(-42.337 -115.014)" fill="#fff"/>
    <path id="Trazado_162" data-name="Trazado 162" d="M117.557,78.683A2.2,2.2,0,0,1,116,78.038L90.467,52.506,64.935,78.038a2.2,2.2,0,1,1-3.115-3.115L88.9,47.833a2.2,2.2,0,0,1,3.115,0l27.1,27.09a2.2,2.2,0,0,1-1.558,3.759Z" transform="translate(0)" fill="#fff"/>
    <path id="Trazado_163" data-name="Trazado 163" d="M217.129,313.906H204.353a2.2,2.2,0,0,1-2.2-2.2v-19.02a2.2,2.2,0,0,1,2.2-2.2h12.776a2.2,2.2,0,0,1,2.2,2.2V311.7A2.2,2.2,0,0,1,217.129,313.906ZM206.556,309.5h8.371V294.886h-8.371Z" transform="translate(-120.272 -207.564)" fill="#fff"/>
  </g>
</svg>
