<svg id="Layer_2" data-name="Layer 2" xmlns="http://www.w3.org/2000/svg" width="60.467" height="60.488" viewBox="0 0 60.467 60.488">
  <path id="Trazado_47" data-name="Trazado 47" d="M51.838,55.513H14.628A11.628,11.628,0,0,1,3,43.885V11.326A2.326,2.326,0,0,1,5.326,9H51.838A11.628,11.628,0,0,1,63.467,20.628V43.885A11.628,11.628,0,0,1,51.838,55.513ZM7.651,13.651V43.885a6.977,6.977,0,0,0,6.977,6.977h37.21a6.977,6.977,0,0,0,6.977-6.977V20.628a6.977,6.977,0,0,0-6.977-6.977Z" transform="translate(-3 4.975)" fill="#fff"/>
  <path id="Trazado_48" data-name="Trazado 48" d="M56.49,21.617a2.326,2.326,0,0,1-2.326-2.326V12.9A5.419,5.419,0,0,0,52.35,8.547,4.512,4.512,0,0,0,48.466,7.8l-39,8.861a2.326,2.326,0,0,0-1.814,2.326,2.326,2.326,0,0,1-4.651,0,6.977,6.977,0,0,1,5.419-6.861L47.443,3.268a9.07,9.07,0,0,1,7.814,1.651A10.093,10.093,0,0,1,58.815,12.9v6.4A2.326,2.326,0,0,1,56.49,21.617Z" transform="translate(-3 -2.991)" fill="#fff"/>
  <path id="Trazado_49" data-name="Trazado 49" d="M42.582,33.605H26.3A9.3,9.3,0,0,1,26.3,15H42.582a2.326,2.326,0,0,1,2.326,2.326V31.279A2.326,2.326,0,0,1,42.582,33.605ZM26.3,19.651a4.651,4.651,0,0,0,0,9.3H40.256v-9.3Z" transform="translate(15.559 12.929)" fill="#fff"/>
</svg>
