<?xml version='1.0' encoding='utf-8'?>
<svg xmlns="http://www.w3.org/2000/svg" width="111" height="111" viewBox="0 0 111 111">
  <rect width="100%" height="100%" fill="#000000" /><defs>
    <filter id="Elipse_6" x="0" y="0" width="111" height="111" filterUnits="userSpaceOnUse">
      <feOffset dy="3" input="SourceAlpha" />
      <feGaussianBlur stdDeviation="3" result="blur" />
      <feFlood flood-opacity="0.161" />
      <feComposite operator="in" in2="blur" />
      <feComposite in="SourceGraphic" />
    </filter>
  </defs>
  <g id="Grupo_1330" data-name="Grupo 1330" transform="translate(-175 -3434)">
    <g transform="matrix(1, 0, 0, 1, 175, 3434)" filter="url(#Elipse_6)">
      <circle id="Elipse_6-2" data-name="Elipse 6" cx="46.5" cy="46.5" r="46.5" transform="translate(9 6)" fill="#80c342" />
    </g>
    <g id="user" transform="translate(212.343 3468.343)">
      <g id="Grupo_102" data-name="Grupo 102" transform="translate(0)">
        <path id="Trazado_194" data-name="Trazado 194" d="M35.6,30.583a1.394,1.394,0,0,0-2.73.568,1.457,1.457,0,0,1-.3,1.221,1.416,1.416,0,0,1-1.115.53H4.231a1.417,1.417,0,0,1-1.115-.53,1.457,1.457,0,0,1-.3-1.221,15.4,15.4,0,0,1,14.656-12.2q.184.007.37.007t.371-.007A15.337,15.337,0,0,1,30.6,25.762a1.394,1.394,0,1,0,2.316-1.553,18.135,18.135,0,0,0-9.4-7.139,9.481,9.481,0,1,0-11.348,0A18.134,18.134,0,0,0,.091,30.583a4.236,4.236,0,0,0,4.14,5.108h27.23a4.236,4.236,0,0,0,4.14-5.108ZM11.154,9.481a6.692,6.692,0,1,1,7.031,6.684q-.169,0-.339,0t-.337,0A6.7,6.7,0,0,1,11.154,9.481Z" transform="translate(0)" fill="#fff" />
      </g>
    </g>
  </g>
</svg>