<?xml version='1.0' encoding='utf-8'?>
<svg xmlns="http://www.w3.org/2000/svg" width="111" height="111" viewBox="0 0 111 111">
  <rect width="100%" height="100%" fill="#000000" /><defs>
    <filter id="Elipse_6" x="0" y="0" width="111" height="111" filterUnits="userSpaceOnUse">
      <feOffset dy="3" input="SourceAlpha" />
      <feGaussianBlur stdDeviation="3" result="blur" />
      <feFlood flood-opacity="0.161" />
      <feComposite operator="in" in2="blur" />
      <feComposite in="SourceGraphic" />
    </filter>
  </defs>
  <g id="Grupo_1329" data-name="Grupo 1329" transform="translate(-175 -3434)">
    <g transform="matrix(1, 0, 0, 1, 175, 3434)" filter="url(#Elipse_6)">
      <circle id="Elipse_6-2" data-name="Elipse 6" cx="46.5" cy="46.5" r="46.5" transform="translate(9 6)" fill="#80c342" />
    </g>
    <path id="stay-home" d="M39.389,19.781a1.556,1.556,0,0,1-2.2-.007l-1.23-1.238v7.3a1.556,1.556,0,0,1-3.113,0V15.4L21.009,3.488a1.555,1.555,0,0,0-2.019,0L7.009,15.441c0,.015,0,.03,0,.045V33.617a3.116,3.116,0,0,0,3.113,3.113H29.733a3.116,3.116,0,0,0,3.113-3.113,1.556,1.556,0,0,1,3.113,0,6.232,6.232,0,0,1-6.225,6.225H10.124A6.232,6.232,0,0,1,3.9,33.617V18.546L2.663,19.778a1.556,1.556,0,0,1-2.2-2.2S16.87,1.2,16.893,1.183a4.665,4.665,0,0,1,6.224.013c.022.02,16.28,16.384,16.28,16.384a1.556,1.556,0,0,1-.007,2.2Zm-15.57-3.516a5.345,5.345,0,0,1,3.864,1.585,5.854,5.854,0,0,1,1.583,4.142,6.644,6.644,0,0,1-1.892,4.5,23.028,23.028,0,0,1-3.439,2.962,16.3,16.3,0,0,0-2.79,2.412,1.556,1.556,0,0,1-2.434,0,16.307,16.307,0,0,0-2.79-2.412,23.027,23.027,0,0,1-3.439-2.962,6.644,6.644,0,0,1-1.892-4.5,5.854,5.854,0,0,1,1.583-4.142,5.345,5.345,0,0,1,3.864-1.585,5.3,5.3,0,0,1,3.891,1.53,5.3,5.3,0,0,1,3.891-1.53Zm0,3.113a2.062,2.062,0,0,0-1.966.989,3.026,3.026,0,0,0-.373,1.075A1.571,1.571,0,0,1,19.929,22.9h-.017a1.54,1.54,0,0,1-1.535-1.446,2.98,2.98,0,0,0-.416-1.152,2.069,2.069,0,0,0-1.923-.921A2.329,2.329,0,0,0,13.7,21.992c0,1.893,2.08,3.459,4.091,4.974.755.568,1.484,1.118,2.134,1.7.65-.579,1.379-1.128,2.134-1.7,2.011-1.515,4.091-3.081,4.091-4.974a2.329,2.329,0,0,0-2.334-2.614Z" transform="translate(210.564 3466.572)" fill="#fff" />
  </g>
</svg>