<svg xmlns="http://www.w3.org/2000/svg" xmlns:xlink="http://www.w3.org/1999/xlink" width="100" height="100" viewBox="0 0 100 100">
  <defs>
    <filter id="Elipse_5" x="0" y="0" width="100" height="100" filterUnits="userSpaceOnUse">
      <feOffset dy="3" input="SourceAlpha"/>
      <feGaussianBlur stdDeviation="3" result="blur"/>
      <feFlood flood-opacity="0.161"/>
      <feComposite operator="in" in2="blur"/>
      <feComposite in="SourceGraphic"/>
    </filter>
  </defs>
  <g id="Grupo_7348" data-name="Grupo 7348" transform="translate(-327 -2221)">
    <g transform="matrix(1, 0, 0, 1, 327, 2221)" filter="url(#Elipse_5)">
      <circle id="Elipse_5-2" data-name="Elipse 5" cx="41" cy="41" r="41" transform="translate(9 6)" fill="#00706a"/>
    </g>
    <g id="iconfinder_b-35_4229855" transform="translate(347.617 2242.992)">
      <path id="Trazado_95" data-name="Trazado 95" d="M57.676,35.069a1.715,1.715,0,0,0,.666.108,1.758,1.758,0,0,0,1.188-.522,1.682,1.682,0,0,0,.5-1.26,6.734,6.734,0,0,1,4.715-6.533,1.689,1.689,0,0,0,.54-.27,1.8,1.8,0,0,0,.684-1.134,1.7,1.7,0,0,0-.324-1.332,6.7,6.7,0,0,1-.018-8.044l.126-.144a.783.783,0,0,0,.144-.27.256.256,0,0,0,.036-.108,1.788,1.788,0,0,0-.108-1.332,1.747,1.747,0,0,0-1.044-.882,6.706,6.706,0,0,1-4.715-6.5,1.681,1.681,0,0,0-.108-.612,1.738,1.738,0,0,0-2.214-1.08,6.9,6.9,0,0,1-2.178.36A6.9,6.9,0,0,1,50.046,2.64a1.5,1.5,0,0,0-.414-.414,1.778,1.778,0,0,0-2.465.414A6.764,6.764,0,0,1,41.66,5.483a6.523,6.523,0,0,1-2.142-.36,1.8,1.8,0,0,0-1.836.432,1.682,1.682,0,0,0-.5,1.26,6.712,6.712,0,0,1-4.715,6.515,1.728,1.728,0,0,0-.576.288,1.773,1.773,0,0,0-.36,2.465,6.7,6.7,0,0,1,0,8.062,2.2,2.2,0,0,0-.252.5A1.7,1.7,0,0,0,31.4,26a1.857,1.857,0,0,0,1.026.864,6.732,6.732,0,0,1,4.715,6.5,1.616,1.616,0,0,0,.09.648,1.763,1.763,0,0,0,.9,1.008,1.8,1.8,0,0,0,1.332.072,7.1,7.1,0,0,1,2.2-.36,6.708,6.708,0,0,1,5.489,2.843,1.51,1.51,0,0,0,.414.414,1.737,1.737,0,0,0,1.026.324c.108,0,.2-.018.306-.018a1.742,1.742,0,0,0,1.134-.72A6.718,6.718,0,0,1,57.676,35.069Zm-9.07,1.476a8.539,8.539,0,0,0-6.928-3.6,8.428,8.428,0,0,0-2.753.468,8.451,8.451,0,0,0-5.939-8.224,8.423,8.423,0,0,0-.018-10.168,8.417,8.417,0,0,0,5.957-8.206,8.3,8.3,0,0,0,2.735.45,8.465,8.465,0,0,0,6.928-3.6,8.555,8.555,0,0,0,6.964,3.6,8.6,8.6,0,0,0,2.717-.45,8.385,8.385,0,0,0,5.957,8.152l-.018.018a8.423,8.423,0,0,0,.036,10.168,8.461,8.461,0,0,0-5.975,8.224h-.018A8.409,8.409,0,0,0,48.606,36.544Z" transform="translate(-19.517)" fill="#fff" stroke="#fff" stroke-width="1"/>
      <path id="Trazado_96" data-name="Trazado 96" d="M91.1,58a8.1,8.1,0,1,0,8.1,8.1A8.11,8.11,0,0,0,91.1,58Zm0,14.433a6.317,6.317,0,1,1,6.317-6.317A6.325,6.325,0,0,1,91.1,72.433Z" transform="translate(-62.009 -46.002)" fill="#fff" stroke="#fff" stroke-width="1"/>
      <path id="Trazado_97" data-name="Trazado 97" d="M23.025,171.643a.9.9,0,0,0-1.242.252l-4.3,6.6-2.214-4.517a.874.874,0,0,0-.792-.5l-4.553-.018,4.5-6.892a.905.905,0,0,0,.144-.486h0a.887.887,0,0,0-.9-.882.877.877,0,0,0-.756.432L7.53,173.874a.9.9,0,0,0,.738,1.386l5.651.018,2.663,5.435a.906.906,0,0,0,.738.5h.054a.86.86,0,0,0,.738-.4l5.165-7.918A.9.9,0,0,0,23.025,171.643Z" transform="translate(0 -133.911)" fill="#fff" stroke="#fff" stroke-width="1"/>
      <path id="Trazado_98" data-name="Trazado 98" d="M175.208,173.773l-5.417-8.3a.9.9,0,1,0-1.494.99l4.517,6.91-4.571.018a.874.874,0,0,0-.792.5l-2.214,4.517-4.319-6.6a.9.9,0,0,0-1.494.99l5.183,7.918a.883.883,0,0,0,.738.4h.054a.858.858,0,0,0,.738-.5l2.645-5.435,5.651-.018a.867.867,0,0,0,.774-.468A.813.813,0,0,0,175.208,173.773Z" transform="translate(-124.559 -133.81)" fill="#fff" stroke="#fff" stroke-width="1"/>
    </g>
  </g>
</svg>
