<?xml version='1.0' encoding='utf-8'?>
<svg xmlns="http://www.w3.org/2000/svg" width="111" height="111" viewBox="0 0 111 111">
  <rect width="100%" height="100%" fill="#000000" /><defs>
    <filter id="Elipse_6" x="0" y="0" width="111" height="111" filterUnits="userSpaceOnUse">
      <feOffset dy="3" input="SourceAlpha" />
      <feGaussianBlur stdDeviation="3" result="blur" />
      <feFlood flood-opacity="0.161" />
      <feComposite operator="in" in2="blur" />
      <feComposite in="SourceGraphic" />
    </filter>
  </defs>
  <g id="Grupo_1319" data-name="Grupo 1319" transform="translate(-175 -3434.189)">
    <g transform="matrix(1, 0, 0, 1, 175, 3434.19)" filter="url(#Elipse_6)">
      <circle id="Elipse_6-2" data-name="Elipse 6" cx="46.5" cy="46.5" r="46.5" transform="translate(9 6)" fill="#80c342" />
    </g>
    <path id="area" d="M38.625,31.193a3.887,3.887,0,0,1,0,5.492l-.007.007-2.657,2.624a1.553,1.553,0,1,1-2.183-2.21l1.554-1.535H10.406a6.22,6.22,0,0,1-6.213-6.213V4.392L2.643,5.921A1.553,1.553,0,0,1,.461,3.709L3.086,1.121a3.914,3.914,0,0,1,5.476,0l2.624,2.589A1.553,1.553,0,0,1,9,5.921L7.3,4.239V29.356a3.11,3.11,0,0,0,3.107,3.107H35.49l-1.712-1.691a1.553,1.553,0,1,1,2.183-2.21l2.657,2.624ZM35.1,0H14.988a1.553,1.553,0,1,0,0,3.107H35.1A1.553,1.553,0,0,1,36.656,4.66V24.852a1.553,1.553,0,1,0,3.107,0V4.66A4.66,4.66,0,0,0,35.1,0ZM22.832,26.63a1.553,1.553,0,0,0,1.553-1.553V18.163a4.269,4.269,0,0,0-6.99-3.292,4.264,4.264,0,0,0-4.389-.638,1.551,1.551,0,0,0-2.6,1.145v9.708a1.553,1.553,0,0,0,3.107,0V18.163a1.165,1.165,0,0,1,2.33,0v6.922a1.553,1.553,0,0,0,3.107,0V18.163a1.165,1.165,0,0,1,2.33,0v6.913A1.553,1.553,0,0,0,22.832,26.63ZM29.88,8.388h-.048a3.589,3.589,0,0,0-3.582,3.587,1.553,1.553,0,1,0,3.107,0,.485.485,0,0,1,.476-.48h.048a.485.485,0,0,1,.475.448A7.536,7.536,0,0,1,28.6,14.4c-.923,1.015-1.83,1.842-1.839,1.85a1.553,1.553,0,0,0,1.044,2.7H32a1.553,1.553,0,1,0,0-3.107h-.534c1.379-1.624,2-2.832,2-3.869A3.589,3.589,0,0,0,29.88,8.388Zm0,0" transform="translate(210.52 3466.519)" fill="#fff" />
  </g>
</svg>