<?xml version="1.0" encoding="UTF-8"?>
<svg version="1.1" xmlns="http://www.w3.org/2000/svg" width="407" height="412">
<path d="M0 0 C0.93134766 0.01869141 1.86269531 0.03738281 2.82226562 0.05664062 C4.1612793 0.11174805 4.1612793 0.11174805 5.52734375 0.16796875 C6.327771 0.19528076 7.12819824 0.22259277 7.95288086 0.25073242 C10.0625 0.8125 10.0625 0.8125 11.81884766 2.44067383 C14.21645572 7.01326165 13.54114097 12.2279751 13.50854492 17.28466797 C13.50002446 19.30669633 13.5288264 21.32590607 13.56054688 23.34765625 C13.55990234 24.62511719 13.55925781 25.90257813 13.55859375 27.21875 C13.56044678 28.38728516 13.5622998 29.55582031 13.56420898 30.75976562 C12.96062528 34.43237422 12.06000589 35.65528237 9.0625 37.8125 C2.84821429 37.59821429 2.84821429 37.59821429 0.0625 34.8125 C-0.21292466 31.14384348 -0.02298493 27.48835201 0.0625 23.8125 C-6.90314072 28.91705142 -13.00642908 34.60636032 -19.0625 40.75 C-19.91714844 41.60529297 -20.77179688 42.46058594 -21.65234375 43.34179688 C-26.05055696 47.77041248 -30.26656565 52.28489268 -34.33740234 57.0144043 C-36.79294452 59.77379828 -39.45275781 62.27116245 -42.1875 64.75 C-42.75049805 65.26377197 -43.31349609 65.77754395 -43.89355469 66.30688477 C-49.08547941 71.00904671 -54.43285655 75.47981289 -59.9375 79.8125 C-60.5135498 80.27172852 -61.08959961 80.73095703 -61.68310547 81.20410156 C-96.12949436 108.5926128 -134.64546767 129.72744614 -175.9375 144.8125 C-176.87400391 145.15506836 -177.81050781 145.49763672 -178.77539062 145.85058594 C-220.32015394 160.82816297 -265.55450177 168.8400905 -309.72949219 169.765625 C-311.98989068 169.81361223 -314.24825623 169.89120195 -316.5078125 169.96875 C-317.94265443 170.00238407 -319.37755168 170.03376093 -320.8125 170.0625 C-322.63394531 170.10117187 -322.63394531 170.10117187 -324.4921875 170.140625 C-328.666806 169.74304229 -331.24168936 168.78267621 -334.9375 166.8125 C-336.125 163.875 -336.125 163.875 -335.9375 160.8125 C-333.75317858 157.92607527 -332.38446406 156.96148802 -328.9375 155.8125 C-326.39836601 155.77070431 -323.88129849 155.77890538 -321.34375 155.82421875 C-312.32527358 155.89908362 -303.42083104 155.37845533 -294.4375 154.625 C-293.64813049 154.56003326 -292.85876099 154.49506653 -292.04547119 154.4281311 C-197.74184546 146.54495763 -111.55949896 110.80389626 -11.9375 14.8125 C-12.56325928 14.75989014 -13.18901855 14.70728027 -13.83374023 14.65307617 C-15.05879272 14.536698 -15.05879272 14.536698 -16.30859375 14.41796875 C-17.11997803 14.34473389 -17.9313623 14.27149902 -18.76733398 14.19604492 C-20.9375 13.8125 -20.9375 13.8125 -23 12.125 C-24.21555828 9.12662291 -24.3468768 7.01928493 -23.9375 3.8125 C-22.36196473 1.73212445 -21.39118404 0.92469234 -18.84155273 0.29418945 C-12.53287089 -0.17977722 -6.3208606 -0.26580953 0 0 Z " fill="#FFFFFF" transform="translate(358.9375,60.1875)"/>
<path d="M0 0 C4.46060789 3.90182764 7.59789216 8.42914718 8.27415466 14.43458557 C8.28479446 15.28189743 8.29543427 16.12920929 8.30639648 17.00219727 C8.32238388 17.96992569 8.33837128 18.93765411 8.35484314 19.93470764 C8.36020584 20.96816818 8.36556854 22.00162872 8.37109375 23.06640625 C8.38463646 24.6729734 8.38463646 24.6729734 8.39845276 26.31199646 C8.41293687 28.57214569 8.42183741 30.83233668 8.42553711 33.0925293 C8.43747047 36.55393457 8.4867072 40.01357813 8.53710938 43.47460938 C8.54656965 45.67186631 8.55380657 47.86913417 8.55859375 50.06640625 C8.57812607 51.10189102 8.59765839 52.13737579 8.61778259 53.20423889 C8.57281456 60.34096688 8.57281456 60.34096688 5.66430664 63.68725586 C2.25872285 65.36523845 0.57136791 65.19045597 -3 64 C-6.74974638 58.37538043 -6.13370719 52.42903204 -6.09765625 45.88671875 C-6.0962413 44.91716751 -6.09482635 43.94761627 -6.09336853 42.94868469 C-6.08778513 39.86159133 -6.07523564 36.77457133 -6.0625 33.6875 C-6.05748286 31.59049584 -6.05292032 29.49349054 -6.04882812 27.39648438 C-6.03782112 22.26429479 -6.02056788 17.13215982 -6 12 C-8.58296017 11.80477627 -11.16604079 11.61855597 -13.75 11.4375 C-14.84441406 11.35338867 -14.84441406 11.35338867 -15.9609375 11.26757812 C-19.5161739 11.02517564 -22.61442127 10.82286171 -26 12 C-27.49190658 14.98381316 -27.13352793 18.03046114 -27.12025452 21.30178833 C-27.12153615 22.44366271 -27.12153615 22.44366271 -27.12284368 23.60860527 C-27.1244977 26.17285023 -27.11897837 28.73703054 -27.11352539 31.30126953 C-27.11324348 33.13405353 -27.11340134 34.96683765 -27.1139679 36.79962158 C-27.1142557 41.78695722 -27.10836165 46.77426899 -27.10139394 51.76159906 C-27.09515765 56.96930986 -27.09455638 62.17702115 -27.09336853 67.38473511 C-27.09025603 77.25156229 -27.08204373 87.11837844 -27.07201904 96.98520076 C-27.06085539 108.21598723 -27.05534682 119.44677422 -27.05032361 130.67756486 C-27.03986106 153.78504936 -27.02226318 176.89252407 -27 200 C-24.92255484 200.19238392 -22.84424962 200.37549572 -20.765625 200.5546875 C-19.60836914 200.65765137 -18.45111328 200.76061523 -17.25878906 200.86669922 C-13.27766864 201.02954697 -10.65844949 200.49663843 -7 199 C-5.17316831 197.17316831 -5.86947531 194.62944774 -5.85655212 192.1973877 C-5.8573452 190.94750061 -5.8573452 190.94750061 -5.8581543 189.67236328 C-5.85467987 188.79921478 -5.85120544 187.92606628 -5.84762573 187.02645874 C-5.84025472 185.12375658 -5.83491654 183.22104574 -5.83133507 181.31833267 C-5.82419359 178.3097147 -5.80854503 175.30126211 -5.78999329 172.29269409 C-5.73741131 163.73633076 -5.68952364 155.1800566 -5.67407227 146.62353516 C-5.66401171 141.39618933 -5.63473521 136.16925669 -5.59275246 130.94207382 C-5.58040861 128.94616694 -5.57532734 126.95020178 -5.57755089 124.95425797 C-5.57989401 122.16452942 -5.55781313 119.37599359 -5.5300293 116.58642578 C-5.53993141 115.34261139 -5.53993141 115.34261139 -5.55003357 114.07366943 C-5.45891025 108.51934244 -5.45891025 108.51934244 -3.19343567 105.95553589 C0.14845982 104.49969147 2.53879449 105.10265042 6 106 C8.5785038 109.8677557 8.29544076 113.08094005 8.29052734 117.56713867 C8.29724457 118.44230133 8.30396179 119.31746399 8.31088257 120.21914673 C8.3299133 123.11881153 8.33378985 126.01824533 8.3359375 128.91796875 C8.34236382 130.93475947 8.34909206 132.95154926 8.35610962 134.96833801 C8.36809644 139.20100056 8.37178919 143.43358143 8.37060547 147.66625977 C8.37040264 153.07892564 8.39766119 158.49106432 8.43214989 163.90360546 C8.45444015 168.07217288 8.45844229 172.2406141 8.45738602 176.409235 C8.45974044 178.40385053 8.46855502 180.39846962 8.48405075 182.39302635 C8.50374578 185.19101638 8.49785805 187.98787873 8.48583984 190.78588867 C8.49707886 191.60333054 8.50831787 192.4207724 8.51989746 193.26298523 C8.44185787 200.44787366 6.21375369 205.57541263 1.375 210.875 C-6.58942914 215.88964057 -16.63406483 215.94562665 -25.6875 214.25 C-32.0751047 212.62810385 -36.49074858 209.55114885 -39.94148064 203.81570625 C-42.41506568 197.23586547 -41.67972061 189.70213054 -41.63110352 182.76147461 C-41.63624583 180.89974791 -41.64352945 179.03802609 -41.65278625 177.17631531 C-41.6712674 172.13497333 -41.65838286 167.09416166 -41.63869596 162.0528419 C-41.6222835 156.77102614 -41.63112586 151.48924327 -41.63621521 146.20741272 C-41.64073286 137.33960521 -41.62488566 128.47200886 -41.59692383 119.60424805 C-41.56486362 109.35784697 -41.56489262 99.11182648 -41.5821386 88.86539835 C-41.59801143 78.99928838 -41.59126587 69.1333177 -41.57420158 59.26721382 C-41.56733636 55.07237596 -41.5683581 50.87764991 -41.57574654 46.68281364 C-41.58341717 41.74226742 -41.57125769 36.80215353 -41.54389763 31.86168098 C-41.53702128 30.05050057 -41.53690778 28.23927972 -41.54411316 26.42810059 C-41.55282769 23.95194853 -41.53681928 21.47712463 -41.5146637 19.00108337 C-41.52290446 18.28765005 -41.53114523 17.57421672 -41.53963572 16.8391642 C-41.42847478 10.08913726 -38.92264346 5.9663399 -34.25 1.1875 C-25.19485299 -4.90731049 -9.55123587 -5.58953229 0 0 Z " fill="#FFFFFF" transform="translate(358,165)"/>
<path d="M0 0 C4.14129751 3.86148011 7.73663763 8.07297433 8.25726891 13.85930252 C8.26062059 14.97349941 8.26397228 16.0876963 8.26742554 17.23565674 C8.27595551 18.51695969 8.28448547 19.79826263 8.29327393 21.11839294 C8.29257491 22.53628552 8.29165185 23.95417801 8.29052734 25.37207031 C8.29651255 26.86705359 8.30331808 28.36203377 8.31088257 29.85700989 C8.32855359 33.91711457 8.33323849 37.97713494 8.33451414 42.03727436 C8.33593602 44.57547443 8.34020636 47.11365309 8.34550858 49.65184784 C8.36401458 58.51156474 8.37217873 67.37122145 8.37060547 76.23095703 C8.36940486 84.48116347 8.39048972 92.73110796 8.4220928 100.98124814 C8.44827698 108.07015499 8.45897182 115.15897642 8.45769465 122.24793124 C8.45718552 126.47919594 8.46284125 130.71022799 8.48405075 134.9414444 C8.50346861 138.92407243 8.50353367 142.90624683 8.48901749 146.88889122 C8.48693245 148.34651797 8.49161209 149.80417337 8.5037384 151.26175117 C8.57939017 160.98910222 8.1359373 167.47016391 1.375 174.875 C-6.58942914 179.88964057 -16.63406483 179.94562665 -25.6875 178.25 C-31.2438684 176.85606786 -34.83293822 174.54556831 -38.3125 169.9375 C-40.7546493 165.68635123 -41.12975897 162.71568759 -41.15390015 157.88459778 C-41.16250061 156.60466949 -41.17110107 155.32474121 -41.17996216 154.00602722 C-41.18439731 152.58450358 -41.18869568 151.16297951 -41.19287109 149.74145508 C-41.20077351 148.24662079 -41.20904255 146.7517884 -41.21765137 145.25695801 C-41.24385796 140.34450092 -41.25917883 135.43203537 -41.2734375 130.51953125 C-41.27879797 128.82736391 -41.28417548 127.13519663 -41.28956985 125.4430294 C-41.31119764 118.40267201 -41.3299333 111.3623169 -41.34119225 104.3219347 C-41.35742458 94.23847957 -41.39058591 84.15541018 -41.44759309 74.07210046 C-41.48632475 66.97897998 -41.50582881 59.88596253 -41.51111281 52.79273909 C-41.51476221 48.55802427 -41.52673909 44.32372101 -41.55921555 40.08912086 C-41.58935285 36.10235808 -41.59558822 32.11625464 -41.58383179 28.12940216 C-41.58361151 26.67014543 -41.59187839 25.2108576 -41.60948563 23.75170708 C-41.70247162 15.59867146 -41.61888693 9.27645398 -36 3 C-27.73856327 -5.26143673 -9.91123438 -5.6897827 0 0 Z M-27 12 C-28.35124658 14.70249315 -28.1352557 16.81192826 -28.14717102 19.838974 C-28.15432632 21.08268265 -28.16148163 22.3263913 -28.16885376 23.60778809 C-28.17169411 24.99365209 -28.17440583 26.37951637 -28.17700195 27.76538086 C-28.18326551 29.21891951 -28.18991222 30.67245655 -28.19691467 32.12599182 C-28.21433092 36.08048858 -28.22487749 40.03497324 -28.2331202 43.98949885 C-28.23826759 46.45829336 -28.24434335 48.92708409 -28.25063133 51.39587593 C-28.26968263 59.11498453 -28.28391555 66.83408355 -28.2922433 74.55321115 C-28.30202544 83.4737828 -28.32837047 92.39410696 -28.36874419 101.31459135 C-28.39885855 108.2037957 -28.41370759 115.0929289 -28.41702431 121.98219782 C-28.4193796 126.09989141 -28.42840201 130.21732058 -28.45348549 134.33494377 C-28.47669063 138.20670873 -28.48103035 142.07803373 -28.47072411 145.94985008 C-28.47022683 147.3724946 -28.47660366 148.79516024 -28.49028015 150.21773911 C-28.50787897 152.15642716 -28.49854698 154.0953045 -28.48774719 156.03404236 C-28.49013555 157.12008224 -28.4925239 158.20612211 -28.49498463 159.32507229 C-28.24760116 162.12130571 -28.24760116 162.12130571 -26.08279705 163.8299036 C-20.88613608 166.74934037 -15.39007257 166.63133993 -9.6875 165.125 C-6.90851235 164.16132796 -6.90851235 164.16132796 -5 162 C-4.69186408 159.33226867 -4.69186408 159.33226867 -4.73930359 156.161026 C-4.73221878 154.91731735 -4.72513397 153.6736087 -4.71783447 152.39221191 C-4.7201285 151.0063473 -4.72263823 149.62048302 -4.7253418 148.23461914 C-4.72099657 146.78107948 -4.71581406 145.32754212 -4.70985413 143.87400818 C-4.69643218 139.91948016 -4.695889 135.96504752 -4.69841743 132.01050115 C-4.69948502 128.71264511 -4.6946092 125.41480853 -4.689812 122.11695665 C-4.67870569 114.33845442 -4.67828567 106.56000047 -4.68432617 98.78149414 C-4.69036758 90.74939732 -4.67805334 82.71747559 -4.6567561 74.68540865 C-4.63915893 67.7961951 -4.63313577 60.90703738 -4.63639385 54.01780218 C-4.63820993 49.90017181 -4.6355384 45.78266632 -4.62167931 41.66505623 C-4.60913616 37.79332815 -4.61101144 33.92187363 -4.62409019 30.05014992 C-4.62646327 28.62751932 -4.62369523 27.20486968 -4.61546707 25.78226089 C-4.60506055 23.84351803 -4.61486876 21.90469775 -4.6257782 19.96595764 C-4.62552659 18.33689783 -4.62552659 18.33689783 -4.62526989 16.67492771 C-4.77893009 13.97561542 -4.77893009 13.97561542 -6.40815449 12.16936398 C-9.77425748 9.69663685 -13.44360877 9.84035983 -17.5 9.8125 C-18.4384375 9.79832031 -19.376875 9.78414062 -20.34375 9.76953125 C-23.09403256 10.00815871 -24.69569211 10.50743693 -27 12 Z " fill="#FFFFFF" transform="translate(286,207)"/>
<path d="M0 0 C12.18297528 10.17298946 19.41594841 24.55583494 21.5703125 40.1875 C22.92024681 57.34144788 19.80818151 72.98460949 9.46484375 87.05078125 C-3.38822073 102.04223168 -19.96980627 107.64287771 -39.09375 109.4375 C-41.24795447 109.50016777 -43.28584543 109.40499122 -45.4296875 109.1875 C-46.3475 109.0946875 -47.2653125 109.001875 -48.2109375 108.90625 C-59.97083767 107.33018091 -69.57685967 103.06239918 -78.4296875 95.1875 C-79.33460937 94.43919922 -79.33460937 94.43919922 -80.2578125 93.67578125 C-92.20965168 82.98911424 -97.69216064 65.86267096 -98.59765625 50.30078125 C-98.71819583 33.01540559 -94.09762959 17.1483605 -82.47265625 3.96875 C-60.82598448 -16.91486655 -23.65218607 -17.6440745 0 0 Z M-74.3046875 16 C-82.94432547 26.76854398 -86.90126156 40.47510534 -85.4296875 54.1875 C-82.93820366 68.24658739 -77.06046304 79.94958655 -65.52734375 88.6171875 C-55.01318396 95.65438752 -42.57416877 97.58335231 -30.1796875 95.69140625 C-16.64199688 92.86573262 -6.81672856 87.40911094 0.96484375 75.796875 C8.62352052 63.34919597 10.27688531 50.33025657 6.9453125 36.1875 C5.2240103 29.4336703 2.73603386 23.83273449 -1.4296875 18.1875 C-1.86925781 17.55585937 -2.30882812 16.92421875 -2.76171875 16.2734375 C-8.81555471 8.35285673 -18.58970122 2.63001108 -28.4296875 1.1875 C-45.65468389 -0.33983958 -62.00743226 2.8811609 -74.3046875 16 Z " fill="#FFFFFF" transform="translate(152.4296875,48.8125)"/>
<path d="M0 0 C1.13163574 0.00737183 1.13163574 0.00737183 2.28613281 0.01489258 C9.19924257 0.16097585 13.9230126 1.09086592 19.4375 5.625 C24.78010775 12.18877524 25.0594603 17.55837068 25.01318359 25.73046875 C25.01844055 26.87262848 25.02369751 28.01478821 25.02911377 29.19155884 C25.04230078 32.96117897 25.03357986 36.73037569 25.0234375 40.5 C25.0254586 43.1226408 25.02837033 45.74528105 25.03213501 48.36791992 C25.03758561 53.86218845 25.03041931 59.35633582 25.01611328 64.85058594 C24.99978799 71.19339426 25.00507699 77.53591324 25.0215925 83.87871456 C25.03687116 89.99231221 25.0352231 96.10578205 25.0264473 102.21939087 C25.02444647 104.8157251 25.02690042 107.41206673 25.03388596 110.00839233 C25.04150705 113.63730411 25.029886 117.2656608 25.01318359 120.89453125 C25.01925629 121.96692047 25.02532898 123.03930969 25.03158569 124.14419556 C24.98501333 129.6079656 24.77614103 133.63316158 21.625 138.3125 C14.58812566 145.04342328 7.50060383 146.60891066 -2.0078125 146.46484375 C-8.67593099 146.03570741 -14.15525422 144.68251972 -19.375 140.3125 C-22.83502445 135.73030545 -24.49316727 132.31816016 -24.52217102 126.60176086 C-24.52932632 125.63315628 -24.53648163 124.6645517 -24.54385376 123.66659546 C-24.54654266 122.60526398 -24.54923157 121.5439325 -24.55200195 120.45043945 C-24.55857315 119.33143753 -24.56514435 118.21243561 -24.57191467 117.05952454 C-24.59166008 113.34827612 -24.6033135 109.6370682 -24.61328125 105.92578125 C-24.61735678 104.65874044 -24.6214323 103.39169964 -24.62563133 102.08626366 C-24.64434594 96.07093364 -24.65890981 90.05562818 -24.6672433 84.04027683 C-24.67700592 77.10861047 -24.70330093 70.17726428 -24.74374419 63.24571067 C-24.7776153 57.23306147 -24.7893943 51.22056692 -24.79344749 45.20781517 C-24.79831723 42.65497861 -24.80994214 40.10214557 -24.82848549 37.54937172 C-24.85284688 33.97316698 -24.8519167 30.39779561 -24.8449707 26.8215332 C-24.86418579 25.24471771 -24.86418579 25.24471771 -24.88378906 23.63604736 C-24.83466409 16.6837777 -23.77916331 11.0736987 -18.99841785 5.79153919 C-13.32684827 0.66644843 -7.29212957 -0.05563434 0 0 Z M-10.375 15.3125 C-11.55622086 17.67494172 -11.5082935 19.10480777 -11.52217102 21.74008179 C-11.52932632 22.67102158 -11.53648163 23.60196136 -11.54385376 24.56111145 C-11.54654266 25.5855687 -11.54923157 26.61002594 -11.55200195 27.66552734 C-11.55857315 28.74204056 -11.56514435 29.81855377 -11.57191467 30.9276886 C-11.59167675 34.50127221 -11.60331561 38.07481378 -11.61328125 41.6484375 C-11.61735678 42.86622517 -11.6214323 44.08401283 -11.62563133 45.33870316 C-11.64650261 51.78178998 -11.66080083 58.22485542 -11.67016602 64.66796875 C-11.68023605 71.33540401 -11.71565715 78.00246066 -11.75533772 84.66979027 C-11.78143197 89.78608844 -11.78985137 94.90230645 -11.79344749 100.01866531 C-11.79833059 102.47712072 -11.80999313 104.93557215 -11.82848549 107.39396286 C-11.85272762 110.82980784 -11.85193911 114.26478001 -11.8449707 117.70068359 C-11.85778076 118.72109238 -11.87059082 119.74150116 -11.88378906 120.79283142 C-11.91723988 126.22250498 -11.91723988 126.22250498 -9.50505066 130.93325806 C-5.04102468 133.82378643 0.70996589 133.73474752 5.86328125 132.98828125 C7.95168443 132.49411025 7.95168443 132.49411025 10.625 131.3125 C11.8218567 128.9187866 11.74821706 127.45428739 11.74525452 124.78207397 C11.74662918 123.82852524 11.74800385 122.8749765 11.74942017 121.89253235 C11.74582489 120.84308945 11.74222961 119.79364655 11.73852539 118.71240234 C11.73867142 117.60995682 11.73881744 116.50751129 11.7389679 115.37165833 C11.73826912 111.71389829 11.73047833 108.05618868 11.72265625 104.3984375 C11.72079195 101.86780831 11.7193681 99.33717875 11.71836853 96.80654907 C11.71493557 90.81776544 11.70704755 84.82900358 11.69701904 78.84022868 C11.68585033 72.0229022 11.68034554 65.20557487 11.67532361 58.38824153 C11.66486475 44.36298426 11.64727001 30.33774313 11.625 16.3125 C7.30408392 14.03934201 4.41365743 12.91831516 -0.5 13 C-1.51320312 13.00386719 -2.52640625 13.00773438 -3.5703125 13.01171875 C-6.36255074 13.31116491 -8.03677888 13.78780743 -10.375 15.3125 Z " fill="#FFFFFF" transform="translate(197.375,239.6875)"/>
<path d="M0 0 C0.77279297 -0.01611328 1.54558594 -0.03222656 2.34179688 -0.04882812 C8.96833753 -0.0544296 13.6799073 1.25480631 18.8125 5.6875 C23.26775798 10.88530098 24.50597953 14.58655867 24.45068359 21.40405273 C24.45594055 22.20469147 24.46119751 23.0053302 24.46661377 23.83023071 C24.47978537 26.46905194 24.47108506 29.10726669 24.4609375 31.74609375 C24.46295925 33.58545548 24.46587154 35.42481643 24.46963501 37.26417542 C24.47405468 41.11670574 24.46763954 44.96902719 24.45361328 48.8215332 C24.43653365 53.7522596 24.44635707 58.68249564 24.46433067 63.613204 C24.47518842 67.41111421 24.47171282 71.20890883 24.4639473 75.00682259 C24.46195017 76.82444378 24.4643874 78.64207556 24.47138596 80.45968437 C24.47903191 83.00392183 24.46735208 85.54737356 24.45068359 88.09155273 C24.45979263 89.21157936 24.45979263 89.21157936 24.46908569 90.35423279 C24.39363606 96.59212066 22.78172511 100.50941026 18.5 105 C11.05377146 110.69958234 1.60617519 111.1687806 -7.35546875 109.99609375 C-12.86196579 108.97227269 -17.75675088 107.37393627 -21.15625 102.6015625 C-24.33013326 97.22863154 -25.09156756 92.94837549 -25.11450195 86.84692383 C-25.12107315 86.08880402 -25.12764435 85.3306842 -25.13441467 84.54959106 C-25.15413057 82.03957008 -25.16580796 79.52960896 -25.17578125 77.01953125 C-25.17985678 76.16069525 -25.1839323 75.30185925 -25.18813133 74.41699791 C-25.20898724 69.86906551 -25.22328964 65.32116322 -25.23266602 60.77319336 C-25.24371468 56.08693967 -25.27809792 51.40116286 -25.31783772 46.7150774 C-25.34404868 43.10240324 -25.35236193 39.48984179 -25.35594749 35.87708092 C-25.36080381 34.15039547 -25.3723905 32.42371473 -25.39098549 30.69712257 C-25.41546763 28.27271982 -25.41439563 25.84953865 -25.4074707 23.42504883 C-25.42028076 22.71981583 -25.43309082 22.01458282 -25.44628906 21.28797913 C-25.38490513 15.35292268 -23.53403699 10.2063924 -19.56091785 5.77827168 C-13.67571966 0.5122459 -7.51505758 -0.03118281 0 0 Z M-11.9375 18.3125 C-12.6843175 21.76388076 -12.6843175 21.76388076 -12.56860352 25.60961914 C-12.57575882 26.32568832 -12.58291412 27.04175751 -12.59028625 27.77952576 C-12.60713584 30.13622682 -12.58779747 32.49101556 -12.56640625 34.84765625 C-12.56723522 36.49002744 -12.56969565 38.13239854 -12.57371521 39.77476501 C-12.5765705 43.21215875 -12.56189753 46.64889991 -12.53442383 50.08618164 C-12.50031391 54.49043382 -12.50637033 58.89352142 -12.5250864 63.29782963 C-12.53565758 66.6873901 -12.52671811 70.07667984 -12.51170158 73.46621513 C-12.50652193 75.09010451 -12.50699896 76.71402218 -12.51324654 78.33790779 C-12.51870154 80.6074818 -12.49831893 82.87539115 -12.47094727 85.14477539 C-12.46474869 86.43541397 -12.45855011 87.72605255 -12.4521637 89.05580139 C-11.85203069 92.85333432 -10.97569041 94.03394987 -7.9375 96.3125 C-1.81119887 97.9449294 4.22393098 97.72408285 10.0625 95.3125 C11.55371778 92.33006445 11.19251472 89.28634248 11.17602539 86.01708984 C11.17617142 85.26577286 11.17631744 84.51445587 11.1764679 83.7403717 C11.17576996 81.2513645 11.16798314 78.76243167 11.16015625 76.2734375 C11.15829165 74.54993735 11.15686794 72.82643666 11.15586853 71.10293579 C11.15204669 66.56224103 11.14221922 62.02157815 11.13116455 57.480896 C11.12094329 52.84924755 11.11636937 48.21759397 11.11132812 43.5859375 C11.10059667 34.49477764 11.08352422 25.40364147 11.0625 16.3125 C6.81940233 14.09197873 3.82274649 12.86228319 -1 12.8125 C-2.00160156 12.7815625 -3.00320312 12.750625 -4.03515625 12.71875 C-8.04832208 13.53974758 -9.3819306 15.14903261 -11.9375 18.3125 Z " fill="#FFFFFF" transform="translate(125.9375,275.6875)"/>
<path d="M0 0 C5.56505856 3.47970402 7.81865157 7.54286181 9.33836365 13.85472107 C10.03092226 17.53028653 10.06696459 21.14776506 10.0625 24.87890625 C10.06678513 25.68969131 10.07107025 26.50047638 10.07548523 27.33583069 C10.08119125 29.03922599 10.08175654 30.74264565 10.07739258 32.44604492 C10.07423117 35.02891206 10.09774289 37.6106332 10.12304688 40.19335938 C10.12532037 41.85937358 10.12602313 43.52539081 10.125 45.19140625 C10.13420975 45.95106186 10.14341949 46.71071747 10.15290833 47.49339294 C10.0951055 54.30753713 8.764503 60.54244929 4.51171875 65.9765625 C-3.45095559 72.12953813 -12.750632 72.78464629 -22.46484375 71.8984375 C-28.7148567 70.91046294 -33.35761204 68.14116459 -37.23828125 63.1015625 C-39.92617268 57.07660659 -40.68465387 52.18791993 -40.63671875 45.6328125 C-40.63958893 44.75306763 -40.64245911 43.87332275 -40.64541626 42.96691895 C-40.64744593 41.11807608 -40.64199339 39.26921121 -40.62939453 37.42041016 C-40.61332495 34.60920667 -40.62928055 31.79944064 -40.6484375 28.98828125 C-40.64645487 27.18228853 -40.6426108 25.3762967 -40.63671875 23.5703125 C-40.64279144 22.73987427 -40.64886414 21.90943604 -40.65512085 21.05383301 C-40.58099939 14.82699851 -39.65010572 9.06204846 -35.58984375 4.078125 C-35.02007812 3.63210938 -34.4503125 3.18609375 -33.86328125 2.7265625 C-33.29867187 2.26507813 -32.7340625 1.80359375 -32.15234375 1.328125 C-23.81033399 -4.01757105 -9.04336665 -3.80212272 0 0 Z M-26.23828125 14.1015625 C-26.84695361 17.23179055 -26.77420119 20.33192529 -26.734375 23.51171875 C-26.73583023 24.43496445 -26.73728546 25.35821014 -26.73878479 26.30943298 C-26.73712508 28.26043861 -26.72555573 30.21145723 -26.70483398 32.16235352 C-26.67585615 35.15632411 -26.68422769 38.14852743 -26.69726562 41.14257812 C-26.69102911 43.03646698 -26.68263885 44.93035022 -26.671875 46.82421875 C-26.67481064 47.72318375 -26.67774628 48.62214874 -26.68077087 49.5483551 C-26.6680867 50.37939255 -26.65540253 51.21042999 -26.64233398 52.06665039 C-26.636931 52.79928604 -26.63152802 53.53192169 -26.6259613 54.28675842 C-26.37008979 56.51766436 -26.37008979 56.51766436 -23.23828125 58.1015625 C-17.31540602 59.16135547 -10.62998416 60.22307471 -5.23828125 57.1015625 C-2.67160391 52.55916103 -2.97078209 47.97534243 -3.05078125 42.9140625 C-3.06085205 42.04144775 -3.07092285 41.16883301 -3.08129883 40.26977539 C-3.10798704 38.45415835 -3.14118512 36.63862614 -3.18066406 34.82324219 C-3.21852038 33.03501229 -3.24680927 31.2465494 -3.26464844 29.45800781 C-3.29194305 26.98361002 -3.3533395 24.51250346 -3.42578125 22.0390625 C-3.43134033 21.28407471 -3.43689941 20.52908691 -3.44262695 19.7512207 C-3.58822639 16.2644552 -3.76246943 14.54003872 -6.37890625 12.12890625 C-9.68327131 10.94168219 -12.29173597 10.70216589 -15.80078125 10.7265625 C-16.91582031 10.71882813 -18.03085937 10.71109375 -19.1796875 10.703125 C-22.73457056 11.16621321 -23.85576421 11.42976691 -26.23828125 14.1015625 Z " fill="#FFFFFF" transform="translate(69.23828125,313.8984375)"/>
<path d="M0 0 C3.5 0.5 3.5 0.5 5.375 1.5 C7.17243534 4.6954406 7.20202714 7.86473107 7.5 11.5 C8.21027344 11.63277344 8.92054687 11.76554687 9.65234375 11.90234375 C10.57144531 12.07894531 11.49054688 12.25554687 12.4375 12.4375 C13.35402344 12.61152344 14.27054688 12.78554687 15.21484375 12.96484375 C17.5 13.5 17.5 13.5 18.5 14.5 C18.97668503 21.88861796 18.97668503 21.88861796 17.25756836 24.09350586 C15.06490193 25.84818724 13.834753 25.91829688 11.05078125 26.01171875 C9.77944336 26.06489258 9.77944336 26.06489258 8.48242188 26.11914062 C7.60134766 26.14169922 6.72027344 26.16425781 5.8125 26.1875 C4.47348633 26.23874023 4.47348633 26.23874023 3.10742188 26.29101562 C0.90507329 26.37345648 -1.29687938 26.44261551 -3.5 26.5 C-3.5 27.49 -3.5 28.48 -3.5 29.5 C-2.70335938 29.52578125 -1.90671875 29.5515625 -1.0859375 29.578125 C6.91812815 30.00656647 11.29410983 31.04101323 16.875 37.0625 C19.17798484 41.93419869 19.27271252 46.20139984 18.5 51.5 C16.60570749 55.58001463 15.52836723 57.06808576 11.375 58.8125 C8.36821633 60.15505464 8.36821633 60.15505464 7.8125 62.5390625 C7.52128358 64.1355525 7.24387692 65.73462446 6.98046875 67.3359375 C6.29658163 70.41620956 5.11438091 71.78197826 2.5 73.5 C0 74.0625 0 74.0625 -2.5 73.5 C-5.76527806 70.58772497 -6.46140059 69.08864097 -6.75 64.6875 C-6.6675 63.635625 -6.585 62.58375 -6.5 61.5 C-7.5725 61.54125 -8.645 61.5825 -9.75 61.625 C-15.20347003 61.44321767 -15.20347003 61.44321767 -17.5 59.5 C-18.61997696 56.14006911 -18.72365269 54.19738975 -17.640625 50.8203125 C-15.5 48.5 -15.5 48.5 -13.37719727 48.09985352 C-10.673038 48.00621308 -8.01546023 48.06557605 -5.3125 48.1875 C-4.37212891 48.21005859 -3.43175781 48.23261719 -2.46289062 48.25585938 C-0.14032527 48.31480773 2.17903776 48.39702215 4.5 48.5 C4.5 47.18 4.5 45.86 4.5 44.5 C3.57058594 44.42523438 2.64117187 44.35046875 1.68359375 44.2734375 C-10.68941157 42.95743485 -10.68941157 42.95743485 -15.296875 38.12890625 C-18.71662168 33.49892454 -18.83135856 29.18377206 -18.04296875 23.68359375 C-17.00542838 19.51103931 -15.00350484 16.50233656 -11.4375 14.125 C-9.5 13.5 -9.5 13.5 -6.5 13.5 C-6.561875 12.283125 -6.62375 11.06625 -6.6875 9.8125 C-6.64862479 4.34081437 -5.95021536 0.85003077 0 0 Z " fill="#FFFFFF" transform="translate(113.5,60.5)"/>
<path d="M0 0 C3.44515785 3.71080857 3.57334184 6.68390513 3.4140625 11.578125 C3 14 3 14 0.875 17.1875 C-2 19 -2 19 -5.125 19.3125 C-8.2491023 17.88627938 -8.64870017 17.48362219 -10 14.5 C-11.40545088 9.89278233 -11.15564408 5.34736588 -9 1 C-5.71235145 -1.15627152 -3.72421862 -1.33689899 0 0 Z " fill="#FFFFFF" transform="translate(363,241)"/>
</svg>
