<?xml version="1.0" encoding="UTF-8"?>
<svg version="1.1" xmlns="http://www.w3.org/2000/svg" width="512" height="512">
<path d="M0 0 C8.18726063 7.36853457 13.55673155 16.94900794 14.16796875 28.05078125 C14.17441406 29.12714844 14.18085938 30.20351562 14.1875 31.3125 C14.20167969 32.38113281 14.21585938 33.44976562 14.23046875 34.55078125 C13.96024401 38.59499224 13.07696162 42.09654623 12 46 C20.45857728 39.60372436 28.86815863 33.17050182 37.0625 26.4375 C43.62011348 21.05606383 50.33482514 15.92682139 57.1484375 10.875 C59.7191281 8.96675161 62.26411562 7.03087964 64.7890625 5.0625 C65.68202026 4.3667688 65.68202026 4.3667688 66.59301758 3.65698242 C68.20635332 2.39549727 69.816193 1.12954453 71.42578125 -0.13671875 C76.06163223 -3.49225884 80.47643188 -3.50300534 86 -3 C95.57456578 0.19152193 101.01323273 10.85931071 106 19 C106.93942726 21.81828178 107.22582627 23.81221669 107.3125 26.75 C107.36857422 27.97976562 107.36857422 27.97976562 107.42578125 29.234375 C106.21845782 37.07643914 101.02167326 41.06161152 95 45.5 C94.21109375 46.09748047 93.4221875 46.69496094 92.609375 47.31054688 C90.08223645 49.21980799 87.54214351 51.11077785 85 53 C83.33271025 54.2491688 81.66603973 55.49916453 80 56.75 C77.49306995 58.63117796 74.98522201 60.51103208 72.47363281 62.38598633 C66.84828298 66.58974204 61.28219915 70.86204287 55.75 75.1875 C49.88385057 79.76878832 43.99946149 84.32319787 38.0625 88.8125 C37.39379883 89.32256592 36.72509766 89.83263184 36.03613281 90.3581543 C33.37544306 92.35990435 31.18138186 93.93953938 28 95 C28.22719727 96.60439941 28.22719727 96.60439941 28.45898438 98.24121094 C29.02084328 102.21412997 29.57908002 106.18755098 30.13623047 110.16113281 C30.37775673 111.88002175 30.62026174 113.59877347 30.86376953 115.31738281 C31.21384693 117.78935791 31.56038801 120.26180704 31.90625 122.734375 C32.0156189 123.50118591 32.12498779 124.26799683 32.2376709 125.05804443 C32.70509811 128.42210959 33 131.59506501 33 135 C33.85070068 135.26264648 34.70140137 135.52529297 35.57788086 135.79589844 C41.1509362 137.75682509 46.32247438 140.53555494 51.56811523 143.22998047 C53.5541093 144.24570861 55.54912668 145.24198107 57.54492188 146.23828125 C58.8235212 146.8920482 60.1015364 147.54695906 61.37890625 148.203125 C62.5294751 148.78739258 63.68004395 149.37166016 64.86547852 149.97363281 C70.09509801 153.35441338 73.18907021 157.31878739 75.02734375 163.3515625 C75.341875 164.35872314 75.65640625 165.36588379 75.98046875 166.40356445 C76.45419922 167.99817505 76.45419922 167.99817505 76.9375 169.625 C77.27523437 170.72352295 77.61296875 171.8220459 77.9609375 172.95385742 C78.650768 175.20508022 79.33420954 177.45827073 80.01123047 179.71337891 C80.9391524 182.79774559 81.88909902 185.87425848 82.84765625 188.94921875 C83.3993672 190.73669248 83.95020007 192.52443755 84.5 194.3125 C84.75515381 195.13508301 85.01030762 195.95766602 85.27319336 196.80517578 C85.50272705 197.56685059 85.73226074 198.32852539 85.96875 199.11328125 C86.16919922 199.77110596 86.36964844 200.42893066 86.57617188 201.10668945 C87 203 87 203 87 207 C97.61849432 199.3847162 106.58780148 189.94789399 115 180 C116.00555178 178.83380814 117.01216393 177.66853018 118.01953125 176.50390625 C119.11736405 175.23192319 120.21501901 173.95978662 121.3125 172.6875 C121.84101563 172.07600098 122.36953125 171.46450195 122.9140625 170.83447266 C123.41292969 170.25358887 123.91179687 169.67270508 124.42578125 169.07421875 C125.09734253 168.29437622 125.09734253 168.29437622 125.7824707 167.4987793 C126.9449331 166.06778739 127.97732528 164.53401208 129 163 C127.783125 162.5875 126.56625 162.175 125.3125 161.75 C124.50167969 161.4715625 123.69085938 161.193125 122.85546875 160.90625 C120.79576179 160.25255367 118.7101383 159.67865037 116.61328125 159.15625 C107.91713788 156.89700559 107.91713788 156.89700559 105.3984375 154.43359375 C103.82139046 151.36863711 103.9909707 149.04487776 104.65625 145.73828125 C107.44450263 139.74020363 114.41370308 137.37962955 120 134.5 C121.30628437 133.8067624 122.61136421 133.11125072 123.9152832 132.41357422 C126.60668976 130.97539919 129.30278413 129.54664503 132.00244141 128.12402344 C138.11863677 124.88906902 144.14810688 121.50060405 150.1875 118.125 C152.40622234 116.89708544 154.62497156 115.66921945 156.84375 114.44140625 C160.72537838 112.28501276 164.57835607 110.09015975 168.40625 107.83984375 C169.63178589 107.12900635 169.63178589 107.12900635 170.88208008 106.40380859 C172.35394735 105.54746646 173.81827218 104.67793506 175.2722168 103.79150391 C180.06551195 101.02225696 183.45649404 100.25741197 189 101 C192.5544445 103.80526321 193.64857517 106.18008451 194.60546875 110.546875 C194.86255615 111.68286133 195.11964355 112.81884766 195.38452148 113.98925781 C195.64950439 115.23030273 195.9144873 116.47134766 196.1875 117.75 C196.47666075 119.0585529 196.76714051 120.36681491 197.05883789 121.67480469 C197.52936571 123.78965724 197.99772884 125.90488596 198.46006775 128.02154541 C199.73794432 133.87091276 201.08801032 139.70170046 202.453125 145.53125 C203.0773927 148.21994896 203.70009391 150.90900425 204.32192993 153.5982666 C204.72923161 155.35282797 205.13964628 157.10666988 205.55331421 158.85974121 C210.89137889 181.54617768 210.89137889 181.54617768 207.5625 187.625 C203.06013459 190.04090339 198.92825547 189.79135876 194.11914062 188.49169922 C189.6912897 187.14533593 185.34117638 185.60148799 181 184 C177.14004143 189.28318352 173.2959584 194.57410979 169.52075195 199.91821289 C160.50957939 212.64747282 151.04055725 225.06403143 141 237 C140.55333984 237.53157715 140.10667969 238.0631543 139.64648438 238.61083984 C129.10728577 251.12168149 118.05288557 263.03870513 106.52966309 274.64556885 C105.48540045 275.69787782 104.44262206 276.75166221 103.40148926 277.80706787 C97.39504702 283.8870792 91.2847207 289.5729405 84.58959961 294.90673828 C82.12257615 296.90091751 79.76370458 298.97121351 77.4140625 301.1015625 C72.92703798 305.13011717 68.21353809 308.78044012 63.375 312.375 C62.50399658 313.0242041 61.63299316 313.6734082 60.7355957 314.34228516 C48.61032587 323.31861096 36.04949399 331.43948043 23 339 C22.2884375 339.41862305 21.576875 339.83724609 20.84375 340.26855469 C-14.10373669 360.73042949 -52.8465817 373.46013996 -92.8125 379.375 C-93.93841553 379.54298096 -95.06433105 379.71096191 -96.22436523 379.8840332 C-103.85308943 380.93024855 -111.3049089 381.18470113 -119 381 C-119.19386492 378.35448944 -119.38038267 375.70882217 -119.5625 373.0625 C-119.61857422 372.30775391 -119.67464844 371.55300781 -119.73242188 370.77539062 C-119.86176157 368.85254042 -119.93516912 366.92610452 -120 365 C-118.2884245 363.2884245 -115.96564475 363.62657427 -113.62109375 363.421875 C-54.58034402 357.9115166 0.46601265 336.46141055 48 301 C48.81476807 300.39357666 48.81476807 300.39357666 49.64599609 299.77490234 C61.63103175 290.81010989 72.96613225 281.10748605 84 271 C84.52126465 270.52385254 85.0425293 270.04770508 85.57958984 269.55712891 C93.73817902 262.09953897 101.77110948 254.67587509 108.9921875 246.2890625 C110.94332575 244.06461305 112.94110125 241.88889125 114.95385742 239.72021484 C120.55986648 233.67408447 125.84662692 227.43958685 131 221 C131.92240375 219.86916043 132.84562196 218.73898485 133.76953125 217.609375 C145.39926395 203.32616294 155.92704078 188.30919337 166.15161133 172.99584961 C166.75513428 172.09874268 167.35865723 171.20163574 167.98046875 170.27734375 C168.51567139 169.47546631 169.05087402 168.67358887 169.60229492 167.84741211 C171 166 171 166 173 165 C178.37723857 164.53755748 182.95899535 164.93189553 188 167 C186.5624494 157.47820818 184.5334089 148.12708758 182.375 138.75 C182.04655561 137.31127079 181.71842868 135.87246907 181.390625 134.43359375 C180.59739665 130.95488818 179.7999164 127.47717458 179 124 C174.60718712 125.33492566 170.793822 127.06275503 166.7890625 129.30078125 C165.93131729 129.77815987 165.93131729 129.77815987 165.0562439 130.2651825 C163.85320947 130.93602156 162.65153469 131.60930424 161.45117188 132.28491211 C159.63975259 133.30419871 157.82422828 134.31582137 156.0078125 135.32617188 C149.90389751 138.73282566 143.88455088 142.22541835 138 146 C138.91523438 146.25394531 139.83046875 146.50789062 140.7734375 146.76953125 C141.96195312 147.11371094 143.15046875 147.45789063 144.375 147.8125 C145.55835938 148.14894531 146.74171875 148.48539063 147.9609375 148.83203125 C151 150 151 150 153 153 C153.78401743 157.3904976 153.75361921 159.67866765 151.52734375 163.58203125 C149.44518795 166.4755241 147.26038032 169.24362332 145 172 C144.30261719 172.8765625 143.60523438 173.753125 142.88671875 174.65625 C140.62544576 177.46733891 138.31543931 180.23340424 136 183 C135.20980469 183.97710937 134.41960937 184.95421875 133.60546875 185.9609375 C126.80256206 194.25422457 119.32840574 201.85995516 111.75 209.4375 C111.23057831 209.95782806 110.71115662 210.47815613 110.17599487 211.01425171 C104.29884384 216.89024361 98.36245564 222.64453173 92 228 C91.13375 228.73605469 90.2675 229.47210938 89.375 230.23046875 C76.8018684 240.59089462 63.73377998 250.23399445 50 259 C48.90300781 259.70253906 47.80601562 260.40507812 46.67578125 261.12890625 C9.15216304 284.60967689 -47.88692335 312.92172333 -94 311 C-96.01481734 308.98518266 -95.7214027 305.20923137 -96.0625 302.4375 C-96.15337891 301.72658203 -96.24425781 301.01566406 -96.33789062 300.28320312 C-96.56239503 298.52261597 -96.78168397 296.76136522 -97 295 C-92.78492745 293.75380464 -88.64372993 292.65350923 -84.3125 291.875 C-83.40113281 291.70742188 -82.48976562 291.53984375 -81.55078125 291.3671875 C-79 291 -79 291 -75 291 C-74.89931213 289.98876068 -74.79862427 288.97752136 -74.69488525 287.93563843 C-73.43562097 275.754164 -71.64961412 263.67953709 -69.7642746 251.5811348 C-68.83951195 245.61777714 -67.94125614 239.65039998 -67.0390625 233.68359375 C-65.90107007 226.15992807 -64.75536014 218.63778491 -63.57519531 211.12060547 C-62.61232831 204.982849 -61.68029044 198.84105252 -60.76728058 192.69569016 C-60.4192717 190.3893946 -60.06081544 188.08464459 -59.69054413 185.78181839 C-56.84688371 168.0421308 -55.10557065 148.58007615 -60 131 C-66.0008046 138.77508096 -71.97570213 146.56997835 -77.9375 154.375 C-78.62577881 155.2736377 -79.31405762 156.17227539 -80.02319336 157.09814453 C-83.15620624 161.20306258 -86.25542176 165.31899387 -89.2265625 169.54296875 C-89.71133057 170.22762207 -90.19609863 170.91227539 -90.69555664 171.61767578 C-91.57157699 172.86403729 -92.43646669 174.11834202 -93.28686523 175.38232422 C-96.63485383 180.1371987 -100.31494607 183.07356927 -105.95874023 184.49243164 C-108.03533952 184.83723589 -110.09058197 185.06712785 -112.1875 185.25 C-112.92782471 185.32371826 -113.66814941 185.39743652 -114.4309082 185.47338867 C-133.22684498 187.22425977 -133.22684498 187.22425977 -139 183 C-143.03383601 178.96616399 -145.13066786 175.44527566 -145.25 169.6875 C-145.27578125 168.94886719 -145.3015625 168.21023438 -145.328125 167.44921875 C-144.43485242 160.781577 -139.55315699 155.46474594 -135.625 150.25 C-134.35599584 148.54745237 -133.08778465 146.84431345 -131.8203125 145.140625 C-131.1799707 144.28146484 -130.53962891 143.42230469 -129.87988281 142.53710938 C-127.04987393 138.71769999 -124.27360007 134.86046478 -121.5 131 C-115.32308035 122.41995328 -109.05803717 113.90674389 -102.77490234 105.40429688 C-100.39374368 102.17876035 -98.01928517 98.94832092 -95.64526367 95.7175293 C-93.89579056 93.34074546 -92.13948244 90.9691236 -90.3828125 88.59765625 C-88.15598929 85.58680305 -85.96704772 82.55352383 -83.8046875 79.49609375 C-76.66528996 69.50342125 -69.77904411 62.353125 -58 58 C-58.39832031 57.39414063 -58.79664063 56.78828125 -59.20703125 56.1640625 C-66.05847437 45.32844686 -68.76339761 35.15423123 -66.53125 22.30078125 C-63.5225458 10.89277781 -56.8511996 2.05364572 -46.9609375 -4.3125 C-31.84303923 -12.50387117 -13.50479841 -10.25198152 0 0 Z M-46.40234375 18.7734375 C-50.23127481 24.10960059 -50.70339508 29.615337 -50 36 C-48.03073374 44.02080712 -43.943027 48.69922552 -37 52.984375 C-31.69461335 55.67851666 -25.55458449 55.80612898 -19.8125 54.50390625 C-15.12753222 52.93337728 -12.25778524 50.80074945 -9 47 C-8.278125 46.195625 -7.55625 45.39125 -6.8125 44.5625 C-2.96916137 39.12881435 -2.1721449 33.49382438 -3 27 C-4.94807187 19.312307 -9.67228314 14.54041438 -16 10 C-27.66447954 4.16776023 -38.73179456 9.41018262 -46.40234375 18.7734375 Z M77.859375 16.4921875 C77.20759277 17.02730957 76.55581055 17.56243164 75.88427734 18.11376953 C75.17996582 18.69497559 74.4756543 19.27618164 73.75 19.875 C68.15998882 24.4543033 62.52977246 28.95453798 56.78491211 33.33837891 C52.93504192 36.27694996 49.11624398 39.25197785 45.3125 42.25 C39.76272477 46.62056631 34.198891 50.97272527 28.625 55.3125 C27.51958862 56.17439941 27.51958862 56.17439941 26.3918457 57.05371094 C24.9536406 58.17262121 23.50692208 59.2806775 22.05175781 60.37744141 C19.9974635 61.93807974 19.9974635 61.93807974 18.31542969 63.68115234 C11.64181531 69.90068963 2.62189384 69.42361991 -6 70 C-7.83746042 70.14252604 -9.67469847 70.28794407 -11.51171875 70.43603516 C-15.37087959 70.74466384 -19.2301799 71.05123585 -23.08984375 71.35351562 C-24.06163574 71.42997314 -25.03342773 71.50643066 -26.03466797 71.58520508 C-28.02539634 71.7377959 -30.0166343 71.88386736 -32.00830078 72.02368164 C-50.13843226 72.96481827 -50.13843226 72.96481827 -64.74609375 82.79296875 C-65.85417728 84.17685923 -66.93938095 85.57940533 -68 87 C-68.50547363 87.66725098 -69.01094727 88.33450195 -69.53173828 89.02197266 C-71.07114804 91.09935088 -72.57058505 93.20078998 -74.0625 95.3125 C-75.19969238 96.90423803 -76.33774192 98.49536396 -77.4765625 100.0859375 C-78.05696289 100.89772461 -78.63736328 101.70951172 -79.23535156 102.54589844 C-82.10310693 106.53409392 -85.01882497 110.48649092 -87.9375 114.4375 C-88.51757812 115.22350586 -89.09765625 116.00951172 -89.6953125 116.81933594 C-92.05252802 120.0122678 -94.41156888 123.20384912 -96.77050781 126.39550781 C-104.77722328 137.23176382 -112.73787714 148.0989805 -120.59423828 159.04492188 C-121.55219166 160.37720576 -122.51428191 161.70652256 -123.47998047 163.03320312 C-125.89386973 165.77144446 -125.89386973 165.77144446 -127 169 C-120.61451241 169.81944514 -113.45282058 170.65835859 -108.0625 166.50830078 C-104.07182727 162.29774724 -100.92115164 157.45827406 -97.74902344 152.61865234 C-94.84846082 148.27590602 -91.65989836 144.15559973 -88.5 140 C-87.24653319 138.32356132 -85.99392719 136.64647866 -84.7421875 134.96875 C-80.52431813 129.34492418 -76.20674707 123.80116172 -71.8762207 118.26391602 C-67.70397553 112.92418842 -63.61249454 107.53143904 -59.57421875 102.08984375 C-58 100 -58 100 -57 99 C-55.0390625 98.796875 -55.0390625 98.796875 -52.625 98.75 C-51.83351563 98.72421875 -51.04203125 98.6984375 -50.2265625 98.671875 C-47.3763582 99.09190511 -46.73195099 99.71372912 -45 102 C-44.41577148 104.80541992 -44.41577148 104.80541992 -44.12109375 108.23046875 C-43.94767456 110.13107056 -43.94767456 110.13107056 -43.77075195 112.07006836 C-43.6592802 113.44251413 -43.54820462 114.81499213 -43.4375 116.1875 C-43.31515624 117.58806941 -43.19169341 118.9885415 -43.06713867 120.38891602 C-42.81717753 123.22676773 -42.57536754 126.06513017 -42.34082031 128.90429688 C-42.03203631 132.64078026 -41.70231001 136.3751527 -41.3671875 140.109375 C-41.18141246 142.21867275 -40.99646326 144.32804346 -40.8125 146.4375 C-40.72863037 147.39358154 -40.64476074 148.34966309 -40.55834961 149.3347168 C-40.48366455 150.23359619 -40.40897949 151.13247559 -40.33203125 152.05859375 C-40.23498901 153.20799438 -40.23498901 153.20799438 -40.13598633 154.38061523 C-39.74074544 161.99379211 -40.43082665 169.05889645 -41.56054688 176.58496094 C-41.72635757 177.72087173 -41.89216827 178.85678253 -42.06300354 180.02711487 C-42.60967821 183.76365827 -43.16428428 187.49898051 -43.71875 191.234375 C-44.10047422 193.83644248 -44.48160992 196.43859637 -44.86218262 199.04083252 C-45.76095497 205.18111373 -46.66505033 211.320597 -47.57150412 217.45974851 C-49.29227497 229.11437787 -51.00486789 240.77020274 -52.71290588 252.42670441 C-53.27525409 256.25604554 -53.84147602 260.0847999 -54.40808105 263.91351318 C-54.75200226 266.25319534 -55.09579971 268.59289569 -55.43945312 270.93261719 C-55.59841568 271.99970413 -55.75737823 273.06679108 -55.92115784 274.16621399 C-56.06419846 275.14460739 -56.20723907 276.12300079 -56.35461426 277.13104248 C-56.4799781 277.97976299 -56.60534195 278.82848351 -56.7345047 279.70292282 C-57.07654352 282.27686304 -57.07654352 282.27686304 -57 286 C-51.73378394 285.40421223 -47.05591981 284.18691204 -42.0625 282.4375 C-41.37865234 282.20353516 -40.69480469 281.96957031 -39.99023438 281.72851562 C-38.32491499 281.15788171 -36.66217507 280.57972902 -35 280 C-34.89969073 279.41192975 -34.79938147 278.8238595 -34.69603252 278.21796894 C-32.25339423 263.90214238 -29.79927691 249.58831662 -27.33240795 235.27664661 C-26.1397191 228.35554926 -24.95090898 221.43382754 -23.77124023 214.51049805 C-22.63301468 207.83045942 -21.48396848 201.15235486 -20.32827187 194.475317 C-19.88889253 191.926233 -19.45315683 189.37651821 -19.02110863 186.82618141 C-18.41584664 183.25714369 -17.79772665 179.69055838 -17.17651367 176.12426758 C-17.00028473 175.06690903 -16.82405579 174.00955048 -16.64248657 172.92015076 C-15.02861467 163.79802017 -15.02861467 163.79802017 -12 160 C-9.12544058 158.56272029 -7.21272051 158.72934488 -4 159 C-1.24074624 159.95155112 1.322289 161.23024506 3.92578125 162.54296875 C5.04632149 163.09118034 5.04632149 163.09118034 6.1894989 163.65046692 C8.56941577 164.81851828 10.94075704 166.00295513 13.3125 167.1875 C14.89467595 167.96522364 16.4773541 168.7419265 18.06054688 169.51757812 C21.76940287 171.3388284 25.45631387 173.20016457 29.13873291 175.07415771 C30.71870581 175.86007701 32.32464201 176.59345549 33.93505859 177.31494141 C40.46577866 180.3916422 42.48872997 184.3768059 45 191 C45.26637268 191.70048462 45.53274536 192.40096924 45.80718994 193.12268066 C48.06048526 199.09376526 50.19227644 205.10567066 52.3125 211.125 C52.96360806 212.95854105 53.61529597 214.7918763 54.26757812 216.625 C55.85175041 221.08098761 57.4280386 225.53969082 59 230 C62.61003242 228.59914801 65.70012741 227.11302494 68.875 224.875 C69.67679688 224.33617187 70.47859375 223.79734375 71.3046875 223.2421875 C73.38208809 221.00485988 73.38208809 221.00485988 72.75952148 217.52929688 C71.49664316 209.17312242 69.24852241 201.0114197 67.04174805 192.86523438 C66.47528403 190.71658894 65.93936242 188.55964333 65.43530273 186.39550781 C62.45965735 172.59581894 62.45965735 172.59581894 53.37963867 162.48266602 C49.15830153 160.19793785 44.79124761 158.436947 40.27267456 156.83178711 C37.44355452 155.79634384 34.84852592 154.46885499 32.21484375 153.01171875 C31.11366211 152.41713867 31.11366211 152.41713867 29.99023438 151.81054688 C29.31283203 151.43994141 28.63542969 151.06933594 27.9375 150.6875 C27.19435547 150.29755859 26.45121094 149.90761719 25.68554688 149.50585938 C24.97333984 149.11591797 24.26113281 148.72597656 23.52734375 148.32421875 C22.91624756 147.99510498 22.30515137 147.66599121 21.67553711 147.3269043 C16.35773281 143.11558762 16.14134328 137.01333814 15.359375 130.73046875 C15.2280719 129.73549881 15.0967688 128.74052887 14.96148682 127.71540833 C14.6871236 125.61397753 14.41851224 123.51178882 14.15527344 121.40893555 C13.75247191 118.20714873 13.32683445 115.0089979 12.8984375 111.81054688 C12.6340386 109.76319833 12.37097407 107.71567693 12.109375 105.66796875 C11.9188858 104.24414131 11.9188858 104.24414131 11.72454834 102.79154968 C10.13059864 89.75040057 10.13059864 89.75040057 13.23657227 85.18066406 C13.75791748 84.79620117 14.2792627 84.41173828 14.81640625 84.015625 C15.70223389 83.3354834 15.70223389 83.3354834 16.60595703 82.64160156 C17.25161621 82.18237305 17.89727539 81.72314453 18.5625 81.25 C19.57352783 80.48768066 19.57352783 80.48768066 20.60498047 79.70996094 C22.72222044 78.11945852 24.86029482 76.56008884 27 75 C28.27428512 74.04452696 29.5464878 73.08626918 30.81640625 72.125 C33.42069698 70.15614814 36.0331278 68.19895153 38.65234375 66.25 C44.41390438 61.95441431 50.12325502 57.59043651 55.83447266 53.22827148 C60.49089069 49.67205217 65.15403734 46.1254645 69.83203125 42.59765625 C70.78118408 41.8799707 71.73033691 41.16228516 72.70825195 40.42285156 C74.52349726 39.05066263 76.34092896 37.68135963 78.16088867 36.31542969 C82.40759784 33.09954778 86.36344449 29.89737404 90 26 C88.69161864 23.997193 87.37857806 21.99773901 86.0625 20 C85.68931641 19.42765625 85.31613281 18.8553125 84.93164062 18.265625 C83.98055411 16.82614271 82.99305724 15.41085511 82 14 C80.25124657 14 79.16575369 15.41317798 77.859375 16.4921875 Z M-1 179 C-3.08811991 190.96042436 -5.17443505 202.92116198 -7.25842285 214.88230705 C-8.22607524 220.43585464 -9.19435772 225.98929085 -10.1640625 231.54248047 C-11.09920855 236.89789831 -12.0327226 242.25359825 -12.96508789 247.60950089 C-13.32175128 249.65660947 -13.67901061 251.70361431 -14.03686523 253.75051498 C-14.53655408 256.60928626 -15.03415555 259.46841335 -15.53125 262.32763672 C-15.68086182 263.18071411 -15.83047363 264.0337915 -15.98461914 264.91271973 C-16.72662527 268.93254311 -16.72662527 268.93254311 -17 273 C-2.54009741 268.43709741 10.93603235 261.80761106 24.125 254.375 C25.05973145 253.84922363 25.99446289 253.32344727 26.95751953 252.78173828 C33.22299664 249.18693895 39.15035298 245.23573304 45 241 C42.35535092 232.91001446 39.67030708 224.8360463 36.92565918 216.77944946 C35.63605616 212.96958875 34.44106458 209.14936803 33.33984375 205.28125 C31.15891837 198.06188555 29.27114127 193.00438909 22.44189453 189.23193359 C19.86093083 188.00577768 17.25193504 186.96488272 14.56359863 185.99893188 C11.38323259 184.7596704 8.31167589 183.33369915 5.21728516 181.89355469 C4.05153961 181.35204773 2.88579407 180.81054077 1.6847229 180.25262451 C0.35578506 179.63257538 0.35578506 179.63257538 -1 179 Z " fill="#000000" transform="translate(295,107)"/>
<path d="M0 0 C1.31328781 -0.01210762 1.31328781 -0.01210762 2.65310669 -0.02445984 C4.50748717 -0.03830096 6.36189313 -0.04902299 8.21630859 -0.05688477 C11.05224816 -0.07410904 13.88702536 -0.11799518 16.72265625 -0.16210938 C18.52342892 -0.1722353 20.32421151 -0.18075172 22.125 -0.1875 C23.39704788 -0.21376213 23.39704788 -0.21376213 24.6947937 -0.24055481 C30.57275124 -0.2188989 30.57275124 -0.2188989 33.69970703 2.07739258 C36.32976195 5.87736255 36.44524266 9.41584504 36.7578125 13.92578125 C36.84160156 15.10527344 36.92539063 16.28476562 37.01171875 17.5 C37.07230469 18.40363281 37.13289063 19.30726563 37.1953125 20.23828125 C39.97630836 21.13348589 39.97630836 21.13348589 43.1953125 21.23828125 C45.58470608 19.39554592 45.58470608 19.39554592 47.5703125 16.80078125 C52.49806147 11.52635648 52.49806147 11.52635648 56.2578125 11.23828125 C64.70706439 12.61680264 71.88248259 22.77219419 77.6328125 28.55078125 C78.44685547 29.36095703 79.26089844 30.17113281 80.09960938 31.00585938 C81.25879883 32.16698242 81.25879883 32.16698242 82.44140625 33.3515625 C83.13935303 34.05063721 83.8372998 34.74971191 84.55639648 35.4699707 C87.23565686 38.36076214 87.81058391 41.00747743 87.83203125 44.9609375 C86.93171445 48.181089 85.10258337 49.52888932 82.6328125 51.73828125 C79.23632804 54.59787627 79.23632804 54.59787627 77.8203125 58.5859375 C78.10650157 61.03838893 78.10650157 61.03838893 79.1953125 64.23828125 C80.30390625 64.191875 81.4125 64.14546875 82.5546875 64.09765625 C84.01820218 64.06013023 85.48174606 64.02373096 86.9453125 63.98828125 C87.67492187 63.95476562 88.40453125 63.92125 89.15625 63.88671875 C92.40088678 63.82772535 94.66140664 63.88509651 97.40527344 65.70019531 C100.04884966 69.44850661 99.76970989 72.75266964 99.7265625 77.23828125 C99.7303894 78.11097656 99.73421631 78.98367188 99.73815918 79.8828125 C99.7408774 81.72527217 99.73352244 83.56777049 99.71679688 85.41015625 C99.69538498 88.22874059 99.71660051 91.0447761 99.7421875 93.86328125 C99.73954421 95.65495354 99.73441919 97.44662424 99.7265625 99.23828125 C99.73465942 100.08003906 99.74275635 100.92179687 99.75109863 101.7890625 C99.65788597 107.6117267 99.65788597 107.6117267 97.34960938 110.73828125 C93.55723577 113.37884601 90.01605905 113.48832852 85.5078125 113.80078125 C84.32832031 113.88457031 83.14882812 113.96835937 81.93359375 114.0546875 C81.02996094 114.11527344 80.12632812 114.17585938 79.1953125 114.23828125 C78.30010786 117.01927711 78.30010786 117.01927711 78.1953125 120.23828125 C80.03804783 122.62767483 80.03804783 122.62767483 82.6328125 124.61328125 C87.90723727 129.54103022 87.90723727 129.54103022 88.1953125 133.30078125 C86.81679111 141.75003314 76.66139956 148.92545134 70.8828125 154.67578125 C70.07263672 155.48982422 69.26246094 156.30386719 68.42773438 157.14257812 C67.26661133 158.30176758 67.26661133 158.30176758 66.08203125 159.484375 C65.38295654 160.18232178 64.68388184 160.88026855 63.96362305 161.59936523 C61.07522383 164.27640844 58.43126765 164.8534893 54.48046875 164.875 C50.37354144 163.73067666 48.09316653 160.31428515 45.46875 157.109375 C43.26269304 154.85748004 43.26269304 154.85748004 39.921875 155.4609375 C38.57222656 155.84572266 38.57222656 155.84572266 37.1953125 156.23828125 C37.15792969 157.10710937 37.12054688 157.9759375 37.08203125 158.87109375 C36.4126275 170.60534764 36.4126275 170.60534764 33.1953125 175.23828125 C29.84657708 176.91264896 26.07498388 176.44462172 22.390625 176.4765625 C21.51509979 176.48463425 20.63957458 176.49270599 19.73751831 176.50102234 C17.88313783 176.51486346 16.02873187 176.52558549 14.17431641 176.53344727 C11.33837684 176.55067154 8.50359964 176.59455768 5.66796875 176.63867188 C3.86719608 176.6487978 2.06641349 176.65731422 0.265625 176.6640625 C-0.58240692 176.68157059 -1.43043884 176.69907867 -2.3041687 176.71711731 C-8.18212624 176.6954614 -8.18212624 176.6954614 -11.30908203 174.39916992 C-14.02634987 170.4731925 -13.91321956 167.20001929 -13.8671875 162.55078125 C-13.85816406 161.37128906 -13.84914062 160.19179688 -13.83984375 158.9765625 C-13.82824219 158.07292969 -13.81664062 157.16929687 -13.8046875 156.23828125 C-17.26782118 154.97170861 -17.26782118 154.97170861 -20.8046875 155.23828125 C-23.08601734 157.18545238 -23.08601734 157.18545238 -25.2421875 159.67578125 C-30.11307696 164.95120221 -30.11307696 164.95120221 -33.8671875 165.23828125 C-42.31637267 163.85995123 -49.49195218 153.70427326 -55.2421875 147.92578125 C-56.05623047 147.11560547 -56.87027344 146.30542969 -57.70898438 145.47070312 C-58.86817383 144.30958008 -58.86817383 144.30958008 -60.05078125 143.125 C-60.74872803 142.42592529 -61.4466748 141.72685059 -62.16577148 141.0065918 C-64.84503186 138.11580036 -65.41995891 135.46908507 -65.44140625 131.515625 C-64.54108945 128.2954735 -62.71195837 126.94767318 -60.2421875 124.73828125 C-56.84570304 121.87868623 -56.84570304 121.87868623 -55.4296875 117.890625 C-55.71587657 115.43817357 -55.71587657 115.43817357 -56.8046875 112.23828125 C-57.91328125 112.2846875 -59.021875 112.33109375 -60.1640625 112.37890625 C-61.62757718 112.41643227 -63.09112106 112.45283154 -64.5546875 112.48828125 C-65.28429687 112.52179688 -66.01390625 112.5553125 -66.765625 112.58984375 C-70.01026178 112.64883715 -72.27078164 112.59146599 -75.01464844 110.77636719 C-77.65822466 107.02805589 -77.37908489 103.72389286 -77.3359375 99.23828125 C-77.3397644 98.36558594 -77.34359131 97.49289062 -77.34753418 96.59375 C-77.3502524 94.75129033 -77.34289744 92.90879201 -77.32617188 91.06640625 C-77.30475998 88.24782191 -77.32597551 85.4317864 -77.3515625 82.61328125 C-77.34891921 80.82160896 -77.34379419 79.02993826 -77.3359375 77.23828125 C-77.34403442 76.39652344 -77.35213135 75.55476563 -77.36047363 74.6875 C-77.29968093 70.88999566 -77.24615788 68.86423953 -75.01464844 65.70019531 C-71.68257567 63.49599163 -68.39788092 63.8117388 -64.5546875 63.98828125 C-63.80960938 64.00632812 -63.06453125 64.024375 -62.296875 64.04296875 C-60.46559049 64.08992476 -58.63497101 64.16166473 -56.8046875 64.23828125 C-55.56293443 60.25847896 -55.56293443 60.25847896 -55.8046875 56.23828125 C-57.73883283 53.89067599 -57.73883283 53.89067599 -60.2421875 51.73828125 C-65.51859866 46.92427858 -65.51859866 46.92427858 -65.8046875 43.17578125 C-64.42654879 34.72666279 -54.27058448 27.55092201 -48.4921875 21.80078125 C-47.68201172 20.98673828 -46.87183594 20.17269531 -46.03710938 19.33398438 C-45.26302734 18.56119141 -44.48894531 17.78839844 -43.69140625 16.9921875 C-42.99233154 16.29424072 -42.29325684 15.59629395 -41.57299805 14.87719727 C-38.6834028 12.19904554 -36.03806658 11.62304146 -32.0859375 11.6015625 C-28.00328787 12.74106916 -25.75071152 16.23575456 -22.9921875 19.30078125 C-21.015083 21.39209634 -21.015083 21.39209634 -18.6796875 21.61328125 C-16.53579276 21.32913597 -16.53579276 21.32913597 -13.8046875 20.23828125 C-13.83949219 19.36945313 -13.87429687 18.500625 -13.91015625 17.60546875 C-14.1846875 5.91828125 -14.1846875 5.91828125 -10.8046875 1.23828125 C-7.45595208 -0.43608646 -3.68435888 0.03194078 0 0 Z M3.1953125 16.23828125 C3.0921875 18.48640625 2.9890625 20.73453125 2.8828125 23.05078125 C2.58230727 29.60179535 2.58230727 29.60179535 1.12890625 31.9921875 C-1.8622952 33.91985065 -5.11334193 35.12276853 -8.4296875 36.36328125 C-12.95097328 37.77487244 -12.95097328 37.77487244 -16.8046875 40.23828125 C-19.90854238 40.82441694 -22.70818111 40.8744816 -25.8046875 40.23828125 C-28.56683837 38.23309006 -30.68885219 35.9051862 -32.8046875 33.23828125 C-36.01993055 34.64672843 -38.12652618 36.34172911 -40.5546875 38.86328125 C-41.47507812 39.81074219 -41.47507812 39.81074219 -42.4140625 40.77734375 C-42.87296875 41.25945312 -43.331875 41.7415625 -43.8046875 42.23828125 C-42.49839576 45.0950314 -41.41735183 46.64406148 -39.1796875 48.98828125 C-36.7795089 51.84563673 -36.06774691 54.21080033 -36.30859375 58.03515625 C-37.10818003 61.58607487 -38.76166762 64.58850338 -40.5 67.765625 C-41.72163267 70.08087493 -42.63533557 72.33181099 -43.4921875 74.80078125 C-44.8046875 78.23828125 -44.8046875 78.23828125 -46.8046875 79.23828125 C-51.46463647 79.69086622 -56.13151238 79.94089738 -60.8046875 80.23828125 C-60.8046875 85.51828125 -60.8046875 90.79828125 -60.8046875 96.23828125 C-58.5565625 96.34140625 -56.3084375 96.44453125 -53.9921875 96.55078125 C-47.4411734 96.85128648 -47.4411734 96.85128648 -45.05078125 98.3046875 C-43.1231181 101.29588895 -41.92020022 104.54693568 -40.6796875 107.86328125 C-39.26809631 112.38456703 -39.26809631 112.38456703 -36.8046875 116.23828125 C-36.21855181 119.34213613 -36.16848715 122.14177486 -36.8046875 125.23828125 C-38.80987869 128.00043212 -41.13778255 130.12244594 -43.8046875 132.23828125 C-42.39624032 135.4535243 -40.70123964 137.56011993 -38.1796875 139.98828125 C-37.54804687 140.601875 -36.91640625 141.21546875 -36.265625 141.84765625 C-35.78351562 142.3065625 -35.30140625 142.76546875 -34.8046875 143.23828125 C-31.94793735 141.93198951 -30.39890727 140.85094558 -28.0546875 138.61328125 C-25.15380623 136.15700741 -22.74910047 135.55517622 -18.8671875 135.8125 C-15.92984757 136.41888267 -13.56897366 137.6298743 -10.96484375 139.08984375 C-7.70637787 140.8221927 -4.26574038 142.03129683 -0.80859375 143.30859375 C1.1953125 144.23828125 1.1953125 144.23828125 2.1953125 146.23828125 C2.64789747 150.89823022 2.89792863 155.56510613 3.1953125 160.23828125 C8.4753125 160.23828125 13.7553125 160.23828125 19.1953125 160.23828125 C19.2984375 157.99015625 19.4015625 155.74203125 19.5078125 153.42578125 C19.80967249 146.84523358 19.80967249 146.84523358 21.33203125 144.44921875 C23.98094243 142.72770415 26.72522305 141.74273906 29.6953125 140.67578125 C33.21871885 139.40211747 36.07156466 138.32077981 39.1953125 136.23828125 C43.54097451 135.57538366 45.81523795 135.29870588 49.49609375 137.8046875 C51.48018834 139.54914012 53.36691595 141.3320806 55.1953125 143.23828125 C58.41055555 141.82983407 60.51715118 140.13483339 62.9453125 137.61328125 C63.55890625 136.98164063 64.1725 136.35 64.8046875 135.69921875 C65.26359375 135.21710938 65.7225 134.735 66.1953125 134.23828125 C64.89880286 131.34839761 64.08768936 130.1485953 61.5703125 128.05078125 C58.68091652 124.62912811 58.51832376 122.90807208 58.76953125 118.55859375 C59.33736156 115.46417902 60.50026286 113.08356359 62.046875 110.36328125 C63.79707387 107.12481803 64.99171443 103.69016859 66.265625 100.2421875 C67.1953125 98.23828125 67.1953125 98.23828125 69.1953125 97.23828125 C73.85526147 96.78569628 78.52213738 96.53566512 83.1953125 96.23828125 C83.1953125 90.95828125 83.1953125 85.67828125 83.1953125 80.23828125 C79.823125 80.05265625 79.823125 80.05265625 76.3828125 79.86328125 C69.5703125 79.48828125 69.5703125 79.48828125 66.1953125 77.23828125 C64.87890625 74.0859375 64.87890625 74.0859375 63.6328125 70.30078125 C61.88927469 65.04025982 61.88927469 65.04025982 59.1953125 60.23828125 C58.51279324 57.12164462 58.49020891 54.35205987 59.1953125 51.23828125 C61.20791498 48.48287286 63.52898147 46.35366123 66.1953125 44.23828125 C64.78686532 41.0230382 63.09186464 38.91644257 60.5703125 36.48828125 C59.93867188 35.8746875 59.30703125 35.26109375 58.65625 34.62890625 C58.17414063 34.17 57.69203125 33.71109375 57.1953125 33.23828125 C54.33856235 34.54457299 52.78953227 35.62561692 50.4453125 37.86328125 C47.58795702 40.26345985 45.22279342 40.97522184 41.3984375 40.734375 C37.84751888 39.93478872 34.84509037 38.28130113 31.66796875 36.54296875 C29.35271882 35.32133608 27.10178276 34.40763318 24.6328125 33.55078125 C21.1953125 32.23828125 21.1953125 32.23828125 20.1953125 30.23828125 C19.74272753 25.57833228 19.49269637 20.91145637 19.1953125 16.23828125 C13.9153125 16.23828125 8.6353125 16.23828125 3.1953125 16.23828125 Z " fill="#000000" transform="translate(84.8046875,327.76171875)"/>
<path d="M0 0 C2.97866947 0.67463147 4.06592967 2.15381471 6.03515625 4.4609375 C7.20654297 7.31420898 7.20654297 7.31420898 8.21484375 10.58203125 C12.57878534 23.98771908 12.57878534 23.98771908 22.49707031 33.1484375 C30.03769773 35.48296367 38.07581312 35.86235636 45.91992188 35.97631836 C49.73683922 36.57009429 51.38299641 37.68309152 54.03515625 40.4609375 C55.09866206 43.56705547 54.81846969 46.2952662 54.03515625 49.4609375 C52.26374125 52.41209763 50.01358329 54.65375777 47.53515625 57.0234375 C46.93445313 57.63123047 46.33375 58.23902344 45.71484375 58.86523438 C40.56416006 64.05427422 40.56416006 64.05427422 37.72851562 66.23413086 C35.33641776 68.19777397 33.64088646 69.80769348 32.03515625 72.4609375 C31.63979727 77.12338186 32.54180812 81.35138645 33.53515625 85.8984375 C33.98875888 88.25021252 34.43679807 90.60306833 34.87890625 92.95703125 C35.09232666 94.06876709 35.30574707 95.18050293 35.52563477 96.32592773 C36.33986554 101.33576836 37.15590453 106.46308188 34.59765625 111.0234375 C30.75770616 113.17755584 27.27287226 113.19961477 23.03515625 112.4609375 C18.91567906 110.63081915 15.16063354 108.29297735 11.34765625 105.8984375 C9.35320394 104.65270335 7.34954157 103.42156501 5.3359375 102.20703125 C4.46106689 101.65716553 3.58619629 101.1072998 2.68481445 100.54077148 C-0.68604735 99.16702029 -2.48586197 99.50394351 -5.96484375 100.4609375 C-8.2641884 101.41869247 -8.2641884 101.41869247 -10.3828125 102.67578125 C-11.16205078 103.11470703 -11.94128906 103.55363281 -12.74414062 104.00585938 C-13.53884766 104.46541016 -14.33355469 104.92496094 -15.15234375 105.3984375 C-15.95865234 105.85412109 -16.76496094 106.30980469 -17.59570312 106.77929688 C-20.78962757 108.59263885 -23.90734148 110.42260265 -26.96484375 112.4609375 C-31.16797164 113.12662626 -34.78554481 113.12249544 -38.52734375 111.0234375 C-41.63763076 105.47901283 -39.98560043 99.10828788 -38.52734375 93.23828125 C-35.27095085 81.41013021 -35.27095085 81.41013021 -37.24902344 69.76416016 C-40.80734585 65.06891034 -45.20381337 61.57612893 -49.90795898 58.08520508 C-53.74146916 55.05798333 -57.28675831 51.69688076 -58.7265625 46.94921875 C-58.68982422 45.87220703 -58.68982422 45.87220703 -58.65234375 44.7734375 C-58.65621094 44.04769531 -58.66007812 43.32195313 -58.6640625 42.57421875 C-57.60175963 39.36357152 -55.75005435 38.30430091 -52.96484375 36.4609375 C-49.86547852 36.00805664 -49.86547852 36.00805664 -46.40625 35.99609375 C-33.04272556 35.797391 -33.04272556 35.797391 -21.52416992 30.06176758 C-15.90186498 22.90639831 -12.88840188 13.83366042 -10.11450195 5.27075195 C-8.05835354 0.24543615 -5.02936727 0.21319091 0 0 Z M-2.96484375 29.4609375 C-3.50753906 30.59273437 -4.05023438 31.72453125 -4.609375 32.890625 C-5.33160508 34.3726036 -6.0542848 35.85436313 -6.77734375 37.3359375 C-7.13376953 38.08230469 -7.49019531 38.82867187 -7.85742188 39.59765625 C-8.38432617 40.67080078 -8.38432617 40.67080078 -8.921875 41.765625 C-9.4010437 42.7553833 -9.4010437 42.7553833 -9.88989258 43.76513672 C-11.41594493 46.17257702 -13.2139198 47.27161966 -15.95776367 47.96337891 C-16.69615479 48.07858887 -17.4345459 48.19379883 -18.1953125 48.3125 C-18.99775391 48.44140625 -19.80019531 48.5703125 -20.62695312 48.703125 C-21.46033203 48.82945313 -22.29371094 48.95578125 -23.15234375 49.0859375 C-23.99732422 49.22 -24.84230469 49.3540625 -25.71289062 49.4921875 C-27.7958432 49.82169412 -29.88021802 50.14218739 -31.96484375 50.4609375 C-31.11921875 51.4509375 -30.27359375 52.4409375 -29.40234375 53.4609375 C-28.86222656 54.10546875 -28.32210938 54.75 -27.765625 55.4140625 C-25.99706772 57.48576383 -25.99706772 57.48576383 -24.0078125 59.3203125 C-20.2792782 62.99569051 -18.51041248 65.43430122 -18.46484375 70.7734375 C-18.59249815 72.67229667 -18.76083521 74.56875825 -18.96484375 76.4609375 C-19.04734375 77.49992187 -19.12984375 78.53890625 -19.21484375 79.609375 C-19.43055013 82.23155566 -19.68152954 84.84534025 -19.96484375 87.4609375 C-15.23717629 86.12749283 -11.43662228 84.07187115 -7.30859375 81.484375 C-4.24464989 80.14645285 -2.29065747 80.07209858 1.03515625 80.4609375 C4.39453125 81.9921875 4.39453125 81.9921875 7.78515625 83.9609375 C11.67828918 86.50512222 11.67828918 86.50512222 16.03515625 87.4609375 C15.96296875 86.79449219 15.89078125 86.12804687 15.81640625 85.44140625 C15.62035122 83.49447092 15.45047798 81.54479732 15.30078125 79.59375 C15.08076195 76.51388023 15.08076195 76.51388023 14.58203125 73.703125 C14.17346129 70.01524349 13.97796082 67.07127093 16.08691406 63.85888672 C18.35363059 61.04586324 20.83999371 58.5027685 23.43359375 55.9921875 C26.130281 53.54524022 26.130281 53.54524022 28.03515625 50.4609375 C27.48053711 50.39624268 26.92591797 50.33154785 26.35449219 50.26489258 C23.82800953 49.95713931 21.30718766 49.61568705 18.78515625 49.2734375 C17.91246094 49.17224609 17.03976562 49.07105469 16.140625 48.96679688 C9.68945401 48.05575364 9.68945401 48.05575364 6.62890625 45.2734375 C4.84243827 42.12084694 3.25718481 38.96050176 1.78515625 35.6484375 C1.264375 34.48699219 0.74359375 33.32554688 0.20703125 32.12890625 C-0.1796875 31.24847656 -0.56640625 30.36804688 -0.96484375 29.4609375 C-1.62484375 29.4609375 -2.28484375 29.4609375 -2.96484375 29.4609375 Z " fill="#000000" transform="translate(449.96484375,7.5390625)"/>
<path d="M0 0 C8.80288754 6.34043826 15.4186507 14.72648904 17.58203125 25.4921875 C18.92007691 37.90936834 17.85729499 48.88109459 10.39453125 59.2421875 C3.58210875 67.3274193 -4.72289951 73.55522767 -15.48876953 74.71533203 C-28.40007937 75.61089799 -39.16843729 74.04490094 -49.3515625 65.46484375 C-57.86959925 57.33325857 -62.42046403 48.68416257 -62.88867188 36.85693359 C-63.04371176 24.34263074 -60.22647828 14.71931927 -51.41796875 5.4921875 C-37.63784493 -7.66275112 -16.31305228 -10.17259803 0 0 Z M-42.19140625 21.6484375 C-46.12351302 27.55912028 -46.11660152 33.61334174 -45.41796875 40.4921875 C-43.64454442 47.13691664 -38.97130405 51.66586709 -33.41796875 55.4921875 C-27.41909871 58.43281007 -20.53513345 58.59102538 -14.10546875 56.875 C-7.97664014 54.16969675 -3.17844083 49.08355055 -0.24609375 43.1015625 C1.66008982 37.09528598 1.64641812 29.98927192 -0.91796875 24.1796875 C-4.39834133 18.24695275 -9.85358805 13.56055006 -16.41796875 11.4921875 C-28.14191837 10.06609888 -34.72539236 12.80600765 -42.19140625 21.6484375 Z " fill="#000000" transform="translate(118.41796875,381.5078125)"/>
<path d="M0 0 C5.28 0 10.56 0 16 0 C16 5.28 16 10.56 16 16 C10.72 16 5.44 16 0 16 C0 10.72 0 5.44 0 0 Z " fill="#000000" transform="translate(464,480)"/>
<path d="M0 0 C5.28 0 10.56 0 16 0 C16 5.28 16 10.56 16 16 C10.72 16 5.44 16 0 16 C0 10.72 0 5.44 0 0 Z " fill="#000000" transform="translate(480,464)"/>
<path d="M0 0 C5.28 0 10.56 0 16 0 C16 5.28 16 10.56 16 16 C10.72 16 5.44 16 0 16 C0 10.72 0 5.44 0 0 Z " fill="#000000" transform="translate(448,464)"/>
<path d="M0 0 C5.28 0 10.56 0 16 0 C16 5.28 16 10.56 16 16 C10.72 16 5.44 16 0 16 C0 10.72 0 5.44 0 0 Z " fill="#000000" transform="translate(464,448)"/>
<path d="M0 0 C5.28 0 10.56 0 16 0 C16 5.28 16 10.56 16 16 C10.72 16 5.44 16 0 16 C0 10.72 0 5.44 0 0 Z " fill="#000000" transform="translate(96,72)"/>
<path d="M0 0 C5.28 0 10.56 0 16 0 C16 5.28 16 10.56 16 16 C10.72 16 5.44 16 0 16 C0 10.72 0 5.44 0 0 Z " fill="#000000" transform="translate(112,56)"/>
<path d="M0 0 C5.28 0 10.56 0 16 0 C16 5.28 16 10.56 16 16 C10.72 16 5.44 16 0 16 C0 10.72 0 5.44 0 0 Z " fill="#000000" transform="translate(80,56)"/>
<path d="M0 0 C5.28 0 10.56 0 16 0 C16 5.28 16 10.56 16 16 C10.72 16 5.44 16 0 16 C0 10.72 0 5.44 0 0 Z " fill="#000000" transform="translate(32,48)"/>
<path d="M0 0 C5.28 0 10.56 0 16 0 C16 5.28 16 10.56 16 16 C10.72 16 5.44 16 0 16 C0 10.72 0 5.44 0 0 Z " fill="#000000" transform="translate(96,40)"/>
<path d="M0 0 C5.28 0 10.56 0 16 0 C16 5.28 16 10.56 16 16 C10.72 16 5.44 16 0 16 C0 10.72 0 5.44 0 0 Z " fill="#000000" transform="translate(48,32)"/>
<path d="M0 0 C5.28 0 10.56 0 16 0 C16 5.28 16 10.56 16 16 C10.72 16 5.44 16 0 16 C0 10.72 0 5.44 0 0 Z " fill="#000000" transform="translate(16,32)"/>
<path d="M0 0 C5.28 0 10.56 0 16 0 C16 5.28 16 10.56 16 16 C10.72 16 5.44 16 0 16 C0 10.72 0 5.44 0 0 Z " fill="#000000" transform="translate(32,16)"/>
</svg>
