<?xml version="1.0" encoding="UTF-8"?>
<svg version="1.1" xmlns="http://www.w3.org/2000/svg" width="512" height="512">
<path d="M0 0 C5.2035839 1.93357216 9.14148032 6.07322647 13.14453125 9.796875 C13.66740723 10.27833984 14.1902832 10.75980469 14.72900391 11.25585938 C16.92910778 13.28183526 19.12560998 15.31135643 21.30957031 17.35473633 C24.63383686 20.45440355 28.03094053 23.39245952 31.58203125 26.234375 C36.6037535 30.26198629 41.27035886 34.59033356 45.95288086 38.99975586 C49.41531969 42.24250761 52.93749101 45.33124281 56.64453125 48.296875 C62.3408483 52.85729426 67.61772191 57.81422163 72.9375 62.80078125 C77.60846445 67.17804214 82.44200666 71.3483039 87.31640625 75.49609375 C88.5093944 76.51269256 89.7020933 77.52963088 90.89453125 78.546875 C91.49821533 79.06169434 92.10189941 79.57651367 92.72387695 80.10693359 C96.66939266 83.48790225 100.52556549 86.94805763 104.33203125 90.484375 C109.75135769 95.4990584 115.39977068 100.16312945 121.14453125 104.796875 C127.78113602 110.25178216 127.78113602 110.25178216 130.14453125 113.796875 C130.68089489 119.42869318 130.68089489 119.42869318 130.14453125 121.796875 C128.16453125 123.776875 128.16453125 123.776875 126.14453125 125.796875 C119.21453125 125.796875 112.28453125 125.796875 105.14453125 125.796875 C105.14453125 151.866875 105.14453125 177.936875 105.14453125 204.796875 C110.75453125 204.796875 116.36453125 204.796875 122.14453125 204.796875 C126.14453125 208.796875 126.14453125 208.796875 126.59863281 210.90332031 C126.56721191 212.00305176 126.56721191 212.00305176 126.53515625 213.125 C126.51582031 214.32382812 126.51582031 214.32382812 126.49609375 215.546875 C126.46257812 216.371875 126.4290625 217.196875 126.39453125 218.046875 C126.37648438 218.88734375 126.3584375 219.7278125 126.33984375 220.59375 C126.29283923 222.66194895 126.22109849 224.72955941 126.14453125 226.796875 C127.0365625 226.75046875 127.92859375 226.7040625 128.84765625 226.65625 C130.018125 226.62015625 131.18859375 226.5840625 132.39453125 226.546875 C133.5546875 226.50046875 134.71484375 226.4540625 135.91015625 226.40625 C139.14453125 226.796875 139.14453125 226.796875 141.31347656 228.35449219 C143.74563153 231.59866263 143.72164613 234.36482848 143.67578125 238.265625 C143.67960815 238.982948 143.68343506 239.700271 143.68737793 240.43933105 C143.69009352 241.95224414 143.6827568 243.46520445 143.66601562 244.97802734 C143.64459676 247.28980476 143.66582476 249.59847513 143.69140625 251.91015625 C143.68876291 253.38281934 143.68363778 254.8554805 143.67578125 256.328125 C143.68387817 257.01676636 143.6919751 257.70540771 143.70031738 258.41491699 C143.64292067 261.36232078 143.35804199 263.44786288 141.80967712 265.97887421 C137.50214095 268.917214 133.07899725 268.34678752 127.98461914 268.30480957 C126.25638334 268.31416951 126.25638334 268.31416951 124.49323368 268.32371855 C121.29454291 268.33692725 118.09645767 268.3321544 114.89778185 268.31977367 C111.44849426 268.31073587 107.99928952 268.32468655 104.55001831 268.33569336 C97.7926804 268.35349686 91.03552003 268.34963052 84.27817512 268.3380428 C78.78725205 268.32901591 73.2963788 268.32778123 67.80545044 268.33213806 C67.02449542 268.33275099 66.2435404 268.33336393 65.43892008 268.33399543 C63.85251513 268.33527431 62.26611019 268.33657116 60.67970526 268.3378858 C45.79760509 268.34929695 30.91560341 268.33616952 16.03351939 268.31468433 C3.25895057 268.29681284 -9.51547287 268.2999168 -22.29003906 268.31835938 C-37.11821799 268.33975666 -51.94631055 268.34819827 -66.77450275 268.33591032 C-68.35513114 268.3346361 -69.93575953 268.33337862 -71.51638794 268.33213806 C-72.29412424 268.33152096 -73.07186053 268.33090386 -73.87316459 268.33026806 C-79.35865056 268.32681172 -84.84408183 268.33264959 -90.32955933 268.34205627 C-97.01290845 268.35326498 -103.69606962 268.35026016 -110.37939715 268.3289333 C-113.79057459 268.31840746 -117.20143844 268.31432668 -120.61261368 268.32752991 C-124.30724429 268.33840389 -128.00098337 268.32481899 -131.69555664 268.30480957 C-133.319858 268.3181939 -133.319858 268.3181939 -134.97697353 268.33184862 C-142.1827572 268.255758 -142.1827572 268.255758 -145.52061462 265.97887421 C-147.44055544 262.84047185 -147.42871406 259.89981575 -147.38671875 256.328125 C-147.39054565 255.610802 -147.39437256 254.893479 -147.39831543 254.15441895 C-147.40103102 252.64150586 -147.3936943 251.12854555 -147.37695312 249.61572266 C-147.35553426 247.30394524 -147.37676226 244.99527487 -147.40234375 242.68359375 C-147.39970041 241.21093066 -147.39457528 239.7382695 -147.38671875 238.265625 C-147.39481567 237.57698364 -147.4029126 236.88834229 -147.41125488 236.17883301 C-147.3461933 232.83782715 -147.05074094 231.05734207 -145.02441406 228.35449219 C-141.98263396 226.17005307 -139.80282624 226.3989807 -136.10546875 226.546875 C-134.935 226.58296875 -133.76453125 226.6190625 -132.55859375 226.65625 C-131.6665625 226.70265625 -130.77453125 226.7490625 -129.85546875 226.796875 C-129.92507812 224.91742188 -129.92507812 224.91742188 -129.99609375 223 C-130.03361688 221.34898219 -130.07001646 219.69793858 -130.10546875 218.046875 C-130.13898438 217.221875 -130.1725 216.396875 -130.20703125 215.546875 C-130.21992188 214.74765625 -130.2328125 213.9484375 -130.24609375 213.125 C-130.26704102 212.3918457 -130.28798828 211.65869141 -130.30957031 210.90332031 C-129.85546875 208.796875 -129.85546875 208.796875 -125.85546875 204.796875 C-120.24546875 204.796875 -114.63546875 204.796875 -108.85546875 204.796875 C-108.85546875 178.726875 -108.85546875 152.656875 -108.85546875 125.796875 C-115.78546875 125.796875 -122.71546875 125.796875 -129.85546875 125.796875 C-133.85546875 121.796875 -133.85546875 121.796875 -134.73046875 118.171875 C-134.43667725 112.71140539 -130.56760768 109.80497446 -126.7578125 106.2890625 C-123.17431662 103.21198259 -119.5315663 100.22342177 -115.83984375 97.27734375 C-112.38622421 94.40686154 -109.12216878 91.37613416 -105.85546875 88.296875 C-100.96473382 83.69083844 -95.94777277 79.37071822 -90.69921875 75.171875 C-87.29911803 72.33223044 -84.0796043 69.33299401 -80.85546875 66.296875 C-76.79670147 62.47479609 -72.71250066 58.78250053 -68.35546875 55.296875 C-62.6591517 50.73645574 -57.38227809 45.77952837 -52.0625 40.79296875 C-47.39153555 36.41570786 -42.55799334 32.2454461 -37.68359375 28.09765625 C-36.49062978 27.08102907 -35.29792991 26.06409191 -34.10546875 25.046875 C-33.50323486 24.53350586 -32.90100098 24.02013672 -32.28051758 23.49121094 C-28.28784675 20.07090294 -24.3943651 16.56236207 -20.54296875 12.984375 C-18.6511406 11.25082729 -16.75559963 9.5213181 -14.85546875 7.796875 C-14.04207031 7.05695312 -13.22867188 6.31703125 -12.390625 5.5546875 C-8.59025688 2.31950233 -5.20346592 -0.53368881 0 0 Z M-2.85546875 20.796875 C-3.90734375 21.75787109 -3.90734375 21.75787109 -4.98046875 22.73828125 C-11.58492204 28.75946081 -18.23175873 34.71613858 -25.0390625 40.5078125 C-30.79518331 45.41037321 -36.50326829 50.33738057 -42.04296875 55.484375 C-45.66830083 58.85270947 -49.36779268 62.0760952 -53.23046875 65.171875 C-58.26963281 69.22353717 -62.96012646 73.57042116 -67.66357422 77.99951172 C-71.12608353 81.24235952 -74.64833723 84.33116979 -78.35546875 87.296875 C-87.01628765 94.23581003 -95.01386991 101.95527616 -102.85546875 109.796875 C-36.19546875 109.796875 30.46453125 109.796875 99.14453125 109.796875 C96.66953125 107.321875 96.66953125 107.321875 94.14453125 104.796875 C93.60570312 104.23484375 93.066875 103.6728125 92.51171875 103.09375 C89.22267622 99.68416664 85.77865089 96.63568458 82.08203125 93.671875 C77.58417706 90.05631594 73.34360003 86.25411858 69.14453125 82.296875 C65.08593317 78.47463089 61.00154357 74.78248485 56.64453125 71.296875 C51.64018805 67.29340044 46.99753823 62.98350792 42.3359375 58.59375 C38.87356914 55.35109429 35.35148022 52.26243417 31.64453125 49.296875 C27.2874409 45.81120272 23.20376364 42.11852323 19.14453125 38.296875 C9.02318188 28.30418143 9.02318188 28.30418143 -2.85546875 20.796875 Z M-92.85546875 125.796875 C-92.85546875 151.866875 -92.85546875 177.936875 -92.85546875 204.796875 C-90.21546875 204.796875 -87.57546875 204.796875 -84.85546875 204.796875 C-84.85546875 178.726875 -84.85546875 152.656875 -84.85546875 125.796875 C-87.49546875 125.796875 -90.13546875 125.796875 -92.85546875 125.796875 Z M-68.85546875 125.796875 C-68.85546875 151.866875 -68.85546875 177.936875 -68.85546875 204.796875 C-63.24546875 204.796875 -57.63546875 204.796875 -51.85546875 204.796875 C-51.85546875 178.726875 -51.85546875 152.656875 -51.85546875 125.796875 C-57.46546875 125.796875 -63.07546875 125.796875 -68.85546875 125.796875 Z M-35.85546875 125.796875 C-35.85546875 151.866875 -35.85546875 177.936875 -35.85546875 204.796875 C-33.54546875 204.796875 -31.23546875 204.796875 -28.85546875 204.796875 C-28.85546875 178.726875 -28.85546875 152.656875 -28.85546875 125.796875 C-31.16546875 125.796875 -33.47546875 125.796875 -35.85546875 125.796875 Z M-12.85546875 125.796875 C-12.85546875 151.866875 -12.85546875 177.936875 -12.85546875 204.796875 C-5.59546875 204.796875 1.66453125 204.796875 9.14453125 204.796875 C9.14453125 178.726875 9.14453125 152.656875 9.14453125 125.796875 C1.88453125 125.796875 -5.37546875 125.796875 -12.85546875 125.796875 Z M25.14453125 125.796875 C25.14453125 151.866875 25.14453125 177.936875 25.14453125 204.796875 C27.45453125 204.796875 29.76453125 204.796875 32.14453125 204.796875 C32.14453125 178.726875 32.14453125 152.656875 32.14453125 125.796875 C29.83453125 125.796875 27.52453125 125.796875 25.14453125 125.796875 Z M48.14453125 125.796875 C48.14453125 151.866875 48.14453125 177.936875 48.14453125 204.796875 C53.75453125 204.796875 59.36453125 204.796875 65.14453125 204.796875 C65.14453125 178.726875 65.14453125 152.656875 65.14453125 125.796875 C59.53453125 125.796875 53.92453125 125.796875 48.14453125 125.796875 Z M81.14453125 125.796875 C81.14453125 151.866875 81.14453125 177.936875 81.14453125 204.796875 C83.78453125 204.796875 86.42453125 204.796875 89.14453125 204.796875 C89.14453125 178.726875 89.14453125 152.656875 89.14453125 125.796875 C86.50453125 125.796875 83.86453125 125.796875 81.14453125 125.796875 Z M-113.85546875 220.796875 C-113.85546875 222.776875 -113.85546875 224.756875 -113.85546875 226.796875 C-39.93546875 226.796875 33.98453125 226.796875 110.14453125 226.796875 C110.14453125 224.816875 110.14453125 222.836875 110.14453125 220.796875 C36.22453125 220.796875 -37.69546875 220.796875 -113.85546875 220.796875 Z M-130.85546875 242.796875 C-130.85546875 245.766875 -130.85546875 248.736875 -130.85546875 251.796875 C-45.71546875 251.796875 39.42453125 251.796875 127.14453125 251.796875 C127.14453125 248.826875 127.14453125 245.856875 127.14453125 242.796875 C42.00453125 242.796875 -43.13546875 242.796875 -130.85546875 242.796875 Z " fill="#000000" transform="translate(257.85546875,4.203125)"/>
<path d="M0 0 C3.90946551 3.87811112 4.87544538 7.67036959 5.64404297 12.95092773 C5.83528748 14.13330521 5.83528748 14.13330521 6.03039551 15.33956909 C6.44916712 17.9521318 6.84566383 20.56756966 7.2421875 23.18359375 C7.53461915 25.0361905 7.82843912 26.88856857 8.12356567 28.74073792 C8.90111639 33.6444897 9.65991998 38.55096541 10.41479492 43.45825195 C11.16271097 48.30006602 11.92758834 53.13918931 12.69140625 57.97851562 C13.74264633 64.64804934 14.7857698 71.31875566 15.81843948 77.99118996 C17.10986447 86.33526657 18.42614886 94.67447711 19.78222656 103.00830078 C20.20268766 105.60802961 20.62272444 108.20782671 21.04269791 110.80763435 C21.30721449 112.43535883 21.57417632 114.06268818 21.84380722 115.68957329 C23.62665987 126.45004799 24.77594101 136.40833549 22.8125 147.25 C22.68012939 147.98234863 22.54775879 148.71469727 22.41137695 149.46923828 C21.08066674 156.32975553 18.91204161 162.64190342 16 169 C15.58105469 169.92039062 15.16210938 170.84078125 14.73046875 171.7890625 C10.99318617 179.26362766 5.84296982 185.21706748 0.36083984 191.4375 C-1.64963571 193.74590393 -3.5739666 196.12098567 -5.5 198.5 C-8.80624675 202.5633122 -12.16839799 206.57278858 -15.5625 210.5625 C-19.38950964 215.0672571 -23.14861412 219.61378874 -26.81640625 224.25 C-28.56190459 226.44826624 -30.32097108 228.63312042 -32.08984375 230.8125 C-32.6319751 231.48297363 -33.17410645 232.15344727 -33.73266602 232.84423828 C-34.80723741 234.17295611 -35.88444787 235.49954506 -36.96459961 236.82373047 C-37.45839111 237.43619629 -37.95218262 238.04866211 -38.4609375 238.6796875 C-38.90228027 239.22351074 -39.34362305 239.76733398 -39.79833984 240.32763672 C-44.12040631 246.34270281 -43.48845559 252.45942695 -42.72265625 259.578125 C-41.88015066 264.53341669 -41.88015066 264.53341669 -38.375 268 C-36 270 -36 270 -35.65119934 271.89173889 C-35.6322986 277.63596686 -36.69220141 281.67556819 -39.32421875 286.74609375 C-39.6674971 287.44211197 -40.01077545 288.13813019 -40.36445618 288.85523987 C-41.45565096 291.05801593 -42.57085315 293.24753597 -43.6875 295.4375 C-44.41764903 296.90087886 -45.14617797 298.36506724 -45.87304688 299.83007812 C-47.26977097 302.63886448 -48.67840325 305.44106947 -50.09912109 308.23779297 C-52.09235664 312.16462627 -54.01208754 316.125905 -55.90551758 320.10180664 C-57.09583521 322.16620985 -58.16846001 323.47360642 -60 325 C-66.61493983 326.46099784 -72.09963516 324.08091698 -77.86328125 321.08203125 C-78.68475143 320.67329269 -79.50622162 320.26455414 -80.35258484 319.84342957 C-83.01409378 318.51548459 -85.66284889 317.16392465 -88.3125 315.8125 C-91.08879642 314.42177501 -93.86827598 313.03755619 -96.6479187 311.65353394 C-98.4978382 310.73185638 -100.34673998 309.80813325 -102.1946106 308.88235474 C-109.73309687 305.10924928 -117.33624918 301.51135511 -125 298 C-127.18637754 296.99127465 -129.37257906 295.98216769 -131.55859375 294.97265625 C-132.60901855 294.48812988 -133.65944336 294.00360352 -134.74169922 293.50439453 C-140.52442577 290.83444391 -146.30006329 288.15099325 -152.0625 285.4375 C-153.65288086 284.70370117 -153.65288086 284.70370117 -155.27539062 283.95507812 C-156.24798828 283.49423828 -157.22058594 283.03339844 -158.22265625 282.55859375 C-159.07609619 282.15954834 -159.92953613 281.76050293 -160.80883789 281.34936523 C-163.45790774 279.71801046 -164.65517679 278.83695717 -166 276 C-166.31898003 269.43072586 -164.01908707 264.0145239 -161.10546875 258.2734375 C-160.71684158 257.48152008 -160.32821442 256.68960266 -159.92781067 255.87368774 C-158.69378975 253.36757953 -157.44082423 250.87150009 -156.1875 248.375 C-155.35751202 246.69330594 -154.52872525 245.01101846 -153.70117188 243.328125 C-143.87453377 223.43726689 -143.87453377 223.43726689 -141 222 C-133.19172932 221.62218045 -133.19172932 221.62218045 -129 224 C-128.91363281 222.87464844 -128.82726562 221.74929688 -128.73828125 220.58984375 C-126.69000443 197.10413705 -117.72249761 177.8833705 -100 162 C-98.48851852 160.86246636 -96.96750462 159.73749489 -95.4375 158.625 C-86.60933028 151.89019025 -82.152893 141.78173033 -77.5625 131.9375 C-76.99756836 130.75099854 -76.43263672 129.56449707 -75.85058594 128.34204102 C-73.40461262 123.1921261 -70.99492508 118.03124595 -68.69921875 112.8125 C-62.88552481 99.67502495 -55.34832595 89.3781379 -41.75 83.625 C-39.05333293 83.01212112 -36.75122471 82.95383851 -34 83 C-34.01918991 82.33316193 -34.03837982 81.66632385 -34.05815125 80.97927856 C-34.25568325 74.00352404 -34.43033291 67.02745616 -34.59204102 60.05078125 C-34.65524858 57.45134981 -34.72417956 54.85205071 -34.79907227 52.25292969 C-34.90606014 48.50476375 -34.99207186 44.7565954 -35.07421875 41.0078125 C-35.1302552 39.28064499 -35.1302552 39.28064499 -35.18742371 37.51858521 C-35.38872927 26.57819612 -33.19075358 17.45399407 -26 9 C-18.89890486 2.38963095 -9.90412066 -2.30540021 0 0 Z M-12 20 C-16.67332902 25.14066192 -18.15430631 28.14229615 -18.06933594 35.17993164 C-18.05892273 36.21102554 -18.04850952 37.24211945 -18.03778076 38.30445862 C-18.02015686 39.41183884 -18.00253296 40.51921906 -17.984375 41.66015625 C-17.96787903 42.80157578 -17.95138306 43.9429953 -17.93438721 45.1190033 C-17.89691301 47.53063714 -17.85636988 49.94222496 -17.81298828 52.35375977 C-17.75018613 56.05154097 -17.7087989 59.7491851 -17.66796875 63.44726562 C-17.62892625 65.78908491 -17.58860504 68.13088331 -17.546875 70.47265625 C-17.53734802 71.5820607 -17.52782104 72.69146515 -17.51800537 73.83448792 C-17.4834726 75.37640053 -17.4834726 75.37640053 -17.44824219 76.94946289 C-17.43412292 77.85451065 -17.42000366 78.75955841 -17.40545654 79.69203186 C-16.91733438 82.47055505 -16.21114653 83.29983254 -14 85 C-12.96875 85.515625 -11.9375 86.03125 -10.875 86.5625 C-8 88 -8 88 -7 90 C-6.57799093 95.41433072 -7.59988087 99.25057247 -9.97265625 104.03125 C-10.28732346 104.69265488 -10.60199066 105.35405975 -10.92619324 106.0355072 C-11.95851421 108.19692187 -13.00990731 110.34839421 -14.0625 112.5 C-14.78653993 114.00217598 -15.50950788 115.50486908 -16.23144531 117.00805664 C-17.72632739 120.11570102 -19.22907578 123.21937642 -20.73681641 126.32080078 C-22.5906063 130.14155347 -24.41353567 133.97589887 -26.22190857 137.81832886 C-27.56903815 140.68022554 -28.92484827 143.53795746 -30.28219604 146.39501953 C-30.92432876 147.75019433 -31.56346026 149.10679553 -32.19949341 150.46484375 C-33.08660935 152.3551742 -33.98683623 154.2386902 -34.890625 156.12109375 C-35.39625977 157.1877124 -35.90189453 158.25433105 -36.42285156 159.35327148 C-38.03575857 162.06000907 -39.29416419 163.4245271 -42 165 C-44.359375 165.07421875 -44.359375 165.07421875 -46.75 164.6875 C-47.54921875 164.56761719 -48.3484375 164.44773437 -49.171875 164.32421875 C-49.77515625 164.21722656 -50.3784375 164.11023438 -51 164 C-53.49967719 156.50096842 -51.37539461 151.96034996 -47.98510742 145.10131836 C-47.41252197 143.9747583 -46.83993652 142.84819824 -46.25 141.6875 C-45.36502263 139.89971042 -44.4800891 138.11189714 -43.59806824 136.32264709 C-42.99038661 135.09056261 -42.3811675 133.85923532 -41.77046204 132.62864685 C-38.46103067 125.95106585 -35.31265966 119.2031382 -32.1875 112.4375 C-31.66639648 111.32012451 -31.14529297 110.20274902 -30.60839844 109.05151367 C-29.89538574 107.50814331 -29.89538574 107.50814331 -29.16796875 105.93359375 C-28.74797607 105.02665771 -28.3279834 104.11972168 -27.89526367 103.18530273 C-26.87363476 101.08514365 -26.87363476 101.08514365 -27 99 C-34.57171956 99.24037205 -39.31550395 100.93543386 -45 106 C-52.44564746 115.74893946 -57.03996506 128.31657701 -62.2565918 139.35327148 C-68.00136989 151.48327473 -73.34348594 162.26559753 -83.5625 171.25 C-84.50867188 172.09175781 -85.45484375 172.93351563 -86.4296875 173.80078125 C-88.3168686 175.415497 -90.21014721 176.9409789 -92.1875 178.4375 C-102.12937427 187.49565211 -110.3156714 201.90070816 -111.15478516 215.51049805 C-111.19562681 218.17676946 -111.17537599 220.83394768 -111.125 223.5 C-111.11597656 224.4178125 -111.10695313 225.335625 -111.09765625 226.28125 C-111.07432432 228.52111556 -111.04159235 230.76041183 -111 233 C-100.61767312 238.21882038 -90.20492274 243.37009388 -79.7487793 248.43945312 C-77.51051635 249.52521686 -75.27381149 250.61415015 -73.03710938 251.703125 C-71.60946746 252.39602387 -70.1817367 253.08873973 -68.75390625 253.78125 C-68.08742569 254.10613403 -67.42094513 254.43101807 -66.73426819 254.76574707 C-63.98745038 256.32754383 -63.98745038 256.32754383 -61 257 C-60.97421875 256.10539063 -60.9484375 255.21078125 -60.921875 254.2890625 C-60.29987488 241.02915094 -57.10542174 233.60887049 -48.43359375 223.66650391 C-45.60019206 220.37277094 -42.87556943 216.98788437 -40.125 213.625 C-35.83180871 208.40277135 -31.50571025 203.21149801 -27.125 198.0625 C-23.37502353 193.65080249 -19.68460926 189.20119117 -16.1015625 184.65234375 C-14.51188145 182.64603625 -12.90290938 180.66490277 -11.2734375 178.69140625 C0.37758799 164.44688456 8.51556573 148.4208572 6.76737213 129.47952271 C5.86554546 122.12068919 4.62617682 114.81272853 3.4140625 107.5 C3.03260123 105.13179817 2.65244489 102.76338582 2.27352905 100.39477539 C1.27780451 94.1935241 0.26399069 87.99536359 -0.75360107 81.79766846 C-1.78729899 75.48024204 -2.80277402 69.15988909 -3.8203125 62.83984375 C-5.30786483 53.61961573 -6.80110276 44.40034513 -8.31005859 35.18359375 C-8.46699692 34.22146469 -8.62393524 33.25933563 -8.78562927 32.26805115 C-8.93148972 31.37965042 -9.07735016 30.49124969 -9.22763062 29.57592773 C-9.41624192 28.42458595 -9.41624192 28.42458595 -9.60866356 27.24998474 C-10.03060171 24.82405581 -10.50776156 22.41255967 -11 20 C-11.33 20 -11.66 20 -12 20 Z M-134 242 C-137.96 250.58 -141.92 259.16 -146 268 C-143.24910162 270.06317378 -141.2865701 271.47527083 -138.30249023 272.87841797 C-137.58818848 273.21706375 -136.87388672 273.55570953 -136.13793945 273.90461731 C-134.98491333 274.44296455 -134.98491333 274.44296455 -133.80859375 274.9921875 C-132.99874023 275.37489304 -132.18888672 275.75759857 -131.35449219 276.15190125 C-128.71744526 277.3971193 -126.07754267 278.63614773 -123.4375 279.875 C-119.80127217 281.58812565 -116.16628085 283.30386755 -112.53125 285.01953125 C-111.62934433 285.444655 -110.72743866 285.86977875 -109.79820251 286.30778503 C-104.38070934 288.86433516 -98.97839373 291.44921388 -93.59375 294.07421875 C-92.96984879 294.37781311 -92.34594757 294.68140747 -91.70314026 294.99420166 C-88.86116163 296.37795529 -86.0221674 297.76734292 -83.18725586 299.16552734 C-78.17489571 301.60754041 -73.43236521 303.71238468 -68 305 C-67.46890625 303.9378125 -66.9378125 302.875625 -66.390625 301.78125 C-64.97395833 298.94791667 -63.55729167 296.11458333 -62.140625 293.28125 C-61.79064453 292.57742188 -61.44066406 291.87359375 -61.08007812 291.1484375 C-60.34638513 289.68901202 -59.5997867 288.23601778 -58.84179688 286.7890625 C-58.29362305 285.73332031 -58.29362305 285.73332031 -57.734375 284.65625 C-57.40147461 284.02525391 -57.06857422 283.39425781 -56.72558594 282.74414062 C-55.80794929 280.85319584 -55.80794929 280.85319584 -56 278 C-74.60469647 268.88689901 -93.20885819 259.78770134 -112.04003906 251.1496582 C-113.08256836 250.67101318 -114.12509766 250.19236816 -115.19921875 249.69921875 C-116.17552246 249.2511084 -117.15182617 248.80299805 -118.15771484 248.34130859 C-121.80577373 246.61974567 -125.38496767 244.77616754 -128.95239258 242.89379883 C-131.0858815 241.79997186 -131.0858815 241.79997186 -134 242 Z " fill="#000000" transform="translate(458,182)"/>
<path d="M0 0 C9.04044231 3.06588913 15.69119038 7.93046579 20.2734375 16.3359375 C22.97442158 22.10186806 24.15396498 27.22502591 24.02172852 33.61645508 C24.00163223 34.71721878 23.98153595 35.81798248 23.96083069 36.95210266 C23.92027809 38.71797981 23.92027809 38.71797981 23.87890625 40.51953125 C23.84348976 42.34009285 23.84348976 42.34009285 23.80735779 44.19743347 C23.73086082 48.06924542 23.64677591 51.94085032 23.5625 55.8125 C23.50926537 58.43944304 23.45652506 61.06639614 23.40429688 63.69335938 C23.2752645 70.12903402 23.14000385 76.56455519 23 83 C24.99699402 83.23193359 26.99398804 83.46386719 28.99098206 83.69580078 C37.66158216 85.00867595 44.87108723 91.25282682 50 98 C55.22736438 106.23243553 59.20809534 115.21882821 63.2421875 124.07421875 C63.52227661 124.68662918 63.80236572 125.29903961 64.09094238 125.93000793 C65.47465952 128.95878621 66.84154765 131.99218768 68.18261719 135.0402832 C72.58730828 144.82128842 77.74826418 154.18959976 86.5 160.6875 C102.86779668 173.49315911 113.30141152 190.38618871 117 211 C117.47795803 215.32946452 117.7965053 219.64942366 118 224 C118.86818359 223.51853516 118.86818359 223.51853516 119.75390625 223.02734375 C123.06686314 221.51202608 126.49446828 221.06649714 130 222 C133.80122189 225.35894494 136.00994904 228.48008074 138.0859375 233.0859375 C138.88898315 234.84333252 138.88898315 234.84333252 139.70825195 236.63623047 C140.26425988 237.88229732 140.81983534 239.12855722 141.375 240.375 C141.94978331 241.64644033 142.52555201 242.91743565 143.10229492 244.18798828 C143.95594186 246.06946806 144.80857287 247.95134398 145.65647888 249.8354187 C147.18942181 253.23859152 148.76007474 256.6170055 150.40234375 259.96875 C150.73379395 260.6488916 151.06524414 261.3290332 151.40673828 262.02978516 C152.24057207 263.72846866 153.08278577 265.42303194 153.92578125 267.1171875 C155.16193152 270.43456532 155.57476452 272.49533827 155 276 C151.74684499 279.7418988 148.61301964 281.9855712 144.15234375 284.09375 C143.00491699 284.64200439 141.85749023 285.19025879 140.67529297 285.75512695 C139.42947336 286.33698983 138.18353911 286.91860732 136.9375 287.5 C135.63127285 288.119192 134.32545278 288.73924342 133.02001953 289.36010742 C123.37727193 293.93391984 113.69122326 298.41851306 103.98876953 302.86401367 C97.19033722 305.99460745 90.46814577 309.24059767 83.77734375 312.59375 C82.19038566 313.38394618 80.60330901 314.17390429 79.01611328 314.96362305 C76.68321364 316.12466136 74.35416079 317.29117174 72.03460693 318.47866821 C69.88095625 319.58116112 67.71728481 320.66131799 65.55078125 321.73828125 C64.60548805 322.2341272 64.60548805 322.2341272 63.64109802 322.73999023 C58.89948268 325.06046747 54.24504878 326.22127877 49 325 C44.36277378 320.9247133 41.99085103 315.49570348 39.35546875 309.98046875 C38.94081863 309.1224617 38.52616852 308.26445465 38.09895325 307.38044739 C37.22975413 305.57313351 36.36522014 303.76356935 35.50512695 301.9519043 C34.19218622 299.19733177 32.85185786 296.45726026 31.50976562 293.71679688 C30.6649547 291.95133903 29.82179984 290.18508756 28.98046875 288.41796875 C28.58055222 287.60829147 28.18063568 286.7986142 27.76860046 285.96440125 C25.33840731 280.75527034 23.82748858 275.77932519 25 270 C26.63260714 268.62517293 28.30225062 267.29352333 30 266 C31.23268431 263.07005186 31.63988985 260.14496202 32 257 C32.10699219 256.10410156 32.21398437 255.20820313 32.32421875 254.28515625 C32.80144359 246.72379378 30.76468828 242.71579688 26 237 C25.59249512 236.50741699 25.18499023 236.01483398 24.76513672 235.50732422 C22.44586463 232.71178063 20.09734679 229.94335975 17.7265625 227.19140625 C15.42091779 224.50892327 13.19337531 221.77556752 11 219 C7.97498472 215.1802251 4.85212804 211.45413493 1.6875 207.75 C-2.6993443 202.60619805 -6.93811563 197.36413047 -11.07641602 192.01831055 C-13.07719644 189.43446405 -15.08789008 186.89805368 -17.22265625 184.421875 C-30.0283846 169.51886937 -35.7936754 149.44301353 -35 130 C-34.56959551 125.96277958 -33.93803649 121.96721908 -33.28759766 117.96020508 C-33.01443977 116.21923805 -33.01443977 116.21923805 -32.73576355 114.44309998 C-32.13607987 110.63400596 -31.52533092 106.82678193 -30.9140625 103.01953125 C-30.49154931 100.36037199 -30.07109997 97.70088724 -29.65048218 95.04142761 C-28.76968682 89.48029618 -27.88287941 83.92015016 -26.9921875 78.3605957 C-25.96478489 71.94738702 -24.94587411 65.53287481 -23.93172228 59.1175583 C-22.952397 52.92323714 -21.96810527 46.72971605 -20.98121262 40.5365963 C-20.56277756 37.91060803 -20.1460752 35.28436275 -19.73018265 32.65796852 C-19.14818598 28.98847465 -18.560498 25.31993739 -17.97119141 21.65161133 C-17.80071793 20.57040009 -17.63024445 19.48918884 -17.4546051 18.37521362 C-15.26143107 4.8228989 -15.26143107 4.8228989 -12.68359375 1.09765625 C-8.87918924 -1.38270956 -4.3045829 -0.65351886 0 0 Z M0 20 C-2.36168983 34.31948322 -4.70731086 48.64151293 -7.03619385 62.96636963 C-8.230065 70.30485502 -9.43577196 77.64122627 -10.65606022 84.97536564 C-11.62148859 90.78239002 -12.57102146 96.59193502 -13.51565552 102.40237427 C-13.91903298 104.86670004 -14.32771088 107.33016457 -14.74191284 109.79269409 C-15.32390984 113.25807542 -15.88663375 116.72610614 -16.4453125 120.1953125 C-16.70552437 121.70317574 -16.70552437 121.70317574 -16.97099304 123.24150085 C-19.64077466 140.23670622 -15.99284489 156.94923778 -6 171 C-2.61860912 175.2670221 0.99217863 179.33171981 4.60449219 183.40283203 C6.49574838 185.56738731 8.28409425 187.80472974 10.0625 190.0625 C13.12966104 193.94587021 16.29214969 197.73314823 19.5 201.5 C23.35408862 206.03094573 27.14588747 210.59746357 30.82421875 215.2734375 C32.52922668 217.41005426 34.26077438 219.5098027 36.01953125 221.6015625 C45.73786276 233.2514787 49.55347512 241.5055865 50 257 C62.00254691 251.71832045 73.87756366 246.19707052 85.6875 240.5 C86.34140717 240.18536804 86.99531433 239.87073608 87.66903687 239.54656982 C89.53451281 238.64818563 91.39841457 237.74662851 93.26171875 236.84375 C94.34412842 236.31974609 95.42653809 235.79574219 96.54174805 235.25585938 C98.88457324 234.21809291 98.88457324 234.21809291 100 233 C101.8260123 215.01692717 97.97249808 198.77431904 86.8984375 184.2421875 C82.60234372 179.27814981 77.96000204 175.13333482 72.65234375 171.27734375 C65.36059117 165.01653115 60.44967787 157.98859183 56.1875 149.4375 C55.68323486 148.45313965 55.17896973 147.4687793 54.65942383 146.45458984 C50.4566614 138.15654246 46.57870421 129.70815174 42.91674805 121.15795898 C38.99750381 112.25211816 34.30189002 103.84905794 25 100 C21.9968437 99.44261419 19.0454843 99.17287217 16 99 C17.89664884 105.16008502 20.21959679 110.89022522 23.08984375 116.65625 C23.47564102 117.44342407 23.86143829 118.23059814 24.25892639 119.04162598 C25.47979765 121.53040872 26.70824011 124.0153515 27.9375 126.5 C29.16176796 128.98531961 30.38437971 131.47143858 31.60536194 133.95837402 C32.36115008 135.49665633 33.11900254 137.03392695 33.87937927 138.56994629 C35.71335109 142.29160315 37.5083333 146.03042805 39.24438477 149.79882812 C39.5739064 150.51107544 39.90342804 151.22332275 40.24293518 151.95715332 C41.79863588 156.1550211 41.3839432 159.84817039 40 164 C38.61135566 164.30556226 37.21318736 164.56800808 35.8125 164.8125 C35.03519531 164.96332031 34.25789063 165.11414063 33.45703125 165.26953125 C29.68514892 164.85576355 28.46486986 162.8120281 26 160 C24.47271151 157.53058907 23.23149487 154.95748257 21.99609375 152.33203125 C21.63563461 151.58758255 21.27517548 150.84313385 20.90379333 150.0761261 C19.73752983 147.65995125 18.58687185 145.23675017 17.4375 142.8125 C16.6380751 141.14215559 15.83810385 139.47207257 15.03759766 137.80224609 C13.43610678 134.45531011 11.84223104 131.10489917 10.25439453 127.75146484 C8.53571011 124.1226446 6.79973708 120.50266997 5.0526886 116.88743591 C3.64768205 113.97253248 2.26198842 111.04850986 0.875 108.125 C0.37282959 107.08835205 -0.12934082 106.0517041 -0.64672852 104.98364258 C-3.08857566 99.75699469 -4.80589482 95.79476753 -4 90 C-1.49836132 86.57182847 1.11315892 85.47069662 5 84 C6.22495799 81.55008402 6.17791055 79.85056047 6.25292969 77.1105957 C6.28255798 76.09226151 6.31218628 75.07392731 6.3427124 74.0247345 C6.36883606 72.91957993 6.39495972 71.81442535 6.421875 70.67578125 C6.44977112 69.54101852 6.47766724 68.4062558 6.50640869 67.23710632 C6.56288577 64.83041656 6.61649344 62.42365804 6.66748047 60.0168457 C6.74928305 56.34468429 6.85291125 52.67354008 6.95703125 49.00195312 C7.00917051 46.66409239 7.05999402 44.32620187 7.109375 41.98828125 C7.14359558 40.89324783 7.17781616 39.79821442 7.21307373 38.66999817 C7.31225953 32.64358065 7.10829572 28.23926317 4 23 C2.69749258 21.96016723 1.36788844 20.95218642 0 20 Z M112.59765625 245.48046875 C111.85598206 245.84504181 111.11430786 246.20961487 110.35015869 246.5852356 C108.75149422 247.37149362 107.15407404 248.1602856 105.55776978 248.95132446 C101.3624475 251.02971888 97.15785519 253.08915846 92.953125 255.1484375 C92.10917679 255.56215103 91.26522858 255.97586456 90.39570618 256.40211487 C81.64320098 260.68254944 72.81517015 264.78892379 63.95922852 268.8503418 C57.57595934 271.78170163 51.25914885 274.81163991 45 278 C45.95513346 283.73592899 48.39104497 288.53580544 50.875 293.75 C51.32230469 294.72066406 51.76960938 295.69132812 52.23046875 296.69140625 C52.66746094 297.61308594 53.10445312 298.53476562 53.5546875 299.484375 C53.95155762 300.32709961 54.34842773 301.16982422 54.75732422 302.03808594 C55.91482115 304.32284634 55.91482115 304.32284634 59 305 C61.47380842 304.19754295 61.47380842 304.19754295 64.1875 302.8515625 C65.79902954 302.09758179 65.79902954 302.09758179 67.44311523 301.32836914 C68.61688721 300.76625732 69.79065918 300.20414551 71 299.625 C72.23284776 299.04288877 73.46600923 298.46144152 74.69946289 297.88061523 C86.45710435 292.32560592 98.14965194 286.62979919 109.83007812 280.91455078 C118.17314837 276.83484247 126.54615786 272.84680391 135 269 C131.49681133 259.76466249 127.25640645 250.90539407 123 242 C118.98100499 242 116.11462587 243.72208442 112.59765625 245.48046875 Z " fill="#000000" transform="translate(65,182)"/>
<path d="M0 0 C6.55907504 5.76746254 10.31989509 13.82654286 11.35546875 22.41796875 C11.76236086 31.65835723 9.28333182 39.49177712 3.4140625 46.66796875 C-1.87831003 52.20857639 -9.22604503 56.4173791 -16.96484375 57.03125 C-28.62544789 57.27444592 -36.41038199 55.18190086 -44.98046875 47.08203125 C-51.96170785 39.01298566 -53.69102369 30.15192756 -52.9609375 19.79296875 C-51.56093912 11.16178608 -47.55060413 4.2838064 -40.5625 -1.03125 C-27.25942871 -9.48381684 -12.8721936 -9.21066857 0 0 Z M-31.48828125 14.22265625 C-34.51743123 17.75227449 -35.82828272 20.41335906 -36.2734375 25.04296875 C-35.84599436 30.17228648 -34.36512012 33.72354573 -30.41796875 37.12109375 C-26.10710036 39.92266497 -22.0173892 40.74851868 -16.9609375 39.79296875 C-12.53864048 38.35482338 -9.80243002 36.12289257 -7.4609375 32.10546875 C-5.50060228 27.51998897 -5.35988881 23.51987442 -6.9609375 18.79296875 C-9.33452511 14.75249275 -11.82463924 12.31566595 -16.0859375 10.35546875 C-21.9383404 9.2104334 -27.09015647 10.10574149 -31.48828125 14.22265625 Z " fill="#000000" transform="translate(276.9609375,54.20703125)"/>
</svg>
