<svg xmlns="http://www.w3.org/2000/svg" width="23" height="23" viewBox="0 0 23 23">
  <g id="Grupo_17" data-name="Grupo 17" transform="translate(-163 -115.028)">
    <circle id="Elipse_3" data-name="Elipse 3" cx="11.5" cy="11.5" r="11.5" transform="translate(163 115.028)" fill="#80c342"/>
    <path id="phone-alt-solid" d="M12.046,8.768,9.333,7.606a.581.581,0,0,0-.678.167l-1.2,1.468A8.977,8.977,0,0,1,3.163,4.949l1.468-1.2A.58.58,0,0,0,4.8,3.07L3.635.358A.585.585,0,0,0,2.969.021L.45.6A.581.581,0,0,0,0,1.169,11.236,11.236,0,0,0,11.237,12.406a.581.581,0,0,0,.567-.45l.581-2.519a.588.588,0,0,0-.339-.668Z" transform="translate(168.208 120.184)" fill="#fff"/>
  </g>
</svg>
